G04 #@! TF.GenerationSoftware,KiCad,Pcbnew,(5.1.6)-1*
G04 #@! TF.CreationDate,2020-10-03T02:05:24+08:00*
G04 #@! TF.ProjectId,nrfmicro,6e72666d-6963-4726-9f2e-6b696361645f,rev?*
G04 #@! TF.SameCoordinates,Original*
G04 #@! TF.FileFunction,Paste,Top*
G04 #@! TF.FilePolarity,Positive*
%FSLAX46Y46*%
G04 Gerber Fmt 4.6, Leading zero omitted, Abs format (unit mm)*
G04 Created by KiCad (PCBNEW (5.1.6)-1) date 2020-10-03 02:05:24*
%MOMM*%
%LPD*%
G01*
G04 APERTURE LIST*
%ADD10R,0.650000X1.000000*%
%ADD11R,1.000000X0.650000*%
%ADD12R,0.300000X0.800000*%
%ADD13R,0.600000X0.800000*%
%ADD14R,0.500000X0.500000*%
%ADD15R,0.650000X1.060000*%
%ADD16R,0.900000X0.800000*%
G04 APERTURE END LIST*
D10*
X27743000Y-36062000D03*
X23933000Y-36062000D03*
X25203000Y-36062000D03*
X29013000Y-36062000D03*
X26473000Y-36062000D03*
X31553000Y-36062000D03*
X30283000Y-36062000D03*
D11*
X23679000Y-47492000D03*
X23679000Y-46222000D03*
X23679000Y-44952000D03*
X23679000Y-43682000D03*
X23679000Y-42412000D03*
X23679000Y-41142000D03*
X23679000Y-39872000D03*
D10*
X27110000Y-34351000D03*
X23300000Y-34351000D03*
X28380000Y-34351000D03*
X29650000Y-34351000D03*
X30920000Y-34351000D03*
X25840000Y-34351000D03*
X32190000Y-34351000D03*
X24570000Y-34351000D03*
D11*
X21601000Y-36570000D03*
X21601000Y-37840000D03*
X21601000Y-42920000D03*
X21601000Y-39110000D03*
X21601000Y-44190000D03*
X21601000Y-45460000D03*
X21601000Y-46730000D03*
X21601000Y-41650000D03*
X21601000Y-48000000D03*
X21601000Y-40380000D03*
X33839000Y-48000000D03*
X33839000Y-46730000D03*
X33839000Y-45460000D03*
X33839000Y-44190000D03*
X33839000Y-42920000D03*
X33839000Y-41650000D03*
X33839000Y-40380000D03*
X33839000Y-39110000D03*
X33839000Y-37840000D03*
X33839000Y-36570000D03*
X23679000Y-38602000D03*
D12*
X25971600Y-24600000D03*
X26471600Y-24600000D03*
X29471600Y-24600000D03*
X28971600Y-24600000D03*
X27971600Y-24600000D03*
X27471600Y-24600000D03*
X28471600Y-24600000D03*
X26971600Y-24600000D03*
D13*
X25321600Y-24600000D03*
X30121600Y-24600000D03*
X30921600Y-24600000D03*
X24521600Y-24600000D03*
D14*
X27721600Y-28545500D03*
X27721600Y-26345500D03*
D15*
X30576600Y-29457000D03*
X29626600Y-29457000D03*
X28676600Y-29457000D03*
X28676600Y-31657000D03*
X30576600Y-31657000D03*
X26766600Y-31657000D03*
X24866600Y-31657000D03*
X24866600Y-29457000D03*
X25816600Y-29457000D03*
X26766600Y-29457000D03*
G36*
G01*
X33325000Y-32643750D02*
X33325000Y-33156250D01*
G75*
G02*
X33106250Y-33375000I-218750J0D01*
G01*
X32668750Y-33375000D01*
G75*
G02*
X32450000Y-33156250I0J218750D01*
G01*
X32450000Y-32643750D01*
G75*
G02*
X32668750Y-32425000I218750J0D01*
G01*
X33106250Y-32425000D01*
G75*
G02*
X33325000Y-32643750I0J-218750D01*
G01*
G37*
G36*
G01*
X31750000Y-32643750D02*
X31750000Y-33156250D01*
G75*
G02*
X31531250Y-33375000I-218750J0D01*
G01*
X31093750Y-33375000D01*
G75*
G02*
X30875000Y-33156250I0J218750D01*
G01*
X30875000Y-32643750D01*
G75*
G02*
X31093750Y-32425000I218750J0D01*
G01*
X31531250Y-32425000D01*
G75*
G02*
X31750000Y-32643750I0J-218750D01*
G01*
G37*
G36*
G01*
X32406250Y-30225000D02*
X31893750Y-30225000D01*
G75*
G02*
X31675000Y-30006250I0J218750D01*
G01*
X31675000Y-29568750D01*
G75*
G02*
X31893750Y-29350000I218750J0D01*
G01*
X32406250Y-29350000D01*
G75*
G02*
X32625000Y-29568750I0J-218750D01*
G01*
X32625000Y-30006250D01*
G75*
G02*
X32406250Y-30225000I-218750J0D01*
G01*
G37*
G36*
G01*
X32406250Y-31800000D02*
X31893750Y-31800000D01*
G75*
G02*
X31675000Y-31581250I0J218750D01*
G01*
X31675000Y-31143750D01*
G75*
G02*
X31893750Y-30925000I218750J0D01*
G01*
X32406250Y-30925000D01*
G75*
G02*
X32625000Y-31143750I0J-218750D01*
G01*
X32625000Y-31581250D01*
G75*
G02*
X32406250Y-31800000I-218750J0D01*
G01*
G37*
G36*
G01*
X33981250Y-31800000D02*
X33468750Y-31800000D01*
G75*
G02*
X33250000Y-31581250I0J218750D01*
G01*
X33250000Y-31143750D01*
G75*
G02*
X33468750Y-30925000I218750J0D01*
G01*
X33981250Y-30925000D01*
G75*
G02*
X34200000Y-31143750I0J-218750D01*
G01*
X34200000Y-31581250D01*
G75*
G02*
X33981250Y-31800000I-218750J0D01*
G01*
G37*
G36*
G01*
X33981250Y-30225000D02*
X33468750Y-30225000D01*
G75*
G02*
X33250000Y-30006250I0J218750D01*
G01*
X33250000Y-29568750D01*
G75*
G02*
X33468750Y-29350000I218750J0D01*
G01*
X33981250Y-29350000D01*
G75*
G02*
X34200000Y-29568750I0J-218750D01*
G01*
X34200000Y-30006250D01*
G75*
G02*
X33981250Y-30225000I-218750J0D01*
G01*
G37*
G36*
G01*
X30268750Y-27725000D02*
X30781250Y-27725000D01*
G75*
G02*
X31000000Y-27943750I0J-218750D01*
G01*
X31000000Y-28381250D01*
G75*
G02*
X30781250Y-28600000I-218750J0D01*
G01*
X30268750Y-28600000D01*
G75*
G02*
X30050000Y-28381250I0J218750D01*
G01*
X30050000Y-27943750D01*
G75*
G02*
X30268750Y-27725000I218750J0D01*
G01*
G37*
G36*
G01*
X30268750Y-26150000D02*
X30781250Y-26150000D01*
G75*
G02*
X31000000Y-26368750I0J-218750D01*
G01*
X31000000Y-26806250D01*
G75*
G02*
X30781250Y-27025000I-218750J0D01*
G01*
X30268750Y-27025000D01*
G75*
G02*
X30050000Y-26806250I0J218750D01*
G01*
X30050000Y-26368750D01*
G75*
G02*
X30268750Y-26150000I218750J0D01*
G01*
G37*
D16*
X23669500Y-28334500D03*
X23669500Y-26434500D03*
X21669500Y-27384500D03*
G36*
G01*
X24671350Y-27732000D02*
X25183850Y-27732000D01*
G75*
G02*
X25402600Y-27950750I0J-218750D01*
G01*
X25402600Y-28388250D01*
G75*
G02*
X25183850Y-28607000I-218750J0D01*
G01*
X24671350Y-28607000D01*
G75*
G02*
X24452600Y-28388250I0J218750D01*
G01*
X24452600Y-27950750D01*
G75*
G02*
X24671350Y-27732000I218750J0D01*
G01*
G37*
G36*
G01*
X24671350Y-26157000D02*
X25183850Y-26157000D01*
G75*
G02*
X25402600Y-26375750I0J-218750D01*
G01*
X25402600Y-26813250D01*
G75*
G02*
X25183850Y-27032000I-218750J0D01*
G01*
X24671350Y-27032000D01*
G75*
G02*
X24452600Y-26813250I0J218750D01*
G01*
X24452600Y-26375750D01*
G75*
G02*
X24671350Y-26157000I218750J0D01*
G01*
G37*
G36*
G01*
X25941350Y-27732000D02*
X26453850Y-27732000D01*
G75*
G02*
X26672600Y-27950750I0J-218750D01*
G01*
X26672600Y-28388250D01*
G75*
G02*
X26453850Y-28607000I-218750J0D01*
G01*
X25941350Y-28607000D01*
G75*
G02*
X25722600Y-28388250I0J218750D01*
G01*
X25722600Y-27950750D01*
G75*
G02*
X25941350Y-27732000I218750J0D01*
G01*
G37*
G36*
G01*
X25941350Y-26157000D02*
X26453850Y-26157000D01*
G75*
G02*
X26672600Y-26375750I0J-218750D01*
G01*
X26672600Y-26813250D01*
G75*
G02*
X26453850Y-27032000I-218750J0D01*
G01*
X25941350Y-27032000D01*
G75*
G02*
X25722600Y-26813250I0J218750D01*
G01*
X25722600Y-26375750D01*
G75*
G02*
X25941350Y-26157000I218750J0D01*
G01*
G37*
G36*
G01*
X28989350Y-27732000D02*
X29501850Y-27732000D01*
G75*
G02*
X29720600Y-27950750I0J-218750D01*
G01*
X29720600Y-28388250D01*
G75*
G02*
X29501850Y-28607000I-218750J0D01*
G01*
X28989350Y-28607000D01*
G75*
G02*
X28770600Y-28388250I0J218750D01*
G01*
X28770600Y-27950750D01*
G75*
G02*
X28989350Y-27732000I218750J0D01*
G01*
G37*
G36*
G01*
X28989350Y-26157000D02*
X29501850Y-26157000D01*
G75*
G02*
X29720600Y-26375750I0J-218750D01*
G01*
X29720600Y-26813250D01*
G75*
G02*
X29501850Y-27032000I-218750J0D01*
G01*
X28989350Y-27032000D01*
G75*
G02*
X28770600Y-26813250I0J218750D01*
G01*
X28770600Y-26375750D01*
G75*
G02*
X28989350Y-26157000I218750J0D01*
G01*
G37*
G36*
G01*
X21981250Y-30225000D02*
X21468750Y-30225000D01*
G75*
G02*
X21250000Y-30006250I0J218750D01*
G01*
X21250000Y-29568750D01*
G75*
G02*
X21468750Y-29350000I218750J0D01*
G01*
X21981250Y-29350000D01*
G75*
G02*
X22200000Y-29568750I0J-218750D01*
G01*
X22200000Y-30006250D01*
G75*
G02*
X21981250Y-30225000I-218750J0D01*
G01*
G37*
G36*
G01*
X21981250Y-31800000D02*
X21468750Y-31800000D01*
G75*
G02*
X21250000Y-31581250I0J218750D01*
G01*
X21250000Y-31143750D01*
G75*
G02*
X21468750Y-30925000I218750J0D01*
G01*
X21981250Y-30925000D01*
G75*
G02*
X22200000Y-31143750I0J-218750D01*
G01*
X22200000Y-31581250D01*
G75*
G02*
X21981250Y-31800000I-218750J0D01*
G01*
G37*
G36*
G01*
X23556250Y-30225000D02*
X23043750Y-30225000D01*
G75*
G02*
X22825000Y-30006250I0J218750D01*
G01*
X22825000Y-29568750D01*
G75*
G02*
X23043750Y-29350000I218750J0D01*
G01*
X23556250Y-29350000D01*
G75*
G02*
X23775000Y-29568750I0J-218750D01*
G01*
X23775000Y-30006250D01*
G75*
G02*
X23556250Y-30225000I-218750J0D01*
G01*
G37*
G36*
G01*
X23556250Y-31800000D02*
X23043750Y-31800000D01*
G75*
G02*
X22825000Y-31581250I0J218750D01*
G01*
X22825000Y-31143750D01*
G75*
G02*
X23043750Y-30925000I218750J0D01*
G01*
X23556250Y-30925000D01*
G75*
G02*
X23775000Y-31143750I0J-218750D01*
G01*
X23775000Y-31581250D01*
G75*
G02*
X23556250Y-31800000I-218750J0D01*
G01*
G37*
X33766000Y-27384500D03*
X31766000Y-28334500D03*
X31766000Y-26434500D03*
G36*
G01*
X30500000Y-32643750D02*
X30500000Y-33156250D01*
G75*
G02*
X30281250Y-33375000I-218750J0D01*
G01*
X29843750Y-33375000D01*
G75*
G02*
X29625000Y-33156250I0J218750D01*
G01*
X29625000Y-32643750D01*
G75*
G02*
X29843750Y-32425000I218750J0D01*
G01*
X30281250Y-32425000D01*
G75*
G02*
X30500000Y-32643750I0J-218750D01*
G01*
G37*
G36*
G01*
X28925000Y-32643750D02*
X28925000Y-33156250D01*
G75*
G02*
X28706250Y-33375000I-218750J0D01*
G01*
X28268750Y-33375000D01*
G75*
G02*
X28050000Y-33156250I0J218750D01*
G01*
X28050000Y-32643750D01*
G75*
G02*
X28268750Y-32425000I218750J0D01*
G01*
X28706250Y-32425000D01*
G75*
G02*
X28925000Y-32643750I0J-218750D01*
G01*
G37*
G36*
G01*
X22112500Y-33156250D02*
X22112500Y-32643750D01*
G75*
G02*
X22331250Y-32425000I218750J0D01*
G01*
X22768750Y-32425000D01*
G75*
G02*
X22987500Y-32643750I0J-218750D01*
G01*
X22987500Y-33156250D01*
G75*
G02*
X22768750Y-33375000I-218750J0D01*
G01*
X22331250Y-33375000D01*
G75*
G02*
X22112500Y-33156250I0J218750D01*
G01*
G37*
G36*
G01*
X23687500Y-33156250D02*
X23687500Y-32643750D01*
G75*
G02*
X23906250Y-32425000I218750J0D01*
G01*
X24343750Y-32425000D01*
G75*
G02*
X24562500Y-32643750I0J-218750D01*
G01*
X24562500Y-33156250D01*
G75*
G02*
X24343750Y-33375000I-218750J0D01*
G01*
X23906250Y-33375000D01*
G75*
G02*
X23687500Y-33156250I0J218750D01*
G01*
G37*
G36*
G01*
X26525000Y-33156250D02*
X26525000Y-32643750D01*
G75*
G02*
X26743750Y-32425000I218750J0D01*
G01*
X27181250Y-32425000D01*
G75*
G02*
X27400000Y-32643750I0J-218750D01*
G01*
X27400000Y-33156250D01*
G75*
G02*
X27181250Y-33375000I-218750J0D01*
G01*
X26743750Y-33375000D01*
G75*
G02*
X26525000Y-33156250I0J218750D01*
G01*
G37*
G36*
G01*
X24950000Y-33156250D02*
X24950000Y-32643750D01*
G75*
G02*
X25168750Y-32425000I218750J0D01*
G01*
X25606250Y-32425000D01*
G75*
G02*
X25825000Y-32643750I0J-218750D01*
G01*
X25825000Y-33156250D01*
G75*
G02*
X25606250Y-33375000I-218750J0D01*
G01*
X25168750Y-33375000D01*
G75*
G02*
X24950000Y-33156250I0J218750D01*
G01*
G37*
M02*
