G04 #@! TF.GenerationSoftware,KiCad,Pcbnew,(5.1.6)-1*
G04 #@! TF.CreationDate,2020-10-02T00:20:03+08:00*
G04 #@! TF.ProjectId,nrfmicro,6e72666d-6963-4726-9f2e-6b696361645f,rev?*
G04 #@! TF.SameCoordinates,Original*
G04 #@! TF.FileFunction,Paste,Top*
G04 #@! TF.FilePolarity,Positive*
%FSLAX46Y46*%
G04 Gerber Fmt 4.6, Leading zero omitted, Abs format (unit mm)*
G04 Created by KiCad (PCBNEW (5.1.6)-1) date 2020-10-02 00:20:03*
%MOMM*%
%LPD*%
G01*
G04 APERTURE LIST*
%ADD10R,0.300000X0.800000*%
%ADD11R,0.500000X0.800000*%
%ADD12R,0.550000X0.800000*%
%ADD13R,0.650000X1.060000*%
%ADD14R,0.600000X1.200000*%
%ADD15R,0.650000X1.000000*%
%ADD16R,1.000000X0.650000*%
%ADD17R,0.500000X0.500000*%
%ADD18R,0.900000X0.800000*%
G04 APERTURE END LIST*
G36*
G01*
X21981250Y-30100000D02*
X21468750Y-30100000D01*
G75*
G02*
X21250000Y-29881250I0J218750D01*
G01*
X21250000Y-29443750D01*
G75*
G02*
X21468750Y-29225000I218750J0D01*
G01*
X21981250Y-29225000D01*
G75*
G02*
X22200000Y-29443750I0J-218750D01*
G01*
X22200000Y-29881250D01*
G75*
G02*
X21981250Y-30100000I-218750J0D01*
G01*
G37*
G36*
G01*
X21981250Y-31675000D02*
X21468750Y-31675000D01*
G75*
G02*
X21250000Y-31456250I0J218750D01*
G01*
X21250000Y-31018750D01*
G75*
G02*
X21468750Y-30800000I218750J0D01*
G01*
X21981250Y-30800000D01*
G75*
G02*
X22200000Y-31018750I0J-218750D01*
G01*
X22200000Y-31456250D01*
G75*
G02*
X21981250Y-31675000I-218750J0D01*
G01*
G37*
G36*
G01*
X33981250Y-31687500D02*
X33468750Y-31687500D01*
G75*
G02*
X33250000Y-31468750I0J218750D01*
G01*
X33250000Y-31031250D01*
G75*
G02*
X33468750Y-30812500I218750J0D01*
G01*
X33981250Y-30812500D01*
G75*
G02*
X34200000Y-31031250I0J-218750D01*
G01*
X34200000Y-31468750D01*
G75*
G02*
X33981250Y-31687500I-218750J0D01*
G01*
G37*
G36*
G01*
X33981250Y-30112500D02*
X33468750Y-30112500D01*
G75*
G02*
X33250000Y-29893750I0J218750D01*
G01*
X33250000Y-29456250D01*
G75*
G02*
X33468750Y-29237500I218750J0D01*
G01*
X33981250Y-29237500D01*
G75*
G02*
X34200000Y-29456250I0J-218750D01*
G01*
X34200000Y-29893750D01*
G75*
G02*
X33981250Y-30112500I-218750J0D01*
G01*
G37*
D10*
X25971600Y-24600000D03*
X26471600Y-24600000D03*
X29471600Y-24600000D03*
X28971600Y-24600000D03*
X27971600Y-24600000D03*
X27471600Y-24600000D03*
X28471600Y-24600000D03*
X26971600Y-24600000D03*
D11*
X25321600Y-24600000D03*
X30121600Y-24600000D03*
D12*
X30921600Y-24600000D03*
X24521600Y-24600000D03*
D13*
X30576600Y-29457000D03*
X29626600Y-29457000D03*
X28676600Y-29457000D03*
X28676600Y-31657000D03*
X30576600Y-31657000D03*
X26766600Y-31657000D03*
X24866600Y-31657000D03*
X24866600Y-29457000D03*
X25816600Y-29457000D03*
X26766600Y-29457000D03*
D14*
X33300000Y-32850000D03*
X32100000Y-32850000D03*
D15*
X27743000Y-36062000D03*
X23933000Y-36062000D03*
X25203000Y-36062000D03*
X29013000Y-36062000D03*
X26473000Y-36062000D03*
X31553000Y-36062000D03*
X30283000Y-36062000D03*
D16*
X23679000Y-47492000D03*
X23679000Y-46222000D03*
X23679000Y-44952000D03*
X23679000Y-43682000D03*
X23679000Y-42412000D03*
X23679000Y-41142000D03*
X23679000Y-39872000D03*
D15*
X27110000Y-34351000D03*
X23300000Y-34351000D03*
X28380000Y-34351000D03*
X29650000Y-34351000D03*
X30920000Y-34351000D03*
X25840000Y-34351000D03*
X32190000Y-34351000D03*
X24570000Y-34351000D03*
D16*
X21601000Y-36570000D03*
X21601000Y-37840000D03*
X21601000Y-42920000D03*
X21601000Y-39110000D03*
X21601000Y-44190000D03*
X21601000Y-45460000D03*
X21601000Y-46730000D03*
X21601000Y-41650000D03*
X21601000Y-48000000D03*
X21601000Y-40380000D03*
X33839000Y-48000000D03*
X33839000Y-46730000D03*
X33839000Y-45460000D03*
X33839000Y-44190000D03*
X33839000Y-42920000D03*
X33839000Y-41650000D03*
X33839000Y-40380000D03*
X33839000Y-39110000D03*
X33839000Y-37840000D03*
X33839000Y-36570000D03*
X23679000Y-38602000D03*
D17*
X27721600Y-28545500D03*
X27721600Y-26345500D03*
G36*
G01*
X30293750Y-26157000D02*
X30806250Y-26157000D01*
G75*
G02*
X31025000Y-26375750I0J-218750D01*
G01*
X31025000Y-26813250D01*
G75*
G02*
X30806250Y-27032000I-218750J0D01*
G01*
X30293750Y-27032000D01*
G75*
G02*
X30075000Y-26813250I0J218750D01*
G01*
X30075000Y-26375750D01*
G75*
G02*
X30293750Y-26157000I218750J0D01*
G01*
G37*
G36*
G01*
X30293750Y-27732000D02*
X30806250Y-27732000D01*
G75*
G02*
X31025000Y-27950750I0J-218750D01*
G01*
X31025000Y-28388250D01*
G75*
G02*
X30806250Y-28607000I-218750J0D01*
G01*
X30293750Y-28607000D01*
G75*
G02*
X30075000Y-28388250I0J218750D01*
G01*
X30075000Y-27950750D01*
G75*
G02*
X30293750Y-27732000I218750J0D01*
G01*
G37*
G36*
G01*
X32406250Y-30112500D02*
X31893750Y-30112500D01*
G75*
G02*
X31675000Y-29893750I0J218750D01*
G01*
X31675000Y-29456250D01*
G75*
G02*
X31893750Y-29237500I218750J0D01*
G01*
X32406250Y-29237500D01*
G75*
G02*
X32625000Y-29456250I0J-218750D01*
G01*
X32625000Y-29893750D01*
G75*
G02*
X32406250Y-30112500I-218750J0D01*
G01*
G37*
G36*
G01*
X32406250Y-31687500D02*
X31893750Y-31687500D01*
G75*
G02*
X31675000Y-31468750I0J218750D01*
G01*
X31675000Y-31031250D01*
G75*
G02*
X31893750Y-30812500I218750J0D01*
G01*
X32406250Y-30812500D01*
G75*
G02*
X32625000Y-31031250I0J-218750D01*
G01*
X32625000Y-31468750D01*
G75*
G02*
X32406250Y-31687500I-218750J0D01*
G01*
G37*
D18*
X23669500Y-28334500D03*
X23669500Y-26434500D03*
X21669500Y-27384500D03*
G36*
G01*
X24671350Y-27732000D02*
X25183850Y-27732000D01*
G75*
G02*
X25402600Y-27950750I0J-218750D01*
G01*
X25402600Y-28388250D01*
G75*
G02*
X25183850Y-28607000I-218750J0D01*
G01*
X24671350Y-28607000D01*
G75*
G02*
X24452600Y-28388250I0J218750D01*
G01*
X24452600Y-27950750D01*
G75*
G02*
X24671350Y-27732000I218750J0D01*
G01*
G37*
G36*
G01*
X24671350Y-26157000D02*
X25183850Y-26157000D01*
G75*
G02*
X25402600Y-26375750I0J-218750D01*
G01*
X25402600Y-26813250D01*
G75*
G02*
X25183850Y-27032000I-218750J0D01*
G01*
X24671350Y-27032000D01*
G75*
G02*
X24452600Y-26813250I0J218750D01*
G01*
X24452600Y-26375750D01*
G75*
G02*
X24671350Y-26157000I218750J0D01*
G01*
G37*
G36*
G01*
X25941350Y-27732000D02*
X26453850Y-27732000D01*
G75*
G02*
X26672600Y-27950750I0J-218750D01*
G01*
X26672600Y-28388250D01*
G75*
G02*
X26453850Y-28607000I-218750J0D01*
G01*
X25941350Y-28607000D01*
G75*
G02*
X25722600Y-28388250I0J218750D01*
G01*
X25722600Y-27950750D01*
G75*
G02*
X25941350Y-27732000I218750J0D01*
G01*
G37*
G36*
G01*
X25941350Y-26157000D02*
X26453850Y-26157000D01*
G75*
G02*
X26672600Y-26375750I0J-218750D01*
G01*
X26672600Y-26813250D01*
G75*
G02*
X26453850Y-27032000I-218750J0D01*
G01*
X25941350Y-27032000D01*
G75*
G02*
X25722600Y-26813250I0J218750D01*
G01*
X25722600Y-26375750D01*
G75*
G02*
X25941350Y-26157000I218750J0D01*
G01*
G37*
G36*
G01*
X28989350Y-27732000D02*
X29501850Y-27732000D01*
G75*
G02*
X29720600Y-27950750I0J-218750D01*
G01*
X29720600Y-28388250D01*
G75*
G02*
X29501850Y-28607000I-218750J0D01*
G01*
X28989350Y-28607000D01*
G75*
G02*
X28770600Y-28388250I0J218750D01*
G01*
X28770600Y-27950750D01*
G75*
G02*
X28989350Y-27732000I218750J0D01*
G01*
G37*
G36*
G01*
X28989350Y-26157000D02*
X29501850Y-26157000D01*
G75*
G02*
X29720600Y-26375750I0J-218750D01*
G01*
X29720600Y-26813250D01*
G75*
G02*
X29501850Y-27032000I-218750J0D01*
G01*
X28989350Y-27032000D01*
G75*
G02*
X28770600Y-26813250I0J218750D01*
G01*
X28770600Y-26375750D01*
G75*
G02*
X28989350Y-26157000I218750J0D01*
G01*
G37*
G36*
G01*
X23556250Y-30112500D02*
X23043750Y-30112500D01*
G75*
G02*
X22825000Y-29893750I0J218750D01*
G01*
X22825000Y-29456250D01*
G75*
G02*
X23043750Y-29237500I218750J0D01*
G01*
X23556250Y-29237500D01*
G75*
G02*
X23775000Y-29456250I0J-218750D01*
G01*
X23775000Y-29893750D01*
G75*
G02*
X23556250Y-30112500I-218750J0D01*
G01*
G37*
G36*
G01*
X23556250Y-31687500D02*
X23043750Y-31687500D01*
G75*
G02*
X22825000Y-31468750I0J218750D01*
G01*
X22825000Y-31031250D01*
G75*
G02*
X23043750Y-30812500I218750J0D01*
G01*
X23556250Y-30812500D01*
G75*
G02*
X23775000Y-31031250I0J-218750D01*
G01*
X23775000Y-31468750D01*
G75*
G02*
X23556250Y-31687500I-218750J0D01*
G01*
G37*
X33766000Y-27384500D03*
X31766000Y-28334500D03*
X31766000Y-26434500D03*
G36*
G01*
X30500000Y-32743750D02*
X30500000Y-33256250D01*
G75*
G02*
X30281250Y-33475000I-218750J0D01*
G01*
X29843750Y-33475000D01*
G75*
G02*
X29625000Y-33256250I0J218750D01*
G01*
X29625000Y-32743750D01*
G75*
G02*
X29843750Y-32525000I218750J0D01*
G01*
X30281250Y-32525000D01*
G75*
G02*
X30500000Y-32743750I0J-218750D01*
G01*
G37*
G36*
G01*
X28925000Y-32743750D02*
X28925000Y-33256250D01*
G75*
G02*
X28706250Y-33475000I-218750J0D01*
G01*
X28268750Y-33475000D01*
G75*
G02*
X28050000Y-33256250I0J218750D01*
G01*
X28050000Y-32743750D01*
G75*
G02*
X28268750Y-32525000I218750J0D01*
G01*
X28706250Y-32525000D01*
G75*
G02*
X28925000Y-32743750I0J-218750D01*
G01*
G37*
G36*
G01*
X22112500Y-33256250D02*
X22112500Y-32743750D01*
G75*
G02*
X22331250Y-32525000I218750J0D01*
G01*
X22768750Y-32525000D01*
G75*
G02*
X22987500Y-32743750I0J-218750D01*
G01*
X22987500Y-33256250D01*
G75*
G02*
X22768750Y-33475000I-218750J0D01*
G01*
X22331250Y-33475000D01*
G75*
G02*
X22112500Y-33256250I0J218750D01*
G01*
G37*
G36*
G01*
X23687500Y-33256250D02*
X23687500Y-32743750D01*
G75*
G02*
X23906250Y-32525000I218750J0D01*
G01*
X24343750Y-32525000D01*
G75*
G02*
X24562500Y-32743750I0J-218750D01*
G01*
X24562500Y-33256250D01*
G75*
G02*
X24343750Y-33475000I-218750J0D01*
G01*
X23906250Y-33475000D01*
G75*
G02*
X23687500Y-33256250I0J218750D01*
G01*
G37*
G36*
G01*
X26525000Y-33256250D02*
X26525000Y-32743750D01*
G75*
G02*
X26743750Y-32525000I218750J0D01*
G01*
X27181250Y-32525000D01*
G75*
G02*
X27400000Y-32743750I0J-218750D01*
G01*
X27400000Y-33256250D01*
G75*
G02*
X27181250Y-33475000I-218750J0D01*
G01*
X26743750Y-33475000D01*
G75*
G02*
X26525000Y-33256250I0J218750D01*
G01*
G37*
G36*
G01*
X24950000Y-33256250D02*
X24950000Y-32743750D01*
G75*
G02*
X25168750Y-32525000I218750J0D01*
G01*
X25606250Y-32525000D01*
G75*
G02*
X25825000Y-32743750I0J-218750D01*
G01*
X25825000Y-33256250D01*
G75*
G02*
X25606250Y-33475000I-218750J0D01*
G01*
X25168750Y-33475000D01*
G75*
G02*
X24950000Y-33256250I0J218750D01*
G01*
G37*
M02*
