G04 #@! TF.GenerationSoftware,KiCad,Pcbnew,(5.1.6)-1*
G04 #@! TF.CreationDate,2020-09-30T08:51:05+08:00*
G04 #@! TF.ProjectId,nrfmicro,6e72666d-6963-4726-9f2e-6b696361645f,rev?*
G04 #@! TF.SameCoordinates,Original*
G04 #@! TF.FileFunction,Legend,Bot*
G04 #@! TF.FilePolarity,Positive*
%FSLAX46Y46*%
G04 Gerber Fmt 4.6, Leading zero omitted, Abs format (unit mm)*
G04 Created by KiCad (PCBNEW (5.1.6)-1) date 2020-09-30 08:51:05*
%MOMM*%
%LPD*%
G01*
G04 APERTURE LIST*
%ADD10C,0.100000*%
%ADD11C,0.010000*%
%ADD12C,0.080000*%
G04 APERTURE END LIST*
D10*
X32457145Y-49569714D02*
X32457145Y-50236380D01*
X32457145Y-49664952D02*
X32409526Y-49617333D01*
X32314288Y-49569714D01*
X32171431Y-49569714D01*
X32076193Y-49617333D01*
X32028574Y-49712571D01*
X32028574Y-50236380D01*
X30980955Y-50236380D02*
X31314288Y-49760190D01*
X31552383Y-50236380D02*
X31552383Y-49236380D01*
X31171431Y-49236380D01*
X31076193Y-49284000D01*
X31028574Y-49331619D01*
X30980955Y-49426857D01*
X30980955Y-49569714D01*
X31028574Y-49664952D01*
X31076193Y-49712571D01*
X31171431Y-49760190D01*
X31552383Y-49760190D01*
X30219050Y-49712571D02*
X30552383Y-49712571D01*
X30552383Y-50236380D02*
X30552383Y-49236380D01*
X30076193Y-49236380D01*
X29695240Y-50236380D02*
X29695240Y-49236380D01*
X29361907Y-49950666D01*
X29028574Y-49236380D01*
X29028574Y-50236380D01*
X28552383Y-50236380D02*
X28552383Y-49569714D01*
X28552383Y-49236380D02*
X28600002Y-49284000D01*
X28552383Y-49331619D01*
X28504764Y-49284000D01*
X28552383Y-49236380D01*
X28552383Y-49331619D01*
X27647621Y-50188761D02*
X27742860Y-50236380D01*
X27933336Y-50236380D01*
X28028574Y-50188761D01*
X28076193Y-50141142D01*
X28123812Y-50045904D01*
X28123812Y-49760190D01*
X28076193Y-49664952D01*
X28028574Y-49617333D01*
X27933336Y-49569714D01*
X27742860Y-49569714D01*
X27647621Y-49617333D01*
X27219050Y-50236380D02*
X27219050Y-49569714D01*
X27219050Y-49760190D02*
X27171431Y-49664952D01*
X27123812Y-49617333D01*
X27028574Y-49569714D01*
X26933336Y-49569714D01*
X26457145Y-50236380D02*
X26552383Y-50188761D01*
X26600002Y-50141142D01*
X26647621Y-50045904D01*
X26647621Y-49760190D01*
X26600002Y-49664952D01*
X26552383Y-49617333D01*
X26457145Y-49569714D01*
X26314288Y-49569714D01*
X26219050Y-49617333D01*
X26171431Y-49664952D01*
X26123812Y-49760190D01*
X26123812Y-50045904D01*
X26171431Y-50141142D01*
X26219050Y-50188761D01*
X26314288Y-50236380D01*
X26457145Y-50236380D01*
X24409526Y-50236380D02*
X24980955Y-50236380D01*
X24695240Y-50236380D02*
X24695240Y-49236380D01*
X24790479Y-49379238D01*
X24885717Y-49474476D01*
X24980955Y-49522095D01*
X23980955Y-50141142D02*
X23933336Y-50188761D01*
X23980955Y-50236380D01*
X24028574Y-50188761D01*
X23980955Y-50141142D01*
X23980955Y-50236380D01*
X23076193Y-49569714D02*
X23076193Y-50236380D01*
X23314288Y-49188761D02*
X23552383Y-49903047D01*
X22933336Y-49903047D01*
D11*
G36*
X25677837Y-26899137D02*
G01*
X25665265Y-26929999D01*
X25656150Y-26988219D01*
X25649501Y-27079348D01*
X25645800Y-27165250D01*
X25642750Y-27249916D01*
X25748584Y-27253220D01*
X25818742Y-27253126D01*
X25875952Y-27249120D01*
X25893349Y-27246013D01*
X25918772Y-27236160D01*
X25916038Y-27219299D01*
X25891110Y-27189792D01*
X25868887Y-27163237D01*
X25847834Y-27131986D01*
X25822767Y-27086934D01*
X25788501Y-27018978D01*
X25756593Y-26953583D01*
X25727050Y-26910089D01*
X25696874Y-26890209D01*
X25694856Y-26890083D01*
X25677837Y-26899137D01*
G37*
X25677837Y-26899137D02*
X25665265Y-26929999D01*
X25656150Y-26988219D01*
X25649501Y-27079348D01*
X25645800Y-27165250D01*
X25642750Y-27249916D01*
X25748584Y-27253220D01*
X25818742Y-27253126D01*
X25875952Y-27249120D01*
X25893349Y-27246013D01*
X25918772Y-27236160D01*
X25916038Y-27219299D01*
X25891110Y-27189792D01*
X25868887Y-27163237D01*
X25847834Y-27131986D01*
X25822767Y-27086934D01*
X25788501Y-27018978D01*
X25756593Y-26953583D01*
X25727050Y-26910089D01*
X25696874Y-26890209D01*
X25694856Y-26890083D01*
X25677837Y-26899137D01*
G36*
X29760857Y-26861464D02*
G01*
X29740286Y-26884430D01*
X29711280Y-26935852D01*
X29679081Y-27004124D01*
X29648929Y-27077639D01*
X29626066Y-27144791D01*
X29617855Y-27178118D01*
X29615545Y-27212780D01*
X29631611Y-27233823D01*
X29675716Y-27250196D01*
X29703579Y-27257493D01*
X29785532Y-27275777D01*
X29835748Y-27279916D01*
X29862431Y-27269797D01*
X29871151Y-27255208D01*
X29870440Y-27219659D01*
X29857339Y-27163854D01*
X29851748Y-27146713D01*
X29832430Y-27071416D01*
X29823011Y-26995852D01*
X29822843Y-26987963D01*
X29814830Y-26914114D01*
X29793471Y-26869869D01*
X29761691Y-26861196D01*
X29760857Y-26861464D01*
G37*
X29760857Y-26861464D02*
X29740286Y-26884430D01*
X29711280Y-26935852D01*
X29679081Y-27004124D01*
X29648929Y-27077639D01*
X29626066Y-27144791D01*
X29617855Y-27178118D01*
X29615545Y-27212780D01*
X29631611Y-27233823D01*
X29675716Y-27250196D01*
X29703579Y-27257493D01*
X29785532Y-27275777D01*
X29835748Y-27279916D01*
X29862431Y-27269797D01*
X29871151Y-27255208D01*
X29870440Y-27219659D01*
X29857339Y-27163854D01*
X29851748Y-27146713D01*
X29832430Y-27071416D01*
X29823011Y-26995852D01*
X29822843Y-26987963D01*
X29814830Y-26914114D01*
X29793471Y-26869869D01*
X29761691Y-26861196D01*
X29760857Y-26861464D01*
G36*
X28940402Y-27606921D02*
G01*
X28934386Y-27607707D01*
X28860324Y-27628761D01*
X28774827Y-27670004D01*
X28686258Y-27725146D01*
X28602979Y-27787899D01*
X28533353Y-27851971D01*
X28485742Y-27911073D01*
X28468500Y-27958142D01*
X28478939Y-27979648D01*
X28508461Y-27966401D01*
X28554376Y-27919954D01*
X28571977Y-27898475D01*
X28653973Y-27812915D01*
X28752304Y-27737541D01*
X28854575Y-27680322D01*
X28948389Y-27649221D01*
X28963262Y-27647029D01*
X29070682Y-27656113D01*
X29180552Y-27706913D01*
X29291938Y-27798947D01*
X29323377Y-27832159D01*
X29379801Y-27885702D01*
X29424347Y-27910308D01*
X29438023Y-27910761D01*
X29448543Y-27899353D01*
X29435000Y-27872586D01*
X29394409Y-27826215D01*
X29340735Y-27772423D01*
X29237642Y-27683278D01*
X29142947Y-27628571D01*
X29047062Y-27604414D01*
X28940402Y-27606921D01*
G37*
X28940402Y-27606921D02*
X28934386Y-27607707D01*
X28860324Y-27628761D01*
X28774827Y-27670004D01*
X28686258Y-27725146D01*
X28602979Y-27787899D01*
X28533353Y-27851971D01*
X28485742Y-27911073D01*
X28468500Y-27958142D01*
X28478939Y-27979648D01*
X28508461Y-27966401D01*
X28554376Y-27919954D01*
X28571977Y-27898475D01*
X28653973Y-27812915D01*
X28752304Y-27737541D01*
X28854575Y-27680322D01*
X28948389Y-27649221D01*
X28963262Y-27647029D01*
X29070682Y-27656113D01*
X29180552Y-27706913D01*
X29291938Y-27798947D01*
X29323377Y-27832159D01*
X29379801Y-27885702D01*
X29424347Y-27910308D01*
X29438023Y-27910761D01*
X29448543Y-27899353D01*
X29435000Y-27872586D01*
X29394409Y-27826215D01*
X29340735Y-27772423D01*
X29237642Y-27683278D01*
X29142947Y-27628571D01*
X29047062Y-27604414D01*
X28940402Y-27606921D01*
G36*
X26423970Y-27650677D02*
G01*
X26333996Y-27682135D01*
X26278686Y-27716723D01*
X26219313Y-27763370D01*
X26166161Y-27812686D01*
X26129518Y-27855284D01*
X26119000Y-27878351D01*
X26131302Y-27895599D01*
X26166902Y-27879922D01*
X26223837Y-27832368D01*
X26246846Y-27809988D01*
X26304269Y-27758341D01*
X26359195Y-27718233D01*
X26385807Y-27704154D01*
X26495091Y-27684443D01*
X26609062Y-27704821D01*
X26724585Y-27763774D01*
X26838522Y-27859787D01*
X26929918Y-27966910D01*
X26963766Y-27988442D01*
X26984476Y-27982001D01*
X26993897Y-27965118D01*
X26980598Y-27935152D01*
X26941093Y-27885997D01*
X26910392Y-27852283D01*
X26793177Y-27748375D01*
X26669669Y-27679145D01*
X26544917Y-27646082D01*
X26423970Y-27650677D01*
G37*
X26423970Y-27650677D02*
X26333996Y-27682135D01*
X26278686Y-27716723D01*
X26219313Y-27763370D01*
X26166161Y-27812686D01*
X26129518Y-27855284D01*
X26119000Y-27878351D01*
X26131302Y-27895599D01*
X26166902Y-27879922D01*
X26223837Y-27832368D01*
X26246846Y-27809988D01*
X26304269Y-27758341D01*
X26359195Y-27718233D01*
X26385807Y-27704154D01*
X26495091Y-27684443D01*
X26609062Y-27704821D01*
X26724585Y-27763774D01*
X26838522Y-27859787D01*
X26929918Y-27966910D01*
X26963766Y-27988442D01*
X26984476Y-27982001D01*
X26993897Y-27965118D01*
X26980598Y-27935152D01*
X26941093Y-27885997D01*
X26910392Y-27852283D01*
X26793177Y-27748375D01*
X26669669Y-27679145D01*
X26544917Y-27646082D01*
X26423970Y-27650677D01*
G36*
X27487150Y-28029090D02*
G01*
X27447125Y-28038915D01*
X27441845Y-28043783D01*
X27447817Y-28068846D01*
X27474246Y-28114546D01*
X27513237Y-28170080D01*
X27556898Y-28224648D01*
X27597335Y-28267448D01*
X27616542Y-28282843D01*
X27640581Y-28318559D01*
X27635246Y-28366691D01*
X27607055Y-28417207D01*
X27562528Y-28460076D01*
X27508183Y-28485267D01*
X27483120Y-28488166D01*
X27386332Y-28468315D01*
X27301915Y-28414019D01*
X27244601Y-28337774D01*
X27216942Y-28288814D01*
X27199159Y-28276491D01*
X27190353Y-28288369D01*
X27178028Y-28335440D01*
X27185725Y-28354524D01*
X27198500Y-28350583D01*
X27218005Y-28352261D01*
X27219667Y-28359917D01*
X27223766Y-28404208D01*
X27243926Y-28437286D01*
X27253231Y-28447838D01*
X27309918Y-28486743D01*
X27390096Y-28514314D01*
X27475394Y-28525513D01*
X27523314Y-28521926D01*
X27600350Y-28489350D01*
X27651566Y-28444371D01*
X27687262Y-28404700D01*
X27710037Y-28394327D01*
X27733589Y-28409630D01*
X27744085Y-28419918D01*
X27834852Y-28490633D01*
X27928503Y-28528083D01*
X28018017Y-28531172D01*
X28096371Y-28498805D01*
X28120213Y-28478545D01*
X28160863Y-28426166D01*
X28168899Y-28374329D01*
X28145888Y-28308545D01*
X28139874Y-28296615D01*
X28108263Y-28247217D01*
X28086813Y-28238258D01*
X28077071Y-28268731D01*
X28080319Y-28335412D01*
X28084295Y-28404884D01*
X28074011Y-28446483D01*
X28058090Y-28465058D01*
X27995997Y-28491503D01*
X27923346Y-28484256D01*
X27850035Y-28446693D01*
X27785958Y-28382187D01*
X27776964Y-28369195D01*
X27753923Y-28329792D01*
X27755600Y-28309086D01*
X27777285Y-28294010D01*
X27807644Y-28266926D01*
X27844217Y-28221291D01*
X27849761Y-28213000D01*
X27791167Y-28213000D01*
X27775060Y-28233551D01*
X27770000Y-28234166D01*
X27749449Y-28218059D01*
X27748834Y-28213000D01*
X27764941Y-28192448D01*
X27770000Y-28191833D01*
X27790552Y-28207940D01*
X27791167Y-28213000D01*
X27849761Y-28213000D01*
X27879023Y-28169244D01*
X27904081Y-28122923D01*
X27911410Y-28094468D01*
X27910088Y-28092031D01*
X27872545Y-28072667D01*
X27807235Y-28055350D01*
X27725099Y-28041206D01*
X27637079Y-28031363D01*
X27554115Y-28026949D01*
X27487150Y-28029090D01*
G37*
X27487150Y-28029090D02*
X27447125Y-28038915D01*
X27441845Y-28043783D01*
X27447817Y-28068846D01*
X27474246Y-28114546D01*
X27513237Y-28170080D01*
X27556898Y-28224648D01*
X27597335Y-28267448D01*
X27616542Y-28282843D01*
X27640581Y-28318559D01*
X27635246Y-28366691D01*
X27607055Y-28417207D01*
X27562528Y-28460076D01*
X27508183Y-28485267D01*
X27483120Y-28488166D01*
X27386332Y-28468315D01*
X27301915Y-28414019D01*
X27244601Y-28337774D01*
X27216942Y-28288814D01*
X27199159Y-28276491D01*
X27190353Y-28288369D01*
X27178028Y-28335440D01*
X27185725Y-28354524D01*
X27198500Y-28350583D01*
X27218005Y-28352261D01*
X27219667Y-28359917D01*
X27223766Y-28404208D01*
X27243926Y-28437286D01*
X27253231Y-28447838D01*
X27309918Y-28486743D01*
X27390096Y-28514314D01*
X27475394Y-28525513D01*
X27523314Y-28521926D01*
X27600350Y-28489350D01*
X27651566Y-28444371D01*
X27687262Y-28404700D01*
X27710037Y-28394327D01*
X27733589Y-28409630D01*
X27744085Y-28419918D01*
X27834852Y-28490633D01*
X27928503Y-28528083D01*
X28018017Y-28531172D01*
X28096371Y-28498805D01*
X28120213Y-28478545D01*
X28160863Y-28426166D01*
X28168899Y-28374329D01*
X28145888Y-28308545D01*
X28139874Y-28296615D01*
X28108263Y-28247217D01*
X28086813Y-28238258D01*
X28077071Y-28268731D01*
X28080319Y-28335412D01*
X28084295Y-28404884D01*
X28074011Y-28446483D01*
X28058090Y-28465058D01*
X27995997Y-28491503D01*
X27923346Y-28484256D01*
X27850035Y-28446693D01*
X27785958Y-28382187D01*
X27776964Y-28369195D01*
X27753923Y-28329792D01*
X27755600Y-28309086D01*
X27777285Y-28294010D01*
X27807644Y-28266926D01*
X27844217Y-28221291D01*
X27849761Y-28213000D01*
X27791167Y-28213000D01*
X27775060Y-28233551D01*
X27770000Y-28234166D01*
X27749449Y-28218059D01*
X27748834Y-28213000D01*
X27764941Y-28192448D01*
X27770000Y-28191833D01*
X27790552Y-28207940D01*
X27791167Y-28213000D01*
X27849761Y-28213000D01*
X27879023Y-28169244D01*
X27904081Y-28122923D01*
X27911410Y-28094468D01*
X27910088Y-28092031D01*
X27872545Y-28072667D01*
X27807235Y-28055350D01*
X27725099Y-28041206D01*
X27637079Y-28031363D01*
X27554115Y-28026949D01*
X27487150Y-28029090D01*
G36*
X26330667Y-28985583D02*
G01*
X26341250Y-28996166D01*
X26351834Y-28985583D01*
X26341250Y-28975000D01*
X26330667Y-28985583D01*
G37*
X26330667Y-28985583D02*
X26341250Y-28996166D01*
X26351834Y-28985583D01*
X26341250Y-28975000D01*
X26330667Y-28985583D01*
G36*
X26500000Y-28985583D02*
G01*
X26510584Y-28996166D01*
X26521167Y-28985583D01*
X26510584Y-28975000D01*
X26500000Y-28985583D01*
G37*
X26500000Y-28985583D02*
X26510584Y-28996166D01*
X26521167Y-28985583D01*
X26510584Y-28975000D01*
X26500000Y-28985583D01*
G36*
X26591723Y-28982055D02*
G01*
X26594628Y-28994639D01*
X26605834Y-28996166D01*
X26623256Y-28988422D01*
X26619945Y-28982055D01*
X26594825Y-28979522D01*
X26591723Y-28982055D01*
G37*
X26591723Y-28982055D02*
X26594628Y-28994639D01*
X26605834Y-28996166D01*
X26623256Y-28988422D01*
X26619945Y-28982055D01*
X26594825Y-28979522D01*
X26591723Y-28982055D01*
G36*
X26690500Y-29006750D02*
G01*
X26701084Y-29017333D01*
X26711667Y-29006750D01*
X26701084Y-28996166D01*
X26690500Y-29006750D01*
G37*
X26690500Y-29006750D02*
X26701084Y-29017333D01*
X26711667Y-29006750D01*
X26701084Y-28996166D01*
X26690500Y-29006750D01*
G36*
X29216389Y-29024388D02*
G01*
X29219295Y-29036972D01*
X29230500Y-29038500D01*
X29247923Y-29030755D01*
X29244612Y-29024388D01*
X29219492Y-29021855D01*
X29216389Y-29024388D01*
G37*
X29216389Y-29024388D02*
X29219295Y-29036972D01*
X29230500Y-29038500D01*
X29247923Y-29030755D01*
X29244612Y-29024388D01*
X29219492Y-29021855D01*
X29216389Y-29024388D01*
G36*
X26097834Y-29049083D02*
G01*
X26108417Y-29059666D01*
X26119000Y-29049083D01*
X26108417Y-29038500D01*
X26097834Y-29049083D01*
G37*
X26097834Y-29049083D02*
X26108417Y-29059666D01*
X26119000Y-29049083D01*
X26108417Y-29038500D01*
X26097834Y-29049083D01*
G36*
X26140167Y-29049083D02*
G01*
X26150750Y-29059666D01*
X26161334Y-29049083D01*
X26150750Y-29038500D01*
X26140167Y-29049083D01*
G37*
X26140167Y-29049083D02*
X26150750Y-29059666D01*
X26161334Y-29049083D01*
X26150750Y-29038500D01*
X26140167Y-29049083D01*
G36*
X29230500Y-29070250D02*
G01*
X29241084Y-29080833D01*
X29251667Y-29070250D01*
X29241084Y-29059666D01*
X29230500Y-29070250D01*
G37*
X29230500Y-29070250D02*
X29241084Y-29080833D01*
X29251667Y-29070250D01*
X29241084Y-29059666D01*
X29230500Y-29070250D01*
G36*
X29315167Y-29070250D02*
G01*
X29325750Y-29080833D01*
X29336334Y-29070250D01*
X29325750Y-29059666D01*
X29315167Y-29070250D01*
G37*
X29315167Y-29070250D02*
X29325750Y-29080833D01*
X29336334Y-29070250D01*
X29325750Y-29059666D01*
X29315167Y-29070250D01*
G36*
X26119000Y-29091416D02*
G01*
X26129584Y-29102000D01*
X26140167Y-29091416D01*
X26129584Y-29080833D01*
X26119000Y-29091416D01*
G37*
X26119000Y-29091416D02*
X26129584Y-29102000D01*
X26140167Y-29091416D01*
X26129584Y-29080833D01*
X26119000Y-29091416D01*
G36*
X26714938Y-29089395D02*
G01*
X26692393Y-29109071D01*
X26690500Y-29113832D01*
X26700546Y-29122532D01*
X26721460Y-29103038D01*
X26724272Y-29098729D01*
X26726767Y-29084245D01*
X26714938Y-29089395D01*
G37*
X26714938Y-29089395D02*
X26692393Y-29109071D01*
X26690500Y-29113832D01*
X26700546Y-29122532D01*
X26721460Y-29103038D01*
X26724272Y-29098729D01*
X26726767Y-29084245D01*
X26714938Y-29089395D01*
G36*
X29360771Y-29089395D02*
G01*
X29338226Y-29109071D01*
X29336334Y-29113832D01*
X29346379Y-29122532D01*
X29367293Y-29103038D01*
X29370105Y-29098729D01*
X29372600Y-29084245D01*
X29360771Y-29089395D01*
G37*
X29360771Y-29089395D02*
X29338226Y-29109071D01*
X29336334Y-29113832D01*
X29346379Y-29122532D01*
X29367293Y-29103038D01*
X29370105Y-29098729D01*
X29372600Y-29084245D01*
X29360771Y-29089395D01*
G36*
X26690500Y-29176083D02*
G01*
X26701084Y-29186666D01*
X26711667Y-29176083D01*
X26701084Y-29165500D01*
X26690500Y-29176083D01*
G37*
X26690500Y-29176083D02*
X26701084Y-29186666D01*
X26711667Y-29176083D01*
X26701084Y-29165500D01*
X26690500Y-29176083D01*
G36*
X27833500Y-29176083D02*
G01*
X27844084Y-29186666D01*
X27854667Y-29176083D01*
X27844084Y-29165500D01*
X27833500Y-29176083D01*
G37*
X27833500Y-29176083D02*
X27844084Y-29186666D01*
X27854667Y-29176083D01*
X27844084Y-29165500D01*
X27833500Y-29176083D01*
G36*
X26140167Y-29197250D02*
G01*
X26150750Y-29207833D01*
X26161334Y-29197250D01*
X26150750Y-29186666D01*
X26140167Y-29197250D01*
G37*
X26140167Y-29197250D02*
X26150750Y-29207833D01*
X26161334Y-29197250D01*
X26150750Y-29186666D01*
X26140167Y-29197250D01*
G36*
X29274816Y-29095135D02*
G01*
X29275883Y-29130464D01*
X29275016Y-29144333D01*
X29269844Y-29165411D01*
X29255020Y-29149463D01*
X29251667Y-29144333D01*
X29234895Y-29127391D01*
X29231149Y-29133750D01*
X29241549Y-29169581D01*
X29248320Y-29181975D01*
X29265884Y-29191532D01*
X29286463Y-29162815D01*
X29289531Y-29156273D01*
X29301960Y-29108616D01*
X29292678Y-29090599D01*
X29275227Y-29089507D01*
X29274816Y-29095135D01*
G37*
X29274816Y-29095135D02*
X29275883Y-29130464D01*
X29275016Y-29144333D01*
X29269844Y-29165411D01*
X29255020Y-29149463D01*
X29251667Y-29144333D01*
X29234895Y-29127391D01*
X29231149Y-29133750D01*
X29241549Y-29169581D01*
X29248320Y-29181975D01*
X29265884Y-29191532D01*
X29286463Y-29162815D01*
X29289531Y-29156273D01*
X29301960Y-29108616D01*
X29292678Y-29090599D01*
X29275227Y-29089507D01*
X29274816Y-29095135D01*
G36*
X26923334Y-29239583D02*
G01*
X26933917Y-29250166D01*
X26944500Y-29239583D01*
X26933917Y-29229000D01*
X26923334Y-29239583D01*
G37*
X26923334Y-29239583D02*
X26933917Y-29250166D01*
X26944500Y-29239583D01*
X26933917Y-29229000D01*
X26923334Y-29239583D01*
G36*
X28962389Y-29214888D02*
G01*
X28959856Y-29240008D01*
X28962389Y-29243111D01*
X28974973Y-29240205D01*
X28976500Y-29229000D01*
X28968756Y-29211577D01*
X28962389Y-29214888D01*
G37*
X28962389Y-29214888D02*
X28959856Y-29240008D01*
X28962389Y-29243111D01*
X28974973Y-29240205D01*
X28976500Y-29229000D01*
X28968756Y-29211577D01*
X28962389Y-29214888D01*
G36*
X29230500Y-29239583D02*
G01*
X29241084Y-29250166D01*
X29251667Y-29239583D01*
X29241084Y-29229000D01*
X29230500Y-29239583D01*
G37*
X29230500Y-29239583D02*
X29241084Y-29250166D01*
X29251667Y-29239583D01*
X29241084Y-29229000D01*
X29230500Y-29239583D01*
G36*
X27797875Y-29225031D02*
G01*
X27795351Y-29258112D01*
X27799546Y-29265600D01*
X27809166Y-29259287D01*
X27810663Y-29237819D01*
X27805493Y-29215233D01*
X27797875Y-29225031D01*
G37*
X27797875Y-29225031D02*
X27795351Y-29258112D01*
X27799546Y-29265600D01*
X27809166Y-29259287D01*
X27810663Y-29237819D01*
X27805493Y-29215233D01*
X27797875Y-29225031D01*
G36*
X26902167Y-29281916D02*
G01*
X26912750Y-29292500D01*
X26923334Y-29281916D01*
X26912750Y-29271333D01*
X26902167Y-29281916D01*
G37*
X26902167Y-29281916D02*
X26912750Y-29292500D01*
X26923334Y-29281916D01*
X26912750Y-29271333D01*
X26902167Y-29281916D01*
G36*
X27480723Y-29257222D02*
G01*
X27478189Y-29282342D01*
X27480723Y-29285444D01*
X27493306Y-29282538D01*
X27494834Y-29271333D01*
X27487089Y-29253910D01*
X27480723Y-29257222D01*
G37*
X27480723Y-29257222D02*
X27478189Y-29282342D01*
X27480723Y-29285444D01*
X27493306Y-29282538D01*
X27494834Y-29271333D01*
X27487089Y-29253910D01*
X27480723Y-29257222D01*
G36*
X29018834Y-29281916D02*
G01*
X29029417Y-29292500D01*
X29040000Y-29281916D01*
X29029417Y-29271333D01*
X29018834Y-29281916D01*
G37*
X29018834Y-29281916D02*
X29029417Y-29292500D01*
X29040000Y-29281916D01*
X29029417Y-29271333D01*
X29018834Y-29281916D01*
G36*
X28532000Y-29303083D02*
G01*
X28542584Y-29313666D01*
X28553167Y-29303083D01*
X28542584Y-29292500D01*
X28532000Y-29303083D01*
G37*
X28532000Y-29303083D02*
X28542584Y-29313666D01*
X28553167Y-29303083D01*
X28542584Y-29292500D01*
X28532000Y-29303083D01*
G36*
X26845308Y-29306172D02*
G01*
X26849250Y-29313666D01*
X26869194Y-29333880D01*
X26872916Y-29334833D01*
X26874360Y-29321160D01*
X26870417Y-29313666D01*
X26850474Y-29293452D01*
X26846752Y-29292500D01*
X26845308Y-29306172D01*
G37*
X26845308Y-29306172D02*
X26849250Y-29313666D01*
X26869194Y-29333880D01*
X26872916Y-29334833D01*
X26874360Y-29321160D01*
X26870417Y-29313666D01*
X26850474Y-29293452D01*
X26846752Y-29292500D01*
X26845308Y-29306172D01*
G36*
X27519271Y-29301062D02*
G01*
X27496548Y-29322374D01*
X27501209Y-29334627D01*
X27504168Y-29334833D01*
X27522071Y-29319799D01*
X27528605Y-29310396D01*
X27531100Y-29295911D01*
X27519271Y-29301062D01*
G37*
X27519271Y-29301062D02*
X27496548Y-29322374D01*
X27501209Y-29334627D01*
X27504168Y-29334833D01*
X27522071Y-29319799D01*
X27528605Y-29310396D01*
X27531100Y-29295911D01*
X27519271Y-29301062D01*
G36*
X28024000Y-29324250D02*
G01*
X28034584Y-29334833D01*
X28045167Y-29324250D01*
X28034584Y-29313666D01*
X28024000Y-29324250D01*
G37*
X28024000Y-29324250D02*
X28034584Y-29334833D01*
X28045167Y-29324250D01*
X28034584Y-29313666D01*
X28024000Y-29324250D01*
G36*
X28341500Y-29324250D02*
G01*
X28352084Y-29334833D01*
X28362667Y-29324250D01*
X28352084Y-29313666D01*
X28341500Y-29324250D01*
G37*
X28341500Y-29324250D02*
X28352084Y-29334833D01*
X28362667Y-29324250D01*
X28352084Y-29313666D01*
X28341500Y-29324250D01*
G36*
X28997667Y-29324250D02*
G01*
X29008250Y-29334833D01*
X29018834Y-29324250D01*
X29008250Y-29313666D01*
X28997667Y-29324250D01*
G37*
X28997667Y-29324250D02*
X29008250Y-29334833D01*
X29018834Y-29324250D01*
X29008250Y-29313666D01*
X28997667Y-29324250D01*
G36*
X26478834Y-29345416D02*
G01*
X26489417Y-29356000D01*
X26500000Y-29345416D01*
X26489417Y-29334833D01*
X26478834Y-29345416D01*
G37*
X26478834Y-29345416D02*
X26489417Y-29356000D01*
X26500000Y-29345416D01*
X26489417Y-29334833D01*
X26478834Y-29345416D01*
G36*
X27198500Y-29345416D02*
G01*
X27209084Y-29356000D01*
X27219667Y-29345416D01*
X27209084Y-29334833D01*
X27198500Y-29345416D01*
G37*
X27198500Y-29345416D02*
X27209084Y-29356000D01*
X27219667Y-29345416D01*
X27209084Y-29334833D01*
X27198500Y-29345416D01*
G36*
X26930389Y-29363055D02*
G01*
X26933295Y-29375639D01*
X26944500Y-29377166D01*
X26961923Y-29369422D01*
X26958612Y-29363055D01*
X26933492Y-29360522D01*
X26930389Y-29363055D01*
G37*
X26930389Y-29363055D02*
X26933295Y-29375639D01*
X26944500Y-29377166D01*
X26961923Y-29369422D01*
X26958612Y-29363055D01*
X26933492Y-29360522D01*
X26930389Y-29363055D01*
G36*
X28595500Y-29366583D02*
G01*
X28606084Y-29377166D01*
X28616667Y-29366583D01*
X28606084Y-29356000D01*
X28595500Y-29366583D01*
G37*
X28595500Y-29366583D02*
X28606084Y-29377166D01*
X28616667Y-29366583D01*
X28606084Y-29356000D01*
X28595500Y-29366583D01*
G36*
X26838667Y-29387750D02*
G01*
X26849250Y-29398333D01*
X26859834Y-29387750D01*
X26849250Y-29377166D01*
X26838667Y-29387750D01*
G37*
X26838667Y-29387750D02*
X26849250Y-29398333D01*
X26859834Y-29387750D01*
X26849250Y-29377166D01*
X26838667Y-29387750D01*
G36*
X27156167Y-29387750D02*
G01*
X27166750Y-29398333D01*
X27177334Y-29387750D01*
X27166750Y-29377166D01*
X27156167Y-29387750D01*
G37*
X27156167Y-29387750D02*
X27166750Y-29398333D01*
X27177334Y-29387750D01*
X27166750Y-29377166D01*
X27156167Y-29387750D01*
G36*
X27240834Y-29387750D02*
G01*
X27251417Y-29398333D01*
X27262000Y-29387750D01*
X27251417Y-29377166D01*
X27240834Y-29387750D01*
G37*
X27240834Y-29387750D02*
X27251417Y-29398333D01*
X27262000Y-29387750D01*
X27251417Y-29377166D01*
X27240834Y-29387750D01*
G36*
X27650056Y-29384222D02*
G01*
X27652962Y-29396805D01*
X27664167Y-29398333D01*
X27681590Y-29390588D01*
X27678278Y-29384222D01*
X27653158Y-29381688D01*
X27650056Y-29384222D01*
G37*
X27650056Y-29384222D02*
X27652962Y-29396805D01*
X27664167Y-29398333D01*
X27681590Y-29390588D01*
X27678278Y-29384222D01*
X27653158Y-29381688D01*
X27650056Y-29384222D01*
G36*
X28341500Y-29387750D02*
G01*
X28352084Y-29398333D01*
X28362667Y-29387750D01*
X28352084Y-29377166D01*
X28341500Y-29387750D01*
G37*
X28341500Y-29387750D02*
X28352084Y-29398333D01*
X28362667Y-29387750D01*
X28352084Y-29377166D01*
X28341500Y-29387750D01*
G36*
X26333938Y-29385728D02*
G01*
X26311214Y-29407041D01*
X26315876Y-29419293D01*
X26318835Y-29419500D01*
X26336738Y-29404465D01*
X26343272Y-29395062D01*
X26345767Y-29380578D01*
X26333938Y-29385728D01*
G37*
X26333938Y-29385728D02*
X26311214Y-29407041D01*
X26315876Y-29419293D01*
X26318835Y-29419500D01*
X26336738Y-29404465D01*
X26343272Y-29395062D01*
X26345767Y-29380578D01*
X26333938Y-29385728D01*
G36*
X27205141Y-29412005D02*
G01*
X27209084Y-29419500D01*
X27229027Y-29439714D01*
X27232749Y-29440666D01*
X27234193Y-29426994D01*
X27230250Y-29419500D01*
X27210307Y-29399285D01*
X27206585Y-29398333D01*
X27205141Y-29412005D01*
G37*
X27205141Y-29412005D02*
X27209084Y-29419500D01*
X27229027Y-29439714D01*
X27232749Y-29440666D01*
X27234193Y-29426994D01*
X27230250Y-29419500D01*
X27210307Y-29399285D01*
X27206585Y-29398333D01*
X27205141Y-29412005D01*
G36*
X27283167Y-29430083D02*
G01*
X27293750Y-29440666D01*
X27304334Y-29430083D01*
X27293750Y-29419500D01*
X27283167Y-29430083D01*
G37*
X27283167Y-29430083D02*
X27293750Y-29440666D01*
X27304334Y-29430083D01*
X27293750Y-29419500D01*
X27283167Y-29430083D01*
G36*
X27411029Y-29413698D02*
G01*
X27410167Y-29419500D01*
X27417389Y-29440116D01*
X27419501Y-29440666D01*
X27437573Y-29425834D01*
X27441917Y-29419500D01*
X27440239Y-29399995D01*
X27432583Y-29398333D01*
X27411029Y-29413698D01*
G37*
X27411029Y-29413698D02*
X27410167Y-29419500D01*
X27417389Y-29440116D01*
X27419501Y-29440666D01*
X27437573Y-29425834D01*
X27441917Y-29419500D01*
X27440239Y-29399995D01*
X27432583Y-29398333D01*
X27411029Y-29413698D01*
G36*
X28073041Y-29394364D02*
G01*
X28070518Y-29427445D01*
X28074712Y-29434934D01*
X28084333Y-29428621D01*
X28085829Y-29407152D01*
X28080660Y-29384567D01*
X28073041Y-29394364D01*
G37*
X28073041Y-29394364D02*
X28070518Y-29427445D01*
X28074712Y-29434934D01*
X28084333Y-29428621D01*
X28085829Y-29407152D01*
X28080660Y-29384567D01*
X28073041Y-29394364D01*
G36*
X28616667Y-29430083D02*
G01*
X28627250Y-29440666D01*
X28637834Y-29430083D01*
X28627250Y-29419500D01*
X28616667Y-29430083D01*
G37*
X28616667Y-29430083D02*
X28627250Y-29440666D01*
X28637834Y-29430083D01*
X28627250Y-29419500D01*
X28616667Y-29430083D01*
G36*
X26274223Y-29426555D02*
G01*
X26271689Y-29451675D01*
X26274223Y-29454777D01*
X26286806Y-29451872D01*
X26288334Y-29440666D01*
X26280589Y-29423244D01*
X26274223Y-29426555D01*
G37*
X26274223Y-29426555D02*
X26271689Y-29451675D01*
X26274223Y-29454777D01*
X26286806Y-29451872D01*
X26288334Y-29440666D01*
X26280589Y-29423244D01*
X26274223Y-29426555D01*
G36*
X26669334Y-29451250D02*
G01*
X26679917Y-29461833D01*
X26690500Y-29451250D01*
X26679917Y-29440666D01*
X26669334Y-29451250D01*
G37*
X26669334Y-29451250D02*
X26679917Y-29461833D01*
X26690500Y-29451250D01*
X26679917Y-29440666D01*
X26669334Y-29451250D01*
G36*
X27516000Y-29451250D02*
G01*
X27526584Y-29461833D01*
X27537167Y-29451250D01*
X27526584Y-29440666D01*
X27516000Y-29451250D01*
G37*
X27516000Y-29451250D02*
X27526584Y-29461833D01*
X27537167Y-29451250D01*
X27526584Y-29440666D01*
X27516000Y-29451250D01*
G36*
X27621834Y-29451250D02*
G01*
X27632417Y-29461833D01*
X27643000Y-29451250D01*
X27632417Y-29440666D01*
X27621834Y-29451250D01*
G37*
X27621834Y-29451250D02*
X27632417Y-29461833D01*
X27643000Y-29451250D01*
X27632417Y-29440666D01*
X27621834Y-29451250D01*
G36*
X28447334Y-29451250D02*
G01*
X28457917Y-29461833D01*
X28468500Y-29451250D01*
X28457917Y-29440666D01*
X28447334Y-29451250D01*
G37*
X28447334Y-29451250D02*
X28457917Y-29461833D01*
X28468500Y-29451250D01*
X28457917Y-29440666D01*
X28447334Y-29451250D01*
G36*
X26803389Y-29447722D02*
G01*
X26800856Y-29472842D01*
X26803389Y-29475944D01*
X26815973Y-29473038D01*
X26817500Y-29461833D01*
X26809756Y-29444410D01*
X26803389Y-29447722D01*
G37*
X26803389Y-29447722D02*
X26800856Y-29472842D01*
X26803389Y-29475944D01*
X26815973Y-29473038D01*
X26817500Y-29461833D01*
X26809756Y-29444410D01*
X26803389Y-29447722D01*
G36*
X27558334Y-29472416D02*
G01*
X27568917Y-29483000D01*
X27579500Y-29472416D01*
X27568917Y-29461833D01*
X27558334Y-29472416D01*
G37*
X27558334Y-29472416D02*
X27568917Y-29483000D01*
X27579500Y-29472416D01*
X27568917Y-29461833D01*
X27558334Y-29472416D01*
G36*
X26309500Y-29493583D02*
G01*
X26320084Y-29504166D01*
X26330667Y-29493583D01*
X26320084Y-29483000D01*
X26309500Y-29493583D01*
G37*
X26309500Y-29493583D02*
X26320084Y-29504166D01*
X26330667Y-29493583D01*
X26320084Y-29483000D01*
X26309500Y-29493583D01*
G36*
X26754000Y-29514750D02*
G01*
X26764584Y-29525333D01*
X26775167Y-29514750D01*
X26764584Y-29504166D01*
X26754000Y-29514750D01*
G37*
X26754000Y-29514750D02*
X26764584Y-29525333D01*
X26775167Y-29514750D01*
X26764584Y-29504166D01*
X26754000Y-29514750D01*
G36*
X27050334Y-29514750D02*
G01*
X27060917Y-29525333D01*
X27071500Y-29514750D01*
X27060917Y-29504166D01*
X27050334Y-29514750D01*
G37*
X27050334Y-29514750D02*
X27060917Y-29525333D01*
X27071500Y-29514750D01*
X27060917Y-29504166D01*
X27050334Y-29514750D01*
G36*
X28640726Y-29093913D02*
G01*
X28620535Y-29105886D01*
X28599772Y-29124573D01*
X28591737Y-29149378D01*
X28595653Y-29192041D01*
X28610209Y-29261925D01*
X28649869Y-29383356D01*
X28706523Y-29466792D01*
X28781378Y-29513515D01*
X28857690Y-29525333D01*
X28926712Y-29519476D01*
X28968719Y-29498599D01*
X28984052Y-29480904D01*
X29002067Y-29419910D01*
X28981508Y-29345831D01*
X28923191Y-29261104D01*
X28903115Y-29238869D01*
X28865129Y-29194294D01*
X28845777Y-29162847D01*
X28845594Y-29155295D01*
X28838919Y-29145775D01*
X28824530Y-29144333D01*
X28784492Y-29135295D01*
X28730407Y-29113321D01*
X28726044Y-29111178D01*
X28675486Y-29090870D01*
X28640726Y-29093913D01*
G37*
X28640726Y-29093913D02*
X28620535Y-29105886D01*
X28599772Y-29124573D01*
X28591737Y-29149378D01*
X28595653Y-29192041D01*
X28610209Y-29261925D01*
X28649869Y-29383356D01*
X28706523Y-29466792D01*
X28781378Y-29513515D01*
X28857690Y-29525333D01*
X28926712Y-29519476D01*
X28968719Y-29498599D01*
X28984052Y-29480904D01*
X29002067Y-29419910D01*
X28981508Y-29345831D01*
X28923191Y-29261104D01*
X28903115Y-29238869D01*
X28865129Y-29194294D01*
X28845777Y-29162847D01*
X28845594Y-29155295D01*
X28838919Y-29145775D01*
X28824530Y-29144333D01*
X28784492Y-29135295D01*
X28730407Y-29113321D01*
X28726044Y-29111178D01*
X28675486Y-29090870D01*
X28640726Y-29093913D01*
G36*
X27135000Y-29535916D02*
G01*
X27145584Y-29546500D01*
X27156167Y-29535916D01*
X27145584Y-29525333D01*
X27135000Y-29535916D01*
G37*
X27135000Y-29535916D02*
X27145584Y-29546500D01*
X27156167Y-29535916D01*
X27145584Y-29525333D01*
X27135000Y-29535916D01*
G36*
X28447334Y-29535916D02*
G01*
X28457917Y-29546500D01*
X28468500Y-29535916D01*
X28457917Y-29525333D01*
X28447334Y-29535916D01*
G37*
X28447334Y-29535916D02*
X28457917Y-29546500D01*
X28468500Y-29535916D01*
X28457917Y-29525333D01*
X28447334Y-29535916D01*
G36*
X28729556Y-29553555D02*
G01*
X28732462Y-29566139D01*
X28743667Y-29567666D01*
X28761090Y-29559922D01*
X28757778Y-29553555D01*
X28732658Y-29551022D01*
X28729556Y-29553555D01*
G37*
X28729556Y-29553555D02*
X28732462Y-29566139D01*
X28743667Y-29567666D01*
X28761090Y-29559922D01*
X28757778Y-29553555D01*
X28732658Y-29551022D01*
X28729556Y-29553555D01*
G36*
X27099723Y-29553555D02*
G01*
X27097189Y-29578675D01*
X27099723Y-29581777D01*
X27112306Y-29578872D01*
X27113834Y-29567666D01*
X27106089Y-29550244D01*
X27099723Y-29553555D01*
G37*
X27099723Y-29553555D02*
X27097189Y-29578675D01*
X27099723Y-29581777D01*
X27112306Y-29578872D01*
X27113834Y-29567666D01*
X27106089Y-29550244D01*
X27099723Y-29553555D01*
G36*
X28489667Y-29578250D02*
G01*
X28500250Y-29588833D01*
X28510834Y-29578250D01*
X28500250Y-29567666D01*
X28489667Y-29578250D01*
G37*
X28489667Y-29578250D02*
X28500250Y-29588833D01*
X28510834Y-29578250D01*
X28500250Y-29567666D01*
X28489667Y-29578250D01*
G36*
X27156167Y-29599416D02*
G01*
X27166750Y-29610000D01*
X27177334Y-29599416D01*
X27166750Y-29588833D01*
X27156167Y-29599416D01*
G37*
X27156167Y-29599416D02*
X27166750Y-29610000D01*
X27177334Y-29599416D01*
X27166750Y-29588833D01*
X27156167Y-29599416D01*
G36*
X28920056Y-29595888D02*
G01*
X28922962Y-29608472D01*
X28934167Y-29610000D01*
X28951590Y-29602255D01*
X28948278Y-29595888D01*
X28923158Y-29593355D01*
X28920056Y-29595888D01*
G37*
X28920056Y-29595888D02*
X28922962Y-29608472D01*
X28934167Y-29610000D01*
X28951590Y-29602255D01*
X28948278Y-29595888D01*
X28923158Y-29593355D01*
X28920056Y-29595888D01*
G36*
X26690500Y-29620583D02*
G01*
X26701084Y-29631166D01*
X26711667Y-29620583D01*
X26701084Y-29610000D01*
X26690500Y-29620583D01*
G37*
X26690500Y-29620583D02*
X26701084Y-29631166D01*
X26711667Y-29620583D01*
X26701084Y-29610000D01*
X26690500Y-29620583D01*
G36*
X27367834Y-29620583D02*
G01*
X27378417Y-29631166D01*
X27389000Y-29620583D01*
X27378417Y-29610000D01*
X27367834Y-29620583D01*
G37*
X27367834Y-29620583D02*
X27378417Y-29631166D01*
X27389000Y-29620583D01*
X27378417Y-29610000D01*
X27367834Y-29620583D01*
G36*
X27833500Y-29620583D02*
G01*
X27844084Y-29631166D01*
X27854667Y-29620583D01*
X27844084Y-29610000D01*
X27833500Y-29620583D01*
G37*
X27833500Y-29620583D02*
X27844084Y-29631166D01*
X27854667Y-29620583D01*
X27844084Y-29610000D01*
X27833500Y-29620583D01*
G36*
X28701334Y-29620583D02*
G01*
X28711917Y-29631166D01*
X28722500Y-29620583D01*
X28711917Y-29610000D01*
X28701334Y-29620583D01*
G37*
X28701334Y-29620583D02*
X28711917Y-29631166D01*
X28722500Y-29620583D01*
X28711917Y-29610000D01*
X28701334Y-29620583D01*
G36*
X27057389Y-29617055D02*
G01*
X27054856Y-29642175D01*
X27057389Y-29645277D01*
X27069973Y-29642372D01*
X27071500Y-29631166D01*
X27063756Y-29613744D01*
X27057389Y-29617055D01*
G37*
X27057389Y-29617055D02*
X27054856Y-29642175D01*
X27057389Y-29645277D01*
X27069973Y-29642372D01*
X27071500Y-29631166D01*
X27063756Y-29613744D01*
X27057389Y-29617055D01*
G36*
X27777056Y-29617055D02*
G01*
X27774523Y-29642175D01*
X27777056Y-29645277D01*
X27789640Y-29642372D01*
X27791167Y-29631166D01*
X27783423Y-29613744D01*
X27777056Y-29617055D01*
G37*
X27777056Y-29617055D02*
X27774523Y-29642175D01*
X27777056Y-29645277D01*
X27789640Y-29642372D01*
X27791167Y-29631166D01*
X27783423Y-29613744D01*
X27777056Y-29617055D01*
G36*
X27346667Y-29684083D02*
G01*
X27357250Y-29694666D01*
X27367834Y-29684083D01*
X27357250Y-29673500D01*
X27346667Y-29684083D01*
G37*
X27346667Y-29684083D02*
X27357250Y-29694666D01*
X27367834Y-29684083D01*
X27357250Y-29673500D01*
X27346667Y-29684083D01*
G36*
X28045167Y-29684083D02*
G01*
X28055750Y-29694666D01*
X28066334Y-29684083D01*
X28055750Y-29673500D01*
X28045167Y-29684083D01*
G37*
X28045167Y-29684083D02*
X28055750Y-29694666D01*
X28066334Y-29684083D01*
X28055750Y-29673500D01*
X28045167Y-29684083D01*
G36*
X26449359Y-29651060D02*
G01*
X26445572Y-29673802D01*
X26448154Y-29710356D01*
X26458885Y-29708310D01*
X26469390Y-29692822D01*
X26470439Y-29659102D01*
X26464592Y-29650791D01*
X26449359Y-29651060D01*
G37*
X26449359Y-29651060D02*
X26445572Y-29673802D01*
X26448154Y-29710356D01*
X26458885Y-29708310D01*
X26469390Y-29692822D01*
X26470439Y-29659102D01*
X26464592Y-29650791D01*
X26449359Y-29651060D01*
G36*
X28807167Y-29705250D02*
G01*
X28817750Y-29715833D01*
X28828334Y-29705250D01*
X28817750Y-29694666D01*
X28807167Y-29705250D01*
G37*
X28807167Y-29705250D02*
X28817750Y-29715833D01*
X28828334Y-29705250D01*
X28817750Y-29694666D01*
X28807167Y-29705250D01*
G36*
X28115723Y-29701722D02*
G01*
X28113189Y-29726842D01*
X28115723Y-29729944D01*
X28128306Y-29727038D01*
X28129834Y-29715833D01*
X28122089Y-29698410D01*
X28115723Y-29701722D01*
G37*
X28115723Y-29701722D02*
X28113189Y-29726842D01*
X28115723Y-29729944D01*
X28128306Y-29727038D01*
X28129834Y-29715833D01*
X28122089Y-29698410D01*
X28115723Y-29701722D01*
G36*
X27389000Y-29726416D02*
G01*
X27368808Y-29745437D01*
X27367834Y-29748832D01*
X27384210Y-29757923D01*
X27389000Y-29758166D01*
X27409354Y-29741894D01*
X27410167Y-29735750D01*
X27397200Y-29723109D01*
X27389000Y-29726416D01*
G37*
X27389000Y-29726416D02*
X27368808Y-29745437D01*
X27367834Y-29748832D01*
X27384210Y-29757923D01*
X27389000Y-29758166D01*
X27409354Y-29741894D01*
X27410167Y-29735750D01*
X27397200Y-29723109D01*
X27389000Y-29726416D01*
G36*
X27099723Y-29744055D02*
G01*
X27097189Y-29769175D01*
X27099723Y-29772277D01*
X27112306Y-29769372D01*
X27113834Y-29758166D01*
X27106089Y-29740744D01*
X27099723Y-29744055D01*
G37*
X27099723Y-29744055D02*
X27097189Y-29769175D01*
X27099723Y-29772277D01*
X27112306Y-29769372D01*
X27113834Y-29758166D01*
X27106089Y-29740744D01*
X27099723Y-29744055D01*
G36*
X27791167Y-29768750D02*
G01*
X27801750Y-29779333D01*
X27812334Y-29768750D01*
X27801750Y-29758166D01*
X27791167Y-29768750D01*
G37*
X27791167Y-29768750D02*
X27801750Y-29779333D01*
X27812334Y-29768750D01*
X27801750Y-29758166D01*
X27791167Y-29768750D01*
G36*
X26563500Y-29789916D02*
G01*
X26574084Y-29800500D01*
X26584667Y-29789916D01*
X26574084Y-29779333D01*
X26563500Y-29789916D01*
G37*
X26563500Y-29789916D02*
X26574084Y-29800500D01*
X26584667Y-29789916D01*
X26574084Y-29779333D01*
X26563500Y-29789916D01*
G36*
X26648167Y-29811083D02*
G01*
X26658750Y-29821666D01*
X26669334Y-29811083D01*
X26658750Y-29800500D01*
X26648167Y-29811083D01*
G37*
X26648167Y-29811083D02*
X26658750Y-29821666D01*
X26669334Y-29811083D01*
X26658750Y-29800500D01*
X26648167Y-29811083D01*
G36*
X26918525Y-29415917D02*
G01*
X26902361Y-29429850D01*
X26871114Y-29449914D01*
X26854165Y-29447746D01*
X26841720Y-29447359D01*
X26845227Y-29455323D01*
X26839658Y-29481717D01*
X26809864Y-29522047D01*
X26795845Y-29536385D01*
X26750662Y-29595160D01*
X26721540Y-29661151D01*
X26719467Y-29670311D01*
X26715018Y-29726785D01*
X26732940Y-29764244D01*
X26753298Y-29783020D01*
X26815180Y-29812821D01*
X26888884Y-29821015D01*
X26956936Y-29807606D01*
X26994137Y-29782958D01*
X27016593Y-29739718D01*
X27027494Y-29668162D01*
X27029167Y-29608133D01*
X27031353Y-29530401D01*
X27039929Y-29483432D01*
X27057924Y-29455792D01*
X27072361Y-29445041D01*
X27115595Y-29429427D01*
X27141153Y-29432471D01*
X27156159Y-29438083D01*
X27141189Y-29419268D01*
X27114599Y-29402679D01*
X27082719Y-29418865D01*
X27079539Y-29421455D01*
X27049266Y-29439450D01*
X27034663Y-29425140D01*
X27034544Y-29424791D01*
X27008338Y-29403033D01*
X26963422Y-29400314D01*
X26918525Y-29415917D01*
G37*
X26918525Y-29415917D02*
X26902361Y-29429850D01*
X26871114Y-29449914D01*
X26854165Y-29447746D01*
X26841720Y-29447359D01*
X26845227Y-29455323D01*
X26839658Y-29481717D01*
X26809864Y-29522047D01*
X26795845Y-29536385D01*
X26750662Y-29595160D01*
X26721540Y-29661151D01*
X26719467Y-29670311D01*
X26715018Y-29726785D01*
X26732940Y-29764244D01*
X26753298Y-29783020D01*
X26815180Y-29812821D01*
X26888884Y-29821015D01*
X26956936Y-29807606D01*
X26994137Y-29782958D01*
X27016593Y-29739718D01*
X27027494Y-29668162D01*
X27029167Y-29608133D01*
X27031353Y-29530401D01*
X27039929Y-29483432D01*
X27057924Y-29455792D01*
X27072361Y-29445041D01*
X27115595Y-29429427D01*
X27141153Y-29432471D01*
X27156159Y-29438083D01*
X27141189Y-29419268D01*
X27114599Y-29402679D01*
X27082719Y-29418865D01*
X27079539Y-29421455D01*
X27049266Y-29439450D01*
X27034663Y-29425140D01*
X27034544Y-29424791D01*
X27008338Y-29403033D01*
X26963422Y-29400314D01*
X26918525Y-29415917D01*
G36*
X28532000Y-29811083D02*
G01*
X28542584Y-29821666D01*
X28553167Y-29811083D01*
X28542584Y-29800500D01*
X28532000Y-29811083D01*
G37*
X28532000Y-29811083D02*
X28542584Y-29821666D01*
X28553167Y-29811083D01*
X28542584Y-29800500D01*
X28532000Y-29811083D01*
G36*
X28616667Y-29811083D02*
G01*
X28627250Y-29821666D01*
X28637834Y-29811083D01*
X28627250Y-29800500D01*
X28616667Y-29811083D01*
G37*
X28616667Y-29811083D02*
X28627250Y-29821666D01*
X28637834Y-29811083D01*
X28627250Y-29800500D01*
X28616667Y-29811083D01*
G36*
X26584667Y-29832250D02*
G01*
X26595250Y-29842833D01*
X26605834Y-29832250D01*
X26595250Y-29821666D01*
X26584667Y-29832250D01*
G37*
X26584667Y-29832250D02*
X26595250Y-29842833D01*
X26605834Y-29832250D01*
X26595250Y-29821666D01*
X26584667Y-29832250D01*
G36*
X27396056Y-29807555D02*
G01*
X27393523Y-29832675D01*
X27396056Y-29835777D01*
X27408640Y-29832872D01*
X27410167Y-29821666D01*
X27402423Y-29804244D01*
X27396056Y-29807555D01*
G37*
X27396056Y-29807555D02*
X27393523Y-29832675D01*
X27396056Y-29835777D01*
X27408640Y-29832872D01*
X27410167Y-29821666D01*
X27402423Y-29804244D01*
X27396056Y-29807555D01*
G36*
X27346667Y-29853416D02*
G01*
X27357250Y-29864000D01*
X27367834Y-29853416D01*
X27357250Y-29842833D01*
X27346667Y-29853416D01*
G37*
X27346667Y-29853416D02*
X27357250Y-29864000D01*
X27367834Y-29853416D01*
X27357250Y-29842833D01*
X27346667Y-29853416D01*
G36*
X28142829Y-29326253D02*
G01*
X28124037Y-29355594D01*
X28117786Y-29422414D01*
X28124094Y-29523752D01*
X28140734Y-29643283D01*
X28169927Y-29719237D01*
X28224252Y-29783864D01*
X28293141Y-29829605D01*
X28366026Y-29848901D01*
X28417508Y-29841259D01*
X28453466Y-29819793D01*
X28487765Y-29788493D01*
X28511161Y-29758012D01*
X28514409Y-29739004D01*
X28507981Y-29737000D01*
X28493584Y-29718395D01*
X28496172Y-29668208D01*
X28501069Y-29630160D01*
X28498086Y-29624125D01*
X28496473Y-29627618D01*
X28480982Y-29632738D01*
X28458056Y-29610217D01*
X28434934Y-29572122D01*
X28418858Y-29530521D01*
X28417068Y-29497480D01*
X28417555Y-29496080D01*
X28415538Y-29461781D01*
X28406686Y-29452291D01*
X28392837Y-29454909D01*
X28396431Y-29476608D01*
X28397092Y-29493489D01*
X28376570Y-29475515D01*
X28364936Y-29461833D01*
X28300548Y-29386109D01*
X28253655Y-29339565D01*
X28216454Y-29317438D01*
X28181140Y-29314965D01*
X28142829Y-29326253D01*
G37*
X28142829Y-29326253D02*
X28124037Y-29355594D01*
X28117786Y-29422414D01*
X28124094Y-29523752D01*
X28140734Y-29643283D01*
X28169927Y-29719237D01*
X28224252Y-29783864D01*
X28293141Y-29829605D01*
X28366026Y-29848901D01*
X28417508Y-29841259D01*
X28453466Y-29819793D01*
X28487765Y-29788493D01*
X28511161Y-29758012D01*
X28514409Y-29739004D01*
X28507981Y-29737000D01*
X28493584Y-29718395D01*
X28496172Y-29668208D01*
X28501069Y-29630160D01*
X28498086Y-29624125D01*
X28496473Y-29627618D01*
X28480982Y-29632738D01*
X28458056Y-29610217D01*
X28434934Y-29572122D01*
X28418858Y-29530521D01*
X28417068Y-29497480D01*
X28417555Y-29496080D01*
X28415538Y-29461781D01*
X28406686Y-29452291D01*
X28392837Y-29454909D01*
X28396431Y-29476608D01*
X28397092Y-29493489D01*
X28376570Y-29475515D01*
X28364936Y-29461833D01*
X28300548Y-29386109D01*
X28253655Y-29339565D01*
X28216454Y-29317438D01*
X28181140Y-29314965D01*
X28142829Y-29326253D01*
G36*
X28687223Y-29828722D02*
G01*
X28684689Y-29853842D01*
X28687223Y-29856944D01*
X28699806Y-29854038D01*
X28701334Y-29842833D01*
X28693589Y-29825410D01*
X28687223Y-29828722D01*
G37*
X28687223Y-29828722D02*
X28684689Y-29853842D01*
X28687223Y-29856944D01*
X28699806Y-29854038D01*
X28701334Y-29842833D01*
X28693589Y-29825410D01*
X28687223Y-29828722D01*
G36*
X26780900Y-29893545D02*
G01*
X26787213Y-29903165D01*
X26808681Y-29904662D01*
X26831267Y-29899492D01*
X26821469Y-29891874D01*
X26788388Y-29889350D01*
X26780900Y-29893545D01*
G37*
X26780900Y-29893545D02*
X26787213Y-29903165D01*
X26808681Y-29904662D01*
X26831267Y-29899492D01*
X26821469Y-29891874D01*
X26788388Y-29889350D01*
X26780900Y-29893545D01*
G36*
X28341500Y-29895750D02*
G01*
X28352084Y-29906333D01*
X28362667Y-29895750D01*
X28352084Y-29885166D01*
X28341500Y-29895750D01*
G37*
X28341500Y-29895750D02*
X28352084Y-29906333D01*
X28362667Y-29895750D01*
X28352084Y-29885166D01*
X28341500Y-29895750D01*
G36*
X26634444Y-29856698D02*
G01*
X26635032Y-29872031D01*
X26646893Y-29909350D01*
X26653022Y-29918243D01*
X26661891Y-29913634D01*
X26661303Y-29898302D01*
X26649441Y-29860983D01*
X26643313Y-29852089D01*
X26634444Y-29856698D01*
G37*
X26634444Y-29856698D02*
X26635032Y-29872031D01*
X26646893Y-29909350D01*
X26653022Y-29918243D01*
X26661891Y-29913634D01*
X26661303Y-29898302D01*
X26649441Y-29860983D01*
X26643313Y-29852089D01*
X26634444Y-29856698D01*
G36*
X26838667Y-29959250D02*
G01*
X26849250Y-29969833D01*
X26859834Y-29959250D01*
X26849250Y-29948666D01*
X26838667Y-29959250D01*
G37*
X26838667Y-29959250D02*
X26849250Y-29969833D01*
X26859834Y-29959250D01*
X26849250Y-29948666D01*
X26838667Y-29959250D01*
G36*
X28341500Y-29959250D02*
G01*
X28352084Y-29969833D01*
X28362667Y-29959250D01*
X28352084Y-29948666D01*
X28341500Y-29959250D01*
G37*
X28341500Y-29959250D02*
X28352084Y-29969833D01*
X28362667Y-29959250D01*
X28352084Y-29948666D01*
X28341500Y-29959250D01*
G36*
X28447334Y-29959250D02*
G01*
X28457917Y-29969833D01*
X28468500Y-29959250D01*
X28457917Y-29948666D01*
X28447334Y-29959250D01*
G37*
X28447334Y-29959250D02*
X28457917Y-29969833D01*
X28468500Y-29959250D01*
X28457917Y-29948666D01*
X28447334Y-29959250D01*
G36*
X26782223Y-29976888D02*
G01*
X26785128Y-29989472D01*
X26796334Y-29991000D01*
X26813756Y-29983255D01*
X26810445Y-29976888D01*
X26785325Y-29974355D01*
X26782223Y-29976888D01*
G37*
X26782223Y-29976888D02*
X26785128Y-29989472D01*
X26796334Y-29991000D01*
X26813756Y-29983255D01*
X26810445Y-29976888D01*
X26785325Y-29974355D01*
X26782223Y-29976888D01*
G36*
X26930389Y-29976888D02*
G01*
X26933295Y-29989472D01*
X26944500Y-29991000D01*
X26961923Y-29983255D01*
X26958612Y-29976888D01*
X26933492Y-29974355D01*
X26930389Y-29976888D01*
G37*
X26930389Y-29976888D02*
X26933295Y-29989472D01*
X26944500Y-29991000D01*
X26961923Y-29983255D01*
X26958612Y-29976888D01*
X26933492Y-29974355D01*
X26930389Y-29976888D01*
G36*
X27589783Y-29504416D02*
G01*
X27554241Y-29518881D01*
X27538337Y-29515472D01*
X27524815Y-29517655D01*
X27527518Y-29530719D01*
X27521950Y-29563974D01*
X27494292Y-29610276D01*
X27484968Y-29621777D01*
X27447433Y-29679728D01*
X27432527Y-29748568D01*
X27431360Y-29784625D01*
X27435875Y-29847278D01*
X27447958Y-29881556D01*
X27454765Y-29885166D01*
X27468689Y-29900649D01*
X27465591Y-29918016D01*
X27463434Y-29940282D01*
X27471511Y-29939415D01*
X27498172Y-29943847D01*
X27516751Y-29960154D01*
X27559955Y-29983933D01*
X27621445Y-29988867D01*
X27683053Y-29976583D01*
X27726608Y-29948703D01*
X27731807Y-29940931D01*
X27742773Y-29894520D01*
X27744610Y-29823079D01*
X27741579Y-29781117D01*
X27731374Y-29691400D01*
X27721482Y-29632418D01*
X27708447Y-29592744D01*
X27688811Y-29560949D01*
X27667037Y-29534666D01*
X27629835Y-29499427D01*
X27602358Y-29496294D01*
X27589783Y-29504416D01*
G37*
X27589783Y-29504416D02*
X27554241Y-29518881D01*
X27538337Y-29515472D01*
X27524815Y-29517655D01*
X27527518Y-29530719D01*
X27521950Y-29563974D01*
X27494292Y-29610276D01*
X27484968Y-29621777D01*
X27447433Y-29679728D01*
X27432527Y-29748568D01*
X27431360Y-29784625D01*
X27435875Y-29847278D01*
X27447958Y-29881556D01*
X27454765Y-29885166D01*
X27468689Y-29900649D01*
X27465591Y-29918016D01*
X27463434Y-29940282D01*
X27471511Y-29939415D01*
X27498172Y-29943847D01*
X27516751Y-29960154D01*
X27559955Y-29983933D01*
X27621445Y-29988867D01*
X27683053Y-29976583D01*
X27726608Y-29948703D01*
X27731807Y-29940931D01*
X27742773Y-29894520D01*
X27744610Y-29823079D01*
X27741579Y-29781117D01*
X27731374Y-29691400D01*
X27721482Y-29632418D01*
X27708447Y-29592744D01*
X27688811Y-29560949D01*
X27667037Y-29534666D01*
X27629835Y-29499427D01*
X27602358Y-29496294D01*
X27589783Y-29504416D01*
G36*
X26838667Y-30001583D02*
G01*
X26849250Y-30012166D01*
X26859834Y-30001583D01*
X26849250Y-29991000D01*
X26838667Y-30001583D01*
G37*
X26838667Y-30001583D02*
X26849250Y-30012166D01*
X26859834Y-30001583D01*
X26849250Y-29991000D01*
X26838667Y-30001583D01*
G36*
X26923334Y-30022750D02*
G01*
X26933917Y-30033333D01*
X26944500Y-30022750D01*
X26933917Y-30012166D01*
X26923334Y-30022750D01*
G37*
X26923334Y-30022750D02*
X26933917Y-30033333D01*
X26944500Y-30022750D01*
X26933917Y-30012166D01*
X26923334Y-30022750D01*
G36*
X27537167Y-30022750D02*
G01*
X27547750Y-30033333D01*
X27558334Y-30022750D01*
X27547750Y-30012166D01*
X27537167Y-30022750D01*
G37*
X27537167Y-30022750D02*
X27547750Y-30033333D01*
X27558334Y-30022750D01*
X27547750Y-30012166D01*
X27537167Y-30022750D01*
G36*
X27650056Y-30019222D02*
G01*
X27652962Y-30031805D01*
X27664167Y-30033333D01*
X27681590Y-30025588D01*
X27678278Y-30019222D01*
X27653158Y-30016688D01*
X27650056Y-30019222D01*
G37*
X27650056Y-30019222D02*
X27652962Y-30031805D01*
X27664167Y-30033333D01*
X27681590Y-30025588D01*
X27678278Y-30019222D01*
X27653158Y-30016688D01*
X27650056Y-30019222D01*
G36*
X28353183Y-30004090D02*
G01*
X28323390Y-30021170D01*
X28328381Y-30032215D01*
X28340251Y-30033333D01*
X28368954Y-30017960D01*
X28373101Y-30012409D01*
X28369694Y-30000381D01*
X28353183Y-30004090D01*
G37*
X28353183Y-30004090D02*
X28323390Y-30021170D01*
X28328381Y-30032215D01*
X28340251Y-30033333D01*
X28368954Y-30017960D01*
X28373101Y-30012409D01*
X28369694Y-30000381D01*
X28353183Y-30004090D01*
G36*
X28193334Y-30043916D02*
G01*
X28203917Y-30054500D01*
X28214500Y-30043916D01*
X28203917Y-30033333D01*
X28193334Y-30043916D01*
G37*
X28193334Y-30043916D02*
X28203917Y-30054500D01*
X28214500Y-30043916D01*
X28203917Y-30033333D01*
X28193334Y-30043916D01*
G36*
X27685334Y-30128583D02*
G01*
X27695917Y-30139166D01*
X27706500Y-30128583D01*
X27695917Y-30118000D01*
X27685334Y-30128583D01*
G37*
X27685334Y-30128583D02*
X27695917Y-30139166D01*
X27706500Y-30128583D01*
X27695917Y-30118000D01*
X27685334Y-30128583D01*
G36*
X28045167Y-30128583D02*
G01*
X28055750Y-30139166D01*
X28066334Y-30128583D01*
X28055750Y-30118000D01*
X28045167Y-30128583D01*
G37*
X28045167Y-30128583D02*
X28055750Y-30139166D01*
X28066334Y-30128583D01*
X28055750Y-30118000D01*
X28045167Y-30128583D01*
G36*
X27713556Y-30167388D02*
G01*
X27716462Y-30179972D01*
X27727667Y-30181500D01*
X27745090Y-30173755D01*
X27741778Y-30167388D01*
X27716658Y-30164855D01*
X27713556Y-30167388D01*
G37*
X27713556Y-30167388D02*
X27716462Y-30179972D01*
X27727667Y-30181500D01*
X27745090Y-30173755D01*
X27741778Y-30167388D01*
X27716658Y-30164855D01*
X27713556Y-30167388D01*
G36*
X29746335Y-26215473D02*
G01*
X29738500Y-26235479D01*
X29729412Y-26266983D01*
X29704761Y-26327028D01*
X29668467Y-26406572D01*
X29630677Y-26484187D01*
X29549629Y-26635975D01*
X29466428Y-26767932D01*
X29369596Y-26897146D01*
X29287437Y-26995255D01*
X29214744Y-27079260D01*
X28980187Y-26957390D01*
X28768340Y-26860061D01*
X28540757Y-26778312D01*
X28304472Y-26713209D01*
X28066517Y-26665817D01*
X27833927Y-26637204D01*
X27613734Y-26628435D01*
X27412974Y-26640576D01*
X27238679Y-26674694D01*
X27198500Y-26687318D01*
X27154999Y-26701468D01*
X27083402Y-26723923D01*
X26996156Y-26750798D01*
X26955084Y-26763305D01*
X26797599Y-26815295D01*
X26648642Y-26872362D01*
X26516768Y-26930768D01*
X26410527Y-26986772D01*
X26347783Y-27028879D01*
X26295064Y-27066120D01*
X26251959Y-27088380D01*
X26239592Y-27091166D01*
X26214581Y-27075227D01*
X26171869Y-27032374D01*
X26118485Y-26970054D01*
X26084893Y-26927254D01*
X26009732Y-26830980D01*
X25923469Y-26724341D01*
X25842481Y-26627514D01*
X25827959Y-26610643D01*
X25770723Y-26542248D01*
X25725955Y-26484316D01*
X25699839Y-26445086D01*
X25695667Y-26434416D01*
X25678268Y-26418522D01*
X25650270Y-26417652D01*
X25616944Y-26435251D01*
X25586192Y-26482028D01*
X25561606Y-26540833D01*
X25527251Y-26620549D01*
X25480097Y-26714203D01*
X25434303Y-26794833D01*
X25331802Y-26964702D01*
X25252559Y-27100585D01*
X25196709Y-27202237D01*
X25164387Y-27269413D01*
X25155725Y-27301867D01*
X25156366Y-27303559D01*
X25153127Y-27331321D01*
X25131349Y-27379327D01*
X25117692Y-27402587D01*
X25073984Y-27483439D01*
X25025935Y-27590220D01*
X24979742Y-27707861D01*
X24941603Y-27821291D01*
X24932406Y-27853166D01*
X24920937Y-27914838D01*
X24910927Y-28004925D01*
X24903707Y-28109509D01*
X24901093Y-28180743D01*
X24895925Y-28413069D01*
X24697838Y-28449540D01*
X24617894Y-28466147D01*
X24529376Y-28487567D01*
X24438586Y-28511831D01*
X24351829Y-28536968D01*
X24275410Y-28561007D01*
X24215634Y-28581978D01*
X24178804Y-28597909D01*
X24171226Y-28606830D01*
X24192834Y-28607399D01*
X24245879Y-28599041D01*
X24326150Y-28582058D01*
X24420159Y-28559415D01*
X24468000Y-28546923D01*
X24565592Y-28521613D01*
X24657815Y-28499245D01*
X24730360Y-28483228D01*
X24753750Y-28478836D01*
X24817125Y-28467222D01*
X24866604Y-28456353D01*
X24873547Y-28454468D01*
X24902559Y-28460131D01*
X24926678Y-28500457D01*
X24933865Y-28520515D01*
X24948319Y-28571234D01*
X24952572Y-28601284D01*
X24951652Y-28603776D01*
X24929798Y-28614950D01*
X24879926Y-28637360D01*
X24817250Y-28664277D01*
X24721947Y-28705921D01*
X24619779Y-28753003D01*
X24516493Y-28802563D01*
X24417833Y-28851638D01*
X24329543Y-28897268D01*
X24257367Y-28936491D01*
X24207052Y-28966347D01*
X24184340Y-28983875D01*
X24191615Y-28986772D01*
X24237914Y-28972912D01*
X24312195Y-28943887D01*
X24404724Y-28903761D01*
X24505769Y-28856595D01*
X24519699Y-28849828D01*
X24679965Y-28772593D01*
X24803587Y-28715282D01*
X24891134Y-28677645D01*
X24943176Y-28659428D01*
X24955154Y-28657500D01*
X24977707Y-28674695D01*
X24986845Y-28712351D01*
X24978203Y-28749574D01*
X24975246Y-28753658D01*
X24947996Y-28777469D01*
X24895077Y-28817189D01*
X24826267Y-28865578D01*
X24800256Y-28883212D01*
X24701180Y-28950631D01*
X24593395Y-29025509D01*
X24483545Y-29103062D01*
X24378273Y-29178508D01*
X24284223Y-29247064D01*
X24208039Y-29303948D01*
X24156366Y-29344376D01*
X24140505Y-29358146D01*
X24110600Y-29390917D01*
X24111025Y-29401584D01*
X24137727Y-29392739D01*
X24186654Y-29366976D01*
X24253752Y-29326887D01*
X24334970Y-29275065D01*
X24426256Y-29214104D01*
X24523555Y-29146596D01*
X24622816Y-29075134D01*
X24719986Y-29002311D01*
X24811012Y-28930720D01*
X24820156Y-28923293D01*
X24867082Y-28888949D01*
X24901899Y-28870289D01*
X24907522Y-28869166D01*
X24937237Y-28854582D01*
X24954834Y-28837416D01*
X24989075Y-28813795D01*
X25028706Y-28806183D01*
X25056541Y-28816134D01*
X25060667Y-28827850D01*
X25075765Y-28875539D01*
X25116106Y-28940989D01*
X25174256Y-29015044D01*
X25242785Y-29088547D01*
X25314261Y-29152343D01*
X25339383Y-29171241D01*
X25448589Y-29244322D01*
X25548910Y-29303323D01*
X25635232Y-29345994D01*
X25702441Y-29370083D01*
X25745421Y-29373339D01*
X25759167Y-29356000D01*
X25776311Y-29337221D01*
X25790917Y-29334833D01*
X25817423Y-29340469D01*
X25815584Y-29360551D01*
X25783547Y-29399841D01*
X25753875Y-29429896D01*
X25709224Y-29484102D01*
X25649095Y-29573173D01*
X25575630Y-29693484D01*
X25490973Y-29841407D01*
X25397267Y-30013316D01*
X25304632Y-30190074D01*
X25258972Y-30287363D01*
X25211584Y-30403420D01*
X25164380Y-30531755D01*
X25119270Y-30665877D01*
X25078165Y-30799296D01*
X25042974Y-30925522D01*
X25015608Y-31038063D01*
X24997978Y-31130428D01*
X24991994Y-31196128D01*
X24999077Y-31228191D01*
X25014169Y-31228646D01*
X25018334Y-31201733D01*
X25017592Y-31158643D01*
X25016526Y-31141658D01*
X25030074Y-31120087D01*
X25041337Y-31111698D01*
X25065579Y-31081535D01*
X25088946Y-31030114D01*
X25090770Y-31024664D01*
X25108274Y-30982015D01*
X25133980Y-30959140D01*
X25181396Y-30947457D01*
X25219417Y-30942924D01*
X25306102Y-30921043D01*
X25405262Y-30877139D01*
X25500452Y-30820102D01*
X25575228Y-30758824D01*
X25589834Y-30742644D01*
X25621139Y-30714528D01*
X25678518Y-30671358D01*
X25752076Y-30620401D01*
X25791802Y-30594292D01*
X25875701Y-30535782D01*
X25953417Y-30473951D01*
X26012282Y-30419146D01*
X26027501Y-30401776D01*
X26077652Y-30333203D01*
X26129824Y-30253366D01*
X26178296Y-30172142D01*
X26217353Y-30099403D01*
X26241274Y-30045025D01*
X26246000Y-30024480D01*
X26247915Y-30007876D01*
X26182500Y-30007876D01*
X26166644Y-30076721D01*
X26123148Y-30163232D01*
X26058128Y-30259525D01*
X25977695Y-30357713D01*
X25887964Y-30449911D01*
X25795047Y-30528232D01*
X25760097Y-30552767D01*
X25675432Y-30611450D01*
X25589804Y-30675485D01*
X25521546Y-30731155D01*
X25520725Y-30731876D01*
X25422201Y-30806496D01*
X25320267Y-30862872D01*
X25226539Y-30895226D01*
X25181416Y-30900701D01*
X25143472Y-30898086D01*
X25129812Y-30881345D01*
X25133532Y-30838368D01*
X25136425Y-30821791D01*
X25158536Y-30731070D01*
X25194711Y-30619538D01*
X25241240Y-30495633D01*
X25294412Y-30367786D01*
X25350516Y-30244435D01*
X25405843Y-30134013D01*
X25456682Y-30044955D01*
X25499322Y-29985696D01*
X25508258Y-29976533D01*
X25558063Y-29941287D01*
X25634561Y-29899076D01*
X25724259Y-29856252D01*
X25813666Y-29819166D01*
X25889291Y-29794171D01*
X25902311Y-29791019D01*
X25979699Y-29793160D01*
X26057565Y-29826031D01*
X26124673Y-29880935D01*
X26169790Y-29949177D01*
X26182500Y-30007876D01*
X26247915Y-30007876D01*
X26248639Y-30001608D01*
X26260702Y-29995078D01*
X26288410Y-30007438D01*
X26337981Y-30041238D01*
X26401030Y-30088037D01*
X26528614Y-30172421D01*
X26682356Y-30256258D01*
X26846648Y-30332073D01*
X27005884Y-30392394D01*
X27087222Y-30416669D01*
X27204434Y-30438864D01*
X27351545Y-30453760D01*
X27516711Y-30461097D01*
X27688086Y-30460612D01*
X27853826Y-30452045D01*
X27992250Y-30436636D01*
X28139027Y-30409170D01*
X28302820Y-30369431D01*
X28468542Y-30321735D01*
X28621104Y-30270396D01*
X28736518Y-30223814D01*
X28807100Y-30192739D01*
X28862392Y-30170113D01*
X28891390Y-30160419D01*
X28892406Y-30160333D01*
X28906158Y-30178857D01*
X28920136Y-30224705D01*
X28922827Y-30237828D01*
X28933324Y-30270806D01*
X28955547Y-30309923D01*
X28993289Y-30359785D01*
X29050344Y-30424998D01*
X29130505Y-30510167D01*
X29237391Y-30619720D01*
X29343999Y-30726926D01*
X29426652Y-30807337D01*
X29490296Y-30865097D01*
X29539874Y-30904347D01*
X29580329Y-30929230D01*
X29616605Y-30943889D01*
X29628069Y-30947079D01*
X29692101Y-30969084D01*
X29731462Y-31002456D01*
X29755545Y-31058644D01*
X29768424Y-31118125D01*
X29782347Y-31169032D01*
X29798986Y-31196137D01*
X29802960Y-31197500D01*
X29817990Y-31178194D01*
X29821994Y-31124171D01*
X29816073Y-31041274D01*
X29801327Y-30935346D01*
X29784655Y-30843997D01*
X29757763Y-30843997D01*
X29752681Y-30867675D01*
X29740476Y-30909053D01*
X29738500Y-30924064D01*
X29725357Y-30942448D01*
X29687327Y-30928747D01*
X29648058Y-30901166D01*
X29605248Y-30871717D01*
X29575913Y-30858854D01*
X29575284Y-30858833D01*
X29555072Y-30844554D01*
X29511437Y-30805639D01*
X29450296Y-30747969D01*
X29377565Y-30677428D01*
X29299158Y-30599896D01*
X29220992Y-30521257D01*
X29148982Y-30447392D01*
X29089045Y-30384184D01*
X29047096Y-30337515D01*
X29032449Y-30319083D01*
X29006870Y-30267777D01*
X28987943Y-30207212D01*
X28982419Y-30162196D01*
X28994123Y-30126706D01*
X29029758Y-30085993D01*
X29052874Y-30064337D01*
X29107823Y-30021723D01*
X29158154Y-29995270D01*
X29177897Y-29991000D01*
X29217455Y-30003213D01*
X29276418Y-30035092D01*
X29336334Y-30075666D01*
X29399744Y-30119121D01*
X29454184Y-30149666D01*
X29486021Y-30160333D01*
X29507372Y-30172031D01*
X29532017Y-30210388D01*
X29562481Y-30280292D01*
X29598034Y-30377291D01*
X29631303Y-30476398D01*
X29660338Y-30569987D01*
X29681277Y-30645226D01*
X29688841Y-30678916D01*
X29698967Y-30729973D01*
X29706842Y-30743317D01*
X29716611Y-30723082D01*
X29720662Y-30710666D01*
X29728815Y-30694423D01*
X29729739Y-30718466D01*
X29725771Y-30760551D01*
X29721081Y-30822005D01*
X29726204Y-30848351D01*
X29740462Y-30847037D01*
X29757763Y-30843997D01*
X29784655Y-30843997D01*
X29778856Y-30812228D01*
X29749762Y-30677764D01*
X29715146Y-30537795D01*
X29676108Y-30398165D01*
X29633748Y-30264715D01*
X29619516Y-30223833D01*
X29577350Y-30105961D01*
X29500750Y-30105961D01*
X29488590Y-30114394D01*
X29453083Y-30095085D01*
X29402880Y-30057562D01*
X29344389Y-30014452D01*
X29291111Y-29979516D01*
X29277674Y-29971909D01*
X29229597Y-29946693D01*
X29291313Y-29894763D01*
X29336587Y-29860964D01*
X29369967Y-29843493D01*
X29374100Y-29842833D01*
X29394249Y-29860788D01*
X29423129Y-29907081D01*
X29454766Y-29970352D01*
X29483186Y-30039239D01*
X29493749Y-30070375D01*
X29500750Y-30105961D01*
X29577350Y-30105961D01*
X29572126Y-30091359D01*
X29536420Y-29993308D01*
X29509944Y-29924198D01*
X29490240Y-29878549D01*
X29474853Y-29850881D01*
X29461328Y-29835713D01*
X29447207Y-29827567D01*
X29440800Y-29825030D01*
X29427601Y-29814112D01*
X29430544Y-29792672D01*
X29452805Y-29754803D01*
X29497562Y-29694599D01*
X29539376Y-29641750D01*
X29599751Y-29570433D01*
X29654200Y-29513488D01*
X29695406Y-29478185D01*
X29712002Y-29470258D01*
X29765365Y-29466873D01*
X29793080Y-29464967D01*
X29870107Y-29440860D01*
X29956138Y-29382219D01*
X30046082Y-29294430D01*
X30134849Y-29182876D01*
X30217349Y-29052943D01*
X30260934Y-28970028D01*
X30297018Y-28901281D01*
X30328642Y-28850570D01*
X30349792Y-28827362D01*
X30351878Y-28826833D01*
X30363408Y-28829281D01*
X30382321Y-28838819D01*
X30413376Y-28858738D01*
X30461334Y-28892329D01*
X30530953Y-28942883D01*
X30626994Y-29013691D01*
X30694613Y-29063804D01*
X30863738Y-29193893D01*
X31005788Y-29314294D01*
X31131370Y-29434605D01*
X31251092Y-29564427D01*
X31263105Y-29578250D01*
X31312053Y-29631288D01*
X31351377Y-29667454D01*
X31372071Y-29678791D01*
X31388862Y-29689192D01*
X31389500Y-29694666D01*
X31405681Y-29715133D01*
X31411211Y-29715833D01*
X31419544Y-29701091D01*
X31403641Y-29661315D01*
X31367314Y-29603175D01*
X31314376Y-29533344D01*
X31290988Y-29505467D01*
X31233691Y-29446053D01*
X31149684Y-29368123D01*
X31046561Y-29277966D01*
X30931916Y-29181871D01*
X30813343Y-29086127D01*
X30698436Y-28997024D01*
X30594790Y-28920851D01*
X30538019Y-28881886D01*
X30451120Y-28820466D01*
X30395170Y-28771958D01*
X30372050Y-28738501D01*
X30383646Y-28722235D01*
X30396382Y-28721000D01*
X30429923Y-28730924D01*
X30489247Y-28757039D01*
X30563774Y-28793858D01*
X30642926Y-28835897D01*
X30716122Y-28877667D01*
X30772784Y-28913684D01*
X30784846Y-28922447D01*
X30834075Y-28955745D01*
X30871731Y-28973883D01*
X30878207Y-28975000D01*
X30901336Y-28989023D01*
X30902667Y-28995763D01*
X30920610Y-29015899D01*
X30954878Y-29029630D01*
X30992332Y-29045041D01*
X31002503Y-29059421D01*
X31014120Y-29083607D01*
X31049616Y-29125198D01*
X31099604Y-29175415D01*
X31154696Y-29225481D01*
X31205505Y-29266618D01*
X31242644Y-29290049D01*
X31251772Y-29292500D01*
X31270465Y-29281460D01*
X31258430Y-29250865D01*
X31220258Y-29204502D01*
X31160537Y-29146157D01*
X31083857Y-29079618D01*
X30994807Y-29008669D01*
X30897976Y-28937099D01*
X30797954Y-28868694D01*
X30699331Y-28807241D01*
X30606696Y-28756525D01*
X30595443Y-28750972D01*
X30512948Y-28709506D01*
X30476664Y-28689873D01*
X30302845Y-28689873D01*
X30302158Y-28697616D01*
X30274208Y-28699083D01*
X30231128Y-28690443D01*
X30213880Y-28677258D01*
X30205750Y-28650837D01*
X30229256Y-28650919D01*
X30267699Y-28669065D01*
X30302845Y-28689873D01*
X30476664Y-28689873D01*
X30446890Y-28673763D01*
X30405191Y-28648188D01*
X30394667Y-28638279D01*
X30406065Y-28611388D01*
X30425401Y-28582170D01*
X30446516Y-28557615D01*
X30468155Y-28552673D01*
X30504617Y-28567675D01*
X30536526Y-28584740D01*
X30672372Y-28658813D01*
X30777243Y-28716827D01*
X30857584Y-28762518D01*
X30919839Y-28799625D01*
X30970452Y-28831886D01*
X31013841Y-28861605D01*
X31074972Y-28900354D01*
X31127179Y-28925792D01*
X31151424Y-28931785D01*
X31167910Y-28921847D01*
X31149747Y-28895117D01*
X31100154Y-28853729D01*
X31022351Y-28799816D01*
X30919556Y-28735512D01*
X30794989Y-28662950D01*
X30651867Y-28584265D01*
X30532891Y-28521796D01*
X30470032Y-28489423D01*
X30467437Y-28229503D01*
X30465973Y-28194434D01*
X30396664Y-28194434D01*
X30396521Y-28302929D01*
X30390505Y-28373610D01*
X30373254Y-28410991D01*
X30339405Y-28419587D01*
X30283597Y-28403914D01*
X30200466Y-28368486D01*
X30193584Y-28365427D01*
X30092582Y-28326326D01*
X29992091Y-28297446D01*
X29900839Y-28280238D01*
X29827552Y-28276153D01*
X29780959Y-28286640D01*
X29771702Y-28295317D01*
X29778835Y-28310510D01*
X29825138Y-28317915D01*
X29863911Y-28318833D01*
X29941746Y-28326392D01*
X30033107Y-28350989D01*
X30148370Y-28395502D01*
X30163492Y-28401970D01*
X30246012Y-28438015D01*
X30312766Y-28468054D01*
X30354963Y-28488083D01*
X30365011Y-28493788D01*
X30364630Y-28517461D01*
X30352225Y-28563881D01*
X30349907Y-28570697D01*
X30326543Y-28617624D01*
X30299259Y-28627957D01*
X30291936Y-28625808D01*
X30238810Y-28607617D01*
X30160835Y-28583587D01*
X30067735Y-28556409D01*
X29969231Y-28528775D01*
X29875048Y-28503373D01*
X29794907Y-28482897D01*
X29738533Y-28470035D01*
X29718071Y-28467000D01*
X29679945Y-28472776D01*
X29677304Y-28486606D01*
X29705445Y-28503243D01*
X29759662Y-28517437D01*
X29763909Y-28518139D01*
X29824570Y-28530865D01*
X29867848Y-28545342D01*
X29875034Y-28549523D01*
X29909919Y-28568127D01*
X29961356Y-28588194D01*
X30002813Y-28606599D01*
X30061893Y-28638069D01*
X30128187Y-28676346D01*
X30191285Y-28715172D01*
X30240778Y-28748288D01*
X30266255Y-28769436D01*
X30267667Y-28772350D01*
X30260020Y-28794076D01*
X30239713Y-28844903D01*
X30210703Y-28914994D01*
X30201977Y-28935741D01*
X30114360Y-29108604D01*
X30011312Y-29251189D01*
X29896764Y-29358242D01*
X29874096Y-29374085D01*
X29806761Y-29416747D01*
X29765173Y-29436029D01*
X29741053Y-29433734D01*
X29726122Y-29411669D01*
X29724169Y-29406780D01*
X29727072Y-29368929D01*
X29739832Y-29355176D01*
X29749033Y-29337877D01*
X29736929Y-29305157D01*
X29700545Y-29250819D01*
X29671180Y-29212140D01*
X29619911Y-29144267D01*
X29576741Y-29083805D01*
X29562560Y-29061829D01*
X29408871Y-29061829D01*
X29403673Y-29081068D01*
X29380767Y-29114739D01*
X29336915Y-29169818D01*
X29293681Y-29222814D01*
X29274730Y-29258948D01*
X29272834Y-29270439D01*
X29257264Y-29291712D01*
X29251667Y-29292500D01*
X29231340Y-29308792D01*
X29230500Y-29315078D01*
X29218674Y-29346873D01*
X29189869Y-29390643D01*
X29154095Y-29434119D01*
X29121360Y-29465028D01*
X29102608Y-29471865D01*
X29077939Y-29476557D01*
X29069943Y-29485925D01*
X29067092Y-29500770D01*
X29079063Y-29495604D01*
X29100915Y-29492807D01*
X29103500Y-29499841D01*
X29088674Y-29525086D01*
X29051254Y-29564257D01*
X29001832Y-29608407D01*
X28951000Y-29648591D01*
X28909349Y-29675863D01*
X28888101Y-29681776D01*
X28874557Y-29683702D01*
X28875434Y-29689367D01*
X28864433Y-29712937D01*
X28829972Y-29755078D01*
X28788029Y-29798249D01*
X28730304Y-29849680D01*
X28688365Y-29874179D01*
X28651122Y-29877522D01*
X28639862Y-29875416D01*
X28606839Y-29870865D01*
X28611799Y-29880692D01*
X28612638Y-29881261D01*
X28624882Y-29900154D01*
X28601781Y-29923845D01*
X28591472Y-29930600D01*
X28531047Y-29963804D01*
X28451808Y-30001081D01*
X28367526Y-30036648D01*
X28291971Y-30064721D01*
X28238916Y-30079519D01*
X28235667Y-30080009D01*
X28178285Y-30097676D01*
X28130416Y-30123663D01*
X28073482Y-30151493D01*
X28024582Y-30161821D01*
X27964490Y-30170328D01*
X27928750Y-30181355D01*
X27875590Y-30191375D01*
X27789424Y-30192965D01*
X27678606Y-30186741D01*
X27551486Y-30173318D01*
X27416414Y-30153312D01*
X27328309Y-30137070D01*
X27205516Y-30112432D01*
X27118663Y-30094566D01*
X27062166Y-30081997D01*
X27030443Y-30073249D01*
X27017911Y-30066847D01*
X27018987Y-30061315D01*
X27025200Y-30056952D01*
X27019984Y-30048968D01*
X26982221Y-30044039D01*
X26958354Y-30043354D01*
X26862482Y-30027272D01*
X26752202Y-29983973D01*
X26639609Y-29919254D01*
X26542334Y-29843947D01*
X26495253Y-29799325D01*
X26467308Y-29768310D01*
X26464049Y-29758195D01*
X26461737Y-29745901D01*
X26438943Y-29720265D01*
X26026642Y-29720265D01*
X26009109Y-29745644D01*
X25954113Y-29757521D01*
X25931776Y-29758166D01*
X25868968Y-29766321D01*
X25788162Y-29787412D01*
X25726650Y-29809213D01*
X25642695Y-29842269D01*
X25591676Y-29858218D01*
X25567562Y-29856497D01*
X25564321Y-29836540D01*
X25575923Y-29797786D01*
X25576832Y-29795208D01*
X25603671Y-29737344D01*
X25644747Y-29667041D01*
X25668796Y-29631166D01*
X25713839Y-29567646D01*
X25753966Y-29510939D01*
X25769946Y-29488291D01*
X25811091Y-29448069D01*
X25849989Y-29449243D01*
X25888238Y-29492192D01*
X25903176Y-29520041D01*
X25933050Y-29567895D01*
X25961617Y-29592399D01*
X25969440Y-29593259D01*
X25987891Y-29601507D01*
X25984913Y-29619105D01*
X25988335Y-29658390D01*
X26004833Y-29683308D01*
X26026642Y-29720265D01*
X26438943Y-29720265D01*
X26434683Y-29715474D01*
X26425088Y-29706335D01*
X26391827Y-29666635D01*
X26381805Y-29635485D01*
X26383237Y-29631727D01*
X26383540Y-29614531D01*
X26375373Y-29614767D01*
X26355114Y-29600582D01*
X26320996Y-29557751D01*
X26279550Y-29494726D01*
X26268971Y-29477079D01*
X26232289Y-29412222D01*
X26209047Y-29365995D01*
X26202960Y-29346005D01*
X26205089Y-29346295D01*
X26236952Y-29354625D01*
X26294886Y-29361529D01*
X26330750Y-29363841D01*
X26385733Y-29364128D01*
X26413818Y-29359671D01*
X26413210Y-29354687D01*
X26412660Y-29339276D01*
X26454055Y-29319789D01*
X26500000Y-29305897D01*
X26522416Y-29292874D01*
X26565188Y-29263997D01*
X26579551Y-29253859D01*
X26627984Y-29209499D01*
X26635334Y-29174672D01*
X26601538Y-29149310D01*
X26526534Y-29133342D01*
X26468548Y-29128584D01*
X26344577Y-29130012D01*
X26250504Y-29148143D01*
X26190106Y-29181906D01*
X26170267Y-29213032D01*
X26159011Y-29240974D01*
X26146657Y-29236765D01*
X26124619Y-29198034D01*
X26102071Y-29134411D01*
X26091691Y-29070250D01*
X25907334Y-29070250D01*
X25896750Y-29080833D01*
X25886167Y-29070250D01*
X25896750Y-29059666D01*
X25907334Y-29070250D01*
X26091691Y-29070250D01*
X26090398Y-29062258D01*
X26090238Y-29058735D01*
X26085011Y-29010186D01*
X26083577Y-29006750D01*
X25949667Y-29006750D01*
X25939084Y-29017333D01*
X25928500Y-29006750D01*
X25939084Y-28996166D01*
X25949667Y-29006750D01*
X26083577Y-29006750D01*
X26075720Y-28987930D01*
X26072838Y-28988104D01*
X26050475Y-28982193D01*
X26045362Y-28975719D01*
X26060439Y-28967274D01*
X26116611Y-28960965D01*
X26212687Y-28956862D01*
X26347480Y-28955033D01*
X26404013Y-28954944D01*
X26775728Y-28955306D01*
X26765661Y-29010824D01*
X26747570Y-29116214D01*
X26738470Y-29186686D01*
X26738128Y-29228637D01*
X26746313Y-29248467D01*
X26756889Y-29252604D01*
X26847337Y-29245590D01*
X26905774Y-29214693D01*
X26934905Y-29195424D01*
X26955046Y-29210371D01*
X26964727Y-29227243D01*
X26977518Y-29260736D01*
X26973715Y-29271333D01*
X26974564Y-29284291D01*
X26994183Y-29310092D01*
X27017372Y-29342760D01*
X27019638Y-29358473D01*
X27028663Y-29366330D01*
X27049788Y-29368095D01*
X27077858Y-29361074D01*
X27079281Y-29351464D01*
X27084664Y-29335749D01*
X27091418Y-29334833D01*
X27112771Y-29351204D01*
X27113834Y-29358344D01*
X27124706Y-29361339D01*
X27150953Y-29336010D01*
X27151848Y-29334910D01*
X27189863Y-29287964D01*
X27257248Y-29344666D01*
X27303811Y-29376980D01*
X27339188Y-29389562D01*
X27346234Y-29388017D01*
X27366093Y-29388296D01*
X27367834Y-29395320D01*
X27351270Y-29421149D01*
X27341375Y-29426648D01*
X27326656Y-29436309D01*
X27340631Y-29438995D01*
X27369975Y-29423794D01*
X27388579Y-29399121D01*
X27421952Y-29368686D01*
X27447532Y-29369368D01*
X27469886Y-29373946D01*
X27456565Y-29361280D01*
X27438679Y-29323412D01*
X27443147Y-29284553D01*
X27460034Y-29244591D01*
X27488977Y-29238018D01*
X27502582Y-29241440D01*
X27556148Y-29266629D01*
X27581565Y-29284780D01*
X27628385Y-29305202D01*
X27666231Y-29306582D01*
X27704895Y-29290218D01*
X27712621Y-29250329D01*
X27712423Y-29248014D01*
X27703450Y-29180740D01*
X27688450Y-29094936D01*
X27671073Y-29009632D01*
X27654969Y-28943856D01*
X27652499Y-28935598D01*
X27645399Y-28901397D01*
X27661606Y-28892676D01*
X27698123Y-28898872D01*
X27771735Y-28910387D01*
X27879850Y-28921388D01*
X28014639Y-28931436D01*
X28168272Y-28940092D01*
X28332920Y-28946921D01*
X28500753Y-28951482D01*
X28663941Y-28953338D01*
X28671986Y-28953353D01*
X28863585Y-28955872D01*
X29022488Y-28962765D01*
X29146578Y-28973809D01*
X29233737Y-28988785D01*
X29281850Y-29007470D01*
X29290517Y-29017878D01*
X29310566Y-29029604D01*
X29316538Y-29027069D01*
X29348020Y-29026805D01*
X29379095Y-29038728D01*
X29399599Y-29050041D01*
X29408871Y-29061829D01*
X29562560Y-29061829D01*
X29550526Y-29043183D01*
X29549603Y-29041493D01*
X29514684Y-29006075D01*
X29483088Y-28996166D01*
X29441581Y-28989503D01*
X29375599Y-28972149D01*
X29309208Y-28951106D01*
X29268349Y-28938251D01*
X29225100Y-28927774D01*
X29174168Y-28919264D01*
X29110259Y-28912308D01*
X29028079Y-28906495D01*
X28922336Y-28901413D01*
X28787735Y-28896650D01*
X28618983Y-28891793D01*
X28510834Y-28888961D01*
X28341680Y-28883979D01*
X28181636Y-28878045D01*
X28036842Y-28871481D01*
X27913441Y-28864606D01*
X27817573Y-28857742D01*
X27755380Y-28851211D01*
X27741074Y-28848712D01*
X27671610Y-28837682D01*
X27613204Y-28836184D01*
X27594751Y-28839294D01*
X27564808Y-28851758D01*
X27573908Y-28865223D01*
X27589175Y-28874160D01*
X27613148Y-28894656D01*
X27599891Y-28911979D01*
X27586106Y-28929467D01*
X27584076Y-28964272D01*
X27593797Y-29026370D01*
X27599805Y-29055604D01*
X27612909Y-29126347D01*
X27619591Y-29181189D01*
X27618996Y-29204673D01*
X27597112Y-29209115D01*
X27547767Y-29193077D01*
X27510991Y-29175856D01*
X27452427Y-29147224D01*
X27419868Y-29137283D01*
X27401859Y-29145006D01*
X27389283Y-29164973D01*
X27371103Y-29218945D01*
X27367834Y-29247525D01*
X27358437Y-29291710D01*
X27331381Y-29297998D01*
X27288370Y-29266137D01*
X27282554Y-29260097D01*
X27228935Y-29217194D01*
X27179655Y-29213837D01*
X27125051Y-29249623D01*
X27121042Y-29253337D01*
X27092077Y-29277426D01*
X27072388Y-29280643D01*
X27058336Y-29257532D01*
X27046285Y-29202637D01*
X27034403Y-29123407D01*
X27016336Y-29046390D01*
X26990847Y-29003431D01*
X26961668Y-28996875D01*
X26932533Y-29029063D01*
X26921922Y-29052796D01*
X26892747Y-29111061D01*
X26863834Y-29151607D01*
X26836852Y-29177520D01*
X26823802Y-29168245D01*
X26816151Y-29141062D01*
X26816594Y-29083992D01*
X26829265Y-29049083D01*
X26851138Y-28998046D01*
X26867801Y-28935497D01*
X26874469Y-28888211D01*
X26864615Y-28872689D01*
X26830148Y-28879211D01*
X26822755Y-28881372D01*
X26783384Y-28886982D01*
X26709637Y-28892084D01*
X26609474Y-28896332D01*
X26490851Y-28899383D01*
X26373000Y-28900832D01*
X25981417Y-28903166D01*
X25848095Y-29034814D01*
X25784830Y-29098636D01*
X25748247Y-29140682D01*
X25734030Y-29168007D01*
X25737865Y-29187669D01*
X25747553Y-29199242D01*
X25775026Y-29233827D01*
X25772519Y-29265002D01*
X25749254Y-29299999D01*
X25732842Y-29317642D01*
X25712879Y-29322874D01*
X25680848Y-29313365D01*
X25628230Y-29286787D01*
X25559136Y-29247997D01*
X25408314Y-29151205D01*
X25288422Y-29047431D01*
X25188194Y-28926333D01*
X25155321Y-28877390D01*
X25114059Y-28807815D01*
X25096705Y-28763098D01*
X25100435Y-28735267D01*
X25103476Y-28731010D01*
X25137998Y-28706225D01*
X25202317Y-28673486D01*
X25285731Y-28637170D01*
X25377540Y-28601655D01*
X25467043Y-28571320D01*
X25513878Y-28558599D01*
X25307845Y-28558599D01*
X25287581Y-28581120D01*
X25228704Y-28618636D01*
X25219417Y-28623882D01*
X25136183Y-28668450D01*
X25082554Y-28691112D01*
X25052663Y-28693071D01*
X25040644Y-28675526D01*
X25039500Y-28660715D01*
X25053332Y-28631206D01*
X25099005Y-28604366D01*
X25147764Y-28586632D01*
X25236855Y-28560792D01*
X25290575Y-28551635D01*
X25307845Y-28558599D01*
X25513878Y-28558599D01*
X25543539Y-28550543D01*
X25545718Y-28550071D01*
X25604072Y-28534306D01*
X25638687Y-28518529D01*
X25643240Y-28510125D01*
X25653808Y-28495029D01*
X25693564Y-28481208D01*
X25697121Y-28480467D01*
X25761388Y-28467614D01*
X25732095Y-28436171D01*
X25642750Y-28436171D01*
X25462834Y-28473097D01*
X25366039Y-28494220D01*
X25272229Y-28516802D01*
X25198866Y-28536598D01*
X25187667Y-28540012D01*
X25104971Y-28563314D01*
X25052877Y-28569110D01*
X25023022Y-28556431D01*
X25007038Y-28524308D01*
X25005612Y-28518930D01*
X25000517Y-28473385D01*
X25006920Y-28450139D01*
X25034910Y-28441787D01*
X25095160Y-28434115D01*
X25177600Y-28427603D01*
X25272156Y-28422733D01*
X25368758Y-28419986D01*
X25457334Y-28419842D01*
X25527810Y-28422781D01*
X25544935Y-28424456D01*
X25642750Y-28436171D01*
X25732095Y-28436171D01*
X25719791Y-28422964D01*
X25699827Y-28404791D01*
X25674668Y-28392420D01*
X25636556Y-28384823D01*
X25577735Y-28380974D01*
X25490448Y-28379846D01*
X25396725Y-28380200D01*
X25285544Y-28381839D01*
X25184155Y-28384962D01*
X25102973Y-28389138D01*
X25052415Y-28393937D01*
X25048786Y-28394556D01*
X24982315Y-28407026D01*
X24968758Y-28294138D01*
X24960607Y-28209135D01*
X24959595Y-28191833D01*
X24933667Y-28191833D01*
X24925923Y-28209255D01*
X24919556Y-28205944D01*
X24917023Y-28180824D01*
X24919556Y-28177722D01*
X24932140Y-28180627D01*
X24933667Y-28191833D01*
X24959595Y-28191833D01*
X24955671Y-28124757D01*
X24955018Y-28094234D01*
X24963986Y-28015108D01*
X24988661Y-27909271D01*
X25025305Y-27787615D01*
X25070181Y-27661033D01*
X25119550Y-27540417D01*
X25169676Y-27436661D01*
X25196667Y-27390008D01*
X25225630Y-27339247D01*
X25239528Y-27304862D01*
X25239104Y-27297825D01*
X25239251Y-27270149D01*
X25260315Y-27214312D01*
X25299033Y-27136900D01*
X25352138Y-27044496D01*
X25409784Y-26953583D01*
X25468466Y-26860295D01*
X25525893Y-26761195D01*
X25572027Y-26673816D01*
X25582317Y-26652178D01*
X25614699Y-26586162D01*
X25642110Y-26538734D01*
X25658748Y-26519905D01*
X25658999Y-26519887D01*
X25683857Y-26536092D01*
X25733336Y-26583987D01*
X25805873Y-26661998D01*
X25853521Y-26715458D01*
X25879087Y-26749023D01*
X25886167Y-26764495D01*
X25898943Y-26794368D01*
X25929869Y-26835442D01*
X25967841Y-26875722D01*
X26001757Y-26903213D01*
X26018793Y-26907773D01*
X26030757Y-26907710D01*
X26026069Y-26918081D01*
X26030488Y-26946275D01*
X26058363Y-26991310D01*
X26081007Y-27018481D01*
X26126106Y-27070292D01*
X26160054Y-27113521D01*
X26168674Y-27126576D01*
X26202916Y-27148141D01*
X26262217Y-27135950D01*
X26346721Y-27089961D01*
X26392074Y-27058899D01*
X26505802Y-26987455D01*
X26630839Y-26925434D01*
X26747946Y-26882197D01*
X26764584Y-26877667D01*
X26811514Y-26863641D01*
X26886151Y-26839106D01*
X26976442Y-26808087D01*
X27033649Y-26787846D01*
X27141952Y-26752179D01*
X27256446Y-26719480D01*
X27358367Y-26694946D01*
X27393482Y-26688228D01*
X27551162Y-26673378D01*
X27737484Y-26675433D01*
X27942749Y-26693355D01*
X28157257Y-26726109D01*
X28371306Y-26772656D01*
X28491740Y-26805659D01*
X28561658Y-26829670D01*
X28650432Y-26864893D01*
X28750779Y-26907880D01*
X28855419Y-26955183D01*
X28957069Y-27003356D01*
X29048448Y-27048950D01*
X29122273Y-27088518D01*
X29171262Y-27118613D01*
X29188167Y-27135379D01*
X29204734Y-27143384D01*
X29225209Y-27140087D01*
X29259241Y-27117404D01*
X29308846Y-27068287D01*
X29368424Y-27000168D01*
X29432375Y-26920482D01*
X29495100Y-26836663D01*
X29550999Y-26756144D01*
X29594471Y-26686359D01*
X29619917Y-26634742D01*
X29623478Y-26611376D01*
X29630632Y-26582781D01*
X29640457Y-26576584D01*
X29662769Y-26551705D01*
X29687521Y-26501236D01*
X29695775Y-26478521D01*
X29725623Y-26406591D01*
X29753393Y-26376843D01*
X29778561Y-26389156D01*
X29800605Y-26443407D01*
X29813873Y-26506131D01*
X29825599Y-26556486D01*
X29838671Y-26568755D01*
X29848375Y-26559480D01*
X29861051Y-26548741D01*
X29859073Y-26575549D01*
X29857251Y-26584376D01*
X29858110Y-26628285D01*
X29870404Y-26702181D01*
X29892197Y-26795886D01*
X29909650Y-26859542D01*
X29937932Y-26962593D01*
X29962506Y-27062130D01*
X29980048Y-27144173D01*
X29986060Y-27181125D01*
X29996295Y-27242560D01*
X30011524Y-27272415D01*
X30038279Y-27281417D01*
X30047288Y-27281666D01*
X30100624Y-27301721D01*
X30155731Y-27357836D01*
X30210284Y-27443936D01*
X30261956Y-27553946D01*
X30308424Y-27681792D01*
X30347362Y-27821398D01*
X30376445Y-27966690D01*
X30393347Y-28111594D01*
X30396664Y-28194434D01*
X30465973Y-28194434D01*
X30459524Y-28040056D01*
X30458595Y-28033083D01*
X30437000Y-28033083D01*
X30426417Y-28043666D01*
X30415834Y-28033083D01*
X30426417Y-28022500D01*
X30437000Y-28033083D01*
X30458595Y-28033083D01*
X30437787Y-27876927D01*
X30399016Y-27725450D01*
X30340002Y-27570963D01*
X30307888Y-27500557D01*
X30236208Y-27369586D01*
X30163711Y-27276241D01*
X30142869Y-27256711D01*
X30080382Y-27190498D01*
X30048718Y-27120450D01*
X30044608Y-27101321D01*
X30032372Y-27046934D01*
X30010812Y-26964109D01*
X29983152Y-26864843D01*
X29957480Y-26777252D01*
X29926254Y-26670635D01*
X29897441Y-26567637D01*
X29874643Y-26481396D01*
X29863126Y-26433148D01*
X29847833Y-26375790D01*
X29832960Y-26342172D01*
X29825806Y-26338119D01*
X29824572Y-26336222D01*
X29752612Y-26336222D01*
X29749706Y-26348805D01*
X29738500Y-26350333D01*
X29721078Y-26342588D01*
X29724389Y-26336222D01*
X29749509Y-26333688D01*
X29752612Y-26336222D01*
X29824572Y-26336222D01*
X29818083Y-26326254D01*
X29818256Y-26285146D01*
X29819323Y-26274765D01*
X29821378Y-26225471D01*
X29807695Y-26205349D01*
X29783150Y-26202166D01*
X29746335Y-26215473D01*
G37*
X29746335Y-26215473D02*
X29738500Y-26235479D01*
X29729412Y-26266983D01*
X29704761Y-26327028D01*
X29668467Y-26406572D01*
X29630677Y-26484187D01*
X29549629Y-26635975D01*
X29466428Y-26767932D01*
X29369596Y-26897146D01*
X29287437Y-26995255D01*
X29214744Y-27079260D01*
X28980187Y-26957390D01*
X28768340Y-26860061D01*
X28540757Y-26778312D01*
X28304472Y-26713209D01*
X28066517Y-26665817D01*
X27833927Y-26637204D01*
X27613734Y-26628435D01*
X27412974Y-26640576D01*
X27238679Y-26674694D01*
X27198500Y-26687318D01*
X27154999Y-26701468D01*
X27083402Y-26723923D01*
X26996156Y-26750798D01*
X26955084Y-26763305D01*
X26797599Y-26815295D01*
X26648642Y-26872362D01*
X26516768Y-26930768D01*
X26410527Y-26986772D01*
X26347783Y-27028879D01*
X26295064Y-27066120D01*
X26251959Y-27088380D01*
X26239592Y-27091166D01*
X26214581Y-27075227D01*
X26171869Y-27032374D01*
X26118485Y-26970054D01*
X26084893Y-26927254D01*
X26009732Y-26830980D01*
X25923469Y-26724341D01*
X25842481Y-26627514D01*
X25827959Y-26610643D01*
X25770723Y-26542248D01*
X25725955Y-26484316D01*
X25699839Y-26445086D01*
X25695667Y-26434416D01*
X25678268Y-26418522D01*
X25650270Y-26417652D01*
X25616944Y-26435251D01*
X25586192Y-26482028D01*
X25561606Y-26540833D01*
X25527251Y-26620549D01*
X25480097Y-26714203D01*
X25434303Y-26794833D01*
X25331802Y-26964702D01*
X25252559Y-27100585D01*
X25196709Y-27202237D01*
X25164387Y-27269413D01*
X25155725Y-27301867D01*
X25156366Y-27303559D01*
X25153127Y-27331321D01*
X25131349Y-27379327D01*
X25117692Y-27402587D01*
X25073984Y-27483439D01*
X25025935Y-27590220D01*
X24979742Y-27707861D01*
X24941603Y-27821291D01*
X24932406Y-27853166D01*
X24920937Y-27914838D01*
X24910927Y-28004925D01*
X24903707Y-28109509D01*
X24901093Y-28180743D01*
X24895925Y-28413069D01*
X24697838Y-28449540D01*
X24617894Y-28466147D01*
X24529376Y-28487567D01*
X24438586Y-28511831D01*
X24351829Y-28536968D01*
X24275410Y-28561007D01*
X24215634Y-28581978D01*
X24178804Y-28597909D01*
X24171226Y-28606830D01*
X24192834Y-28607399D01*
X24245879Y-28599041D01*
X24326150Y-28582058D01*
X24420159Y-28559415D01*
X24468000Y-28546923D01*
X24565592Y-28521613D01*
X24657815Y-28499245D01*
X24730360Y-28483228D01*
X24753750Y-28478836D01*
X24817125Y-28467222D01*
X24866604Y-28456353D01*
X24873547Y-28454468D01*
X24902559Y-28460131D01*
X24926678Y-28500457D01*
X24933865Y-28520515D01*
X24948319Y-28571234D01*
X24952572Y-28601284D01*
X24951652Y-28603776D01*
X24929798Y-28614950D01*
X24879926Y-28637360D01*
X24817250Y-28664277D01*
X24721947Y-28705921D01*
X24619779Y-28753003D01*
X24516493Y-28802563D01*
X24417833Y-28851638D01*
X24329543Y-28897268D01*
X24257367Y-28936491D01*
X24207052Y-28966347D01*
X24184340Y-28983875D01*
X24191615Y-28986772D01*
X24237914Y-28972912D01*
X24312195Y-28943887D01*
X24404724Y-28903761D01*
X24505769Y-28856595D01*
X24519699Y-28849828D01*
X24679965Y-28772593D01*
X24803587Y-28715282D01*
X24891134Y-28677645D01*
X24943176Y-28659428D01*
X24955154Y-28657500D01*
X24977707Y-28674695D01*
X24986845Y-28712351D01*
X24978203Y-28749574D01*
X24975246Y-28753658D01*
X24947996Y-28777469D01*
X24895077Y-28817189D01*
X24826267Y-28865578D01*
X24800256Y-28883212D01*
X24701180Y-28950631D01*
X24593395Y-29025509D01*
X24483545Y-29103062D01*
X24378273Y-29178508D01*
X24284223Y-29247064D01*
X24208039Y-29303948D01*
X24156366Y-29344376D01*
X24140505Y-29358146D01*
X24110600Y-29390917D01*
X24111025Y-29401584D01*
X24137727Y-29392739D01*
X24186654Y-29366976D01*
X24253752Y-29326887D01*
X24334970Y-29275065D01*
X24426256Y-29214104D01*
X24523555Y-29146596D01*
X24622816Y-29075134D01*
X24719986Y-29002311D01*
X24811012Y-28930720D01*
X24820156Y-28923293D01*
X24867082Y-28888949D01*
X24901899Y-28870289D01*
X24907522Y-28869166D01*
X24937237Y-28854582D01*
X24954834Y-28837416D01*
X24989075Y-28813795D01*
X25028706Y-28806183D01*
X25056541Y-28816134D01*
X25060667Y-28827850D01*
X25075765Y-28875539D01*
X25116106Y-28940989D01*
X25174256Y-29015044D01*
X25242785Y-29088547D01*
X25314261Y-29152343D01*
X25339383Y-29171241D01*
X25448589Y-29244322D01*
X25548910Y-29303323D01*
X25635232Y-29345994D01*
X25702441Y-29370083D01*
X25745421Y-29373339D01*
X25759167Y-29356000D01*
X25776311Y-29337221D01*
X25790917Y-29334833D01*
X25817423Y-29340469D01*
X25815584Y-29360551D01*
X25783547Y-29399841D01*
X25753875Y-29429896D01*
X25709224Y-29484102D01*
X25649095Y-29573173D01*
X25575630Y-29693484D01*
X25490973Y-29841407D01*
X25397267Y-30013316D01*
X25304632Y-30190074D01*
X25258972Y-30287363D01*
X25211584Y-30403420D01*
X25164380Y-30531755D01*
X25119270Y-30665877D01*
X25078165Y-30799296D01*
X25042974Y-30925522D01*
X25015608Y-31038063D01*
X24997978Y-31130428D01*
X24991994Y-31196128D01*
X24999077Y-31228191D01*
X25014169Y-31228646D01*
X25018334Y-31201733D01*
X25017592Y-31158643D01*
X25016526Y-31141658D01*
X25030074Y-31120087D01*
X25041337Y-31111698D01*
X25065579Y-31081535D01*
X25088946Y-31030114D01*
X25090770Y-31024664D01*
X25108274Y-30982015D01*
X25133980Y-30959140D01*
X25181396Y-30947457D01*
X25219417Y-30942924D01*
X25306102Y-30921043D01*
X25405262Y-30877139D01*
X25500452Y-30820102D01*
X25575228Y-30758824D01*
X25589834Y-30742644D01*
X25621139Y-30714528D01*
X25678518Y-30671358D01*
X25752076Y-30620401D01*
X25791802Y-30594292D01*
X25875701Y-30535782D01*
X25953417Y-30473951D01*
X26012282Y-30419146D01*
X26027501Y-30401776D01*
X26077652Y-30333203D01*
X26129824Y-30253366D01*
X26178296Y-30172142D01*
X26217353Y-30099403D01*
X26241274Y-30045025D01*
X26246000Y-30024480D01*
X26247915Y-30007876D01*
X26182500Y-30007876D01*
X26166644Y-30076721D01*
X26123148Y-30163232D01*
X26058128Y-30259525D01*
X25977695Y-30357713D01*
X25887964Y-30449911D01*
X25795047Y-30528232D01*
X25760097Y-30552767D01*
X25675432Y-30611450D01*
X25589804Y-30675485D01*
X25521546Y-30731155D01*
X25520725Y-30731876D01*
X25422201Y-30806496D01*
X25320267Y-30862872D01*
X25226539Y-30895226D01*
X25181416Y-30900701D01*
X25143472Y-30898086D01*
X25129812Y-30881345D01*
X25133532Y-30838368D01*
X25136425Y-30821791D01*
X25158536Y-30731070D01*
X25194711Y-30619538D01*
X25241240Y-30495633D01*
X25294412Y-30367786D01*
X25350516Y-30244435D01*
X25405843Y-30134013D01*
X25456682Y-30044955D01*
X25499322Y-29985696D01*
X25508258Y-29976533D01*
X25558063Y-29941287D01*
X25634561Y-29899076D01*
X25724259Y-29856252D01*
X25813666Y-29819166D01*
X25889291Y-29794171D01*
X25902311Y-29791019D01*
X25979699Y-29793160D01*
X26057565Y-29826031D01*
X26124673Y-29880935D01*
X26169790Y-29949177D01*
X26182500Y-30007876D01*
X26247915Y-30007876D01*
X26248639Y-30001608D01*
X26260702Y-29995078D01*
X26288410Y-30007438D01*
X26337981Y-30041238D01*
X26401030Y-30088037D01*
X26528614Y-30172421D01*
X26682356Y-30256258D01*
X26846648Y-30332073D01*
X27005884Y-30392394D01*
X27087222Y-30416669D01*
X27204434Y-30438864D01*
X27351545Y-30453760D01*
X27516711Y-30461097D01*
X27688086Y-30460612D01*
X27853826Y-30452045D01*
X27992250Y-30436636D01*
X28139027Y-30409170D01*
X28302820Y-30369431D01*
X28468542Y-30321735D01*
X28621104Y-30270396D01*
X28736518Y-30223814D01*
X28807100Y-30192739D01*
X28862392Y-30170113D01*
X28891390Y-30160419D01*
X28892406Y-30160333D01*
X28906158Y-30178857D01*
X28920136Y-30224705D01*
X28922827Y-30237828D01*
X28933324Y-30270806D01*
X28955547Y-30309923D01*
X28993289Y-30359785D01*
X29050344Y-30424998D01*
X29130505Y-30510167D01*
X29237391Y-30619720D01*
X29343999Y-30726926D01*
X29426652Y-30807337D01*
X29490296Y-30865097D01*
X29539874Y-30904347D01*
X29580329Y-30929230D01*
X29616605Y-30943889D01*
X29628069Y-30947079D01*
X29692101Y-30969084D01*
X29731462Y-31002456D01*
X29755545Y-31058644D01*
X29768424Y-31118125D01*
X29782347Y-31169032D01*
X29798986Y-31196137D01*
X29802960Y-31197500D01*
X29817990Y-31178194D01*
X29821994Y-31124171D01*
X29816073Y-31041274D01*
X29801327Y-30935346D01*
X29784655Y-30843997D01*
X29757763Y-30843997D01*
X29752681Y-30867675D01*
X29740476Y-30909053D01*
X29738500Y-30924064D01*
X29725357Y-30942448D01*
X29687327Y-30928747D01*
X29648058Y-30901166D01*
X29605248Y-30871717D01*
X29575913Y-30858854D01*
X29575284Y-30858833D01*
X29555072Y-30844554D01*
X29511437Y-30805639D01*
X29450296Y-30747969D01*
X29377565Y-30677428D01*
X29299158Y-30599896D01*
X29220992Y-30521257D01*
X29148982Y-30447392D01*
X29089045Y-30384184D01*
X29047096Y-30337515D01*
X29032449Y-30319083D01*
X29006870Y-30267777D01*
X28987943Y-30207212D01*
X28982419Y-30162196D01*
X28994123Y-30126706D01*
X29029758Y-30085993D01*
X29052874Y-30064337D01*
X29107823Y-30021723D01*
X29158154Y-29995270D01*
X29177897Y-29991000D01*
X29217455Y-30003213D01*
X29276418Y-30035092D01*
X29336334Y-30075666D01*
X29399744Y-30119121D01*
X29454184Y-30149666D01*
X29486021Y-30160333D01*
X29507372Y-30172031D01*
X29532017Y-30210388D01*
X29562481Y-30280292D01*
X29598034Y-30377291D01*
X29631303Y-30476398D01*
X29660338Y-30569987D01*
X29681277Y-30645226D01*
X29688841Y-30678916D01*
X29698967Y-30729973D01*
X29706842Y-30743317D01*
X29716611Y-30723082D01*
X29720662Y-30710666D01*
X29728815Y-30694423D01*
X29729739Y-30718466D01*
X29725771Y-30760551D01*
X29721081Y-30822005D01*
X29726204Y-30848351D01*
X29740462Y-30847037D01*
X29757763Y-30843997D01*
X29784655Y-30843997D01*
X29778856Y-30812228D01*
X29749762Y-30677764D01*
X29715146Y-30537795D01*
X29676108Y-30398165D01*
X29633748Y-30264715D01*
X29619516Y-30223833D01*
X29577350Y-30105961D01*
X29500750Y-30105961D01*
X29488590Y-30114394D01*
X29453083Y-30095085D01*
X29402880Y-30057562D01*
X29344389Y-30014452D01*
X29291111Y-29979516D01*
X29277674Y-29971909D01*
X29229597Y-29946693D01*
X29291313Y-29894763D01*
X29336587Y-29860964D01*
X29369967Y-29843493D01*
X29374100Y-29842833D01*
X29394249Y-29860788D01*
X29423129Y-29907081D01*
X29454766Y-29970352D01*
X29483186Y-30039239D01*
X29493749Y-30070375D01*
X29500750Y-30105961D01*
X29577350Y-30105961D01*
X29572126Y-30091359D01*
X29536420Y-29993308D01*
X29509944Y-29924198D01*
X29490240Y-29878549D01*
X29474853Y-29850881D01*
X29461328Y-29835713D01*
X29447207Y-29827567D01*
X29440800Y-29825030D01*
X29427601Y-29814112D01*
X29430544Y-29792672D01*
X29452805Y-29754803D01*
X29497562Y-29694599D01*
X29539376Y-29641750D01*
X29599751Y-29570433D01*
X29654200Y-29513488D01*
X29695406Y-29478185D01*
X29712002Y-29470258D01*
X29765365Y-29466873D01*
X29793080Y-29464967D01*
X29870107Y-29440860D01*
X29956138Y-29382219D01*
X30046082Y-29294430D01*
X30134849Y-29182876D01*
X30217349Y-29052943D01*
X30260934Y-28970028D01*
X30297018Y-28901281D01*
X30328642Y-28850570D01*
X30349792Y-28827362D01*
X30351878Y-28826833D01*
X30363408Y-28829281D01*
X30382321Y-28838819D01*
X30413376Y-28858738D01*
X30461334Y-28892329D01*
X30530953Y-28942883D01*
X30626994Y-29013691D01*
X30694613Y-29063804D01*
X30863738Y-29193893D01*
X31005788Y-29314294D01*
X31131370Y-29434605D01*
X31251092Y-29564427D01*
X31263105Y-29578250D01*
X31312053Y-29631288D01*
X31351377Y-29667454D01*
X31372071Y-29678791D01*
X31388862Y-29689192D01*
X31389500Y-29694666D01*
X31405681Y-29715133D01*
X31411211Y-29715833D01*
X31419544Y-29701091D01*
X31403641Y-29661315D01*
X31367314Y-29603175D01*
X31314376Y-29533344D01*
X31290988Y-29505467D01*
X31233691Y-29446053D01*
X31149684Y-29368123D01*
X31046561Y-29277966D01*
X30931916Y-29181871D01*
X30813343Y-29086127D01*
X30698436Y-28997024D01*
X30594790Y-28920851D01*
X30538019Y-28881886D01*
X30451120Y-28820466D01*
X30395170Y-28771958D01*
X30372050Y-28738501D01*
X30383646Y-28722235D01*
X30396382Y-28721000D01*
X30429923Y-28730924D01*
X30489247Y-28757039D01*
X30563774Y-28793858D01*
X30642926Y-28835897D01*
X30716122Y-28877667D01*
X30772784Y-28913684D01*
X30784846Y-28922447D01*
X30834075Y-28955745D01*
X30871731Y-28973883D01*
X30878207Y-28975000D01*
X30901336Y-28989023D01*
X30902667Y-28995763D01*
X30920610Y-29015899D01*
X30954878Y-29029630D01*
X30992332Y-29045041D01*
X31002503Y-29059421D01*
X31014120Y-29083607D01*
X31049616Y-29125198D01*
X31099604Y-29175415D01*
X31154696Y-29225481D01*
X31205505Y-29266618D01*
X31242644Y-29290049D01*
X31251772Y-29292500D01*
X31270465Y-29281460D01*
X31258430Y-29250865D01*
X31220258Y-29204502D01*
X31160537Y-29146157D01*
X31083857Y-29079618D01*
X30994807Y-29008669D01*
X30897976Y-28937099D01*
X30797954Y-28868694D01*
X30699331Y-28807241D01*
X30606696Y-28756525D01*
X30595443Y-28750972D01*
X30512948Y-28709506D01*
X30476664Y-28689873D01*
X30302845Y-28689873D01*
X30302158Y-28697616D01*
X30274208Y-28699083D01*
X30231128Y-28690443D01*
X30213880Y-28677258D01*
X30205750Y-28650837D01*
X30229256Y-28650919D01*
X30267699Y-28669065D01*
X30302845Y-28689873D01*
X30476664Y-28689873D01*
X30446890Y-28673763D01*
X30405191Y-28648188D01*
X30394667Y-28638279D01*
X30406065Y-28611388D01*
X30425401Y-28582170D01*
X30446516Y-28557615D01*
X30468155Y-28552673D01*
X30504617Y-28567675D01*
X30536526Y-28584740D01*
X30672372Y-28658813D01*
X30777243Y-28716827D01*
X30857584Y-28762518D01*
X30919839Y-28799625D01*
X30970452Y-28831886D01*
X31013841Y-28861605D01*
X31074972Y-28900354D01*
X31127179Y-28925792D01*
X31151424Y-28931785D01*
X31167910Y-28921847D01*
X31149747Y-28895117D01*
X31100154Y-28853729D01*
X31022351Y-28799816D01*
X30919556Y-28735512D01*
X30794989Y-28662950D01*
X30651867Y-28584265D01*
X30532891Y-28521796D01*
X30470032Y-28489423D01*
X30467437Y-28229503D01*
X30465973Y-28194434D01*
X30396664Y-28194434D01*
X30396521Y-28302929D01*
X30390505Y-28373610D01*
X30373254Y-28410991D01*
X30339405Y-28419587D01*
X30283597Y-28403914D01*
X30200466Y-28368486D01*
X30193584Y-28365427D01*
X30092582Y-28326326D01*
X29992091Y-28297446D01*
X29900839Y-28280238D01*
X29827552Y-28276153D01*
X29780959Y-28286640D01*
X29771702Y-28295317D01*
X29778835Y-28310510D01*
X29825138Y-28317915D01*
X29863911Y-28318833D01*
X29941746Y-28326392D01*
X30033107Y-28350989D01*
X30148370Y-28395502D01*
X30163492Y-28401970D01*
X30246012Y-28438015D01*
X30312766Y-28468054D01*
X30354963Y-28488083D01*
X30365011Y-28493788D01*
X30364630Y-28517461D01*
X30352225Y-28563881D01*
X30349907Y-28570697D01*
X30326543Y-28617624D01*
X30299259Y-28627957D01*
X30291936Y-28625808D01*
X30238810Y-28607617D01*
X30160835Y-28583587D01*
X30067735Y-28556409D01*
X29969231Y-28528775D01*
X29875048Y-28503373D01*
X29794907Y-28482897D01*
X29738533Y-28470035D01*
X29718071Y-28467000D01*
X29679945Y-28472776D01*
X29677304Y-28486606D01*
X29705445Y-28503243D01*
X29759662Y-28517437D01*
X29763909Y-28518139D01*
X29824570Y-28530865D01*
X29867848Y-28545342D01*
X29875034Y-28549523D01*
X29909919Y-28568127D01*
X29961356Y-28588194D01*
X30002813Y-28606599D01*
X30061893Y-28638069D01*
X30128187Y-28676346D01*
X30191285Y-28715172D01*
X30240778Y-28748288D01*
X30266255Y-28769436D01*
X30267667Y-28772350D01*
X30260020Y-28794076D01*
X30239713Y-28844903D01*
X30210703Y-28914994D01*
X30201977Y-28935741D01*
X30114360Y-29108604D01*
X30011312Y-29251189D01*
X29896764Y-29358242D01*
X29874096Y-29374085D01*
X29806761Y-29416747D01*
X29765173Y-29436029D01*
X29741053Y-29433734D01*
X29726122Y-29411669D01*
X29724169Y-29406780D01*
X29727072Y-29368929D01*
X29739832Y-29355176D01*
X29749033Y-29337877D01*
X29736929Y-29305157D01*
X29700545Y-29250819D01*
X29671180Y-29212140D01*
X29619911Y-29144267D01*
X29576741Y-29083805D01*
X29562560Y-29061829D01*
X29408871Y-29061829D01*
X29403673Y-29081068D01*
X29380767Y-29114739D01*
X29336915Y-29169818D01*
X29293681Y-29222814D01*
X29274730Y-29258948D01*
X29272834Y-29270439D01*
X29257264Y-29291712D01*
X29251667Y-29292500D01*
X29231340Y-29308792D01*
X29230500Y-29315078D01*
X29218674Y-29346873D01*
X29189869Y-29390643D01*
X29154095Y-29434119D01*
X29121360Y-29465028D01*
X29102608Y-29471865D01*
X29077939Y-29476557D01*
X29069943Y-29485925D01*
X29067092Y-29500770D01*
X29079063Y-29495604D01*
X29100915Y-29492807D01*
X29103500Y-29499841D01*
X29088674Y-29525086D01*
X29051254Y-29564257D01*
X29001832Y-29608407D01*
X28951000Y-29648591D01*
X28909349Y-29675863D01*
X28888101Y-29681776D01*
X28874557Y-29683702D01*
X28875434Y-29689367D01*
X28864433Y-29712937D01*
X28829972Y-29755078D01*
X28788029Y-29798249D01*
X28730304Y-29849680D01*
X28688365Y-29874179D01*
X28651122Y-29877522D01*
X28639862Y-29875416D01*
X28606839Y-29870865D01*
X28611799Y-29880692D01*
X28612638Y-29881261D01*
X28624882Y-29900154D01*
X28601781Y-29923845D01*
X28591472Y-29930600D01*
X28531047Y-29963804D01*
X28451808Y-30001081D01*
X28367526Y-30036648D01*
X28291971Y-30064721D01*
X28238916Y-30079519D01*
X28235667Y-30080009D01*
X28178285Y-30097676D01*
X28130416Y-30123663D01*
X28073482Y-30151493D01*
X28024582Y-30161821D01*
X27964490Y-30170328D01*
X27928750Y-30181355D01*
X27875590Y-30191375D01*
X27789424Y-30192965D01*
X27678606Y-30186741D01*
X27551486Y-30173318D01*
X27416414Y-30153312D01*
X27328309Y-30137070D01*
X27205516Y-30112432D01*
X27118663Y-30094566D01*
X27062166Y-30081997D01*
X27030443Y-30073249D01*
X27017911Y-30066847D01*
X27018987Y-30061315D01*
X27025200Y-30056952D01*
X27019984Y-30048968D01*
X26982221Y-30044039D01*
X26958354Y-30043354D01*
X26862482Y-30027272D01*
X26752202Y-29983973D01*
X26639609Y-29919254D01*
X26542334Y-29843947D01*
X26495253Y-29799325D01*
X26467308Y-29768310D01*
X26464049Y-29758195D01*
X26461737Y-29745901D01*
X26438943Y-29720265D01*
X26026642Y-29720265D01*
X26009109Y-29745644D01*
X25954113Y-29757521D01*
X25931776Y-29758166D01*
X25868968Y-29766321D01*
X25788162Y-29787412D01*
X25726650Y-29809213D01*
X25642695Y-29842269D01*
X25591676Y-29858218D01*
X25567562Y-29856497D01*
X25564321Y-29836540D01*
X25575923Y-29797786D01*
X25576832Y-29795208D01*
X25603671Y-29737344D01*
X25644747Y-29667041D01*
X25668796Y-29631166D01*
X25713839Y-29567646D01*
X25753966Y-29510939D01*
X25769946Y-29488291D01*
X25811091Y-29448069D01*
X25849989Y-29449243D01*
X25888238Y-29492192D01*
X25903176Y-29520041D01*
X25933050Y-29567895D01*
X25961617Y-29592399D01*
X25969440Y-29593259D01*
X25987891Y-29601507D01*
X25984913Y-29619105D01*
X25988335Y-29658390D01*
X26004833Y-29683308D01*
X26026642Y-29720265D01*
X26438943Y-29720265D01*
X26434683Y-29715474D01*
X26425088Y-29706335D01*
X26391827Y-29666635D01*
X26381805Y-29635485D01*
X26383237Y-29631727D01*
X26383540Y-29614531D01*
X26375373Y-29614767D01*
X26355114Y-29600582D01*
X26320996Y-29557751D01*
X26279550Y-29494726D01*
X26268971Y-29477079D01*
X26232289Y-29412222D01*
X26209047Y-29365995D01*
X26202960Y-29346005D01*
X26205089Y-29346295D01*
X26236952Y-29354625D01*
X26294886Y-29361529D01*
X26330750Y-29363841D01*
X26385733Y-29364128D01*
X26413818Y-29359671D01*
X26413210Y-29354687D01*
X26412660Y-29339276D01*
X26454055Y-29319789D01*
X26500000Y-29305897D01*
X26522416Y-29292874D01*
X26565188Y-29263997D01*
X26579551Y-29253859D01*
X26627984Y-29209499D01*
X26635334Y-29174672D01*
X26601538Y-29149310D01*
X26526534Y-29133342D01*
X26468548Y-29128584D01*
X26344577Y-29130012D01*
X26250504Y-29148143D01*
X26190106Y-29181906D01*
X26170267Y-29213032D01*
X26159011Y-29240974D01*
X26146657Y-29236765D01*
X26124619Y-29198034D01*
X26102071Y-29134411D01*
X26091691Y-29070250D01*
X25907334Y-29070250D01*
X25896750Y-29080833D01*
X25886167Y-29070250D01*
X25896750Y-29059666D01*
X25907334Y-29070250D01*
X26091691Y-29070250D01*
X26090398Y-29062258D01*
X26090238Y-29058735D01*
X26085011Y-29010186D01*
X26083577Y-29006750D01*
X25949667Y-29006750D01*
X25939084Y-29017333D01*
X25928500Y-29006750D01*
X25939084Y-28996166D01*
X25949667Y-29006750D01*
X26083577Y-29006750D01*
X26075720Y-28987930D01*
X26072838Y-28988104D01*
X26050475Y-28982193D01*
X26045362Y-28975719D01*
X26060439Y-28967274D01*
X26116611Y-28960965D01*
X26212687Y-28956862D01*
X26347480Y-28955033D01*
X26404013Y-28954944D01*
X26775728Y-28955306D01*
X26765661Y-29010824D01*
X26747570Y-29116214D01*
X26738470Y-29186686D01*
X26738128Y-29228637D01*
X26746313Y-29248467D01*
X26756889Y-29252604D01*
X26847337Y-29245590D01*
X26905774Y-29214693D01*
X26934905Y-29195424D01*
X26955046Y-29210371D01*
X26964727Y-29227243D01*
X26977518Y-29260736D01*
X26973715Y-29271333D01*
X26974564Y-29284291D01*
X26994183Y-29310092D01*
X27017372Y-29342760D01*
X27019638Y-29358473D01*
X27028663Y-29366330D01*
X27049788Y-29368095D01*
X27077858Y-29361074D01*
X27079281Y-29351464D01*
X27084664Y-29335749D01*
X27091418Y-29334833D01*
X27112771Y-29351204D01*
X27113834Y-29358344D01*
X27124706Y-29361339D01*
X27150953Y-29336010D01*
X27151848Y-29334910D01*
X27189863Y-29287964D01*
X27257248Y-29344666D01*
X27303811Y-29376980D01*
X27339188Y-29389562D01*
X27346234Y-29388017D01*
X27366093Y-29388296D01*
X27367834Y-29395320D01*
X27351270Y-29421149D01*
X27341375Y-29426648D01*
X27326656Y-29436309D01*
X27340631Y-29438995D01*
X27369975Y-29423794D01*
X27388579Y-29399121D01*
X27421952Y-29368686D01*
X27447532Y-29369368D01*
X27469886Y-29373946D01*
X27456565Y-29361280D01*
X27438679Y-29323412D01*
X27443147Y-29284553D01*
X27460034Y-29244591D01*
X27488977Y-29238018D01*
X27502582Y-29241440D01*
X27556148Y-29266629D01*
X27581565Y-29284780D01*
X27628385Y-29305202D01*
X27666231Y-29306582D01*
X27704895Y-29290218D01*
X27712621Y-29250329D01*
X27712423Y-29248014D01*
X27703450Y-29180740D01*
X27688450Y-29094936D01*
X27671073Y-29009632D01*
X27654969Y-28943856D01*
X27652499Y-28935598D01*
X27645399Y-28901397D01*
X27661606Y-28892676D01*
X27698123Y-28898872D01*
X27771735Y-28910387D01*
X27879850Y-28921388D01*
X28014639Y-28931436D01*
X28168272Y-28940092D01*
X28332920Y-28946921D01*
X28500753Y-28951482D01*
X28663941Y-28953338D01*
X28671986Y-28953353D01*
X28863585Y-28955872D01*
X29022488Y-28962765D01*
X29146578Y-28973809D01*
X29233737Y-28988785D01*
X29281850Y-29007470D01*
X29290517Y-29017878D01*
X29310566Y-29029604D01*
X29316538Y-29027069D01*
X29348020Y-29026805D01*
X29379095Y-29038728D01*
X29399599Y-29050041D01*
X29408871Y-29061829D01*
X29562560Y-29061829D01*
X29550526Y-29043183D01*
X29549603Y-29041493D01*
X29514684Y-29006075D01*
X29483088Y-28996166D01*
X29441581Y-28989503D01*
X29375599Y-28972149D01*
X29309208Y-28951106D01*
X29268349Y-28938251D01*
X29225100Y-28927774D01*
X29174168Y-28919264D01*
X29110259Y-28912308D01*
X29028079Y-28906495D01*
X28922336Y-28901413D01*
X28787735Y-28896650D01*
X28618983Y-28891793D01*
X28510834Y-28888961D01*
X28341680Y-28883979D01*
X28181636Y-28878045D01*
X28036842Y-28871481D01*
X27913441Y-28864606D01*
X27817573Y-28857742D01*
X27755380Y-28851211D01*
X27741074Y-28848712D01*
X27671610Y-28837682D01*
X27613204Y-28836184D01*
X27594751Y-28839294D01*
X27564808Y-28851758D01*
X27573908Y-28865223D01*
X27589175Y-28874160D01*
X27613148Y-28894656D01*
X27599891Y-28911979D01*
X27586106Y-28929467D01*
X27584076Y-28964272D01*
X27593797Y-29026370D01*
X27599805Y-29055604D01*
X27612909Y-29126347D01*
X27619591Y-29181189D01*
X27618996Y-29204673D01*
X27597112Y-29209115D01*
X27547767Y-29193077D01*
X27510991Y-29175856D01*
X27452427Y-29147224D01*
X27419868Y-29137283D01*
X27401859Y-29145006D01*
X27389283Y-29164973D01*
X27371103Y-29218945D01*
X27367834Y-29247525D01*
X27358437Y-29291710D01*
X27331381Y-29297998D01*
X27288370Y-29266137D01*
X27282554Y-29260097D01*
X27228935Y-29217194D01*
X27179655Y-29213837D01*
X27125051Y-29249623D01*
X27121042Y-29253337D01*
X27092077Y-29277426D01*
X27072388Y-29280643D01*
X27058336Y-29257532D01*
X27046285Y-29202637D01*
X27034403Y-29123407D01*
X27016336Y-29046390D01*
X26990847Y-29003431D01*
X26961668Y-28996875D01*
X26932533Y-29029063D01*
X26921922Y-29052796D01*
X26892747Y-29111061D01*
X26863834Y-29151607D01*
X26836852Y-29177520D01*
X26823802Y-29168245D01*
X26816151Y-29141062D01*
X26816594Y-29083992D01*
X26829265Y-29049083D01*
X26851138Y-28998046D01*
X26867801Y-28935497D01*
X26874469Y-28888211D01*
X26864615Y-28872689D01*
X26830148Y-28879211D01*
X26822755Y-28881372D01*
X26783384Y-28886982D01*
X26709637Y-28892084D01*
X26609474Y-28896332D01*
X26490851Y-28899383D01*
X26373000Y-28900832D01*
X25981417Y-28903166D01*
X25848095Y-29034814D01*
X25784830Y-29098636D01*
X25748247Y-29140682D01*
X25734030Y-29168007D01*
X25737865Y-29187669D01*
X25747553Y-29199242D01*
X25775026Y-29233827D01*
X25772519Y-29265002D01*
X25749254Y-29299999D01*
X25732842Y-29317642D01*
X25712879Y-29322874D01*
X25680848Y-29313365D01*
X25628230Y-29286787D01*
X25559136Y-29247997D01*
X25408314Y-29151205D01*
X25288422Y-29047431D01*
X25188194Y-28926333D01*
X25155321Y-28877390D01*
X25114059Y-28807815D01*
X25096705Y-28763098D01*
X25100435Y-28735267D01*
X25103476Y-28731010D01*
X25137998Y-28706225D01*
X25202317Y-28673486D01*
X25285731Y-28637170D01*
X25377540Y-28601655D01*
X25467043Y-28571320D01*
X25513878Y-28558599D01*
X25307845Y-28558599D01*
X25287581Y-28581120D01*
X25228704Y-28618636D01*
X25219417Y-28623882D01*
X25136183Y-28668450D01*
X25082554Y-28691112D01*
X25052663Y-28693071D01*
X25040644Y-28675526D01*
X25039500Y-28660715D01*
X25053332Y-28631206D01*
X25099005Y-28604366D01*
X25147764Y-28586632D01*
X25236855Y-28560792D01*
X25290575Y-28551635D01*
X25307845Y-28558599D01*
X25513878Y-28558599D01*
X25543539Y-28550543D01*
X25545718Y-28550071D01*
X25604072Y-28534306D01*
X25638687Y-28518529D01*
X25643240Y-28510125D01*
X25653808Y-28495029D01*
X25693564Y-28481208D01*
X25697121Y-28480467D01*
X25761388Y-28467614D01*
X25732095Y-28436171D01*
X25642750Y-28436171D01*
X25462834Y-28473097D01*
X25366039Y-28494220D01*
X25272229Y-28516802D01*
X25198866Y-28536598D01*
X25187667Y-28540012D01*
X25104971Y-28563314D01*
X25052877Y-28569110D01*
X25023022Y-28556431D01*
X25007038Y-28524308D01*
X25005612Y-28518930D01*
X25000517Y-28473385D01*
X25006920Y-28450139D01*
X25034910Y-28441787D01*
X25095160Y-28434115D01*
X25177600Y-28427603D01*
X25272156Y-28422733D01*
X25368758Y-28419986D01*
X25457334Y-28419842D01*
X25527810Y-28422781D01*
X25544935Y-28424456D01*
X25642750Y-28436171D01*
X25732095Y-28436171D01*
X25719791Y-28422964D01*
X25699827Y-28404791D01*
X25674668Y-28392420D01*
X25636556Y-28384823D01*
X25577735Y-28380974D01*
X25490448Y-28379846D01*
X25396725Y-28380200D01*
X25285544Y-28381839D01*
X25184155Y-28384962D01*
X25102973Y-28389138D01*
X25052415Y-28393937D01*
X25048786Y-28394556D01*
X24982315Y-28407026D01*
X24968758Y-28294138D01*
X24960607Y-28209135D01*
X24959595Y-28191833D01*
X24933667Y-28191833D01*
X24925923Y-28209255D01*
X24919556Y-28205944D01*
X24917023Y-28180824D01*
X24919556Y-28177722D01*
X24932140Y-28180627D01*
X24933667Y-28191833D01*
X24959595Y-28191833D01*
X24955671Y-28124757D01*
X24955018Y-28094234D01*
X24963986Y-28015108D01*
X24988661Y-27909271D01*
X25025305Y-27787615D01*
X25070181Y-27661033D01*
X25119550Y-27540417D01*
X25169676Y-27436661D01*
X25196667Y-27390008D01*
X25225630Y-27339247D01*
X25239528Y-27304862D01*
X25239104Y-27297825D01*
X25239251Y-27270149D01*
X25260315Y-27214312D01*
X25299033Y-27136900D01*
X25352138Y-27044496D01*
X25409784Y-26953583D01*
X25468466Y-26860295D01*
X25525893Y-26761195D01*
X25572027Y-26673816D01*
X25582317Y-26652178D01*
X25614699Y-26586162D01*
X25642110Y-26538734D01*
X25658748Y-26519905D01*
X25658999Y-26519887D01*
X25683857Y-26536092D01*
X25733336Y-26583987D01*
X25805873Y-26661998D01*
X25853521Y-26715458D01*
X25879087Y-26749023D01*
X25886167Y-26764495D01*
X25898943Y-26794368D01*
X25929869Y-26835442D01*
X25967841Y-26875722D01*
X26001757Y-26903213D01*
X26018793Y-26907773D01*
X26030757Y-26907710D01*
X26026069Y-26918081D01*
X26030488Y-26946275D01*
X26058363Y-26991310D01*
X26081007Y-27018481D01*
X26126106Y-27070292D01*
X26160054Y-27113521D01*
X26168674Y-27126576D01*
X26202916Y-27148141D01*
X26262217Y-27135950D01*
X26346721Y-27089961D01*
X26392074Y-27058899D01*
X26505802Y-26987455D01*
X26630839Y-26925434D01*
X26747946Y-26882197D01*
X26764584Y-26877667D01*
X26811514Y-26863641D01*
X26886151Y-26839106D01*
X26976442Y-26808087D01*
X27033649Y-26787846D01*
X27141952Y-26752179D01*
X27256446Y-26719480D01*
X27358367Y-26694946D01*
X27393482Y-26688228D01*
X27551162Y-26673378D01*
X27737484Y-26675433D01*
X27942749Y-26693355D01*
X28157257Y-26726109D01*
X28371306Y-26772656D01*
X28491740Y-26805659D01*
X28561658Y-26829670D01*
X28650432Y-26864893D01*
X28750779Y-26907880D01*
X28855419Y-26955183D01*
X28957069Y-27003356D01*
X29048448Y-27048950D01*
X29122273Y-27088518D01*
X29171262Y-27118613D01*
X29188167Y-27135379D01*
X29204734Y-27143384D01*
X29225209Y-27140087D01*
X29259241Y-27117404D01*
X29308846Y-27068287D01*
X29368424Y-27000168D01*
X29432375Y-26920482D01*
X29495100Y-26836663D01*
X29550999Y-26756144D01*
X29594471Y-26686359D01*
X29619917Y-26634742D01*
X29623478Y-26611376D01*
X29630632Y-26582781D01*
X29640457Y-26576584D01*
X29662769Y-26551705D01*
X29687521Y-26501236D01*
X29695775Y-26478521D01*
X29725623Y-26406591D01*
X29753393Y-26376843D01*
X29778561Y-26389156D01*
X29800605Y-26443407D01*
X29813873Y-26506131D01*
X29825599Y-26556486D01*
X29838671Y-26568755D01*
X29848375Y-26559480D01*
X29861051Y-26548741D01*
X29859073Y-26575549D01*
X29857251Y-26584376D01*
X29858110Y-26628285D01*
X29870404Y-26702181D01*
X29892197Y-26795886D01*
X29909650Y-26859542D01*
X29937932Y-26962593D01*
X29962506Y-27062130D01*
X29980048Y-27144173D01*
X29986060Y-27181125D01*
X29996295Y-27242560D01*
X30011524Y-27272415D01*
X30038279Y-27281417D01*
X30047288Y-27281666D01*
X30100624Y-27301721D01*
X30155731Y-27357836D01*
X30210284Y-27443936D01*
X30261956Y-27553946D01*
X30308424Y-27681792D01*
X30347362Y-27821398D01*
X30376445Y-27966690D01*
X30393347Y-28111594D01*
X30396664Y-28194434D01*
X30465973Y-28194434D01*
X30459524Y-28040056D01*
X30458595Y-28033083D01*
X30437000Y-28033083D01*
X30426417Y-28043666D01*
X30415834Y-28033083D01*
X30426417Y-28022500D01*
X30437000Y-28033083D01*
X30458595Y-28033083D01*
X30437787Y-27876927D01*
X30399016Y-27725450D01*
X30340002Y-27570963D01*
X30307888Y-27500557D01*
X30236208Y-27369586D01*
X30163711Y-27276241D01*
X30142869Y-27256711D01*
X30080382Y-27190498D01*
X30048718Y-27120450D01*
X30044608Y-27101321D01*
X30032372Y-27046934D01*
X30010812Y-26964109D01*
X29983152Y-26864843D01*
X29957480Y-26777252D01*
X29926254Y-26670635D01*
X29897441Y-26567637D01*
X29874643Y-26481396D01*
X29863126Y-26433148D01*
X29847833Y-26375790D01*
X29832960Y-26342172D01*
X29825806Y-26338119D01*
X29824572Y-26336222D01*
X29752612Y-26336222D01*
X29749706Y-26348805D01*
X29738500Y-26350333D01*
X29721078Y-26342588D01*
X29724389Y-26336222D01*
X29749509Y-26333688D01*
X29752612Y-26336222D01*
X29824572Y-26336222D01*
X29818083Y-26326254D01*
X29818256Y-26285146D01*
X29819323Y-26274765D01*
X29821378Y-26225471D01*
X29807695Y-26205349D01*
X29783150Y-26202166D01*
X29746335Y-26215473D01*
G36*
X29784522Y-31256776D02*
G01*
X29780834Y-31271583D01*
X29797777Y-31299645D01*
X29812584Y-31303333D01*
X29840646Y-31286390D01*
X29844334Y-31271583D01*
X29827391Y-31243521D01*
X29812584Y-31239833D01*
X29784522Y-31256776D01*
G37*
X29784522Y-31256776D02*
X29780834Y-31271583D01*
X29797777Y-31299645D01*
X29812584Y-31303333D01*
X29840646Y-31286390D01*
X29844334Y-31271583D01*
X29827391Y-31243521D01*
X29812584Y-31239833D01*
X29784522Y-31256776D01*
G36*
X24986808Y-31281035D02*
G01*
X24979388Y-31336769D01*
X24976095Y-31421644D01*
X24976000Y-31440916D01*
X24978084Y-31522217D01*
X24983645Y-31584398D01*
X24991646Y-31617743D01*
X24995186Y-31620833D01*
X25006169Y-31637655D01*
X25003487Y-31662453D01*
X25001850Y-31709442D01*
X25011007Y-31777175D01*
X25027417Y-31850017D01*
X25047542Y-31912330D01*
X25067843Y-31948481D01*
X25068325Y-31948916D01*
X25091191Y-31987437D01*
X25095380Y-32007262D01*
X25108191Y-32050380D01*
X25137978Y-32113635D01*
X25178924Y-32187636D01*
X25225214Y-32262997D01*
X25271029Y-32330327D01*
X25310555Y-32380239D01*
X25337974Y-32403343D01*
X25341121Y-32403930D01*
X25358428Y-32408070D01*
X25368695Y-32425623D01*
X25373095Y-32464409D01*
X25372801Y-32532246D01*
X25370484Y-32599791D01*
X25370746Y-32807081D01*
X25386622Y-33010312D01*
X25416681Y-33195510D01*
X25441706Y-33294798D01*
X25490165Y-33411585D01*
X25560356Y-33521086D01*
X25643188Y-33611155D01*
X25718206Y-33664126D01*
X25794685Y-33687927D01*
X25882211Y-33692792D01*
X25960359Y-33678424D01*
X25983180Y-33667958D01*
X26081646Y-33596822D01*
X26158681Y-33506356D01*
X26198932Y-33439336D01*
X26236805Y-33357270D01*
X26272692Y-33258823D01*
X26302749Y-33157199D01*
X26323137Y-33065601D01*
X26327557Y-33021646D01*
X26238467Y-33021646D01*
X26233968Y-33103369D01*
X26224418Y-33167714D01*
X26224090Y-33169100D01*
X26173744Y-33327124D01*
X26105645Y-33462230D01*
X26024320Y-33565698D01*
X26012383Y-33576940D01*
X25935440Y-33632899D01*
X25864303Y-33651191D01*
X25789942Y-33632004D01*
X25713188Y-33583143D01*
X25616861Y-33483534D01*
X25541514Y-33347366D01*
X25487223Y-33174891D01*
X25454066Y-32966363D01*
X25442121Y-32722035D01*
X25442090Y-32697934D01*
X25446470Y-32575670D01*
X25457973Y-32448451D01*
X25474979Y-32327081D01*
X25495867Y-32222364D01*
X25519017Y-32145105D01*
X25527994Y-32125336D01*
X25563994Y-32081234D01*
X25625582Y-32026856D01*
X25700670Y-31971236D01*
X25777173Y-31923405D01*
X25836608Y-31894723D01*
X25893943Y-31881770D01*
X25940494Y-31895305D01*
X25982608Y-31939961D01*
X26026632Y-32020368D01*
X26035723Y-32040040D01*
X26072419Y-32134167D01*
X26108511Y-32249363D01*
X26140702Y-32372363D01*
X26165696Y-32489901D01*
X26180194Y-32588711D01*
X26182500Y-32630550D01*
X26187617Y-32677788D01*
X26200103Y-32700073D01*
X26201767Y-32700333D01*
X26215422Y-32719814D01*
X26226393Y-32771628D01*
X26234206Y-32845832D01*
X26238389Y-32932486D01*
X26238467Y-33021646D01*
X26327557Y-33021646D01*
X26330013Y-32997231D01*
X26329658Y-32989995D01*
X26328264Y-32947267D01*
X26339029Y-32929213D01*
X26371000Y-32932810D01*
X26433225Y-32955036D01*
X26433738Y-32955230D01*
X26497827Y-32974804D01*
X26590123Y-32996959D01*
X26696878Y-33018605D01*
X26777696Y-33032572D01*
X26898298Y-33047346D01*
X27045003Y-33058480D01*
X27209148Y-33065958D01*
X27382070Y-33069764D01*
X27555108Y-33069879D01*
X27719599Y-33066288D01*
X27866879Y-33058974D01*
X27988288Y-33047920D01*
X28066910Y-33035071D01*
X28205069Y-33003812D01*
X28263433Y-33157739D01*
X28341677Y-33329337D01*
X28433281Y-33463174D01*
X28541489Y-33562598D01*
X28669546Y-33630955D01*
X28746015Y-33655586D01*
X28811733Y-33669418D01*
X28860138Y-33666523D01*
X28913653Y-33644772D01*
X28925932Y-33638496D01*
X28987105Y-33596681D01*
X29035917Y-33546355D01*
X29043852Y-33534352D01*
X29083171Y-33445165D01*
X29117888Y-33326800D01*
X29145229Y-33192373D01*
X29162420Y-33054997D01*
X29167000Y-32952073D01*
X29167000Y-32841518D01*
X29100293Y-32841518D01*
X29097933Y-32941280D01*
X29096944Y-32964916D01*
X29085828Y-33116631D01*
X29065392Y-33244354D01*
X29032759Y-33365935D01*
X29031795Y-33368948D01*
X28986902Y-33488424D01*
X28938858Y-33568413D01*
X28882601Y-33611715D01*
X28813072Y-33621132D01*
X28725211Y-33599468D01*
X28662801Y-33573276D01*
X28579566Y-33523125D01*
X28506393Y-33452003D01*
X28439946Y-33354859D01*
X28376889Y-33226641D01*
X28313889Y-33062297D01*
X28301463Y-33026015D01*
X28219270Y-32752199D01*
X28167318Y-32507947D01*
X28145606Y-32293195D01*
X28154132Y-32107883D01*
X28192896Y-31951948D01*
X28261898Y-31825330D01*
X28288578Y-31792960D01*
X28382497Y-31712278D01*
X28478671Y-31673473D01*
X28574287Y-31676393D01*
X28666530Y-31720885D01*
X28752587Y-31806798D01*
X28761360Y-31818504D01*
X28849542Y-31947215D01*
X28916965Y-32066943D01*
X28969773Y-32191530D01*
X29014106Y-32334816D01*
X29043558Y-32454398D01*
X29070601Y-32577434D01*
X29088094Y-32673618D01*
X29097502Y-32756972D01*
X29100293Y-32841518D01*
X29167000Y-32841518D01*
X29167000Y-32767286D01*
X29246375Y-32718299D01*
X29353144Y-32641594D01*
X29451588Y-32551418D01*
X29527589Y-32461004D01*
X29538710Y-32444284D01*
X29651204Y-32253399D01*
X29743751Y-32070100D01*
X29812438Y-31902618D01*
X29842892Y-31804394D01*
X29871025Y-31670572D01*
X29883339Y-31551040D01*
X29880307Y-31451356D01*
X29862403Y-31377075D01*
X29830100Y-31333753D01*
X29802000Y-31324838D01*
X29797662Y-31344432D01*
X29794092Y-31397731D01*
X29791711Y-31476107D01*
X29790942Y-31552056D01*
X29787939Y-31673818D01*
X29777404Y-31777156D01*
X29756210Y-31872521D01*
X29721227Y-31970360D01*
X29669326Y-32081123D01*
X29597380Y-32215259D01*
X29586555Y-32234666D01*
X29526121Y-32333684D01*
X29457573Y-32431489D01*
X29386182Y-32522080D01*
X29317220Y-32599455D01*
X29255960Y-32657615D01*
X29207674Y-32690557D01*
X29182283Y-32694844D01*
X29168123Y-32671684D01*
X29151346Y-32617123D01*
X29135026Y-32541709D01*
X29131083Y-32519055D01*
X29096409Y-32357048D01*
X29048928Y-32204031D01*
X28993145Y-32073451D01*
X28964934Y-32023000D01*
X28926320Y-31958997D01*
X28881522Y-31882290D01*
X28862497Y-31848937D01*
X28788117Y-31752225D01*
X28716646Y-31697554D01*
X28617635Y-31648974D01*
X28534204Y-31630146D01*
X28453263Y-31639672D01*
X28390433Y-31662748D01*
X28290811Y-31714960D01*
X28217518Y-31775835D01*
X28164112Y-31854254D01*
X28124150Y-31959098D01*
X28097966Y-32065894D01*
X28077495Y-32181179D01*
X28069065Y-32285258D01*
X28073306Y-32390286D01*
X28090844Y-32508423D01*
X28122309Y-32651824D01*
X28129834Y-32682610D01*
X28154017Y-32781414D01*
X28173960Y-32864838D01*
X28187706Y-32924554D01*
X28193297Y-32952234D01*
X28193334Y-32952841D01*
X28173262Y-32964569D01*
X28117159Y-32978659D01*
X28031197Y-32994126D01*
X27921545Y-33009986D01*
X27794374Y-33025255D01*
X27655854Y-33038950D01*
X27650359Y-33039434D01*
X27545770Y-33047505D01*
X27455249Y-33051194D01*
X27367216Y-33050089D01*
X27270089Y-33043778D01*
X27152287Y-33031850D01*
X27030727Y-33017415D01*
X26805655Y-32986518D01*
X26622758Y-32954360D01*
X26481895Y-32920904D01*
X26382923Y-32886108D01*
X26325702Y-32849934D01*
X26309772Y-32816862D01*
X26305682Y-32776094D01*
X26294642Y-32707871D01*
X26278925Y-32626054D01*
X26276767Y-32615666D01*
X26256829Y-32520170D01*
X26236938Y-32424294D01*
X26221871Y-32351083D01*
X26176247Y-32170423D01*
X26119916Y-32026137D01*
X26050791Y-31913152D01*
X26032563Y-31890708D01*
X25981440Y-31837698D01*
X25935449Y-31801267D01*
X25908839Y-31790166D01*
X25855518Y-31803127D01*
X25784541Y-31837715D01*
X25704510Y-31887492D01*
X25624028Y-31946016D01*
X25551697Y-32006848D01*
X25496119Y-32063547D01*
X25465898Y-32109674D01*
X25462834Y-32124060D01*
X25456574Y-32159657D01*
X25440604Y-32218808D01*
X25428782Y-32256735D01*
X25407530Y-32316623D01*
X25390781Y-32343003D01*
X25371480Y-32343092D01*
X25354542Y-32332693D01*
X25328387Y-32302629D01*
X25289769Y-32243893D01*
X25244605Y-32165948D01*
X25212539Y-32105564D01*
X25131029Y-31918400D01*
X25071384Y-31722773D01*
X25037820Y-31533747D01*
X25032627Y-31462977D01*
X25026841Y-31405834D01*
X25016443Y-31371396D01*
X25010748Y-31366833D01*
X25001678Y-31349484D01*
X25005859Y-31313916D01*
X25008839Y-31273782D01*
X24997570Y-31261000D01*
X24986808Y-31281035D01*
G37*
X24986808Y-31281035D02*
X24979388Y-31336769D01*
X24976095Y-31421644D01*
X24976000Y-31440916D01*
X24978084Y-31522217D01*
X24983645Y-31584398D01*
X24991646Y-31617743D01*
X24995186Y-31620833D01*
X25006169Y-31637655D01*
X25003487Y-31662453D01*
X25001850Y-31709442D01*
X25011007Y-31777175D01*
X25027417Y-31850017D01*
X25047542Y-31912330D01*
X25067843Y-31948481D01*
X25068325Y-31948916D01*
X25091191Y-31987437D01*
X25095380Y-32007262D01*
X25108191Y-32050380D01*
X25137978Y-32113635D01*
X25178924Y-32187636D01*
X25225214Y-32262997D01*
X25271029Y-32330327D01*
X25310555Y-32380239D01*
X25337974Y-32403343D01*
X25341121Y-32403930D01*
X25358428Y-32408070D01*
X25368695Y-32425623D01*
X25373095Y-32464409D01*
X25372801Y-32532246D01*
X25370484Y-32599791D01*
X25370746Y-32807081D01*
X25386622Y-33010312D01*
X25416681Y-33195510D01*
X25441706Y-33294798D01*
X25490165Y-33411585D01*
X25560356Y-33521086D01*
X25643188Y-33611155D01*
X25718206Y-33664126D01*
X25794685Y-33687927D01*
X25882211Y-33692792D01*
X25960359Y-33678424D01*
X25983180Y-33667958D01*
X26081646Y-33596822D01*
X26158681Y-33506356D01*
X26198932Y-33439336D01*
X26236805Y-33357270D01*
X26272692Y-33258823D01*
X26302749Y-33157199D01*
X26323137Y-33065601D01*
X26327557Y-33021646D01*
X26238467Y-33021646D01*
X26233968Y-33103369D01*
X26224418Y-33167714D01*
X26224090Y-33169100D01*
X26173744Y-33327124D01*
X26105645Y-33462230D01*
X26024320Y-33565698D01*
X26012383Y-33576940D01*
X25935440Y-33632899D01*
X25864303Y-33651191D01*
X25789942Y-33632004D01*
X25713188Y-33583143D01*
X25616861Y-33483534D01*
X25541514Y-33347366D01*
X25487223Y-33174891D01*
X25454066Y-32966363D01*
X25442121Y-32722035D01*
X25442090Y-32697934D01*
X25446470Y-32575670D01*
X25457973Y-32448451D01*
X25474979Y-32327081D01*
X25495867Y-32222364D01*
X25519017Y-32145105D01*
X25527994Y-32125336D01*
X25563994Y-32081234D01*
X25625582Y-32026856D01*
X25700670Y-31971236D01*
X25777173Y-31923405D01*
X25836608Y-31894723D01*
X25893943Y-31881770D01*
X25940494Y-31895305D01*
X25982608Y-31939961D01*
X26026632Y-32020368D01*
X26035723Y-32040040D01*
X26072419Y-32134167D01*
X26108511Y-32249363D01*
X26140702Y-32372363D01*
X26165696Y-32489901D01*
X26180194Y-32588711D01*
X26182500Y-32630550D01*
X26187617Y-32677788D01*
X26200103Y-32700073D01*
X26201767Y-32700333D01*
X26215422Y-32719814D01*
X26226393Y-32771628D01*
X26234206Y-32845832D01*
X26238389Y-32932486D01*
X26238467Y-33021646D01*
X26327557Y-33021646D01*
X26330013Y-32997231D01*
X26329658Y-32989995D01*
X26328264Y-32947267D01*
X26339029Y-32929213D01*
X26371000Y-32932810D01*
X26433225Y-32955036D01*
X26433738Y-32955230D01*
X26497827Y-32974804D01*
X26590123Y-32996959D01*
X26696878Y-33018605D01*
X26777696Y-33032572D01*
X26898298Y-33047346D01*
X27045003Y-33058480D01*
X27209148Y-33065958D01*
X27382070Y-33069764D01*
X27555108Y-33069879D01*
X27719599Y-33066288D01*
X27866879Y-33058974D01*
X27988288Y-33047920D01*
X28066910Y-33035071D01*
X28205069Y-33003812D01*
X28263433Y-33157739D01*
X28341677Y-33329337D01*
X28433281Y-33463174D01*
X28541489Y-33562598D01*
X28669546Y-33630955D01*
X28746015Y-33655586D01*
X28811733Y-33669418D01*
X28860138Y-33666523D01*
X28913653Y-33644772D01*
X28925932Y-33638496D01*
X28987105Y-33596681D01*
X29035917Y-33546355D01*
X29043852Y-33534352D01*
X29083171Y-33445165D01*
X29117888Y-33326800D01*
X29145229Y-33192373D01*
X29162420Y-33054997D01*
X29167000Y-32952073D01*
X29167000Y-32841518D01*
X29100293Y-32841518D01*
X29097933Y-32941280D01*
X29096944Y-32964916D01*
X29085828Y-33116631D01*
X29065392Y-33244354D01*
X29032759Y-33365935D01*
X29031795Y-33368948D01*
X28986902Y-33488424D01*
X28938858Y-33568413D01*
X28882601Y-33611715D01*
X28813072Y-33621132D01*
X28725211Y-33599468D01*
X28662801Y-33573276D01*
X28579566Y-33523125D01*
X28506393Y-33452003D01*
X28439946Y-33354859D01*
X28376889Y-33226641D01*
X28313889Y-33062297D01*
X28301463Y-33026015D01*
X28219270Y-32752199D01*
X28167318Y-32507947D01*
X28145606Y-32293195D01*
X28154132Y-32107883D01*
X28192896Y-31951948D01*
X28261898Y-31825330D01*
X28288578Y-31792960D01*
X28382497Y-31712278D01*
X28478671Y-31673473D01*
X28574287Y-31676393D01*
X28666530Y-31720885D01*
X28752587Y-31806798D01*
X28761360Y-31818504D01*
X28849542Y-31947215D01*
X28916965Y-32066943D01*
X28969773Y-32191530D01*
X29014106Y-32334816D01*
X29043558Y-32454398D01*
X29070601Y-32577434D01*
X29088094Y-32673618D01*
X29097502Y-32756972D01*
X29100293Y-32841518D01*
X29167000Y-32841518D01*
X29167000Y-32767286D01*
X29246375Y-32718299D01*
X29353144Y-32641594D01*
X29451588Y-32551418D01*
X29527589Y-32461004D01*
X29538710Y-32444284D01*
X29651204Y-32253399D01*
X29743751Y-32070100D01*
X29812438Y-31902618D01*
X29842892Y-31804394D01*
X29871025Y-31670572D01*
X29883339Y-31551040D01*
X29880307Y-31451356D01*
X29862403Y-31377075D01*
X29830100Y-31333753D01*
X29802000Y-31324838D01*
X29797662Y-31344432D01*
X29794092Y-31397731D01*
X29791711Y-31476107D01*
X29790942Y-31552056D01*
X29787939Y-31673818D01*
X29777404Y-31777156D01*
X29756210Y-31872521D01*
X29721227Y-31970360D01*
X29669326Y-32081123D01*
X29597380Y-32215259D01*
X29586555Y-32234666D01*
X29526121Y-32333684D01*
X29457573Y-32431489D01*
X29386182Y-32522080D01*
X29317220Y-32599455D01*
X29255960Y-32657615D01*
X29207674Y-32690557D01*
X29182283Y-32694844D01*
X29168123Y-32671684D01*
X29151346Y-32617123D01*
X29135026Y-32541709D01*
X29131083Y-32519055D01*
X29096409Y-32357048D01*
X29048928Y-32204031D01*
X28993145Y-32073451D01*
X28964934Y-32023000D01*
X28926320Y-31958997D01*
X28881522Y-31882290D01*
X28862497Y-31848937D01*
X28788117Y-31752225D01*
X28716646Y-31697554D01*
X28617635Y-31648974D01*
X28534204Y-31630146D01*
X28453263Y-31639672D01*
X28390433Y-31662748D01*
X28290811Y-31714960D01*
X28217518Y-31775835D01*
X28164112Y-31854254D01*
X28124150Y-31959098D01*
X28097966Y-32065894D01*
X28077495Y-32181179D01*
X28069065Y-32285258D01*
X28073306Y-32390286D01*
X28090844Y-32508423D01*
X28122309Y-32651824D01*
X28129834Y-32682610D01*
X28154017Y-32781414D01*
X28173960Y-32864838D01*
X28187706Y-32924554D01*
X28193297Y-32952234D01*
X28193334Y-32952841D01*
X28173262Y-32964569D01*
X28117159Y-32978659D01*
X28031197Y-32994126D01*
X27921545Y-33009986D01*
X27794374Y-33025255D01*
X27655854Y-33038950D01*
X27650359Y-33039434D01*
X27545770Y-33047505D01*
X27455249Y-33051194D01*
X27367216Y-33050089D01*
X27270089Y-33043778D01*
X27152287Y-33031850D01*
X27030727Y-33017415D01*
X26805655Y-32986518D01*
X26622758Y-32954360D01*
X26481895Y-32920904D01*
X26382923Y-32886108D01*
X26325702Y-32849934D01*
X26309772Y-32816862D01*
X26305682Y-32776094D01*
X26294642Y-32707871D01*
X26278925Y-32626054D01*
X26276767Y-32615666D01*
X26256829Y-32520170D01*
X26236938Y-32424294D01*
X26221871Y-32351083D01*
X26176247Y-32170423D01*
X26119916Y-32026137D01*
X26050791Y-31913152D01*
X26032563Y-31890708D01*
X25981440Y-31837698D01*
X25935449Y-31801267D01*
X25908839Y-31790166D01*
X25855518Y-31803127D01*
X25784541Y-31837715D01*
X25704510Y-31887492D01*
X25624028Y-31946016D01*
X25551697Y-32006848D01*
X25496119Y-32063547D01*
X25465898Y-32109674D01*
X25462834Y-32124060D01*
X25456574Y-32159657D01*
X25440604Y-32218808D01*
X25428782Y-32256735D01*
X25407530Y-32316623D01*
X25390781Y-32343003D01*
X25371480Y-32343092D01*
X25354542Y-32332693D01*
X25328387Y-32302629D01*
X25289769Y-32243893D01*
X25244605Y-32165948D01*
X25212539Y-32105564D01*
X25131029Y-31918400D01*
X25071384Y-31722773D01*
X25037820Y-31533747D01*
X25032627Y-31462977D01*
X25026841Y-31405834D01*
X25016443Y-31371396D01*
X25010748Y-31366833D01*
X25001678Y-31349484D01*
X25005859Y-31313916D01*
X25008839Y-31273782D01*
X24997570Y-31261000D01*
X24986808Y-31281035D01*
D12*
X28604933Y-46472666D02*
X28171600Y-46472666D01*
X28404933Y-46739333D01*
X28304933Y-46739333D01*
X28238266Y-46772666D01*
X28204933Y-46806000D01*
X28171600Y-46872666D01*
X28171600Y-47039333D01*
X28204933Y-47106000D01*
X28238266Y-47139333D01*
X28304933Y-47172666D01*
X28504933Y-47172666D01*
X28571600Y-47139333D01*
X28604933Y-47106000D01*
X27938266Y-46706000D02*
X27771600Y-47172666D01*
X27604933Y-46706000D01*
X27404933Y-46472666D02*
X26971600Y-46472666D01*
X27204933Y-46739333D01*
X27104933Y-46739333D01*
X27038266Y-46772666D01*
X27004933Y-46806000D01*
X26971600Y-46872666D01*
X26971600Y-47039333D01*
X27004933Y-47106000D01*
X27038266Y-47139333D01*
X27104933Y-47172666D01*
X27304933Y-47172666D01*
X27371600Y-47139333D01*
X27404933Y-47106000D01*
X28270933Y-43966000D02*
X28337600Y-43932666D01*
X28437600Y-43932666D01*
X28537600Y-43966000D01*
X28604266Y-44032666D01*
X28637600Y-44099333D01*
X28670933Y-44232666D01*
X28670933Y-44332666D01*
X28637600Y-44466000D01*
X28604266Y-44532666D01*
X28537600Y-44599333D01*
X28437600Y-44632666D01*
X28370933Y-44632666D01*
X28270933Y-44599333D01*
X28237600Y-44566000D01*
X28237600Y-44332666D01*
X28370933Y-44332666D01*
X27937600Y-44632666D02*
X27937600Y-43932666D01*
X27537600Y-44632666D01*
X27537600Y-43932666D01*
X27204266Y-44632666D02*
X27204266Y-43932666D01*
X27037600Y-43932666D01*
X26937600Y-43966000D01*
X26870933Y-44032666D01*
X26837600Y-44099333D01*
X26804266Y-44232666D01*
X26804266Y-44332666D01*
X26837600Y-44466000D01*
X26870933Y-44532666D01*
X26937600Y-44599333D01*
X27037600Y-44632666D01*
X27204266Y-44632666D01*
X28721600Y-42059333D02*
X28621600Y-42092666D01*
X28454933Y-42092666D01*
X28388266Y-42059333D01*
X28354933Y-42026000D01*
X28321600Y-41959333D01*
X28321600Y-41892666D01*
X28354933Y-41826000D01*
X28388266Y-41792666D01*
X28454933Y-41759333D01*
X28588266Y-41726000D01*
X28654933Y-41692666D01*
X28688266Y-41659333D01*
X28721600Y-41592666D01*
X28721600Y-41526000D01*
X28688266Y-41459333D01*
X28654933Y-41426000D01*
X28588266Y-41392666D01*
X28421600Y-41392666D01*
X28321600Y-41426000D01*
X28088266Y-41392666D02*
X27921600Y-42092666D01*
X27788266Y-41592666D01*
X27654933Y-42092666D01*
X27488266Y-41392666D01*
X27221600Y-42092666D02*
X27221600Y-41392666D01*
X27054933Y-41392666D01*
X26954933Y-41426000D01*
X26888266Y-41492666D01*
X26854933Y-41559333D01*
X26821600Y-41692666D01*
X26821600Y-41792666D01*
X26854933Y-41926000D01*
X26888266Y-41992666D01*
X26954933Y-42059333D01*
X27054933Y-42092666D01*
X27221600Y-42092666D01*
X28721600Y-39519333D02*
X28621600Y-39552666D01*
X28454933Y-39552666D01*
X28388266Y-39519333D01*
X28354933Y-39486000D01*
X28321600Y-39419333D01*
X28321600Y-39352666D01*
X28354933Y-39286000D01*
X28388266Y-39252666D01*
X28454933Y-39219333D01*
X28588266Y-39186000D01*
X28654933Y-39152666D01*
X28688266Y-39119333D01*
X28721600Y-39052666D01*
X28721600Y-38986000D01*
X28688266Y-38919333D01*
X28654933Y-38886000D01*
X28588266Y-38852666D01*
X28421600Y-38852666D01*
X28321600Y-38886000D01*
X28088266Y-38852666D02*
X27921600Y-39552666D01*
X27788266Y-39052666D01*
X27654933Y-39552666D01*
X27488266Y-38852666D01*
X26821600Y-39486000D02*
X26854933Y-39519333D01*
X26954933Y-39552666D01*
X27021600Y-39552666D01*
X27121600Y-39519333D01*
X27188266Y-39452666D01*
X27221600Y-39386000D01*
X27254933Y-39252666D01*
X27254933Y-39152666D01*
X27221600Y-39019333D01*
X27188266Y-38952666D01*
X27121600Y-38886000D01*
X27021600Y-38852666D01*
X26954933Y-38852666D01*
X26854933Y-38886000D01*
X26821600Y-38919333D01*
X31594933Y-38852666D02*
X31361600Y-39552666D01*
X31128266Y-38852666D01*
X30661600Y-39186000D02*
X30561600Y-39219333D01*
X30528266Y-39252666D01*
X30494933Y-39319333D01*
X30494933Y-39419333D01*
X30528266Y-39486000D01*
X30561600Y-39519333D01*
X30628266Y-39552666D01*
X30894933Y-39552666D01*
X30894933Y-38852666D01*
X30661600Y-38852666D01*
X30594933Y-38886000D01*
X30561600Y-38919333D01*
X30528266Y-38986000D01*
X30528266Y-39052666D01*
X30561600Y-39119333D01*
X30594933Y-39152666D01*
X30661600Y-39186000D01*
X30894933Y-39186000D01*
X30194933Y-38852666D02*
X30194933Y-39419333D01*
X30161600Y-39486000D01*
X30128266Y-39519333D01*
X30061600Y-39552666D01*
X29928266Y-39552666D01*
X29861600Y-39519333D01*
X29828266Y-39486000D01*
X29794933Y-39419333D01*
X29794933Y-38852666D01*
X29494933Y-39519333D02*
X29394933Y-39552666D01*
X29228266Y-39552666D01*
X29161600Y-39519333D01*
X29128266Y-39486000D01*
X29094933Y-39419333D01*
X29094933Y-39352666D01*
X29128266Y-39286000D01*
X29161600Y-39252666D01*
X29228266Y-39219333D01*
X29361600Y-39186000D01*
X29428266Y-39152666D01*
X29461600Y-39119333D01*
X29494933Y-39052666D01*
X29494933Y-38986000D01*
X29461600Y-38919333D01*
X29428266Y-38886000D01*
X29361600Y-38852666D01*
X29194933Y-38852666D01*
X29094933Y-38886000D01*
X30928266Y-42092666D02*
X30928266Y-41392666D01*
X30761600Y-41392666D01*
X30661600Y-41426000D01*
X30594933Y-41492666D01*
X30561600Y-41559333D01*
X30528266Y-41692666D01*
X30528266Y-41792666D01*
X30561600Y-41926000D01*
X30594933Y-41992666D01*
X30661600Y-42059333D01*
X30761600Y-42092666D01*
X30928266Y-42092666D01*
X30228266Y-41826000D02*
X29694933Y-41826000D01*
X30894266Y-44632666D02*
X30894266Y-43932666D01*
X30727600Y-43932666D01*
X30627600Y-43966000D01*
X30560933Y-44032666D01*
X30527600Y-44099333D01*
X30494266Y-44232666D01*
X30494266Y-44332666D01*
X30527600Y-44466000D01*
X30560933Y-44532666D01*
X30627600Y-44599333D01*
X30727600Y-44632666D01*
X30894266Y-44632666D01*
X30194266Y-44366000D02*
X29660933Y-44366000D01*
X29927600Y-44632666D02*
X29927600Y-44099333D01*
X30844933Y-46506000D02*
X30911600Y-46472666D01*
X31011600Y-46472666D01*
X31111600Y-46506000D01*
X31178266Y-46572666D01*
X31211600Y-46639333D01*
X31244933Y-46772666D01*
X31244933Y-46872666D01*
X31211600Y-47006000D01*
X31178266Y-47072666D01*
X31111600Y-47139333D01*
X31011600Y-47172666D01*
X30944933Y-47172666D01*
X30844933Y-47139333D01*
X30811600Y-47106000D01*
X30811600Y-46872666D01*
X30944933Y-46872666D01*
X30511600Y-47172666D02*
X30511600Y-46472666D01*
X30111600Y-47172666D01*
X30111600Y-46472666D01*
X29778266Y-47172666D02*
X29778266Y-46472666D01*
X29611600Y-46472666D01*
X29511600Y-46506000D01*
X29444933Y-46572666D01*
X29411600Y-46639333D01*
X29378266Y-46772666D01*
X29378266Y-46872666D01*
X29411600Y-47006000D01*
X29444933Y-47072666D01*
X29511600Y-47139333D01*
X29611600Y-47172666D01*
X29778266Y-47172666D01*
X21200000Y-20361733D02*
X21166666Y-20261733D01*
X21133333Y-20228400D01*
X21066666Y-20195066D01*
X20966666Y-20195066D01*
X20900000Y-20228400D01*
X20866666Y-20261733D01*
X20833333Y-20328400D01*
X20833333Y-20595066D01*
X21533333Y-20595066D01*
X21533333Y-20361733D01*
X21500000Y-20295066D01*
X21466666Y-20261733D01*
X21400000Y-20228400D01*
X21333333Y-20228400D01*
X21266666Y-20261733D01*
X21233333Y-20295066D01*
X21200000Y-20361733D01*
X21200000Y-20595066D01*
X21100000Y-19895066D02*
X21100000Y-19361733D01*
X34250000Y-19595067D02*
X34283333Y-19695067D01*
X34316666Y-19728401D01*
X34383333Y-19761734D01*
X34483333Y-19761734D01*
X34550000Y-19728401D01*
X34583333Y-19695067D01*
X34616666Y-19628401D01*
X34616666Y-19361734D01*
X33916666Y-19361734D01*
X33916666Y-19595067D01*
X33950000Y-19661734D01*
X33983333Y-19695067D01*
X34050000Y-19728401D01*
X34116666Y-19728401D01*
X34183333Y-19695067D01*
X34216666Y-19661734D01*
X34250000Y-19595067D01*
X34250000Y-19361734D01*
X34350000Y-20061734D02*
X34350000Y-20595067D01*
X34616666Y-20328401D02*
X34083333Y-20328401D01*
X20393633Y-26139700D02*
X20460300Y-26106366D01*
X20560300Y-26106366D01*
X20660300Y-26139700D01*
X20726966Y-26206366D01*
X20760300Y-26273033D01*
X20793633Y-26406366D01*
X20793633Y-26506366D01*
X20760300Y-26639700D01*
X20726966Y-26706366D01*
X20660300Y-26773033D01*
X20560300Y-26806366D01*
X20493633Y-26806366D01*
X20393633Y-26773033D01*
X20360300Y-26739700D01*
X20360300Y-26506366D01*
X20493633Y-26506366D01*
X20060300Y-26806366D02*
X20060300Y-26106366D01*
X19660300Y-26806366D01*
X19660300Y-26106366D01*
X19326966Y-26806366D02*
X19326966Y-26106366D01*
X19160300Y-26106366D01*
X19060300Y-26139700D01*
X18993633Y-26206366D01*
X18960300Y-26273033D01*
X18926966Y-26406366D01*
X18926966Y-26506366D01*
X18960300Y-26639700D01*
X18993633Y-26706366D01*
X19060300Y-26773033D01*
X19160300Y-26806366D01*
X19326966Y-26806366D01*
X20726966Y-21026366D02*
X20660300Y-21026366D01*
X20593633Y-21059700D01*
X20560300Y-21093033D01*
X20526966Y-21159700D01*
X20493633Y-21293033D01*
X20493633Y-21459700D01*
X20526966Y-21593033D01*
X20560300Y-21659700D01*
X20593633Y-21693033D01*
X20660300Y-21726366D01*
X20726966Y-21726366D01*
X20793633Y-21693033D01*
X20826966Y-21659700D01*
X20860300Y-21593033D01*
X20893633Y-21459700D01*
X20893633Y-21293033D01*
X20860300Y-21159700D01*
X20826966Y-21093033D01*
X20793633Y-21059700D01*
X20726966Y-21026366D01*
X20193633Y-21659700D02*
X20160300Y-21693033D01*
X20193633Y-21726366D01*
X20226966Y-21693033D01*
X20193633Y-21659700D01*
X20193633Y-21726366D01*
X19726966Y-21026366D02*
X19660300Y-21026366D01*
X19593633Y-21059700D01*
X19560300Y-21093033D01*
X19526966Y-21159700D01*
X19493633Y-21293033D01*
X19493633Y-21459700D01*
X19526966Y-21593033D01*
X19560300Y-21659700D01*
X19593633Y-21693033D01*
X19660300Y-21726366D01*
X19726966Y-21726366D01*
X19793633Y-21693033D01*
X19826966Y-21659700D01*
X19860300Y-21593033D01*
X19893633Y-21459700D01*
X19893633Y-21293033D01*
X19860300Y-21159700D01*
X19826966Y-21093033D01*
X19793633Y-21059700D01*
X19726966Y-21026366D01*
X18893633Y-21026366D02*
X19026966Y-21026366D01*
X19093633Y-21059700D01*
X19126966Y-21093033D01*
X19193633Y-21193033D01*
X19226966Y-21326366D01*
X19226966Y-21593033D01*
X19193633Y-21659700D01*
X19160300Y-21693033D01*
X19093633Y-21726366D01*
X18960300Y-21726366D01*
X18893633Y-21693033D01*
X18860300Y-21659700D01*
X18826966Y-21593033D01*
X18826966Y-21426366D01*
X18860300Y-21359700D01*
X18893633Y-21326366D01*
X18960300Y-21293033D01*
X19093633Y-21293033D01*
X19160300Y-21326366D01*
X19193633Y-21359700D01*
X19226966Y-21426366D01*
X20726966Y-46299366D02*
X20660300Y-46299366D01*
X20593633Y-46332700D01*
X20560300Y-46366033D01*
X20526966Y-46432700D01*
X20493633Y-46566033D01*
X20493633Y-46732700D01*
X20526966Y-46866033D01*
X20560300Y-46932700D01*
X20593633Y-46966033D01*
X20660300Y-46999366D01*
X20726966Y-46999366D01*
X20793633Y-46966033D01*
X20826966Y-46932700D01*
X20860300Y-46866033D01*
X20893633Y-46732700D01*
X20893633Y-46566033D01*
X20860300Y-46432700D01*
X20826966Y-46366033D01*
X20793633Y-46332700D01*
X20726966Y-46299366D01*
X20193633Y-46932700D02*
X20160300Y-46966033D01*
X20193633Y-46999366D01*
X20226966Y-46966033D01*
X20193633Y-46932700D01*
X20193633Y-46999366D01*
X19493633Y-46999366D02*
X19893633Y-46999366D01*
X19693633Y-46999366D02*
X19693633Y-46299366D01*
X19760300Y-46399366D01*
X19826966Y-46466033D01*
X19893633Y-46499366D01*
X19060300Y-46299366D02*
X18993633Y-46299366D01*
X18926966Y-46332700D01*
X18893633Y-46366033D01*
X18860300Y-46432700D01*
X18826966Y-46566033D01*
X18826966Y-46732700D01*
X18860300Y-46866033D01*
X18893633Y-46932700D01*
X18926966Y-46966033D01*
X18993633Y-46999366D01*
X19060300Y-46999366D01*
X19126966Y-46966033D01*
X19160300Y-46932700D01*
X19193633Y-46866033D01*
X19226966Y-46732700D01*
X19226966Y-46566033D01*
X19193633Y-46432700D01*
X19160300Y-46366033D01*
X19126966Y-46332700D01*
X19060300Y-46299366D01*
X20726966Y-33726366D02*
X20660300Y-33726366D01*
X20593633Y-33759700D01*
X20560300Y-33793033D01*
X20526966Y-33859700D01*
X20493633Y-33993033D01*
X20493633Y-34159700D01*
X20526966Y-34293033D01*
X20560300Y-34359700D01*
X20593633Y-34393033D01*
X20660300Y-34426366D01*
X20726966Y-34426366D01*
X20793633Y-34393033D01*
X20826966Y-34359700D01*
X20860300Y-34293033D01*
X20893633Y-34159700D01*
X20893633Y-33993033D01*
X20860300Y-33859700D01*
X20826966Y-33793033D01*
X20793633Y-33759700D01*
X20726966Y-33726366D01*
X20193633Y-34359700D02*
X20160300Y-34393033D01*
X20193633Y-34426366D01*
X20226966Y-34393033D01*
X20193633Y-34359700D01*
X20193633Y-34426366D01*
X19493633Y-34426366D02*
X19893633Y-34426366D01*
X19693633Y-34426366D02*
X19693633Y-33726366D01*
X19760300Y-33826366D01*
X19826966Y-33893033D01*
X19893633Y-33926366D01*
X19260300Y-33726366D02*
X18793633Y-33726366D01*
X19093633Y-34426366D01*
X20726966Y-23566366D02*
X20660300Y-23566366D01*
X20593633Y-23599700D01*
X20560300Y-23633033D01*
X20526966Y-23699700D01*
X20493633Y-23833033D01*
X20493633Y-23999700D01*
X20526966Y-24133033D01*
X20560300Y-24199700D01*
X20593633Y-24233033D01*
X20660300Y-24266366D01*
X20726966Y-24266366D01*
X20793633Y-24233033D01*
X20826966Y-24199700D01*
X20860300Y-24133033D01*
X20893633Y-23999700D01*
X20893633Y-23833033D01*
X20860300Y-23699700D01*
X20826966Y-23633033D01*
X20793633Y-23599700D01*
X20726966Y-23566366D01*
X20193633Y-24199700D02*
X20160300Y-24233033D01*
X20193633Y-24266366D01*
X20226966Y-24233033D01*
X20193633Y-24199700D01*
X20193633Y-24266366D01*
X19726966Y-23566366D02*
X19660300Y-23566366D01*
X19593633Y-23599700D01*
X19560300Y-23633033D01*
X19526966Y-23699700D01*
X19493633Y-23833033D01*
X19493633Y-23999700D01*
X19526966Y-24133033D01*
X19560300Y-24199700D01*
X19593633Y-24233033D01*
X19660300Y-24266366D01*
X19726966Y-24266366D01*
X19793633Y-24233033D01*
X19826966Y-24199700D01*
X19860300Y-24133033D01*
X19893633Y-23999700D01*
X19893633Y-23833033D01*
X19860300Y-23699700D01*
X19826966Y-23633033D01*
X19793633Y-23599700D01*
X19726966Y-23566366D01*
X19093633Y-23866366D02*
X19160300Y-23833033D01*
X19193633Y-23799700D01*
X19226966Y-23733033D01*
X19226966Y-23699700D01*
X19193633Y-23633033D01*
X19160300Y-23599700D01*
X19093633Y-23566366D01*
X18960300Y-23566366D01*
X18893633Y-23599700D01*
X18860300Y-23633033D01*
X18826966Y-23699700D01*
X18826966Y-23733033D01*
X18860300Y-23799700D01*
X18893633Y-23833033D01*
X18960300Y-23866366D01*
X19093633Y-23866366D01*
X19160300Y-23899700D01*
X19193633Y-23933033D01*
X19226966Y-23999700D01*
X19226966Y-24133033D01*
X19193633Y-24199700D01*
X19160300Y-24233033D01*
X19093633Y-24266366D01*
X18960300Y-24266366D01*
X18893633Y-24233033D01*
X18860300Y-24199700D01*
X18826966Y-24133033D01*
X18826966Y-23999700D01*
X18860300Y-23933033D01*
X18893633Y-23899700D01*
X18960300Y-23866366D01*
X20726966Y-31186366D02*
X20660300Y-31186366D01*
X20593633Y-31219700D01*
X20560300Y-31253033D01*
X20526966Y-31319700D01*
X20493633Y-31453033D01*
X20493633Y-31619700D01*
X20526966Y-31753033D01*
X20560300Y-31819700D01*
X20593633Y-31853033D01*
X20660300Y-31886366D01*
X20726966Y-31886366D01*
X20793633Y-31853033D01*
X20826966Y-31819700D01*
X20860300Y-31753033D01*
X20893633Y-31619700D01*
X20893633Y-31453033D01*
X20860300Y-31319700D01*
X20826966Y-31253033D01*
X20793633Y-31219700D01*
X20726966Y-31186366D01*
X20193633Y-31819700D02*
X20160300Y-31853033D01*
X20193633Y-31886366D01*
X20226966Y-31853033D01*
X20193633Y-31819700D01*
X20193633Y-31886366D01*
X19493633Y-31886366D02*
X19893633Y-31886366D01*
X19693633Y-31886366D02*
X19693633Y-31186366D01*
X19760300Y-31286366D01*
X19826966Y-31353033D01*
X19893633Y-31386366D01*
X18860300Y-31186366D02*
X19193633Y-31186366D01*
X19226966Y-31519700D01*
X19193633Y-31486366D01*
X19126966Y-31453033D01*
X18960300Y-31453033D01*
X18893633Y-31486366D01*
X18860300Y-31519700D01*
X18826966Y-31586366D01*
X18826966Y-31753033D01*
X18860300Y-31819700D01*
X18893633Y-31853033D01*
X18960300Y-31886366D01*
X19126966Y-31886366D01*
X19193633Y-31853033D01*
X19226966Y-31819700D01*
X20393633Y-28679700D02*
X20460300Y-28646366D01*
X20560300Y-28646366D01*
X20660300Y-28679700D01*
X20726966Y-28746366D01*
X20760300Y-28813033D01*
X20793633Y-28946366D01*
X20793633Y-29046366D01*
X20760300Y-29179700D01*
X20726966Y-29246366D01*
X20660300Y-29313033D01*
X20560300Y-29346366D01*
X20493633Y-29346366D01*
X20393633Y-29313033D01*
X20360300Y-29279700D01*
X20360300Y-29046366D01*
X20493633Y-29046366D01*
X20060300Y-29346366D02*
X20060300Y-28646366D01*
X19660300Y-29346366D01*
X19660300Y-28646366D01*
X19326966Y-29346366D02*
X19326966Y-28646366D01*
X19160300Y-28646366D01*
X19060300Y-28679700D01*
X18993633Y-28746366D01*
X18960300Y-28813033D01*
X18926966Y-28946366D01*
X18926966Y-29046366D01*
X18960300Y-29179700D01*
X18993633Y-29246366D01*
X19060300Y-29313033D01*
X19160300Y-29346366D01*
X19326966Y-29346366D01*
X20726966Y-38806366D02*
X20660300Y-38806366D01*
X20593633Y-38839700D01*
X20560300Y-38873033D01*
X20526966Y-38939700D01*
X20493633Y-39073033D01*
X20493633Y-39239700D01*
X20526966Y-39373033D01*
X20560300Y-39439700D01*
X20593633Y-39473033D01*
X20660300Y-39506366D01*
X20726966Y-39506366D01*
X20793633Y-39473033D01*
X20826966Y-39439700D01*
X20860300Y-39373033D01*
X20893633Y-39239700D01*
X20893633Y-39073033D01*
X20860300Y-38939700D01*
X20826966Y-38873033D01*
X20793633Y-38839700D01*
X20726966Y-38806366D01*
X20193633Y-39439700D02*
X20160300Y-39473033D01*
X20193633Y-39506366D01*
X20226966Y-39473033D01*
X20193633Y-39439700D01*
X20193633Y-39506366D01*
X19493633Y-39506366D02*
X19893633Y-39506366D01*
X19693633Y-39506366D02*
X19693633Y-38806366D01*
X19760300Y-38906366D01*
X19826966Y-38973033D01*
X19893633Y-39006366D01*
X19260300Y-38806366D02*
X18826966Y-38806366D01*
X19060300Y-39073033D01*
X18960300Y-39073033D01*
X18893633Y-39106366D01*
X18860300Y-39139700D01*
X18826966Y-39206366D01*
X18826966Y-39373033D01*
X18860300Y-39439700D01*
X18893633Y-39473033D01*
X18960300Y-39506366D01*
X19160300Y-39506366D01*
X19226966Y-39473033D01*
X19260300Y-39439700D01*
X20726966Y-43886366D02*
X20660300Y-43886366D01*
X20593633Y-43919700D01*
X20560300Y-43953033D01*
X20526966Y-44019700D01*
X20493633Y-44153033D01*
X20493633Y-44319700D01*
X20526966Y-44453033D01*
X20560300Y-44519700D01*
X20593633Y-44553033D01*
X20660300Y-44586366D01*
X20726966Y-44586366D01*
X20793633Y-44553033D01*
X20826966Y-44519700D01*
X20860300Y-44453033D01*
X20893633Y-44319700D01*
X20893633Y-44153033D01*
X20860300Y-44019700D01*
X20826966Y-43953033D01*
X20793633Y-43919700D01*
X20726966Y-43886366D01*
X20193633Y-44519700D02*
X20160300Y-44553033D01*
X20193633Y-44586366D01*
X20226966Y-44553033D01*
X20193633Y-44519700D01*
X20193633Y-44586366D01*
X19726966Y-43886366D02*
X19660300Y-43886366D01*
X19593633Y-43919700D01*
X19560300Y-43953033D01*
X19526966Y-44019700D01*
X19493633Y-44153033D01*
X19493633Y-44319700D01*
X19526966Y-44453033D01*
X19560300Y-44519700D01*
X19593633Y-44553033D01*
X19660300Y-44586366D01*
X19726966Y-44586366D01*
X19793633Y-44553033D01*
X19826966Y-44519700D01*
X19860300Y-44453033D01*
X19893633Y-44319700D01*
X19893633Y-44153033D01*
X19860300Y-44019700D01*
X19826966Y-43953033D01*
X19793633Y-43919700D01*
X19726966Y-43886366D01*
X19160300Y-44586366D02*
X19026966Y-44586366D01*
X18960300Y-44553033D01*
X18926966Y-44519700D01*
X18860300Y-44419700D01*
X18826966Y-44286366D01*
X18826966Y-44019700D01*
X18860300Y-43953033D01*
X18893633Y-43919700D01*
X18960300Y-43886366D01*
X19093633Y-43886366D01*
X19160300Y-43919700D01*
X19193633Y-43953033D01*
X19226966Y-44019700D01*
X19226966Y-44186366D01*
X19193633Y-44253033D01*
X19160300Y-44286366D01*
X19093633Y-44319700D01*
X18960300Y-44319700D01*
X18893633Y-44286366D01*
X18860300Y-44253033D01*
X18826966Y-44186366D01*
X20726966Y-41346366D02*
X20660300Y-41346366D01*
X20593633Y-41379700D01*
X20560300Y-41413033D01*
X20526966Y-41479700D01*
X20493633Y-41613033D01*
X20493633Y-41779700D01*
X20526966Y-41913033D01*
X20560300Y-41979700D01*
X20593633Y-42013033D01*
X20660300Y-42046366D01*
X20726966Y-42046366D01*
X20793633Y-42013033D01*
X20826966Y-41979700D01*
X20860300Y-41913033D01*
X20893633Y-41779700D01*
X20893633Y-41613033D01*
X20860300Y-41479700D01*
X20826966Y-41413033D01*
X20793633Y-41379700D01*
X20726966Y-41346366D01*
X20193633Y-41979700D02*
X20160300Y-42013033D01*
X20193633Y-42046366D01*
X20226966Y-42013033D01*
X20193633Y-41979700D01*
X20193633Y-42046366D01*
X19893633Y-41413033D02*
X19860300Y-41379700D01*
X19793633Y-41346366D01*
X19626966Y-41346366D01*
X19560300Y-41379700D01*
X19526966Y-41413033D01*
X19493633Y-41479700D01*
X19493633Y-41546366D01*
X19526966Y-41646366D01*
X19926966Y-42046366D01*
X19493633Y-42046366D01*
X18893633Y-41579700D02*
X18893633Y-42046366D01*
X19060300Y-41313033D02*
X19226966Y-41813033D01*
X18793633Y-41813033D01*
X20493633Y-49666366D02*
X20893633Y-49666366D01*
X20693633Y-49666366D02*
X20693633Y-48966366D01*
X20760300Y-49066366D01*
X20826966Y-49133033D01*
X20893633Y-49166366D01*
X20193633Y-49599700D02*
X20160300Y-49633033D01*
X20193633Y-49666366D01*
X20226966Y-49633033D01*
X20193633Y-49599700D01*
X20193633Y-49666366D01*
X19726966Y-48966366D02*
X19660300Y-48966366D01*
X19593633Y-48999700D01*
X19560300Y-49033033D01*
X19526966Y-49099700D01*
X19493633Y-49233033D01*
X19493633Y-49399700D01*
X19526966Y-49533033D01*
X19560300Y-49599700D01*
X19593633Y-49633033D01*
X19660300Y-49666366D01*
X19726966Y-49666366D01*
X19793633Y-49633033D01*
X19826966Y-49599700D01*
X19860300Y-49533033D01*
X19893633Y-49399700D01*
X19893633Y-49233033D01*
X19860300Y-49099700D01*
X19826966Y-49033033D01*
X19793633Y-48999700D01*
X19726966Y-48966366D01*
X18893633Y-48966366D02*
X19026966Y-48966366D01*
X19093633Y-48999700D01*
X19126966Y-49033033D01*
X19193633Y-49133033D01*
X19226966Y-49266366D01*
X19226966Y-49533033D01*
X19193633Y-49599700D01*
X19160300Y-49633033D01*
X19093633Y-49666366D01*
X18960300Y-49666366D01*
X18893633Y-49633033D01*
X18860300Y-49599700D01*
X18826966Y-49533033D01*
X18826966Y-49366366D01*
X18860300Y-49299700D01*
X18893633Y-49266366D01*
X18960300Y-49233033D01*
X19093633Y-49233033D01*
X19160300Y-49266366D01*
X19193633Y-49299700D01*
X19226966Y-49366366D01*
X36042433Y-21713666D02*
X36275766Y-21380333D01*
X36442433Y-21713666D02*
X36442433Y-21013666D01*
X36175766Y-21013666D01*
X36109100Y-21047000D01*
X36075766Y-21080333D01*
X36042433Y-21147000D01*
X36042433Y-21247000D01*
X36075766Y-21313666D01*
X36109100Y-21347000D01*
X36175766Y-21380333D01*
X36442433Y-21380333D01*
X35775766Y-21513666D02*
X35442433Y-21513666D01*
X35842433Y-21713666D02*
X35609100Y-21013666D01*
X35375766Y-21713666D01*
X35209100Y-21013666D02*
X35042433Y-21713666D01*
X34909100Y-21213666D01*
X34775766Y-21713666D01*
X34609100Y-21013666D01*
X36425766Y-43873666D02*
X36359100Y-43873666D01*
X36292433Y-43907000D01*
X36259100Y-43940333D01*
X36225766Y-44007000D01*
X36192433Y-44140333D01*
X36192433Y-44307000D01*
X36225766Y-44440333D01*
X36259100Y-44507000D01*
X36292433Y-44540333D01*
X36359100Y-44573666D01*
X36425766Y-44573666D01*
X36492433Y-44540333D01*
X36525766Y-44507000D01*
X36559100Y-44440333D01*
X36592433Y-44307000D01*
X36592433Y-44140333D01*
X36559100Y-44007000D01*
X36525766Y-43940333D01*
X36492433Y-43907000D01*
X36425766Y-43873666D01*
X35892433Y-44507000D02*
X35859100Y-44540333D01*
X35892433Y-44573666D01*
X35925766Y-44540333D01*
X35892433Y-44507000D01*
X35892433Y-44573666D01*
X35425766Y-43873666D02*
X35359100Y-43873666D01*
X35292433Y-43907000D01*
X35259100Y-43940333D01*
X35225766Y-44007000D01*
X35192433Y-44140333D01*
X35192433Y-44307000D01*
X35225766Y-44440333D01*
X35259100Y-44507000D01*
X35292433Y-44540333D01*
X35359100Y-44573666D01*
X35425766Y-44573666D01*
X35492433Y-44540333D01*
X35525766Y-44507000D01*
X35559100Y-44440333D01*
X35592433Y-44307000D01*
X35592433Y-44140333D01*
X35559100Y-44007000D01*
X35525766Y-43940333D01*
X35492433Y-43907000D01*
X35425766Y-43873666D01*
X34959100Y-43873666D02*
X34525766Y-43873666D01*
X34759100Y-44140333D01*
X34659100Y-44140333D01*
X34592433Y-44173666D01*
X34559100Y-44207000D01*
X34525766Y-44273666D01*
X34525766Y-44440333D01*
X34559100Y-44507000D01*
X34592433Y-44540333D01*
X34659100Y-44573666D01*
X34859100Y-44573666D01*
X34925766Y-44540333D01*
X34959100Y-44507000D01*
X36425766Y-46413666D02*
X36359100Y-46413666D01*
X36292433Y-46447000D01*
X36259100Y-46480333D01*
X36225766Y-46547000D01*
X36192433Y-46680333D01*
X36192433Y-46847000D01*
X36225766Y-46980333D01*
X36259100Y-47047000D01*
X36292433Y-47080333D01*
X36359100Y-47113666D01*
X36425766Y-47113666D01*
X36492433Y-47080333D01*
X36525766Y-47047000D01*
X36559100Y-46980333D01*
X36592433Y-46847000D01*
X36592433Y-46680333D01*
X36559100Y-46547000D01*
X36525766Y-46480333D01*
X36492433Y-46447000D01*
X36425766Y-46413666D01*
X35892433Y-47047000D02*
X35859100Y-47080333D01*
X35892433Y-47113666D01*
X35925766Y-47080333D01*
X35892433Y-47047000D01*
X35892433Y-47113666D01*
X35592433Y-46480333D02*
X35559100Y-46447000D01*
X35492433Y-46413666D01*
X35325766Y-46413666D01*
X35259100Y-46447000D01*
X35225766Y-46480333D01*
X35192433Y-46547000D01*
X35192433Y-46613666D01*
X35225766Y-46713666D01*
X35625766Y-47113666D01*
X35192433Y-47113666D01*
X34792433Y-46713666D02*
X34859100Y-46680333D01*
X34892433Y-46647000D01*
X34925766Y-46580333D01*
X34925766Y-46547000D01*
X34892433Y-46480333D01*
X34859100Y-46447000D01*
X34792433Y-46413666D01*
X34659100Y-46413666D01*
X34592433Y-46447000D01*
X34559100Y-46480333D01*
X34525766Y-46547000D01*
X34525766Y-46580333D01*
X34559100Y-46647000D01*
X34592433Y-46680333D01*
X34659100Y-46713666D01*
X34792433Y-46713666D01*
X34859100Y-46747000D01*
X34892433Y-46780333D01*
X34925766Y-46847000D01*
X34925766Y-46980333D01*
X34892433Y-47047000D01*
X34859100Y-47080333D01*
X34792433Y-47113666D01*
X34659100Y-47113666D01*
X34592433Y-47080333D01*
X34559100Y-47047000D01*
X34525766Y-46980333D01*
X34525766Y-46847000D01*
X34559100Y-46780333D01*
X34592433Y-46747000D01*
X34659100Y-46713666D01*
X36492433Y-28633666D02*
X36259100Y-29333666D01*
X36025766Y-28633666D01*
X35392433Y-29267000D02*
X35425766Y-29300333D01*
X35525766Y-29333666D01*
X35592433Y-29333666D01*
X35692433Y-29300333D01*
X35759100Y-29233666D01*
X35792433Y-29167000D01*
X35825766Y-29033666D01*
X35825766Y-28933666D01*
X35792433Y-28800333D01*
X35759100Y-28733666D01*
X35692433Y-28667000D01*
X35592433Y-28633666D01*
X35525766Y-28633666D01*
X35425766Y-28667000D01*
X35392433Y-28700333D01*
X34692433Y-29267000D02*
X34725766Y-29300333D01*
X34825766Y-29333666D01*
X34892433Y-29333666D01*
X34992433Y-29300333D01*
X35059100Y-29233666D01*
X35092433Y-29167000D01*
X35125766Y-29033666D01*
X35125766Y-28933666D01*
X35092433Y-28800333D01*
X35059100Y-28733666D01*
X34992433Y-28667000D01*
X34892433Y-28633666D01*
X34825766Y-28633666D01*
X34725766Y-28667000D01*
X34692433Y-28700333D01*
X36425766Y-31173666D02*
X36359100Y-31173666D01*
X36292433Y-31207000D01*
X36259100Y-31240333D01*
X36225766Y-31307000D01*
X36192433Y-31440333D01*
X36192433Y-31607000D01*
X36225766Y-31740333D01*
X36259100Y-31807000D01*
X36292433Y-31840333D01*
X36359100Y-31873666D01*
X36425766Y-31873666D01*
X36492433Y-31840333D01*
X36525766Y-31807000D01*
X36559100Y-31740333D01*
X36592433Y-31607000D01*
X36592433Y-31440333D01*
X36559100Y-31307000D01*
X36525766Y-31240333D01*
X36492433Y-31207000D01*
X36425766Y-31173666D01*
X35892433Y-31807000D02*
X35859100Y-31840333D01*
X35892433Y-31873666D01*
X35925766Y-31840333D01*
X35892433Y-31807000D01*
X35892433Y-31873666D01*
X35625766Y-31173666D02*
X35192433Y-31173666D01*
X35425766Y-31440333D01*
X35325766Y-31440333D01*
X35259100Y-31473666D01*
X35225766Y-31507000D01*
X35192433Y-31573666D01*
X35192433Y-31740333D01*
X35225766Y-31807000D01*
X35259100Y-31840333D01*
X35325766Y-31873666D01*
X35525766Y-31873666D01*
X35592433Y-31840333D01*
X35625766Y-31807000D01*
X34759100Y-31173666D02*
X34692433Y-31173666D01*
X34625766Y-31207000D01*
X34592433Y-31240333D01*
X34559100Y-31307000D01*
X34525766Y-31440333D01*
X34525766Y-31607000D01*
X34559100Y-31740333D01*
X34592433Y-31807000D01*
X34625766Y-31840333D01*
X34692433Y-31873666D01*
X34759100Y-31873666D01*
X34825766Y-31840333D01*
X34859100Y-31807000D01*
X34892433Y-31740333D01*
X34925766Y-31607000D01*
X34925766Y-31440333D01*
X34892433Y-31307000D01*
X34859100Y-31240333D01*
X34825766Y-31207000D01*
X34759100Y-31173666D01*
X36192433Y-42033666D02*
X36592433Y-42033666D01*
X36392433Y-42033666D02*
X36392433Y-41333666D01*
X36459100Y-41433666D01*
X36525766Y-41500333D01*
X36592433Y-41533666D01*
X35892433Y-41967000D02*
X35859100Y-42000333D01*
X35892433Y-42033666D01*
X35925766Y-42000333D01*
X35892433Y-41967000D01*
X35892433Y-42033666D01*
X35192433Y-42033666D02*
X35592433Y-42033666D01*
X35392433Y-42033666D02*
X35392433Y-41333666D01*
X35459100Y-41433666D01*
X35525766Y-41500333D01*
X35592433Y-41533666D01*
X34959100Y-41333666D02*
X34525766Y-41333666D01*
X34759100Y-41600333D01*
X34659100Y-41600333D01*
X34592433Y-41633666D01*
X34559100Y-41667000D01*
X34525766Y-41733666D01*
X34525766Y-41900333D01*
X34559100Y-41967000D01*
X34592433Y-42000333D01*
X34659100Y-42033666D01*
X34859100Y-42033666D01*
X34925766Y-42000333D01*
X34959100Y-41967000D01*
X36192433Y-49653666D02*
X36592433Y-49653666D01*
X36392433Y-49653666D02*
X36392433Y-48953666D01*
X36459100Y-49053666D01*
X36525766Y-49120333D01*
X36592433Y-49153666D01*
X35892433Y-49587000D02*
X35859100Y-49620333D01*
X35892433Y-49653666D01*
X35925766Y-49620333D01*
X35892433Y-49587000D01*
X35892433Y-49653666D01*
X35192433Y-49653666D02*
X35592433Y-49653666D01*
X35392433Y-49653666D02*
X35392433Y-48953666D01*
X35459100Y-49053666D01*
X35525766Y-49120333D01*
X35592433Y-49153666D01*
X34525766Y-49653666D02*
X34925766Y-49653666D01*
X34725766Y-49653666D02*
X34725766Y-48953666D01*
X34792433Y-49053666D01*
X34859100Y-49120333D01*
X34925766Y-49153666D01*
X36425766Y-38793666D02*
X36359100Y-38793666D01*
X36292433Y-38827000D01*
X36259100Y-38860333D01*
X36225766Y-38927000D01*
X36192433Y-39060333D01*
X36192433Y-39227000D01*
X36225766Y-39360333D01*
X36259100Y-39427000D01*
X36292433Y-39460333D01*
X36359100Y-39493666D01*
X36425766Y-39493666D01*
X36492433Y-39460333D01*
X36525766Y-39427000D01*
X36559100Y-39360333D01*
X36592433Y-39227000D01*
X36592433Y-39060333D01*
X36559100Y-38927000D01*
X36525766Y-38860333D01*
X36492433Y-38827000D01*
X36425766Y-38793666D01*
X35892433Y-39427000D02*
X35859100Y-39460333D01*
X35892433Y-39493666D01*
X35925766Y-39460333D01*
X35892433Y-39427000D01*
X35892433Y-39493666D01*
X35425766Y-38793666D02*
X35359100Y-38793666D01*
X35292433Y-38827000D01*
X35259100Y-38860333D01*
X35225766Y-38927000D01*
X35192433Y-39060333D01*
X35192433Y-39227000D01*
X35225766Y-39360333D01*
X35259100Y-39427000D01*
X35292433Y-39460333D01*
X35359100Y-39493666D01*
X35425766Y-39493666D01*
X35492433Y-39460333D01*
X35525766Y-39427000D01*
X35559100Y-39360333D01*
X35592433Y-39227000D01*
X35592433Y-39060333D01*
X35559100Y-38927000D01*
X35525766Y-38860333D01*
X35492433Y-38827000D01*
X35425766Y-38793666D01*
X34925766Y-38860333D02*
X34892433Y-38827000D01*
X34825766Y-38793666D01*
X34659100Y-38793666D01*
X34592433Y-38827000D01*
X34559100Y-38860333D01*
X34525766Y-38927000D01*
X34525766Y-38993666D01*
X34559100Y-39093666D01*
X34959100Y-39493666D01*
X34525766Y-39493666D01*
X35942433Y-26793666D02*
X36175766Y-26460333D01*
X36342433Y-26793666D02*
X36342433Y-26093666D01*
X36075766Y-26093666D01*
X36009100Y-26127000D01*
X35975766Y-26160333D01*
X35942433Y-26227000D01*
X35942433Y-26327000D01*
X35975766Y-26393666D01*
X36009100Y-26427000D01*
X36075766Y-26460333D01*
X36342433Y-26460333D01*
X35675766Y-26760333D02*
X35575766Y-26793666D01*
X35409100Y-26793666D01*
X35342433Y-26760333D01*
X35309100Y-26727000D01*
X35275766Y-26660333D01*
X35275766Y-26593666D01*
X35309100Y-26527000D01*
X35342433Y-26493666D01*
X35409100Y-26460333D01*
X35542433Y-26427000D01*
X35609100Y-26393666D01*
X35642433Y-26360333D01*
X35675766Y-26293666D01*
X35675766Y-26227000D01*
X35642433Y-26160333D01*
X35609100Y-26127000D01*
X35542433Y-26093666D01*
X35375766Y-26093666D01*
X35275766Y-26127000D01*
X35075766Y-26093666D02*
X34675766Y-26093666D01*
X34875766Y-26793666D02*
X34875766Y-26093666D01*
X36425766Y-33713666D02*
X36359100Y-33713666D01*
X36292433Y-33747000D01*
X36259100Y-33780333D01*
X36225766Y-33847000D01*
X36192433Y-33980333D01*
X36192433Y-34147000D01*
X36225766Y-34280333D01*
X36259100Y-34347000D01*
X36292433Y-34380333D01*
X36359100Y-34413666D01*
X36425766Y-34413666D01*
X36492433Y-34380333D01*
X36525766Y-34347000D01*
X36559100Y-34280333D01*
X36592433Y-34147000D01*
X36592433Y-33980333D01*
X36559100Y-33847000D01*
X36525766Y-33780333D01*
X36492433Y-33747000D01*
X36425766Y-33713666D01*
X35892433Y-34347000D02*
X35859100Y-34380333D01*
X35892433Y-34413666D01*
X35925766Y-34380333D01*
X35892433Y-34347000D01*
X35892433Y-34413666D01*
X35625766Y-33713666D02*
X35192433Y-33713666D01*
X35425766Y-33980333D01*
X35325766Y-33980333D01*
X35259100Y-34013666D01*
X35225766Y-34047000D01*
X35192433Y-34113666D01*
X35192433Y-34280333D01*
X35225766Y-34347000D01*
X35259100Y-34380333D01*
X35325766Y-34413666D01*
X35525766Y-34413666D01*
X35592433Y-34380333D01*
X35625766Y-34347000D01*
X34525766Y-34413666D02*
X34925766Y-34413666D01*
X34725766Y-34413666D02*
X34725766Y-33713666D01*
X34792433Y-33813666D01*
X34859100Y-33880333D01*
X34925766Y-33913666D01*
X36425766Y-36253666D02*
X36359100Y-36253666D01*
X36292433Y-36287000D01*
X36259100Y-36320333D01*
X36225766Y-36387000D01*
X36192433Y-36520333D01*
X36192433Y-36687000D01*
X36225766Y-36820333D01*
X36259100Y-36887000D01*
X36292433Y-36920333D01*
X36359100Y-36953666D01*
X36425766Y-36953666D01*
X36492433Y-36920333D01*
X36525766Y-36887000D01*
X36559100Y-36820333D01*
X36592433Y-36687000D01*
X36592433Y-36520333D01*
X36559100Y-36387000D01*
X36525766Y-36320333D01*
X36492433Y-36287000D01*
X36425766Y-36253666D01*
X35892433Y-36887000D02*
X35859100Y-36920333D01*
X35892433Y-36953666D01*
X35925766Y-36920333D01*
X35892433Y-36887000D01*
X35892433Y-36953666D01*
X35592433Y-36320333D02*
X35559100Y-36287000D01*
X35492433Y-36253666D01*
X35325766Y-36253666D01*
X35259100Y-36287000D01*
X35225766Y-36320333D01*
X35192433Y-36387000D01*
X35192433Y-36453666D01*
X35225766Y-36553666D01*
X35625766Y-36953666D01*
X35192433Y-36953666D01*
X34859100Y-36953666D02*
X34725766Y-36953666D01*
X34659100Y-36920333D01*
X34625766Y-36887000D01*
X34559100Y-36787000D01*
X34525766Y-36653666D01*
X34525766Y-36387000D01*
X34559100Y-36320333D01*
X34592433Y-36287000D01*
X34659100Y-36253666D01*
X34792433Y-36253666D01*
X34859100Y-36287000D01*
X34892433Y-36320333D01*
X34925766Y-36387000D01*
X34925766Y-36553666D01*
X34892433Y-36620333D01*
X34859100Y-36653666D01*
X34792433Y-36687000D01*
X34659100Y-36687000D01*
X34592433Y-36653666D01*
X34559100Y-36620333D01*
X34525766Y-36553666D01*
X36092433Y-23587000D02*
X36159100Y-23553666D01*
X36259100Y-23553666D01*
X36359100Y-23587000D01*
X36425766Y-23653666D01*
X36459100Y-23720333D01*
X36492433Y-23853666D01*
X36492433Y-23953666D01*
X36459100Y-24087000D01*
X36425766Y-24153666D01*
X36359100Y-24220333D01*
X36259100Y-24253666D01*
X36192433Y-24253666D01*
X36092433Y-24220333D01*
X36059100Y-24187000D01*
X36059100Y-23953666D01*
X36192433Y-23953666D01*
X35759100Y-24253666D02*
X35759100Y-23553666D01*
X35359100Y-24253666D01*
X35359100Y-23553666D01*
X35025766Y-24253666D02*
X35025766Y-23553666D01*
X34859100Y-23553666D01*
X34759100Y-23587000D01*
X34692433Y-23653666D01*
X34659100Y-23720333D01*
X34625766Y-23853666D01*
X34625766Y-23953666D01*
X34659100Y-24087000D01*
X34692433Y-24153666D01*
X34759100Y-24220333D01*
X34859100Y-24253666D01*
X35025766Y-24253666D01*
X20726966Y-36266366D02*
X20660300Y-36266366D01*
X20593633Y-36299700D01*
X20560300Y-36333033D01*
X20526966Y-36399700D01*
X20493633Y-36533033D01*
X20493633Y-36699700D01*
X20526966Y-36833033D01*
X20560300Y-36899700D01*
X20593633Y-36933033D01*
X20660300Y-36966366D01*
X20726966Y-36966366D01*
X20793633Y-36933033D01*
X20826966Y-36899700D01*
X20860300Y-36833033D01*
X20893633Y-36699700D01*
X20893633Y-36533033D01*
X20860300Y-36399700D01*
X20826966Y-36333033D01*
X20793633Y-36299700D01*
X20726966Y-36266366D01*
X20193633Y-36899700D02*
X20160300Y-36933033D01*
X20193633Y-36966366D01*
X20226966Y-36933033D01*
X20193633Y-36899700D01*
X20193633Y-36966366D01*
X19893633Y-36333033D02*
X19860300Y-36299700D01*
X19793633Y-36266366D01*
X19626966Y-36266366D01*
X19560300Y-36299700D01*
X19526966Y-36333033D01*
X19493633Y-36399700D01*
X19493633Y-36466366D01*
X19526966Y-36566366D01*
X19926966Y-36966366D01*
X19493633Y-36966366D01*
X19060300Y-36266366D02*
X18993633Y-36266366D01*
X18926966Y-36299700D01*
X18893633Y-36333033D01*
X18860300Y-36399700D01*
X18826966Y-36533033D01*
X18826966Y-36699700D01*
X18860300Y-36833033D01*
X18893633Y-36899700D01*
X18926966Y-36933033D01*
X18993633Y-36966366D01*
X19060300Y-36966366D01*
X19126966Y-36933033D01*
X19160300Y-36899700D01*
X19193633Y-36833033D01*
X19226966Y-36699700D01*
X19226966Y-36533033D01*
X19193633Y-36399700D01*
X19160300Y-36333033D01*
X19126966Y-36299700D01*
X19060300Y-36266366D01*
M02*
