G04 #@! TF.GenerationSoftware,KiCad,Pcbnew,(5.1.6)-1*
G04 #@! TF.CreationDate,2020-10-03T02:05:24+08:00*
G04 #@! TF.ProjectId,nrfmicro,6e72666d-6963-4726-9f2e-6b696361645f,rev?*
G04 #@! TF.SameCoordinates,Original*
G04 #@! TF.FileFunction,Legend,Bot*
G04 #@! TF.FilePolarity,Positive*
%FSLAX46Y46*%
G04 Gerber Fmt 4.6, Leading zero omitted, Abs format (unit mm)*
G04 Created by KiCad (PCBNEW (5.1.6)-1) date 2020-10-03 02:05:24*
%MOMM*%
%LPD*%
G01*
G04 APERTURE LIST*
%ADD10C,0.100000*%
%ADD11C,0.080000*%
G04 APERTURE END LIST*
D10*
X32457145Y-49569714D02*
X32457145Y-50236380D01*
X32457145Y-49664952D02*
X32409526Y-49617333D01*
X32314288Y-49569714D01*
X32171431Y-49569714D01*
X32076193Y-49617333D01*
X32028574Y-49712571D01*
X32028574Y-50236380D01*
X30980955Y-50236380D02*
X31314288Y-49760190D01*
X31552383Y-50236380D02*
X31552383Y-49236380D01*
X31171431Y-49236380D01*
X31076193Y-49284000D01*
X31028574Y-49331619D01*
X30980955Y-49426857D01*
X30980955Y-49569714D01*
X31028574Y-49664952D01*
X31076193Y-49712571D01*
X31171431Y-49760190D01*
X31552383Y-49760190D01*
X30219050Y-49712571D02*
X30552383Y-49712571D01*
X30552383Y-50236380D02*
X30552383Y-49236380D01*
X30076193Y-49236380D01*
X29695240Y-50236380D02*
X29695240Y-49236380D01*
X29361907Y-49950666D01*
X29028574Y-49236380D01*
X29028574Y-50236380D01*
X28552383Y-50236380D02*
X28552383Y-49569714D01*
X28552383Y-49236380D02*
X28600002Y-49284000D01*
X28552383Y-49331619D01*
X28504764Y-49284000D01*
X28552383Y-49236380D01*
X28552383Y-49331619D01*
X27647621Y-50188761D02*
X27742860Y-50236380D01*
X27933336Y-50236380D01*
X28028574Y-50188761D01*
X28076193Y-50141142D01*
X28123812Y-50045904D01*
X28123812Y-49760190D01*
X28076193Y-49664952D01*
X28028574Y-49617333D01*
X27933336Y-49569714D01*
X27742860Y-49569714D01*
X27647621Y-49617333D01*
X27219050Y-50236380D02*
X27219050Y-49569714D01*
X27219050Y-49760190D02*
X27171431Y-49664952D01*
X27123812Y-49617333D01*
X27028574Y-49569714D01*
X26933336Y-49569714D01*
X26457145Y-50236380D02*
X26552383Y-50188761D01*
X26600002Y-50141142D01*
X26647621Y-50045904D01*
X26647621Y-49760190D01*
X26600002Y-49664952D01*
X26552383Y-49617333D01*
X26457145Y-49569714D01*
X26314288Y-49569714D01*
X26219050Y-49617333D01*
X26171431Y-49664952D01*
X26123812Y-49760190D01*
X26123812Y-50045904D01*
X26171431Y-50141142D01*
X26219050Y-50188761D01*
X26314288Y-50236380D01*
X26457145Y-50236380D01*
X24409526Y-50236380D02*
X24980955Y-50236380D01*
X24695240Y-50236380D02*
X24695240Y-49236380D01*
X24790479Y-49379238D01*
X24885717Y-49474476D01*
X24980955Y-49522095D01*
X23980955Y-50141142D02*
X23933336Y-50188761D01*
X23980955Y-50236380D01*
X24028574Y-50188761D01*
X23980955Y-50141142D01*
X23980955Y-50236380D01*
X23076193Y-49569714D02*
X23076193Y-50236380D01*
X23314288Y-49188761D02*
X23552383Y-49903047D01*
X22933336Y-49903047D01*
D11*
X28604933Y-46472666D02*
X28171600Y-46472666D01*
X28404933Y-46739333D01*
X28304933Y-46739333D01*
X28238266Y-46772666D01*
X28204933Y-46806000D01*
X28171600Y-46872666D01*
X28171600Y-47039333D01*
X28204933Y-47106000D01*
X28238266Y-47139333D01*
X28304933Y-47172666D01*
X28504933Y-47172666D01*
X28571600Y-47139333D01*
X28604933Y-47106000D01*
X27938266Y-46706000D02*
X27771600Y-47172666D01*
X27604933Y-46706000D01*
X27404933Y-46472666D02*
X26971600Y-46472666D01*
X27204933Y-46739333D01*
X27104933Y-46739333D01*
X27038266Y-46772666D01*
X27004933Y-46806000D01*
X26971600Y-46872666D01*
X26971600Y-47039333D01*
X27004933Y-47106000D01*
X27038266Y-47139333D01*
X27104933Y-47172666D01*
X27304933Y-47172666D01*
X27371600Y-47139333D01*
X27404933Y-47106000D01*
X28270933Y-43966000D02*
X28337600Y-43932666D01*
X28437600Y-43932666D01*
X28537600Y-43966000D01*
X28604266Y-44032666D01*
X28637600Y-44099333D01*
X28670933Y-44232666D01*
X28670933Y-44332666D01*
X28637600Y-44466000D01*
X28604266Y-44532666D01*
X28537600Y-44599333D01*
X28437600Y-44632666D01*
X28370933Y-44632666D01*
X28270933Y-44599333D01*
X28237600Y-44566000D01*
X28237600Y-44332666D01*
X28370933Y-44332666D01*
X27937600Y-44632666D02*
X27937600Y-43932666D01*
X27537600Y-44632666D01*
X27537600Y-43932666D01*
X27204266Y-44632666D02*
X27204266Y-43932666D01*
X27037600Y-43932666D01*
X26937600Y-43966000D01*
X26870933Y-44032666D01*
X26837600Y-44099333D01*
X26804266Y-44232666D01*
X26804266Y-44332666D01*
X26837600Y-44466000D01*
X26870933Y-44532666D01*
X26937600Y-44599333D01*
X27037600Y-44632666D01*
X27204266Y-44632666D01*
X28721600Y-42059333D02*
X28621600Y-42092666D01*
X28454933Y-42092666D01*
X28388266Y-42059333D01*
X28354933Y-42026000D01*
X28321600Y-41959333D01*
X28321600Y-41892666D01*
X28354933Y-41826000D01*
X28388266Y-41792666D01*
X28454933Y-41759333D01*
X28588266Y-41726000D01*
X28654933Y-41692666D01*
X28688266Y-41659333D01*
X28721600Y-41592666D01*
X28721600Y-41526000D01*
X28688266Y-41459333D01*
X28654933Y-41426000D01*
X28588266Y-41392666D01*
X28421600Y-41392666D01*
X28321600Y-41426000D01*
X28088266Y-41392666D02*
X27921600Y-42092666D01*
X27788266Y-41592666D01*
X27654933Y-42092666D01*
X27488266Y-41392666D01*
X27221600Y-42092666D02*
X27221600Y-41392666D01*
X27054933Y-41392666D01*
X26954933Y-41426000D01*
X26888266Y-41492666D01*
X26854933Y-41559333D01*
X26821600Y-41692666D01*
X26821600Y-41792666D01*
X26854933Y-41926000D01*
X26888266Y-41992666D01*
X26954933Y-42059333D01*
X27054933Y-42092666D01*
X27221600Y-42092666D01*
X28721600Y-39519333D02*
X28621600Y-39552666D01*
X28454933Y-39552666D01*
X28388266Y-39519333D01*
X28354933Y-39486000D01*
X28321600Y-39419333D01*
X28321600Y-39352666D01*
X28354933Y-39286000D01*
X28388266Y-39252666D01*
X28454933Y-39219333D01*
X28588266Y-39186000D01*
X28654933Y-39152666D01*
X28688266Y-39119333D01*
X28721600Y-39052666D01*
X28721600Y-38986000D01*
X28688266Y-38919333D01*
X28654933Y-38886000D01*
X28588266Y-38852666D01*
X28421600Y-38852666D01*
X28321600Y-38886000D01*
X28088266Y-38852666D02*
X27921600Y-39552666D01*
X27788266Y-39052666D01*
X27654933Y-39552666D01*
X27488266Y-38852666D01*
X26821600Y-39486000D02*
X26854933Y-39519333D01*
X26954933Y-39552666D01*
X27021600Y-39552666D01*
X27121600Y-39519333D01*
X27188266Y-39452666D01*
X27221600Y-39386000D01*
X27254933Y-39252666D01*
X27254933Y-39152666D01*
X27221600Y-39019333D01*
X27188266Y-38952666D01*
X27121600Y-38886000D01*
X27021600Y-38852666D01*
X26954933Y-38852666D01*
X26854933Y-38886000D01*
X26821600Y-38919333D01*
X31594933Y-38852666D02*
X31361600Y-39552666D01*
X31128266Y-38852666D01*
X30661600Y-39186000D02*
X30561600Y-39219333D01*
X30528266Y-39252666D01*
X30494933Y-39319333D01*
X30494933Y-39419333D01*
X30528266Y-39486000D01*
X30561600Y-39519333D01*
X30628266Y-39552666D01*
X30894933Y-39552666D01*
X30894933Y-38852666D01*
X30661600Y-38852666D01*
X30594933Y-38886000D01*
X30561600Y-38919333D01*
X30528266Y-38986000D01*
X30528266Y-39052666D01*
X30561600Y-39119333D01*
X30594933Y-39152666D01*
X30661600Y-39186000D01*
X30894933Y-39186000D01*
X30194933Y-38852666D02*
X30194933Y-39419333D01*
X30161600Y-39486000D01*
X30128266Y-39519333D01*
X30061600Y-39552666D01*
X29928266Y-39552666D01*
X29861600Y-39519333D01*
X29828266Y-39486000D01*
X29794933Y-39419333D01*
X29794933Y-38852666D01*
X29494933Y-39519333D02*
X29394933Y-39552666D01*
X29228266Y-39552666D01*
X29161600Y-39519333D01*
X29128266Y-39486000D01*
X29094933Y-39419333D01*
X29094933Y-39352666D01*
X29128266Y-39286000D01*
X29161600Y-39252666D01*
X29228266Y-39219333D01*
X29361600Y-39186000D01*
X29428266Y-39152666D01*
X29461600Y-39119333D01*
X29494933Y-39052666D01*
X29494933Y-38986000D01*
X29461600Y-38919333D01*
X29428266Y-38886000D01*
X29361600Y-38852666D01*
X29194933Y-38852666D01*
X29094933Y-38886000D01*
X30928266Y-42092666D02*
X30928266Y-41392666D01*
X30761600Y-41392666D01*
X30661600Y-41426000D01*
X30594933Y-41492666D01*
X30561600Y-41559333D01*
X30528266Y-41692666D01*
X30528266Y-41792666D01*
X30561600Y-41926000D01*
X30594933Y-41992666D01*
X30661600Y-42059333D01*
X30761600Y-42092666D01*
X30928266Y-42092666D01*
X30228266Y-41826000D02*
X29694933Y-41826000D01*
X30894266Y-44632666D02*
X30894266Y-43932666D01*
X30727600Y-43932666D01*
X30627600Y-43966000D01*
X30560933Y-44032666D01*
X30527600Y-44099333D01*
X30494266Y-44232666D01*
X30494266Y-44332666D01*
X30527600Y-44466000D01*
X30560933Y-44532666D01*
X30627600Y-44599333D01*
X30727600Y-44632666D01*
X30894266Y-44632666D01*
X30194266Y-44366000D02*
X29660933Y-44366000D01*
X29927600Y-44632666D02*
X29927600Y-44099333D01*
X30844933Y-46506000D02*
X30911600Y-46472666D01*
X31011600Y-46472666D01*
X31111600Y-46506000D01*
X31178266Y-46572666D01*
X31211600Y-46639333D01*
X31244933Y-46772666D01*
X31244933Y-46872666D01*
X31211600Y-47006000D01*
X31178266Y-47072666D01*
X31111600Y-47139333D01*
X31011600Y-47172666D01*
X30944933Y-47172666D01*
X30844933Y-47139333D01*
X30811600Y-47106000D01*
X30811600Y-46872666D01*
X30944933Y-46872666D01*
X30511600Y-47172666D02*
X30511600Y-46472666D01*
X30111600Y-47172666D01*
X30111600Y-46472666D01*
X29778266Y-47172666D02*
X29778266Y-46472666D01*
X29611600Y-46472666D01*
X29511600Y-46506000D01*
X29444933Y-46572666D01*
X29411600Y-46639333D01*
X29378266Y-46772666D01*
X29378266Y-46872666D01*
X29411600Y-47006000D01*
X29444933Y-47072666D01*
X29511600Y-47139333D01*
X29611600Y-47172666D01*
X29778266Y-47172666D01*
X21200000Y-20361733D02*
X21166666Y-20261733D01*
X21133333Y-20228400D01*
X21066666Y-20195066D01*
X20966666Y-20195066D01*
X20900000Y-20228400D01*
X20866666Y-20261733D01*
X20833333Y-20328400D01*
X20833333Y-20595066D01*
X21533333Y-20595066D01*
X21533333Y-20361733D01*
X21500000Y-20295066D01*
X21466666Y-20261733D01*
X21400000Y-20228400D01*
X21333333Y-20228400D01*
X21266666Y-20261733D01*
X21233333Y-20295066D01*
X21200000Y-20361733D01*
X21200000Y-20595066D01*
X21100000Y-19895066D02*
X21100000Y-19361733D01*
X34250000Y-19595067D02*
X34283333Y-19695067D01*
X34316666Y-19728401D01*
X34383333Y-19761734D01*
X34483333Y-19761734D01*
X34550000Y-19728401D01*
X34583333Y-19695067D01*
X34616666Y-19628401D01*
X34616666Y-19361734D01*
X33916666Y-19361734D01*
X33916666Y-19595067D01*
X33950000Y-19661734D01*
X33983333Y-19695067D01*
X34050000Y-19728401D01*
X34116666Y-19728401D01*
X34183333Y-19695067D01*
X34216666Y-19661734D01*
X34250000Y-19595067D01*
X34250000Y-19361734D01*
X34350000Y-20061734D02*
X34350000Y-20595067D01*
X34616666Y-20328401D02*
X34083333Y-20328401D01*
X20393633Y-26139700D02*
X20460300Y-26106366D01*
X20560300Y-26106366D01*
X20660300Y-26139700D01*
X20726966Y-26206366D01*
X20760300Y-26273033D01*
X20793633Y-26406366D01*
X20793633Y-26506366D01*
X20760300Y-26639700D01*
X20726966Y-26706366D01*
X20660300Y-26773033D01*
X20560300Y-26806366D01*
X20493633Y-26806366D01*
X20393633Y-26773033D01*
X20360300Y-26739700D01*
X20360300Y-26506366D01*
X20493633Y-26506366D01*
X20060300Y-26806366D02*
X20060300Y-26106366D01*
X19660300Y-26806366D01*
X19660300Y-26106366D01*
X19326966Y-26806366D02*
X19326966Y-26106366D01*
X19160300Y-26106366D01*
X19060300Y-26139700D01*
X18993633Y-26206366D01*
X18960300Y-26273033D01*
X18926966Y-26406366D01*
X18926966Y-26506366D01*
X18960300Y-26639700D01*
X18993633Y-26706366D01*
X19060300Y-26773033D01*
X19160300Y-26806366D01*
X19326966Y-26806366D01*
X20726966Y-21026366D02*
X20660300Y-21026366D01*
X20593633Y-21059700D01*
X20560300Y-21093033D01*
X20526966Y-21159700D01*
X20493633Y-21293033D01*
X20493633Y-21459700D01*
X20526966Y-21593033D01*
X20560300Y-21659700D01*
X20593633Y-21693033D01*
X20660300Y-21726366D01*
X20726966Y-21726366D01*
X20793633Y-21693033D01*
X20826966Y-21659700D01*
X20860300Y-21593033D01*
X20893633Y-21459700D01*
X20893633Y-21293033D01*
X20860300Y-21159700D01*
X20826966Y-21093033D01*
X20793633Y-21059700D01*
X20726966Y-21026366D01*
X20193633Y-21659700D02*
X20160300Y-21693033D01*
X20193633Y-21726366D01*
X20226966Y-21693033D01*
X20193633Y-21659700D01*
X20193633Y-21726366D01*
X19726966Y-21026366D02*
X19660300Y-21026366D01*
X19593633Y-21059700D01*
X19560300Y-21093033D01*
X19526966Y-21159700D01*
X19493633Y-21293033D01*
X19493633Y-21459700D01*
X19526966Y-21593033D01*
X19560300Y-21659700D01*
X19593633Y-21693033D01*
X19660300Y-21726366D01*
X19726966Y-21726366D01*
X19793633Y-21693033D01*
X19826966Y-21659700D01*
X19860300Y-21593033D01*
X19893633Y-21459700D01*
X19893633Y-21293033D01*
X19860300Y-21159700D01*
X19826966Y-21093033D01*
X19793633Y-21059700D01*
X19726966Y-21026366D01*
X18893633Y-21026366D02*
X19026966Y-21026366D01*
X19093633Y-21059700D01*
X19126966Y-21093033D01*
X19193633Y-21193033D01*
X19226966Y-21326366D01*
X19226966Y-21593033D01*
X19193633Y-21659700D01*
X19160300Y-21693033D01*
X19093633Y-21726366D01*
X18960300Y-21726366D01*
X18893633Y-21693033D01*
X18860300Y-21659700D01*
X18826966Y-21593033D01*
X18826966Y-21426366D01*
X18860300Y-21359700D01*
X18893633Y-21326366D01*
X18960300Y-21293033D01*
X19093633Y-21293033D01*
X19160300Y-21326366D01*
X19193633Y-21359700D01*
X19226966Y-21426366D01*
X20726966Y-46299366D02*
X20660300Y-46299366D01*
X20593633Y-46332700D01*
X20560300Y-46366033D01*
X20526966Y-46432700D01*
X20493633Y-46566033D01*
X20493633Y-46732700D01*
X20526966Y-46866033D01*
X20560300Y-46932700D01*
X20593633Y-46966033D01*
X20660300Y-46999366D01*
X20726966Y-46999366D01*
X20793633Y-46966033D01*
X20826966Y-46932700D01*
X20860300Y-46866033D01*
X20893633Y-46732700D01*
X20893633Y-46566033D01*
X20860300Y-46432700D01*
X20826966Y-46366033D01*
X20793633Y-46332700D01*
X20726966Y-46299366D01*
X20193633Y-46932700D02*
X20160300Y-46966033D01*
X20193633Y-46999366D01*
X20226966Y-46966033D01*
X20193633Y-46932700D01*
X20193633Y-46999366D01*
X19493633Y-46999366D02*
X19893633Y-46999366D01*
X19693633Y-46999366D02*
X19693633Y-46299366D01*
X19760300Y-46399366D01*
X19826966Y-46466033D01*
X19893633Y-46499366D01*
X19060300Y-46299366D02*
X18993633Y-46299366D01*
X18926966Y-46332700D01*
X18893633Y-46366033D01*
X18860300Y-46432700D01*
X18826966Y-46566033D01*
X18826966Y-46732700D01*
X18860300Y-46866033D01*
X18893633Y-46932700D01*
X18926966Y-46966033D01*
X18993633Y-46999366D01*
X19060300Y-46999366D01*
X19126966Y-46966033D01*
X19160300Y-46932700D01*
X19193633Y-46866033D01*
X19226966Y-46732700D01*
X19226966Y-46566033D01*
X19193633Y-46432700D01*
X19160300Y-46366033D01*
X19126966Y-46332700D01*
X19060300Y-46299366D01*
X20726966Y-33726366D02*
X20660300Y-33726366D01*
X20593633Y-33759700D01*
X20560300Y-33793033D01*
X20526966Y-33859700D01*
X20493633Y-33993033D01*
X20493633Y-34159700D01*
X20526966Y-34293033D01*
X20560300Y-34359700D01*
X20593633Y-34393033D01*
X20660300Y-34426366D01*
X20726966Y-34426366D01*
X20793633Y-34393033D01*
X20826966Y-34359700D01*
X20860300Y-34293033D01*
X20893633Y-34159700D01*
X20893633Y-33993033D01*
X20860300Y-33859700D01*
X20826966Y-33793033D01*
X20793633Y-33759700D01*
X20726966Y-33726366D01*
X20193633Y-34359700D02*
X20160300Y-34393033D01*
X20193633Y-34426366D01*
X20226966Y-34393033D01*
X20193633Y-34359700D01*
X20193633Y-34426366D01*
X19493633Y-34426366D02*
X19893633Y-34426366D01*
X19693633Y-34426366D02*
X19693633Y-33726366D01*
X19760300Y-33826366D01*
X19826966Y-33893033D01*
X19893633Y-33926366D01*
X19260300Y-33726366D02*
X18793633Y-33726366D01*
X19093633Y-34426366D01*
X20726966Y-23566366D02*
X20660300Y-23566366D01*
X20593633Y-23599700D01*
X20560300Y-23633033D01*
X20526966Y-23699700D01*
X20493633Y-23833033D01*
X20493633Y-23999700D01*
X20526966Y-24133033D01*
X20560300Y-24199700D01*
X20593633Y-24233033D01*
X20660300Y-24266366D01*
X20726966Y-24266366D01*
X20793633Y-24233033D01*
X20826966Y-24199700D01*
X20860300Y-24133033D01*
X20893633Y-23999700D01*
X20893633Y-23833033D01*
X20860300Y-23699700D01*
X20826966Y-23633033D01*
X20793633Y-23599700D01*
X20726966Y-23566366D01*
X20193633Y-24199700D02*
X20160300Y-24233033D01*
X20193633Y-24266366D01*
X20226966Y-24233033D01*
X20193633Y-24199700D01*
X20193633Y-24266366D01*
X19726966Y-23566366D02*
X19660300Y-23566366D01*
X19593633Y-23599700D01*
X19560300Y-23633033D01*
X19526966Y-23699700D01*
X19493633Y-23833033D01*
X19493633Y-23999700D01*
X19526966Y-24133033D01*
X19560300Y-24199700D01*
X19593633Y-24233033D01*
X19660300Y-24266366D01*
X19726966Y-24266366D01*
X19793633Y-24233033D01*
X19826966Y-24199700D01*
X19860300Y-24133033D01*
X19893633Y-23999700D01*
X19893633Y-23833033D01*
X19860300Y-23699700D01*
X19826966Y-23633033D01*
X19793633Y-23599700D01*
X19726966Y-23566366D01*
X19093633Y-23866366D02*
X19160300Y-23833033D01*
X19193633Y-23799700D01*
X19226966Y-23733033D01*
X19226966Y-23699700D01*
X19193633Y-23633033D01*
X19160300Y-23599700D01*
X19093633Y-23566366D01*
X18960300Y-23566366D01*
X18893633Y-23599700D01*
X18860300Y-23633033D01*
X18826966Y-23699700D01*
X18826966Y-23733033D01*
X18860300Y-23799700D01*
X18893633Y-23833033D01*
X18960300Y-23866366D01*
X19093633Y-23866366D01*
X19160300Y-23899700D01*
X19193633Y-23933033D01*
X19226966Y-23999700D01*
X19226966Y-24133033D01*
X19193633Y-24199700D01*
X19160300Y-24233033D01*
X19093633Y-24266366D01*
X18960300Y-24266366D01*
X18893633Y-24233033D01*
X18860300Y-24199700D01*
X18826966Y-24133033D01*
X18826966Y-23999700D01*
X18860300Y-23933033D01*
X18893633Y-23899700D01*
X18960300Y-23866366D01*
X20726966Y-31186366D02*
X20660300Y-31186366D01*
X20593633Y-31219700D01*
X20560300Y-31253033D01*
X20526966Y-31319700D01*
X20493633Y-31453033D01*
X20493633Y-31619700D01*
X20526966Y-31753033D01*
X20560300Y-31819700D01*
X20593633Y-31853033D01*
X20660300Y-31886366D01*
X20726966Y-31886366D01*
X20793633Y-31853033D01*
X20826966Y-31819700D01*
X20860300Y-31753033D01*
X20893633Y-31619700D01*
X20893633Y-31453033D01*
X20860300Y-31319700D01*
X20826966Y-31253033D01*
X20793633Y-31219700D01*
X20726966Y-31186366D01*
X20193633Y-31819700D02*
X20160300Y-31853033D01*
X20193633Y-31886366D01*
X20226966Y-31853033D01*
X20193633Y-31819700D01*
X20193633Y-31886366D01*
X19493633Y-31886366D02*
X19893633Y-31886366D01*
X19693633Y-31886366D02*
X19693633Y-31186366D01*
X19760300Y-31286366D01*
X19826966Y-31353033D01*
X19893633Y-31386366D01*
X18860300Y-31186366D02*
X19193633Y-31186366D01*
X19226966Y-31519700D01*
X19193633Y-31486366D01*
X19126966Y-31453033D01*
X18960300Y-31453033D01*
X18893633Y-31486366D01*
X18860300Y-31519700D01*
X18826966Y-31586366D01*
X18826966Y-31753033D01*
X18860300Y-31819700D01*
X18893633Y-31853033D01*
X18960300Y-31886366D01*
X19126966Y-31886366D01*
X19193633Y-31853033D01*
X19226966Y-31819700D01*
X20393633Y-28679700D02*
X20460300Y-28646366D01*
X20560300Y-28646366D01*
X20660300Y-28679700D01*
X20726966Y-28746366D01*
X20760300Y-28813033D01*
X20793633Y-28946366D01*
X20793633Y-29046366D01*
X20760300Y-29179700D01*
X20726966Y-29246366D01*
X20660300Y-29313033D01*
X20560300Y-29346366D01*
X20493633Y-29346366D01*
X20393633Y-29313033D01*
X20360300Y-29279700D01*
X20360300Y-29046366D01*
X20493633Y-29046366D01*
X20060300Y-29346366D02*
X20060300Y-28646366D01*
X19660300Y-29346366D01*
X19660300Y-28646366D01*
X19326966Y-29346366D02*
X19326966Y-28646366D01*
X19160300Y-28646366D01*
X19060300Y-28679700D01*
X18993633Y-28746366D01*
X18960300Y-28813033D01*
X18926966Y-28946366D01*
X18926966Y-29046366D01*
X18960300Y-29179700D01*
X18993633Y-29246366D01*
X19060300Y-29313033D01*
X19160300Y-29346366D01*
X19326966Y-29346366D01*
X20726966Y-38806366D02*
X20660300Y-38806366D01*
X20593633Y-38839700D01*
X20560300Y-38873033D01*
X20526966Y-38939700D01*
X20493633Y-39073033D01*
X20493633Y-39239700D01*
X20526966Y-39373033D01*
X20560300Y-39439700D01*
X20593633Y-39473033D01*
X20660300Y-39506366D01*
X20726966Y-39506366D01*
X20793633Y-39473033D01*
X20826966Y-39439700D01*
X20860300Y-39373033D01*
X20893633Y-39239700D01*
X20893633Y-39073033D01*
X20860300Y-38939700D01*
X20826966Y-38873033D01*
X20793633Y-38839700D01*
X20726966Y-38806366D01*
X20193633Y-39439700D02*
X20160300Y-39473033D01*
X20193633Y-39506366D01*
X20226966Y-39473033D01*
X20193633Y-39439700D01*
X20193633Y-39506366D01*
X19493633Y-39506366D02*
X19893633Y-39506366D01*
X19693633Y-39506366D02*
X19693633Y-38806366D01*
X19760300Y-38906366D01*
X19826966Y-38973033D01*
X19893633Y-39006366D01*
X19260300Y-38806366D02*
X18826966Y-38806366D01*
X19060300Y-39073033D01*
X18960300Y-39073033D01*
X18893633Y-39106366D01*
X18860300Y-39139700D01*
X18826966Y-39206366D01*
X18826966Y-39373033D01*
X18860300Y-39439700D01*
X18893633Y-39473033D01*
X18960300Y-39506366D01*
X19160300Y-39506366D01*
X19226966Y-39473033D01*
X19260300Y-39439700D01*
X20726966Y-43886366D02*
X20660300Y-43886366D01*
X20593633Y-43919700D01*
X20560300Y-43953033D01*
X20526966Y-44019700D01*
X20493633Y-44153033D01*
X20493633Y-44319700D01*
X20526966Y-44453033D01*
X20560300Y-44519700D01*
X20593633Y-44553033D01*
X20660300Y-44586366D01*
X20726966Y-44586366D01*
X20793633Y-44553033D01*
X20826966Y-44519700D01*
X20860300Y-44453033D01*
X20893633Y-44319700D01*
X20893633Y-44153033D01*
X20860300Y-44019700D01*
X20826966Y-43953033D01*
X20793633Y-43919700D01*
X20726966Y-43886366D01*
X20193633Y-44519700D02*
X20160300Y-44553033D01*
X20193633Y-44586366D01*
X20226966Y-44553033D01*
X20193633Y-44519700D01*
X20193633Y-44586366D01*
X19726966Y-43886366D02*
X19660300Y-43886366D01*
X19593633Y-43919700D01*
X19560300Y-43953033D01*
X19526966Y-44019700D01*
X19493633Y-44153033D01*
X19493633Y-44319700D01*
X19526966Y-44453033D01*
X19560300Y-44519700D01*
X19593633Y-44553033D01*
X19660300Y-44586366D01*
X19726966Y-44586366D01*
X19793633Y-44553033D01*
X19826966Y-44519700D01*
X19860300Y-44453033D01*
X19893633Y-44319700D01*
X19893633Y-44153033D01*
X19860300Y-44019700D01*
X19826966Y-43953033D01*
X19793633Y-43919700D01*
X19726966Y-43886366D01*
X19160300Y-44586366D02*
X19026966Y-44586366D01*
X18960300Y-44553033D01*
X18926966Y-44519700D01*
X18860300Y-44419700D01*
X18826966Y-44286366D01*
X18826966Y-44019700D01*
X18860300Y-43953033D01*
X18893633Y-43919700D01*
X18960300Y-43886366D01*
X19093633Y-43886366D01*
X19160300Y-43919700D01*
X19193633Y-43953033D01*
X19226966Y-44019700D01*
X19226966Y-44186366D01*
X19193633Y-44253033D01*
X19160300Y-44286366D01*
X19093633Y-44319700D01*
X18960300Y-44319700D01*
X18893633Y-44286366D01*
X18860300Y-44253033D01*
X18826966Y-44186366D01*
X20726966Y-41346366D02*
X20660300Y-41346366D01*
X20593633Y-41379700D01*
X20560300Y-41413033D01*
X20526966Y-41479700D01*
X20493633Y-41613033D01*
X20493633Y-41779700D01*
X20526966Y-41913033D01*
X20560300Y-41979700D01*
X20593633Y-42013033D01*
X20660300Y-42046366D01*
X20726966Y-42046366D01*
X20793633Y-42013033D01*
X20826966Y-41979700D01*
X20860300Y-41913033D01*
X20893633Y-41779700D01*
X20893633Y-41613033D01*
X20860300Y-41479700D01*
X20826966Y-41413033D01*
X20793633Y-41379700D01*
X20726966Y-41346366D01*
X20193633Y-41979700D02*
X20160300Y-42013033D01*
X20193633Y-42046366D01*
X20226966Y-42013033D01*
X20193633Y-41979700D01*
X20193633Y-42046366D01*
X19893633Y-41413033D02*
X19860300Y-41379700D01*
X19793633Y-41346366D01*
X19626966Y-41346366D01*
X19560300Y-41379700D01*
X19526966Y-41413033D01*
X19493633Y-41479700D01*
X19493633Y-41546366D01*
X19526966Y-41646366D01*
X19926966Y-42046366D01*
X19493633Y-42046366D01*
X18893633Y-41579700D02*
X18893633Y-42046366D01*
X19060300Y-41313033D02*
X19226966Y-41813033D01*
X18793633Y-41813033D01*
X20493633Y-49666366D02*
X20893633Y-49666366D01*
X20693633Y-49666366D02*
X20693633Y-48966366D01*
X20760300Y-49066366D01*
X20826966Y-49133033D01*
X20893633Y-49166366D01*
X20193633Y-49599700D02*
X20160300Y-49633033D01*
X20193633Y-49666366D01*
X20226966Y-49633033D01*
X20193633Y-49599700D01*
X20193633Y-49666366D01*
X19726966Y-48966366D02*
X19660300Y-48966366D01*
X19593633Y-48999700D01*
X19560300Y-49033033D01*
X19526966Y-49099700D01*
X19493633Y-49233033D01*
X19493633Y-49399700D01*
X19526966Y-49533033D01*
X19560300Y-49599700D01*
X19593633Y-49633033D01*
X19660300Y-49666366D01*
X19726966Y-49666366D01*
X19793633Y-49633033D01*
X19826966Y-49599700D01*
X19860300Y-49533033D01*
X19893633Y-49399700D01*
X19893633Y-49233033D01*
X19860300Y-49099700D01*
X19826966Y-49033033D01*
X19793633Y-48999700D01*
X19726966Y-48966366D01*
X18893633Y-48966366D02*
X19026966Y-48966366D01*
X19093633Y-48999700D01*
X19126966Y-49033033D01*
X19193633Y-49133033D01*
X19226966Y-49266366D01*
X19226966Y-49533033D01*
X19193633Y-49599700D01*
X19160300Y-49633033D01*
X19093633Y-49666366D01*
X18960300Y-49666366D01*
X18893633Y-49633033D01*
X18860300Y-49599700D01*
X18826966Y-49533033D01*
X18826966Y-49366366D01*
X18860300Y-49299700D01*
X18893633Y-49266366D01*
X18960300Y-49233033D01*
X19093633Y-49233033D01*
X19160300Y-49266366D01*
X19193633Y-49299700D01*
X19226966Y-49366366D01*
X36042433Y-21713666D02*
X36275766Y-21380333D01*
X36442433Y-21713666D02*
X36442433Y-21013666D01*
X36175766Y-21013666D01*
X36109100Y-21047000D01*
X36075766Y-21080333D01*
X36042433Y-21147000D01*
X36042433Y-21247000D01*
X36075766Y-21313666D01*
X36109100Y-21347000D01*
X36175766Y-21380333D01*
X36442433Y-21380333D01*
X35775766Y-21513666D02*
X35442433Y-21513666D01*
X35842433Y-21713666D02*
X35609100Y-21013666D01*
X35375766Y-21713666D01*
X35209100Y-21013666D02*
X35042433Y-21713666D01*
X34909100Y-21213666D01*
X34775766Y-21713666D01*
X34609100Y-21013666D01*
X36425766Y-43873666D02*
X36359100Y-43873666D01*
X36292433Y-43907000D01*
X36259100Y-43940333D01*
X36225766Y-44007000D01*
X36192433Y-44140333D01*
X36192433Y-44307000D01*
X36225766Y-44440333D01*
X36259100Y-44507000D01*
X36292433Y-44540333D01*
X36359100Y-44573666D01*
X36425766Y-44573666D01*
X36492433Y-44540333D01*
X36525766Y-44507000D01*
X36559100Y-44440333D01*
X36592433Y-44307000D01*
X36592433Y-44140333D01*
X36559100Y-44007000D01*
X36525766Y-43940333D01*
X36492433Y-43907000D01*
X36425766Y-43873666D01*
X35892433Y-44507000D02*
X35859100Y-44540333D01*
X35892433Y-44573666D01*
X35925766Y-44540333D01*
X35892433Y-44507000D01*
X35892433Y-44573666D01*
X35425766Y-43873666D02*
X35359100Y-43873666D01*
X35292433Y-43907000D01*
X35259100Y-43940333D01*
X35225766Y-44007000D01*
X35192433Y-44140333D01*
X35192433Y-44307000D01*
X35225766Y-44440333D01*
X35259100Y-44507000D01*
X35292433Y-44540333D01*
X35359100Y-44573666D01*
X35425766Y-44573666D01*
X35492433Y-44540333D01*
X35525766Y-44507000D01*
X35559100Y-44440333D01*
X35592433Y-44307000D01*
X35592433Y-44140333D01*
X35559100Y-44007000D01*
X35525766Y-43940333D01*
X35492433Y-43907000D01*
X35425766Y-43873666D01*
X34959100Y-43873666D02*
X34525766Y-43873666D01*
X34759100Y-44140333D01*
X34659100Y-44140333D01*
X34592433Y-44173666D01*
X34559100Y-44207000D01*
X34525766Y-44273666D01*
X34525766Y-44440333D01*
X34559100Y-44507000D01*
X34592433Y-44540333D01*
X34659100Y-44573666D01*
X34859100Y-44573666D01*
X34925766Y-44540333D01*
X34959100Y-44507000D01*
X36425766Y-46413666D02*
X36359100Y-46413666D01*
X36292433Y-46447000D01*
X36259100Y-46480333D01*
X36225766Y-46547000D01*
X36192433Y-46680333D01*
X36192433Y-46847000D01*
X36225766Y-46980333D01*
X36259100Y-47047000D01*
X36292433Y-47080333D01*
X36359100Y-47113666D01*
X36425766Y-47113666D01*
X36492433Y-47080333D01*
X36525766Y-47047000D01*
X36559100Y-46980333D01*
X36592433Y-46847000D01*
X36592433Y-46680333D01*
X36559100Y-46547000D01*
X36525766Y-46480333D01*
X36492433Y-46447000D01*
X36425766Y-46413666D01*
X35892433Y-47047000D02*
X35859100Y-47080333D01*
X35892433Y-47113666D01*
X35925766Y-47080333D01*
X35892433Y-47047000D01*
X35892433Y-47113666D01*
X35592433Y-46480333D02*
X35559100Y-46447000D01*
X35492433Y-46413666D01*
X35325766Y-46413666D01*
X35259100Y-46447000D01*
X35225766Y-46480333D01*
X35192433Y-46547000D01*
X35192433Y-46613666D01*
X35225766Y-46713666D01*
X35625766Y-47113666D01*
X35192433Y-47113666D01*
X34792433Y-46713666D02*
X34859100Y-46680333D01*
X34892433Y-46647000D01*
X34925766Y-46580333D01*
X34925766Y-46547000D01*
X34892433Y-46480333D01*
X34859100Y-46447000D01*
X34792433Y-46413666D01*
X34659100Y-46413666D01*
X34592433Y-46447000D01*
X34559100Y-46480333D01*
X34525766Y-46547000D01*
X34525766Y-46580333D01*
X34559100Y-46647000D01*
X34592433Y-46680333D01*
X34659100Y-46713666D01*
X34792433Y-46713666D01*
X34859100Y-46747000D01*
X34892433Y-46780333D01*
X34925766Y-46847000D01*
X34925766Y-46980333D01*
X34892433Y-47047000D01*
X34859100Y-47080333D01*
X34792433Y-47113666D01*
X34659100Y-47113666D01*
X34592433Y-47080333D01*
X34559100Y-47047000D01*
X34525766Y-46980333D01*
X34525766Y-46847000D01*
X34559100Y-46780333D01*
X34592433Y-46747000D01*
X34659100Y-46713666D01*
X36492433Y-28633666D02*
X36259100Y-29333666D01*
X36025766Y-28633666D01*
X35392433Y-29267000D02*
X35425766Y-29300333D01*
X35525766Y-29333666D01*
X35592433Y-29333666D01*
X35692433Y-29300333D01*
X35759100Y-29233666D01*
X35792433Y-29167000D01*
X35825766Y-29033666D01*
X35825766Y-28933666D01*
X35792433Y-28800333D01*
X35759100Y-28733666D01*
X35692433Y-28667000D01*
X35592433Y-28633666D01*
X35525766Y-28633666D01*
X35425766Y-28667000D01*
X35392433Y-28700333D01*
X34692433Y-29267000D02*
X34725766Y-29300333D01*
X34825766Y-29333666D01*
X34892433Y-29333666D01*
X34992433Y-29300333D01*
X35059100Y-29233666D01*
X35092433Y-29167000D01*
X35125766Y-29033666D01*
X35125766Y-28933666D01*
X35092433Y-28800333D01*
X35059100Y-28733666D01*
X34992433Y-28667000D01*
X34892433Y-28633666D01*
X34825766Y-28633666D01*
X34725766Y-28667000D01*
X34692433Y-28700333D01*
X36425766Y-31173666D02*
X36359100Y-31173666D01*
X36292433Y-31207000D01*
X36259100Y-31240333D01*
X36225766Y-31307000D01*
X36192433Y-31440333D01*
X36192433Y-31607000D01*
X36225766Y-31740333D01*
X36259100Y-31807000D01*
X36292433Y-31840333D01*
X36359100Y-31873666D01*
X36425766Y-31873666D01*
X36492433Y-31840333D01*
X36525766Y-31807000D01*
X36559100Y-31740333D01*
X36592433Y-31607000D01*
X36592433Y-31440333D01*
X36559100Y-31307000D01*
X36525766Y-31240333D01*
X36492433Y-31207000D01*
X36425766Y-31173666D01*
X35892433Y-31807000D02*
X35859100Y-31840333D01*
X35892433Y-31873666D01*
X35925766Y-31840333D01*
X35892433Y-31807000D01*
X35892433Y-31873666D01*
X35625766Y-31173666D02*
X35192433Y-31173666D01*
X35425766Y-31440333D01*
X35325766Y-31440333D01*
X35259100Y-31473666D01*
X35225766Y-31507000D01*
X35192433Y-31573666D01*
X35192433Y-31740333D01*
X35225766Y-31807000D01*
X35259100Y-31840333D01*
X35325766Y-31873666D01*
X35525766Y-31873666D01*
X35592433Y-31840333D01*
X35625766Y-31807000D01*
X34759100Y-31173666D02*
X34692433Y-31173666D01*
X34625766Y-31207000D01*
X34592433Y-31240333D01*
X34559100Y-31307000D01*
X34525766Y-31440333D01*
X34525766Y-31607000D01*
X34559100Y-31740333D01*
X34592433Y-31807000D01*
X34625766Y-31840333D01*
X34692433Y-31873666D01*
X34759100Y-31873666D01*
X34825766Y-31840333D01*
X34859100Y-31807000D01*
X34892433Y-31740333D01*
X34925766Y-31607000D01*
X34925766Y-31440333D01*
X34892433Y-31307000D01*
X34859100Y-31240333D01*
X34825766Y-31207000D01*
X34759100Y-31173666D01*
X36192433Y-42033666D02*
X36592433Y-42033666D01*
X36392433Y-42033666D02*
X36392433Y-41333666D01*
X36459100Y-41433666D01*
X36525766Y-41500333D01*
X36592433Y-41533666D01*
X35892433Y-41967000D02*
X35859100Y-42000333D01*
X35892433Y-42033666D01*
X35925766Y-42000333D01*
X35892433Y-41967000D01*
X35892433Y-42033666D01*
X35192433Y-42033666D02*
X35592433Y-42033666D01*
X35392433Y-42033666D02*
X35392433Y-41333666D01*
X35459100Y-41433666D01*
X35525766Y-41500333D01*
X35592433Y-41533666D01*
X34959100Y-41333666D02*
X34525766Y-41333666D01*
X34759100Y-41600333D01*
X34659100Y-41600333D01*
X34592433Y-41633666D01*
X34559100Y-41667000D01*
X34525766Y-41733666D01*
X34525766Y-41900333D01*
X34559100Y-41967000D01*
X34592433Y-42000333D01*
X34659100Y-42033666D01*
X34859100Y-42033666D01*
X34925766Y-42000333D01*
X34959100Y-41967000D01*
X36192433Y-49653666D02*
X36592433Y-49653666D01*
X36392433Y-49653666D02*
X36392433Y-48953666D01*
X36459100Y-49053666D01*
X36525766Y-49120333D01*
X36592433Y-49153666D01*
X35892433Y-49587000D02*
X35859100Y-49620333D01*
X35892433Y-49653666D01*
X35925766Y-49620333D01*
X35892433Y-49587000D01*
X35892433Y-49653666D01*
X35192433Y-49653666D02*
X35592433Y-49653666D01*
X35392433Y-49653666D02*
X35392433Y-48953666D01*
X35459100Y-49053666D01*
X35525766Y-49120333D01*
X35592433Y-49153666D01*
X34525766Y-49653666D02*
X34925766Y-49653666D01*
X34725766Y-49653666D02*
X34725766Y-48953666D01*
X34792433Y-49053666D01*
X34859100Y-49120333D01*
X34925766Y-49153666D01*
X36425766Y-38793666D02*
X36359100Y-38793666D01*
X36292433Y-38827000D01*
X36259100Y-38860333D01*
X36225766Y-38927000D01*
X36192433Y-39060333D01*
X36192433Y-39227000D01*
X36225766Y-39360333D01*
X36259100Y-39427000D01*
X36292433Y-39460333D01*
X36359100Y-39493666D01*
X36425766Y-39493666D01*
X36492433Y-39460333D01*
X36525766Y-39427000D01*
X36559100Y-39360333D01*
X36592433Y-39227000D01*
X36592433Y-39060333D01*
X36559100Y-38927000D01*
X36525766Y-38860333D01*
X36492433Y-38827000D01*
X36425766Y-38793666D01*
X35892433Y-39427000D02*
X35859100Y-39460333D01*
X35892433Y-39493666D01*
X35925766Y-39460333D01*
X35892433Y-39427000D01*
X35892433Y-39493666D01*
X35425766Y-38793666D02*
X35359100Y-38793666D01*
X35292433Y-38827000D01*
X35259100Y-38860333D01*
X35225766Y-38927000D01*
X35192433Y-39060333D01*
X35192433Y-39227000D01*
X35225766Y-39360333D01*
X35259100Y-39427000D01*
X35292433Y-39460333D01*
X35359100Y-39493666D01*
X35425766Y-39493666D01*
X35492433Y-39460333D01*
X35525766Y-39427000D01*
X35559100Y-39360333D01*
X35592433Y-39227000D01*
X35592433Y-39060333D01*
X35559100Y-38927000D01*
X35525766Y-38860333D01*
X35492433Y-38827000D01*
X35425766Y-38793666D01*
X34925766Y-38860333D02*
X34892433Y-38827000D01*
X34825766Y-38793666D01*
X34659100Y-38793666D01*
X34592433Y-38827000D01*
X34559100Y-38860333D01*
X34525766Y-38927000D01*
X34525766Y-38993666D01*
X34559100Y-39093666D01*
X34959100Y-39493666D01*
X34525766Y-39493666D01*
X35942433Y-26793666D02*
X36175766Y-26460333D01*
X36342433Y-26793666D02*
X36342433Y-26093666D01*
X36075766Y-26093666D01*
X36009100Y-26127000D01*
X35975766Y-26160333D01*
X35942433Y-26227000D01*
X35942433Y-26327000D01*
X35975766Y-26393666D01*
X36009100Y-26427000D01*
X36075766Y-26460333D01*
X36342433Y-26460333D01*
X35675766Y-26760333D02*
X35575766Y-26793666D01*
X35409100Y-26793666D01*
X35342433Y-26760333D01*
X35309100Y-26727000D01*
X35275766Y-26660333D01*
X35275766Y-26593666D01*
X35309100Y-26527000D01*
X35342433Y-26493666D01*
X35409100Y-26460333D01*
X35542433Y-26427000D01*
X35609100Y-26393666D01*
X35642433Y-26360333D01*
X35675766Y-26293666D01*
X35675766Y-26227000D01*
X35642433Y-26160333D01*
X35609100Y-26127000D01*
X35542433Y-26093666D01*
X35375766Y-26093666D01*
X35275766Y-26127000D01*
X35075766Y-26093666D02*
X34675766Y-26093666D01*
X34875766Y-26793666D02*
X34875766Y-26093666D01*
X36425766Y-33713666D02*
X36359100Y-33713666D01*
X36292433Y-33747000D01*
X36259100Y-33780333D01*
X36225766Y-33847000D01*
X36192433Y-33980333D01*
X36192433Y-34147000D01*
X36225766Y-34280333D01*
X36259100Y-34347000D01*
X36292433Y-34380333D01*
X36359100Y-34413666D01*
X36425766Y-34413666D01*
X36492433Y-34380333D01*
X36525766Y-34347000D01*
X36559100Y-34280333D01*
X36592433Y-34147000D01*
X36592433Y-33980333D01*
X36559100Y-33847000D01*
X36525766Y-33780333D01*
X36492433Y-33747000D01*
X36425766Y-33713666D01*
X35892433Y-34347000D02*
X35859100Y-34380333D01*
X35892433Y-34413666D01*
X35925766Y-34380333D01*
X35892433Y-34347000D01*
X35892433Y-34413666D01*
X35625766Y-33713666D02*
X35192433Y-33713666D01*
X35425766Y-33980333D01*
X35325766Y-33980333D01*
X35259100Y-34013666D01*
X35225766Y-34047000D01*
X35192433Y-34113666D01*
X35192433Y-34280333D01*
X35225766Y-34347000D01*
X35259100Y-34380333D01*
X35325766Y-34413666D01*
X35525766Y-34413666D01*
X35592433Y-34380333D01*
X35625766Y-34347000D01*
X34525766Y-34413666D02*
X34925766Y-34413666D01*
X34725766Y-34413666D02*
X34725766Y-33713666D01*
X34792433Y-33813666D01*
X34859100Y-33880333D01*
X34925766Y-33913666D01*
X36425766Y-36253666D02*
X36359100Y-36253666D01*
X36292433Y-36287000D01*
X36259100Y-36320333D01*
X36225766Y-36387000D01*
X36192433Y-36520333D01*
X36192433Y-36687000D01*
X36225766Y-36820333D01*
X36259100Y-36887000D01*
X36292433Y-36920333D01*
X36359100Y-36953666D01*
X36425766Y-36953666D01*
X36492433Y-36920333D01*
X36525766Y-36887000D01*
X36559100Y-36820333D01*
X36592433Y-36687000D01*
X36592433Y-36520333D01*
X36559100Y-36387000D01*
X36525766Y-36320333D01*
X36492433Y-36287000D01*
X36425766Y-36253666D01*
X35892433Y-36887000D02*
X35859100Y-36920333D01*
X35892433Y-36953666D01*
X35925766Y-36920333D01*
X35892433Y-36887000D01*
X35892433Y-36953666D01*
X35592433Y-36320333D02*
X35559100Y-36287000D01*
X35492433Y-36253666D01*
X35325766Y-36253666D01*
X35259100Y-36287000D01*
X35225766Y-36320333D01*
X35192433Y-36387000D01*
X35192433Y-36453666D01*
X35225766Y-36553666D01*
X35625766Y-36953666D01*
X35192433Y-36953666D01*
X34859100Y-36953666D02*
X34725766Y-36953666D01*
X34659100Y-36920333D01*
X34625766Y-36887000D01*
X34559100Y-36787000D01*
X34525766Y-36653666D01*
X34525766Y-36387000D01*
X34559100Y-36320333D01*
X34592433Y-36287000D01*
X34659100Y-36253666D01*
X34792433Y-36253666D01*
X34859100Y-36287000D01*
X34892433Y-36320333D01*
X34925766Y-36387000D01*
X34925766Y-36553666D01*
X34892433Y-36620333D01*
X34859100Y-36653666D01*
X34792433Y-36687000D01*
X34659100Y-36687000D01*
X34592433Y-36653666D01*
X34559100Y-36620333D01*
X34525766Y-36553666D01*
X36092433Y-23587000D02*
X36159100Y-23553666D01*
X36259100Y-23553666D01*
X36359100Y-23587000D01*
X36425766Y-23653666D01*
X36459100Y-23720333D01*
X36492433Y-23853666D01*
X36492433Y-23953666D01*
X36459100Y-24087000D01*
X36425766Y-24153666D01*
X36359100Y-24220333D01*
X36259100Y-24253666D01*
X36192433Y-24253666D01*
X36092433Y-24220333D01*
X36059100Y-24187000D01*
X36059100Y-23953666D01*
X36192433Y-23953666D01*
X35759100Y-24253666D02*
X35759100Y-23553666D01*
X35359100Y-24253666D01*
X35359100Y-23553666D01*
X35025766Y-24253666D02*
X35025766Y-23553666D01*
X34859100Y-23553666D01*
X34759100Y-23587000D01*
X34692433Y-23653666D01*
X34659100Y-23720333D01*
X34625766Y-23853666D01*
X34625766Y-23953666D01*
X34659100Y-24087000D01*
X34692433Y-24153666D01*
X34759100Y-24220333D01*
X34859100Y-24253666D01*
X35025766Y-24253666D01*
X20726966Y-36266366D02*
X20660300Y-36266366D01*
X20593633Y-36299700D01*
X20560300Y-36333033D01*
X20526966Y-36399700D01*
X20493633Y-36533033D01*
X20493633Y-36699700D01*
X20526966Y-36833033D01*
X20560300Y-36899700D01*
X20593633Y-36933033D01*
X20660300Y-36966366D01*
X20726966Y-36966366D01*
X20793633Y-36933033D01*
X20826966Y-36899700D01*
X20860300Y-36833033D01*
X20893633Y-36699700D01*
X20893633Y-36533033D01*
X20860300Y-36399700D01*
X20826966Y-36333033D01*
X20793633Y-36299700D01*
X20726966Y-36266366D01*
X20193633Y-36899700D02*
X20160300Y-36933033D01*
X20193633Y-36966366D01*
X20226966Y-36933033D01*
X20193633Y-36899700D01*
X20193633Y-36966366D01*
X19893633Y-36333033D02*
X19860300Y-36299700D01*
X19793633Y-36266366D01*
X19626966Y-36266366D01*
X19560300Y-36299700D01*
X19526966Y-36333033D01*
X19493633Y-36399700D01*
X19493633Y-36466366D01*
X19526966Y-36566366D01*
X19926966Y-36966366D01*
X19493633Y-36966366D01*
X19060300Y-36266366D02*
X18993633Y-36266366D01*
X18926966Y-36299700D01*
X18893633Y-36333033D01*
X18860300Y-36399700D01*
X18826966Y-36533033D01*
X18826966Y-36699700D01*
X18860300Y-36833033D01*
X18893633Y-36899700D01*
X18926966Y-36933033D01*
X18993633Y-36966366D01*
X19060300Y-36966366D01*
X19126966Y-36933033D01*
X19160300Y-36899700D01*
X19193633Y-36833033D01*
X19226966Y-36699700D01*
X19226966Y-36533033D01*
X19193633Y-36399700D01*
X19160300Y-36333033D01*
X19126966Y-36299700D01*
X19060300Y-36266366D01*
M02*
