G04 #@! TF.GenerationSoftware,KiCad,Pcbnew,(5.1.6)-1*
G04 #@! TF.CreationDate,2020-10-02T00:20:03+08:00*
G04 #@! TF.ProjectId,nrfmicro,6e72666d-6963-4726-9f2e-6b696361645f,rev?*
G04 #@! TF.SameCoordinates,Original*
G04 #@! TF.FileFunction,Copper,L1,Top*
G04 #@! TF.FilePolarity,Positive*
%FSLAX46Y46*%
G04 Gerber Fmt 4.6, Leading zero omitted, Abs format (unit mm)*
G04 Created by KiCad (PCBNEW (5.1.6)-1) date 2020-10-02 00:20:03*
%MOMM*%
%LPD*%
G01*
G04 APERTURE LIST*
G04 #@! TA.AperFunction,SMDPad,CuDef*
%ADD10R,0.300000X0.800000*%
G04 #@! TD*
G04 #@! TA.AperFunction,SMDPad,CuDef*
%ADD11R,0.500000X0.800000*%
G04 #@! TD*
G04 #@! TA.AperFunction,SMDPad,CuDef*
%ADD12R,0.550000X0.800000*%
G04 #@! TD*
G04 #@! TA.AperFunction,ComponentPad*
%ADD13O,1.000000X1.800000*%
G04 #@! TD*
G04 #@! TA.AperFunction,ComponentPad*
%ADD14O,1.000000X2.200000*%
G04 #@! TD*
G04 #@! TA.AperFunction,SMDPad,CuDef*
%ADD15R,0.650000X1.060000*%
G04 #@! TD*
G04 #@! TA.AperFunction,SMDPad,CuDef*
%ADD16R,0.600000X1.200000*%
G04 #@! TD*
G04 #@! TA.AperFunction,ComponentPad*
%ADD17O,1.270000X1.270000*%
G04 #@! TD*
G04 #@! TA.AperFunction,ComponentPad*
%ADD18R,1.270000X1.270000*%
G04 #@! TD*
G04 #@! TA.AperFunction,ComponentPad*
%ADD19R,0.650000X1.000000*%
G04 #@! TD*
G04 #@! TA.AperFunction,ComponentPad*
%ADD20R,1.000000X0.650000*%
G04 #@! TD*
G04 #@! TA.AperFunction,SMDPad,CuDef*
%ADD21R,0.650000X1.000000*%
G04 #@! TD*
G04 #@! TA.AperFunction,SMDPad,CuDef*
%ADD22R,1.000000X0.650000*%
G04 #@! TD*
G04 #@! TA.AperFunction,ComponentPad*
%ADD23C,1.270000*%
G04 #@! TD*
G04 #@! TA.AperFunction,ComponentPad*
%ADD24C,1.250000*%
G04 #@! TD*
G04 #@! TA.AperFunction,SMDPad,CuDef*
%ADD25R,0.500000X0.500000*%
G04 #@! TD*
G04 #@! TA.AperFunction,SMDPad,CuDef*
%ADD26R,0.900000X0.800000*%
G04 #@! TD*
G04 #@! TA.AperFunction,ViaPad*
%ADD27C,0.600000*%
G04 #@! TD*
G04 #@! TA.AperFunction,Conductor*
%ADD28C,0.200000*%
G04 #@! TD*
G04 APERTURE END LIST*
G04 #@! TA.AperFunction,SMDPad,CuDef*
G36*
G01*
X21981250Y-30100000D02*
X21468750Y-30100000D01*
G75*
G02*
X21250000Y-29881250I0J218750D01*
G01*
X21250000Y-29443750D01*
G75*
G02*
X21468750Y-29225000I218750J0D01*
G01*
X21981250Y-29225000D01*
G75*
G02*
X22200000Y-29443750I0J-218750D01*
G01*
X22200000Y-29881250D01*
G75*
G02*
X21981250Y-30100000I-218750J0D01*
G01*
G37*
G04 #@! TD.AperFunction*
G04 #@! TA.AperFunction,SMDPad,CuDef*
G36*
G01*
X21981250Y-31675000D02*
X21468750Y-31675000D01*
G75*
G02*
X21250000Y-31456250I0J218750D01*
G01*
X21250000Y-31018750D01*
G75*
G02*
X21468750Y-30800000I218750J0D01*
G01*
X21981250Y-30800000D01*
G75*
G02*
X22200000Y-31018750I0J-218750D01*
G01*
X22200000Y-31456250D01*
G75*
G02*
X21981250Y-31675000I-218750J0D01*
G01*
G37*
G04 #@! TD.AperFunction*
G04 #@! TA.AperFunction,SMDPad,CuDef*
G36*
G01*
X33981250Y-31687500D02*
X33468750Y-31687500D01*
G75*
G02*
X33250000Y-31468750I0J218750D01*
G01*
X33250000Y-31031250D01*
G75*
G02*
X33468750Y-30812500I218750J0D01*
G01*
X33981250Y-30812500D01*
G75*
G02*
X34200000Y-31031250I0J-218750D01*
G01*
X34200000Y-31468750D01*
G75*
G02*
X33981250Y-31687500I-218750J0D01*
G01*
G37*
G04 #@! TD.AperFunction*
G04 #@! TA.AperFunction,SMDPad,CuDef*
G36*
G01*
X33981250Y-30112500D02*
X33468750Y-30112500D01*
G75*
G02*
X33250000Y-29893750I0J218750D01*
G01*
X33250000Y-29456250D01*
G75*
G02*
X33468750Y-29237500I218750J0D01*
G01*
X33981250Y-29237500D01*
G75*
G02*
X34200000Y-29456250I0J-218750D01*
G01*
X34200000Y-29893750D01*
G75*
G02*
X33981250Y-30112500I-218750J0D01*
G01*
G37*
G04 #@! TD.AperFunction*
D10*
X25971600Y-24600000D03*
X26471600Y-24600000D03*
X29471600Y-24600000D03*
X28971600Y-24600000D03*
X27971600Y-24600000D03*
X27471600Y-24600000D03*
X28471600Y-24600000D03*
X26971600Y-24600000D03*
D11*
X25321600Y-24600000D03*
X30121600Y-24600000D03*
D12*
X30921600Y-24600000D03*
X24521600Y-24600000D03*
D13*
X22146600Y-23700000D03*
X33296600Y-23700000D03*
D14*
X22146600Y-19700000D03*
X33296600Y-19700000D03*
D15*
X30576600Y-29457000D03*
X29626600Y-29457000D03*
X28676600Y-29457000D03*
X28676600Y-31657000D03*
X30576600Y-31657000D03*
X26766600Y-31657000D03*
X24866600Y-31657000D03*
X24866600Y-29457000D03*
X25816600Y-29457000D03*
X26766600Y-29457000D03*
D16*
X33300000Y-32850000D03*
X32100000Y-32850000D03*
D17*
X27721600Y-40320000D03*
X27721600Y-42860000D03*
D18*
X27721600Y-45400000D03*
D17*
X27721600Y-47940000D03*
D18*
X30261600Y-47940000D03*
D17*
X30261600Y-45400000D03*
X30261600Y-42860000D03*
X30261600Y-40320000D03*
D19*
X27743000Y-36062000D03*
X23933000Y-36062000D03*
X25203000Y-36062000D03*
X29013000Y-36062000D03*
X26473000Y-36062000D03*
X31553000Y-36062000D03*
X30283000Y-36062000D03*
D20*
X23679000Y-47492000D03*
X23679000Y-46222000D03*
X23679000Y-44952000D03*
X23679000Y-43682000D03*
X23679000Y-42412000D03*
X23679000Y-41142000D03*
X23679000Y-39872000D03*
D21*
X27110000Y-34351000D03*
X23300000Y-34351000D03*
X28380000Y-34351000D03*
X29650000Y-34351000D03*
X30920000Y-34351000D03*
X25840000Y-34351000D03*
X32190000Y-34351000D03*
X24570000Y-34351000D03*
D22*
X21601000Y-36570000D03*
X21601000Y-37840000D03*
X21601000Y-42920000D03*
X21601000Y-39110000D03*
X21601000Y-44190000D03*
X21601000Y-45460000D03*
X21601000Y-46730000D03*
X21601000Y-41650000D03*
X21601000Y-48000000D03*
X21601000Y-40380000D03*
X33839000Y-48000000D03*
X33839000Y-46730000D03*
X33839000Y-45460000D03*
X33839000Y-44190000D03*
X33839000Y-42920000D03*
X33839000Y-41650000D03*
X33839000Y-40380000D03*
X33839000Y-39110000D03*
X33839000Y-37840000D03*
X33839000Y-36570000D03*
D20*
X23679000Y-38602000D03*
D18*
X20101600Y-20000000D03*
D23*
X35341600Y-20000000D03*
D24*
X35341600Y-22540000D03*
D23*
X35341600Y-25080000D03*
X35341600Y-27620000D03*
X35341600Y-30160000D03*
X35341600Y-32700000D03*
X35341600Y-35240000D03*
X35341600Y-37780000D03*
X35341600Y-40320000D03*
X35341600Y-42860000D03*
X35341600Y-45400000D03*
X35341600Y-47940000D03*
X35341600Y-50480000D03*
X20101600Y-50480000D03*
X20101600Y-47940000D03*
X20101600Y-45400000D03*
X20101600Y-42860000D03*
X20101600Y-40320000D03*
X20101600Y-37780000D03*
X20101600Y-35240000D03*
X20101600Y-32700000D03*
X20101600Y-30160000D03*
X20101600Y-27620000D03*
X20101600Y-25080000D03*
X20101600Y-22540000D03*
D25*
X27721600Y-28545500D03*
X27721600Y-26345500D03*
G04 #@! TA.AperFunction,SMDPad,CuDef*
G36*
G01*
X30293750Y-26157000D02*
X30806250Y-26157000D01*
G75*
G02*
X31025000Y-26375750I0J-218750D01*
G01*
X31025000Y-26813250D01*
G75*
G02*
X30806250Y-27032000I-218750J0D01*
G01*
X30293750Y-27032000D01*
G75*
G02*
X30075000Y-26813250I0J218750D01*
G01*
X30075000Y-26375750D01*
G75*
G02*
X30293750Y-26157000I218750J0D01*
G01*
G37*
G04 #@! TD.AperFunction*
G04 #@! TA.AperFunction,SMDPad,CuDef*
G36*
G01*
X30293750Y-27732000D02*
X30806250Y-27732000D01*
G75*
G02*
X31025000Y-27950750I0J-218750D01*
G01*
X31025000Y-28388250D01*
G75*
G02*
X30806250Y-28607000I-218750J0D01*
G01*
X30293750Y-28607000D01*
G75*
G02*
X30075000Y-28388250I0J218750D01*
G01*
X30075000Y-27950750D01*
G75*
G02*
X30293750Y-27732000I218750J0D01*
G01*
G37*
G04 #@! TD.AperFunction*
G04 #@! TA.AperFunction,SMDPad,CuDef*
G36*
G01*
X32406250Y-30112500D02*
X31893750Y-30112500D01*
G75*
G02*
X31675000Y-29893750I0J218750D01*
G01*
X31675000Y-29456250D01*
G75*
G02*
X31893750Y-29237500I218750J0D01*
G01*
X32406250Y-29237500D01*
G75*
G02*
X32625000Y-29456250I0J-218750D01*
G01*
X32625000Y-29893750D01*
G75*
G02*
X32406250Y-30112500I-218750J0D01*
G01*
G37*
G04 #@! TD.AperFunction*
G04 #@! TA.AperFunction,SMDPad,CuDef*
G36*
G01*
X32406250Y-31687500D02*
X31893750Y-31687500D01*
G75*
G02*
X31675000Y-31468750I0J218750D01*
G01*
X31675000Y-31031250D01*
G75*
G02*
X31893750Y-30812500I218750J0D01*
G01*
X32406250Y-30812500D01*
G75*
G02*
X32625000Y-31031250I0J-218750D01*
G01*
X32625000Y-31468750D01*
G75*
G02*
X32406250Y-31687500I-218750J0D01*
G01*
G37*
G04 #@! TD.AperFunction*
D26*
X23669500Y-28334500D03*
X23669500Y-26434500D03*
X21669500Y-27384500D03*
G04 #@! TA.AperFunction,SMDPad,CuDef*
G36*
G01*
X24671350Y-27732000D02*
X25183850Y-27732000D01*
G75*
G02*
X25402600Y-27950750I0J-218750D01*
G01*
X25402600Y-28388250D01*
G75*
G02*
X25183850Y-28607000I-218750J0D01*
G01*
X24671350Y-28607000D01*
G75*
G02*
X24452600Y-28388250I0J218750D01*
G01*
X24452600Y-27950750D01*
G75*
G02*
X24671350Y-27732000I218750J0D01*
G01*
G37*
G04 #@! TD.AperFunction*
G04 #@! TA.AperFunction,SMDPad,CuDef*
G36*
G01*
X24671350Y-26157000D02*
X25183850Y-26157000D01*
G75*
G02*
X25402600Y-26375750I0J-218750D01*
G01*
X25402600Y-26813250D01*
G75*
G02*
X25183850Y-27032000I-218750J0D01*
G01*
X24671350Y-27032000D01*
G75*
G02*
X24452600Y-26813250I0J218750D01*
G01*
X24452600Y-26375750D01*
G75*
G02*
X24671350Y-26157000I218750J0D01*
G01*
G37*
G04 #@! TD.AperFunction*
G04 #@! TA.AperFunction,SMDPad,CuDef*
G36*
G01*
X25941350Y-27732000D02*
X26453850Y-27732000D01*
G75*
G02*
X26672600Y-27950750I0J-218750D01*
G01*
X26672600Y-28388250D01*
G75*
G02*
X26453850Y-28607000I-218750J0D01*
G01*
X25941350Y-28607000D01*
G75*
G02*
X25722600Y-28388250I0J218750D01*
G01*
X25722600Y-27950750D01*
G75*
G02*
X25941350Y-27732000I218750J0D01*
G01*
G37*
G04 #@! TD.AperFunction*
G04 #@! TA.AperFunction,SMDPad,CuDef*
G36*
G01*
X25941350Y-26157000D02*
X26453850Y-26157000D01*
G75*
G02*
X26672600Y-26375750I0J-218750D01*
G01*
X26672600Y-26813250D01*
G75*
G02*
X26453850Y-27032000I-218750J0D01*
G01*
X25941350Y-27032000D01*
G75*
G02*
X25722600Y-26813250I0J218750D01*
G01*
X25722600Y-26375750D01*
G75*
G02*
X25941350Y-26157000I218750J0D01*
G01*
G37*
G04 #@! TD.AperFunction*
G04 #@! TA.AperFunction,SMDPad,CuDef*
G36*
G01*
X28989350Y-27732000D02*
X29501850Y-27732000D01*
G75*
G02*
X29720600Y-27950750I0J-218750D01*
G01*
X29720600Y-28388250D01*
G75*
G02*
X29501850Y-28607000I-218750J0D01*
G01*
X28989350Y-28607000D01*
G75*
G02*
X28770600Y-28388250I0J218750D01*
G01*
X28770600Y-27950750D01*
G75*
G02*
X28989350Y-27732000I218750J0D01*
G01*
G37*
G04 #@! TD.AperFunction*
G04 #@! TA.AperFunction,SMDPad,CuDef*
G36*
G01*
X28989350Y-26157000D02*
X29501850Y-26157000D01*
G75*
G02*
X29720600Y-26375750I0J-218750D01*
G01*
X29720600Y-26813250D01*
G75*
G02*
X29501850Y-27032000I-218750J0D01*
G01*
X28989350Y-27032000D01*
G75*
G02*
X28770600Y-26813250I0J218750D01*
G01*
X28770600Y-26375750D01*
G75*
G02*
X28989350Y-26157000I218750J0D01*
G01*
G37*
G04 #@! TD.AperFunction*
G04 #@! TA.AperFunction,SMDPad,CuDef*
G36*
G01*
X23556250Y-30112500D02*
X23043750Y-30112500D01*
G75*
G02*
X22825000Y-29893750I0J218750D01*
G01*
X22825000Y-29456250D01*
G75*
G02*
X23043750Y-29237500I218750J0D01*
G01*
X23556250Y-29237500D01*
G75*
G02*
X23775000Y-29456250I0J-218750D01*
G01*
X23775000Y-29893750D01*
G75*
G02*
X23556250Y-30112500I-218750J0D01*
G01*
G37*
G04 #@! TD.AperFunction*
G04 #@! TA.AperFunction,SMDPad,CuDef*
G36*
G01*
X23556250Y-31687500D02*
X23043750Y-31687500D01*
G75*
G02*
X22825000Y-31468750I0J218750D01*
G01*
X22825000Y-31031250D01*
G75*
G02*
X23043750Y-30812500I218750J0D01*
G01*
X23556250Y-30812500D01*
G75*
G02*
X23775000Y-31031250I0J-218750D01*
G01*
X23775000Y-31468750D01*
G75*
G02*
X23556250Y-31687500I-218750J0D01*
G01*
G37*
G04 #@! TD.AperFunction*
X33766000Y-27384500D03*
X31766000Y-28334500D03*
X31766000Y-26434500D03*
G04 #@! TA.AperFunction,SMDPad,CuDef*
G36*
G01*
X30500000Y-32743750D02*
X30500000Y-33256250D01*
G75*
G02*
X30281250Y-33475000I-218750J0D01*
G01*
X29843750Y-33475000D01*
G75*
G02*
X29625000Y-33256250I0J218750D01*
G01*
X29625000Y-32743750D01*
G75*
G02*
X29843750Y-32525000I218750J0D01*
G01*
X30281250Y-32525000D01*
G75*
G02*
X30500000Y-32743750I0J-218750D01*
G01*
G37*
G04 #@! TD.AperFunction*
G04 #@! TA.AperFunction,SMDPad,CuDef*
G36*
G01*
X28925000Y-32743750D02*
X28925000Y-33256250D01*
G75*
G02*
X28706250Y-33475000I-218750J0D01*
G01*
X28268750Y-33475000D01*
G75*
G02*
X28050000Y-33256250I0J218750D01*
G01*
X28050000Y-32743750D01*
G75*
G02*
X28268750Y-32525000I218750J0D01*
G01*
X28706250Y-32525000D01*
G75*
G02*
X28925000Y-32743750I0J-218750D01*
G01*
G37*
G04 #@! TD.AperFunction*
G04 #@! TA.AperFunction,SMDPad,CuDef*
G36*
G01*
X22112500Y-33256250D02*
X22112500Y-32743750D01*
G75*
G02*
X22331250Y-32525000I218750J0D01*
G01*
X22768750Y-32525000D01*
G75*
G02*
X22987500Y-32743750I0J-218750D01*
G01*
X22987500Y-33256250D01*
G75*
G02*
X22768750Y-33475000I-218750J0D01*
G01*
X22331250Y-33475000D01*
G75*
G02*
X22112500Y-33256250I0J218750D01*
G01*
G37*
G04 #@! TD.AperFunction*
G04 #@! TA.AperFunction,SMDPad,CuDef*
G36*
G01*
X23687500Y-33256250D02*
X23687500Y-32743750D01*
G75*
G02*
X23906250Y-32525000I218750J0D01*
G01*
X24343750Y-32525000D01*
G75*
G02*
X24562500Y-32743750I0J-218750D01*
G01*
X24562500Y-33256250D01*
G75*
G02*
X24343750Y-33475000I-218750J0D01*
G01*
X23906250Y-33475000D01*
G75*
G02*
X23687500Y-33256250I0J218750D01*
G01*
G37*
G04 #@! TD.AperFunction*
G04 #@! TA.AperFunction,SMDPad,CuDef*
G36*
G01*
X26525000Y-33256250D02*
X26525000Y-32743750D01*
G75*
G02*
X26743750Y-32525000I218750J0D01*
G01*
X27181250Y-32525000D01*
G75*
G02*
X27400000Y-32743750I0J-218750D01*
G01*
X27400000Y-33256250D01*
G75*
G02*
X27181250Y-33475000I-218750J0D01*
G01*
X26743750Y-33475000D01*
G75*
G02*
X26525000Y-33256250I0J218750D01*
G01*
G37*
G04 #@! TD.AperFunction*
G04 #@! TA.AperFunction,SMDPad,CuDef*
G36*
G01*
X24950000Y-33256250D02*
X24950000Y-32743750D01*
G75*
G02*
X25168750Y-32525000I218750J0D01*
G01*
X25606250Y-32525000D01*
G75*
G02*
X25825000Y-32743750I0J-218750D01*
G01*
X25825000Y-33256250D01*
G75*
G02*
X25606250Y-33475000I-218750J0D01*
G01*
X25168750Y-33475000D01*
G75*
G02*
X24950000Y-33256250I0J218750D01*
G01*
G37*
G04 #@! TD.AperFunction*
D27*
X23725000Y-25000000D03*
X32681068Y-25128387D03*
X29638001Y-37151360D03*
X22860541Y-37221058D03*
X26339254Y-37917325D03*
X33603255Y-35448216D03*
X25321600Y-25578400D03*
X27721600Y-29278400D03*
X29725000Y-31825000D03*
X33710000Y-28460000D03*
X30120000Y-25620000D03*
X28685010Y-30525010D03*
X22319499Y-26800000D03*
X22474998Y-34009839D03*
X27970000Y-25595498D03*
X26616770Y-25630002D03*
X26968817Y-27409751D03*
X28259355Y-27004399D03*
X25471600Y-45060000D03*
X31296985Y-25662015D03*
X33601692Y-34601250D03*
X27851598Y-31700000D03*
X31400698Y-28896948D03*
X26400000Y-30540000D03*
X24350000Y-30200000D03*
D28*
X20101600Y-30160000D02*
X20101600Y-27620000D01*
X24927600Y-28169500D02*
X24980500Y-28169500D01*
X26197600Y-28169500D02*
X26197600Y-28427400D01*
X26197600Y-28169500D02*
X24927600Y-28169500D01*
X29626600Y-29457000D02*
X29626600Y-28550500D01*
X29626600Y-28550500D02*
X29245600Y-28169500D01*
X29247600Y-28167500D02*
X29245600Y-28169500D01*
X25816600Y-28808400D02*
X25816600Y-29457000D01*
X26197600Y-28427400D02*
X25816600Y-28808400D01*
X29252600Y-28162500D02*
X29245600Y-28169500D01*
X30525000Y-28162500D02*
X29252600Y-28162500D01*
X27087500Y-33103500D02*
X25840000Y-34351000D01*
X27087500Y-32900000D02*
X27087500Y-33103500D01*
X26962500Y-32900000D02*
X26596140Y-32900000D01*
X26596140Y-32900000D02*
X25491601Y-31795461D01*
X23746150Y-32124990D02*
X24075010Y-31796130D01*
X22116370Y-32124990D02*
X23746150Y-32124990D01*
X21812490Y-34758780D02*
X21812490Y-32428870D01*
X23115710Y-36062000D02*
X21812490Y-34758780D01*
X21812490Y-32428870D02*
X22116370Y-32124990D01*
X23933000Y-36062000D02*
X23115710Y-36062000D01*
X25816600Y-29457000D02*
X25816600Y-30163400D01*
X24123021Y-30826999D02*
X24075010Y-30875010D01*
X25491601Y-30858399D02*
X25463001Y-30858399D01*
X25431601Y-30826999D02*
X24123021Y-30826999D01*
X25491601Y-30858399D02*
X25491601Y-31795461D01*
X25463001Y-30858399D02*
X25431601Y-30826999D01*
X24075010Y-31796130D02*
X24075010Y-30875010D01*
X25491601Y-30488399D02*
X25491601Y-30858399D01*
X25816600Y-30163400D02*
X25491601Y-30488399D01*
X23824990Y-30624990D02*
X24075010Y-30875010D01*
X23624990Y-30624990D02*
X23824990Y-30624990D01*
X23300000Y-30300000D02*
X23624990Y-30624990D01*
X23300000Y-29787500D02*
X23300000Y-30300000D01*
X22919499Y-25805501D02*
X22919498Y-27218803D01*
X22519489Y-29140190D02*
X23166799Y-29787500D01*
X23725000Y-25000000D02*
X22919499Y-25805501D01*
X23166799Y-29787500D02*
X23300000Y-29787500D01*
X22919498Y-27218803D02*
X22519489Y-27618812D01*
X22483979Y-28254999D02*
X22519489Y-28219489D01*
X20736599Y-28254999D02*
X22483979Y-28254999D01*
X20101600Y-27620000D02*
X20736599Y-28254999D01*
X22519489Y-27618812D02*
X22519489Y-28219489D01*
X22519489Y-28219489D02*
X22519489Y-29140190D01*
X32298652Y-24730000D02*
X33296600Y-23732052D01*
X32298652Y-24745971D02*
X32298652Y-24730000D01*
X32681068Y-25128387D02*
X32298652Y-24745971D01*
X23300736Y-25000000D02*
X22146600Y-23845864D01*
X23725000Y-25000000D02*
X23300736Y-25000000D01*
X30525000Y-28162500D02*
X31187500Y-27500000D01*
X31187500Y-27500000D02*
X32090502Y-27500000D01*
X32090502Y-27500000D02*
X32516001Y-27074501D01*
X32681068Y-25868932D02*
X32516001Y-26033999D01*
X32681068Y-25128387D02*
X32681068Y-25868932D01*
X32516001Y-27074501D02*
X32516001Y-26033999D01*
X24125000Y-24600000D02*
X23725000Y-25000000D01*
X24521600Y-24600000D02*
X24125000Y-24600000D01*
X32152681Y-24600000D02*
X32681068Y-25128387D01*
X30921600Y-24600000D02*
X32152681Y-24600000D01*
X20101600Y-20000000D02*
X21000000Y-20000000D01*
X21300000Y-19700000D02*
X22146600Y-19700000D01*
X21000000Y-20000000D02*
X21300000Y-19700000D01*
X33296600Y-23700000D02*
X33296600Y-19700000D01*
X22146600Y-23700000D02*
X22146600Y-19700000D01*
X33139000Y-42920000D02*
X33839000Y-42920000D01*
X32804971Y-42585971D02*
X33139000Y-42920000D01*
X32804971Y-39877672D02*
X32804971Y-42585971D01*
X26158378Y-38584979D02*
X31512278Y-38584979D01*
X23933000Y-36871400D02*
X24101580Y-37039980D01*
X23933000Y-36062000D02*
X23933000Y-36871400D01*
X24613380Y-37039980D02*
X24921600Y-37348201D01*
X24101580Y-37039980D02*
X24613380Y-37039980D01*
X31512278Y-38584979D02*
X32804971Y-39877672D01*
X24921600Y-37348201D02*
X26158378Y-38584979D01*
X29638001Y-37151360D02*
X29638001Y-37151360D01*
X27721600Y-45400000D02*
X28811600Y-45400000D01*
X30261600Y-46850000D02*
X30261600Y-47940000D01*
X28811600Y-45400000D02*
X30261600Y-46850000D01*
X29638001Y-35321999D02*
X29638001Y-37151360D01*
X29024999Y-35091001D02*
X29195997Y-35261999D01*
X29578001Y-35261999D02*
X29638001Y-35321999D01*
X29024999Y-33437499D02*
X29024999Y-35091001D01*
X29195997Y-35261999D02*
X29578001Y-35261999D01*
X28487500Y-32900000D02*
X29024999Y-33437499D01*
X22209483Y-36570000D02*
X22860541Y-37221058D01*
X21601000Y-36570000D02*
X22209483Y-36570000D01*
X33021600Y-37310000D02*
X32146631Y-38184969D01*
X32146631Y-38184969D02*
X26606898Y-38184969D01*
X26606898Y-38184969D02*
X26339254Y-37917325D01*
X33021600Y-36029871D02*
X33021600Y-37310000D01*
X33603255Y-35448216D02*
X33021600Y-36029871D01*
X33899000Y-40320000D02*
X33839000Y-40380000D01*
X35341600Y-40320000D02*
X33899000Y-40320000D01*
X34011600Y-39110000D02*
X35341600Y-37780000D01*
X33839000Y-39110000D02*
X34011600Y-39110000D01*
X35341600Y-33640000D02*
X35341600Y-32700000D01*
X34406599Y-34575001D02*
X35341600Y-33640000D01*
X34406599Y-35493401D02*
X34406599Y-34575001D01*
X33839000Y-36061000D02*
X34406599Y-35493401D01*
X33839000Y-36570000D02*
X33839000Y-36061000D01*
X35341600Y-36432402D02*
X35341600Y-35240000D01*
X33934002Y-37840000D02*
X35341600Y-36432402D01*
X33839000Y-37840000D02*
X33934002Y-37840000D01*
X21601000Y-48000000D02*
X21000000Y-48000000D01*
X20940000Y-47940000D02*
X20101600Y-47940000D01*
X21000000Y-48000000D02*
X20940000Y-47940000D01*
X21431600Y-46730000D02*
X21601000Y-46730000D01*
X20101600Y-45400000D02*
X21431600Y-46730000D01*
X24927600Y-26594500D02*
X24927600Y-25972400D01*
X25321600Y-25578400D02*
X25321600Y-24730000D01*
X24927600Y-25972400D02*
X25321600Y-25578400D01*
X27721600Y-29278400D02*
X27721600Y-28545500D01*
X23669500Y-27852600D02*
X24927600Y-26594500D01*
X23669500Y-28334500D02*
X23669500Y-27852600D01*
X28676600Y-31657000D02*
X28119599Y-31099999D01*
X33710000Y-29772500D02*
X33725000Y-29787500D01*
X33710000Y-28460000D02*
X33710000Y-29772500D01*
X30121600Y-24730000D02*
X30121600Y-25281600D01*
X27721600Y-30702000D02*
X28119599Y-31099999D01*
X27721600Y-29278400D02*
X27721600Y-30702000D01*
X30121600Y-24600000D02*
X30121600Y-25281600D01*
X25321600Y-24600000D02*
X25321600Y-25578400D01*
X30121600Y-25618400D02*
X30120000Y-25620000D01*
X30121600Y-24600000D02*
X30121600Y-25618400D01*
X30261600Y-40320000D02*
X29326599Y-39384999D01*
X24282002Y-37840000D02*
X23801600Y-37840000D01*
X25827001Y-39384999D02*
X24282002Y-37840000D01*
X29326599Y-39384999D02*
X25827001Y-39384999D01*
X23801600Y-37840000D02*
X21601000Y-37840000D01*
X28676600Y-31657000D02*
X29557000Y-31657000D01*
X29557000Y-31657000D02*
X29725000Y-31825000D01*
X35341600Y-22540000D02*
X35341600Y-20000000D01*
X28676600Y-30516600D02*
X28685010Y-30525010D01*
X28676600Y-29457000D02*
X28676600Y-30516600D01*
X21669500Y-27384500D02*
X21734999Y-27384500D01*
X21734999Y-27384500D02*
X22319499Y-26800000D01*
X22487368Y-32962632D02*
X22550000Y-32900000D01*
X22487368Y-33740470D02*
X22487368Y-32962632D01*
X32621130Y-30525010D02*
X28685010Y-30525010D01*
X34130249Y-23751351D02*
X34130249Y-25630249D01*
X34130249Y-25630249D02*
X32925010Y-26835488D01*
X32925010Y-26835488D02*
X32925010Y-30221130D01*
X35341600Y-22540000D02*
X34130249Y-23751351D01*
X32925010Y-30221130D02*
X32621130Y-30525010D01*
X22550000Y-33934837D02*
X22474998Y-34009839D01*
X22550000Y-33000000D02*
X22550000Y-33934837D01*
X27971600Y-24730000D02*
X27971600Y-25593898D01*
X27971600Y-25593898D02*
X27970000Y-25595498D01*
X26971600Y-24730000D02*
X26969989Y-24731611D01*
X26969989Y-25276783D02*
X26616770Y-25630002D01*
X26969989Y-24731611D02*
X26969989Y-25276783D01*
X21601000Y-40380000D02*
X22988001Y-41767001D01*
X23164599Y-41767001D02*
X28378601Y-41767001D01*
X28378601Y-41767001D02*
X29326599Y-42714999D01*
X22988001Y-41767001D02*
X23164599Y-41767001D01*
X29326599Y-44464999D02*
X30261600Y-45400000D01*
X29326599Y-42714999D02*
X29326599Y-44464999D01*
X27471600Y-24730000D02*
X27471600Y-25205896D01*
X26972610Y-27405958D02*
X26968817Y-27409751D01*
X26972610Y-26137390D02*
X26972610Y-27405958D01*
X28471600Y-25209096D02*
X28570001Y-25307497D01*
X28471600Y-24730000D02*
X28471600Y-25209096D01*
X28570001Y-25307497D02*
X28570001Y-26061459D01*
X27369999Y-25307497D02*
X27369999Y-25740001D01*
X27471600Y-25205896D02*
X27369999Y-25307497D01*
X27369999Y-25740001D02*
X26972610Y-26137390D01*
X27471600Y-24600000D02*
X27471600Y-25205896D01*
X28271601Y-26992153D02*
X28259355Y-27004399D01*
X28271601Y-26359859D02*
X28271601Y-26992153D01*
X28570001Y-26061459D02*
X28271601Y-26359859D01*
X28570001Y-25288403D02*
X28570001Y-26061459D01*
X28471600Y-25190002D02*
X28570001Y-25288403D01*
X28471600Y-24600000D02*
X28471600Y-25190002D01*
X30261600Y-42860000D02*
X28768591Y-41366991D01*
X22988001Y-40497001D02*
X21601000Y-39110000D01*
X24399003Y-40497001D02*
X22988001Y-40497001D01*
X28768591Y-41366991D02*
X25268993Y-41366991D01*
X25268993Y-41366991D02*
X24399003Y-40497001D01*
X34131600Y-41650000D02*
X33839000Y-41650000D01*
X35341600Y-42860000D02*
X34131600Y-41650000D01*
X35341600Y-50480000D02*
X35341600Y-49367320D01*
X34014000Y-48000000D02*
X35341600Y-49327600D01*
X33839000Y-48000000D02*
X34014000Y-48000000D01*
X35341600Y-49327600D02*
X35341600Y-49367320D01*
X21505998Y-41650000D02*
X21601000Y-41650000D01*
X20175998Y-40320000D02*
X21505998Y-41650000D01*
X20101600Y-40320000D02*
X20175998Y-40320000D01*
X21541000Y-42860000D02*
X21601000Y-42920000D01*
X20101600Y-42860000D02*
X21541000Y-42860000D01*
X21787499Y-29862500D02*
X21775001Y-29874998D01*
X20949990Y-30562510D02*
X21725000Y-29787500D01*
X21412480Y-34924469D02*
X21412480Y-32258620D01*
X33839000Y-46730000D02*
X33014301Y-46730000D01*
X23928002Y-37439990D02*
X21412480Y-34924469D01*
X21412480Y-32258620D02*
X20949990Y-31796130D01*
X33014301Y-46730000D02*
X32350000Y-46065699D01*
X20949990Y-31796130D02*
X20949990Y-30562510D01*
X24091610Y-37439990D02*
X23928002Y-37439990D01*
X32350000Y-46065699D02*
X32350000Y-39988400D01*
X24091610Y-37439990D02*
X24447691Y-37439990D01*
X24447691Y-37439990D02*
X25992689Y-38984989D01*
X31346589Y-38984989D02*
X32350000Y-39988400D01*
X25992689Y-38984989D02*
X31346589Y-38984989D01*
X35341600Y-45400000D02*
X34650000Y-45400000D01*
X34590000Y-45460000D02*
X33839000Y-45460000D01*
X34650000Y-45400000D02*
X34590000Y-45460000D01*
X35341600Y-46867598D02*
X34579001Y-46104999D01*
X35341600Y-47940000D02*
X35341600Y-46867598D01*
X34579001Y-46104999D02*
X32954999Y-46104999D01*
X32954999Y-46104999D02*
X32750000Y-45900000D01*
X32750000Y-45900000D02*
X32750000Y-44500000D01*
X33060000Y-44190000D02*
X33839000Y-44190000D01*
X32750000Y-44500000D02*
X33060000Y-44190000D01*
X33300000Y-33950000D02*
X32899000Y-34351000D01*
X32899000Y-34351000D02*
X32190000Y-34351000D01*
X33300000Y-33950000D02*
X33300000Y-32650000D01*
X30920000Y-34351000D02*
X30920000Y-33380000D01*
X31650000Y-32650000D02*
X32100000Y-32650000D01*
X30920000Y-33380000D02*
X31650000Y-32650000D01*
X22521010Y-48649990D02*
X23679000Y-47492000D01*
X20101600Y-49374120D02*
X20825730Y-48649990D01*
X20825730Y-48649990D02*
X22521010Y-48649990D01*
X20101600Y-50480000D02*
X20101600Y-49374120D01*
X24954599Y-45577001D02*
X25471600Y-45060000D01*
X21601000Y-45460000D02*
X21718001Y-45577001D01*
X21718001Y-45577001D02*
X24954599Y-45577001D01*
X26274599Y-44307001D02*
X27721600Y-42860000D01*
X21718001Y-44307001D02*
X26274599Y-44307001D01*
X21601000Y-44190000D02*
X21718001Y-44307001D01*
X30678000Y-26434500D02*
X30500000Y-26612500D01*
X31766000Y-26434500D02*
X30678000Y-26434500D01*
X31766000Y-26131030D02*
X31296985Y-25662015D01*
X31766000Y-26434500D02*
X31766000Y-26131030D01*
X32701471Y-35501471D02*
X33601692Y-34601250D01*
X32621590Y-35581352D02*
X32701471Y-35501471D01*
X28380000Y-34351000D02*
X28380000Y-36794002D01*
X29370957Y-37784959D02*
X31980943Y-37784959D01*
X28380000Y-36794002D02*
X29370957Y-37784959D01*
X31980943Y-37784959D02*
X32621590Y-37144312D01*
X32621590Y-37144312D02*
X32621590Y-35581352D01*
X25971600Y-26368500D02*
X25971600Y-24730000D01*
X26197600Y-26594500D02*
X25971600Y-26368500D01*
X28971600Y-24600000D02*
X28971600Y-25271600D01*
X29245600Y-25545600D02*
X29245600Y-26594500D01*
X28971600Y-25271600D02*
X29245600Y-25545600D01*
X35341600Y-30160000D02*
X35341600Y-29016600D01*
X33766000Y-27441000D02*
X33766000Y-27384500D01*
X35341600Y-29016600D02*
X33766000Y-27441000D01*
X21950000Y-31362500D02*
X21475000Y-31362500D01*
X21725000Y-31362500D02*
X23300000Y-31362500D01*
X27808598Y-31657000D02*
X27851598Y-31700000D01*
X26766600Y-31657000D02*
X27808598Y-31657000D01*
X27110000Y-34351000D02*
X27700010Y-33760990D01*
X31766000Y-28531646D02*
X31400698Y-28896948D01*
X31766000Y-28334500D02*
X31766000Y-28531646D01*
X27700010Y-33760990D02*
X27700010Y-31851588D01*
X27700010Y-31851588D02*
X27851598Y-31700000D01*
X30576600Y-32260900D02*
X29937500Y-32900000D01*
X30576600Y-31657000D02*
X30576600Y-32260900D01*
X25387500Y-32900000D02*
X24125000Y-32900000D01*
X25214999Y-33072501D02*
X25387500Y-32900000D01*
X27743000Y-35381400D02*
X27623599Y-35261999D01*
X25214999Y-35091001D02*
X25214999Y-33072501D01*
X27743000Y-36062000D02*
X27743000Y-35381400D01*
X27623599Y-35261999D02*
X25385997Y-35261999D01*
X25385997Y-35261999D02*
X25214999Y-35091001D01*
X33500000Y-31362500D02*
X32150000Y-31362500D01*
X32150000Y-29787500D02*
X32137499Y-29800001D01*
X30907100Y-29787500D02*
X30576600Y-29457000D01*
X32150000Y-29787500D02*
X30907100Y-29787500D01*
X27721600Y-26345500D02*
X27721600Y-26654152D01*
X26766600Y-29457000D02*
X26766600Y-30173400D01*
X26766600Y-30173400D02*
X26400000Y-30540000D01*
X27721600Y-26654152D02*
X27659354Y-26716398D01*
X27659354Y-26716398D02*
X27659354Y-27567744D01*
X24866600Y-29457000D02*
X24866600Y-29683400D01*
X24866600Y-29683400D02*
X24350000Y-30200000D01*
X24444101Y-29034501D02*
X24866600Y-29457000D01*
X23669500Y-27034500D02*
X22919499Y-27784501D01*
X23669500Y-26434500D02*
X23669500Y-27034500D01*
X22919499Y-27784501D02*
X22919499Y-28974501D01*
X22919499Y-28974501D02*
X22979499Y-29034501D01*
X22979499Y-29034501D02*
X24444101Y-29034501D01*
X26972610Y-29250990D02*
X26766600Y-29457000D01*
X27659354Y-27567744D02*
X26972610Y-28254488D01*
X26972610Y-28254488D02*
X26972610Y-29250990D01*
M02*
