M48
; DRILL file {KiCad (5.1.6)-1} date 10/03/20 02:27:24
; FORMAT={-:-/ absolute / inch / decimal}
; #@! TF.CreationDate,2020-10-03T02:27:24+08:00
; #@! TF.GenerationSoftware,Kicad,Pcbnew,(5.1.6)-1
; #@! TF.FileFunction,Plated,1,2,PTH
FMAT,2
INCH
T1C0.0130
T2C0.0197
T3C0.0236
T4C0.0335
%
G90
G05
T1
X0.8787Y-1.0551
X0.8848Y-1.339
X0.9Y-1.4654
X0.9341Y-0.9843
X0.9587Y-1.189
X0.9969Y-1.007
X1.0028Y-1.774
X1.037Y-1.4928
X1.0394Y-1.2024
X1.0479Y-1.0091
X1.0618Y-1.0791
X1.0914Y-1.1527
X1.0965Y-1.248
X1.1012Y-1.0077
X1.1126Y-1.0632
X1.1293Y-1.2018
X1.1669Y-1.4627
X1.1703Y-1.253
X1.1858Y-1.0087
X1.2322Y-1.0103
X1.2362Y-1.1377
X1.2736Y-1.7146
X1.2867Y-0.9893
X1.3229Y-1.3623
X1.323Y-1.3956
X1.3272Y-1.1205
T2
X0.9322Y-1.5198
X0.9322Y-1.5698
X0.9322Y-1.6198
X0.9322Y-1.6698
X0.9322Y-1.7198
X0.9322Y-1.7698
X0.9322Y-1.8198
X0.9322Y-1.8698
X0.9422Y-1.4198
X0.9922Y-1.4198
X1.0422Y-1.4198
X1.0922Y-1.4198
X1.1422Y-1.4198
X1.1922Y-1.4198
X1.2422Y-1.4198
T4
X1.1914Y-1.5874
X1.1914Y-1.6874
X1.1914Y-1.7874
X1.1914Y-1.8874
X1.0914Y-1.5874
X1.0914Y-1.6874
X1.0914Y-1.7874
X1.0914Y-1.8874
X0.7914Y-0.8874
X0.7914Y-0.9874
X0.7914Y-1.0874
X0.7914Y-1.1874
X0.7914Y-1.2874
X0.7914Y-1.3874
X0.7914Y-1.4874
X0.7914Y-1.5874
X0.7914Y-1.6874
X0.7914Y-1.7874
X0.7914Y-1.8874
X0.7914Y-1.9874
X1.3914Y-0.8874
X1.3914Y-0.9874
X1.3914Y-1.0874
X1.3914Y-1.1874
X1.3914Y-1.2874
X1.3914Y-1.3874
X1.3914Y-1.4874
X1.3914Y-1.5874
X1.3914Y-1.6874
X1.3914Y-1.7874
X1.3914Y-1.8874
X1.3914Y-1.9874
X0.7914Y-0.7874
X1.3914Y-0.7874
T3
G00X0.8719Y-0.752
M15
G01X0.8719Y-0.7992
M16
G05
G00X0.8719Y-0.9173
M15
G01X0.8719Y-0.9488
M16
G05
G00X1.3109Y-0.752
M15
G01X1.3109Y-0.7992
M16
G05
G00X1.3109Y-0.9173
M15
G01X1.3109Y-0.9488
M16
G05
T0
M30
