G04 #@! TF.GenerationSoftware,KiCad,Pcbnew,(5.1.6)-1*
G04 #@! TF.CreationDate,2020-10-02T00:20:03+08:00*
G04 #@! TF.ProjectId,nrfmicro,6e72666d-6963-4726-9f2e-6b696361645f,rev?*
G04 #@! TF.SameCoordinates,Original*
G04 #@! TF.FileFunction,Soldermask,Top*
G04 #@! TF.FilePolarity,Negative*
%FSLAX46Y46*%
G04 Gerber Fmt 4.6, Leading zero omitted, Abs format (unit mm)*
G04 Created by KiCad (PCBNEW (5.1.6)-1) date 2020-10-02 00:20:03*
%MOMM*%
%LPD*%
G01*
G04 APERTURE LIST*
%ADD10C,0.100000*%
G04 APERTURE END LIST*
D10*
G36*
X35526823Y-49869403D02*
G01*
X35584604Y-49893337D01*
X35642386Y-49917271D01*
X35746386Y-49986761D01*
X35834839Y-50075214D01*
X35904329Y-50179214D01*
X35952197Y-50294778D01*
X35976600Y-50417459D01*
X35976600Y-50542541D01*
X35952197Y-50665222D01*
X35904329Y-50780786D01*
X35834839Y-50884786D01*
X35746386Y-50973239D01*
X35642386Y-51042729D01*
X35584604Y-51066663D01*
X35526823Y-51090597D01*
X35404142Y-51115000D01*
X35279058Y-51115000D01*
X35156377Y-51090597D01*
X35098596Y-51066663D01*
X35040814Y-51042729D01*
X34936814Y-50973239D01*
X34848361Y-50884786D01*
X34778871Y-50780786D01*
X34731003Y-50665222D01*
X34706600Y-50542541D01*
X34706600Y-50417459D01*
X34731003Y-50294778D01*
X34778871Y-50179214D01*
X34848361Y-50075214D01*
X34936814Y-49986761D01*
X35040814Y-49917271D01*
X35098596Y-49893337D01*
X35156377Y-49869403D01*
X35279058Y-49845000D01*
X35404142Y-49845000D01*
X35526823Y-49869403D01*
G37*
G36*
X20286823Y-49869403D02*
G01*
X20344604Y-49893337D01*
X20402386Y-49917271D01*
X20506386Y-49986761D01*
X20594839Y-50075214D01*
X20664329Y-50179214D01*
X20712197Y-50294778D01*
X20736600Y-50417459D01*
X20736600Y-50542541D01*
X20712197Y-50665222D01*
X20664329Y-50780786D01*
X20594839Y-50884786D01*
X20506386Y-50973239D01*
X20402386Y-51042729D01*
X20344604Y-51066663D01*
X20286823Y-51090597D01*
X20164142Y-51115000D01*
X20039058Y-51115000D01*
X19916377Y-51090597D01*
X19858596Y-51066663D01*
X19800814Y-51042729D01*
X19696814Y-50973239D01*
X19608361Y-50884786D01*
X19538871Y-50780786D01*
X19491003Y-50665222D01*
X19466600Y-50542541D01*
X19466600Y-50417459D01*
X19491003Y-50294778D01*
X19538871Y-50179214D01*
X19608361Y-50075214D01*
X19696814Y-49986761D01*
X19800814Y-49917271D01*
X19858596Y-49893337D01*
X19916377Y-49869403D01*
X20039058Y-49845000D01*
X20164142Y-49845000D01*
X20286823Y-49869403D01*
G37*
G36*
X20286823Y-47329403D02*
G01*
X20344604Y-47353337D01*
X20402386Y-47377271D01*
X20506386Y-47446761D01*
X20594839Y-47535214D01*
X20664329Y-47639214D01*
X20712197Y-47754778D01*
X20736600Y-47877459D01*
X20736600Y-48002541D01*
X20712197Y-48125222D01*
X20664329Y-48240786D01*
X20594839Y-48344786D01*
X20506386Y-48433239D01*
X20402386Y-48502729D01*
X20344604Y-48526663D01*
X20286823Y-48550597D01*
X20164142Y-48575000D01*
X20039058Y-48575000D01*
X19916377Y-48550597D01*
X19858596Y-48526663D01*
X19800814Y-48502729D01*
X19696814Y-48433239D01*
X19608361Y-48344786D01*
X19538871Y-48240786D01*
X19491003Y-48125222D01*
X19466600Y-48002541D01*
X19466600Y-47877459D01*
X19491003Y-47754778D01*
X19538871Y-47639214D01*
X19608361Y-47535214D01*
X19696814Y-47446761D01*
X19800814Y-47377271D01*
X19858596Y-47353337D01*
X19916377Y-47329403D01*
X20039058Y-47305000D01*
X20164142Y-47305000D01*
X20286823Y-47329403D01*
G37*
G36*
X35526823Y-47329403D02*
G01*
X35584604Y-47353337D01*
X35642386Y-47377271D01*
X35746386Y-47446761D01*
X35834839Y-47535214D01*
X35904329Y-47639214D01*
X35952197Y-47754778D01*
X35976600Y-47877459D01*
X35976600Y-48002541D01*
X35952197Y-48125222D01*
X35904329Y-48240786D01*
X35834839Y-48344786D01*
X35746386Y-48433239D01*
X35642386Y-48502729D01*
X35584604Y-48526663D01*
X35526823Y-48550597D01*
X35404142Y-48575000D01*
X35279058Y-48575000D01*
X35156377Y-48550597D01*
X35098596Y-48526663D01*
X35040814Y-48502729D01*
X34936814Y-48433239D01*
X34848361Y-48344786D01*
X34778871Y-48240786D01*
X34731003Y-48125222D01*
X34706600Y-48002541D01*
X34706600Y-47877459D01*
X34731003Y-47754778D01*
X34778871Y-47639214D01*
X34848361Y-47535214D01*
X34936814Y-47446761D01*
X35040814Y-47377271D01*
X35098596Y-47353337D01*
X35156377Y-47329403D01*
X35279058Y-47305000D01*
X35404142Y-47305000D01*
X35526823Y-47329403D01*
G37*
G36*
X30896600Y-48575000D02*
G01*
X29626600Y-48575000D01*
X29626600Y-47305000D01*
X30896600Y-47305000D01*
X30896600Y-48575000D01*
G37*
G36*
X27906823Y-47329403D02*
G01*
X27964604Y-47353337D01*
X28022386Y-47377271D01*
X28126386Y-47446761D01*
X28214839Y-47535214D01*
X28284329Y-47639214D01*
X28332197Y-47754778D01*
X28356600Y-47877459D01*
X28356600Y-48002541D01*
X28332197Y-48125222D01*
X28284329Y-48240786D01*
X28214839Y-48344786D01*
X28126386Y-48433239D01*
X28022386Y-48502729D01*
X27964604Y-48526663D01*
X27906823Y-48550597D01*
X27784142Y-48575000D01*
X27659058Y-48575000D01*
X27536377Y-48550597D01*
X27478596Y-48526663D01*
X27420814Y-48502729D01*
X27316814Y-48433239D01*
X27228361Y-48344786D01*
X27158871Y-48240786D01*
X27111003Y-48125222D01*
X27086600Y-48002541D01*
X27086600Y-47877459D01*
X27111003Y-47754778D01*
X27158871Y-47639214D01*
X27228361Y-47535214D01*
X27316814Y-47446761D01*
X27420814Y-47377271D01*
X27478596Y-47353337D01*
X27536377Y-47329403D01*
X27659058Y-47305000D01*
X27784142Y-47305000D01*
X27906823Y-47329403D01*
G37*
G36*
X22101000Y-48325000D02*
G01*
X21101000Y-48325000D01*
X21101000Y-47675000D01*
X22101000Y-47675000D01*
X22101000Y-48325000D01*
G37*
G36*
X34339000Y-48325000D02*
G01*
X33339000Y-48325000D01*
X33339000Y-47675000D01*
X34339000Y-47675000D01*
X34339000Y-48325000D01*
G37*
G36*
X24179000Y-47817000D02*
G01*
X23179000Y-47817000D01*
X23179000Y-47167000D01*
X24179000Y-47167000D01*
X24179000Y-47817000D01*
G37*
G36*
X34339000Y-47055000D02*
G01*
X33339000Y-47055000D01*
X33339000Y-46405000D01*
X34339000Y-46405000D01*
X34339000Y-47055000D01*
G37*
G36*
X22101000Y-47055000D02*
G01*
X21101000Y-47055000D01*
X21101000Y-46405000D01*
X22101000Y-46405000D01*
X22101000Y-47055000D01*
G37*
G36*
X24179000Y-46547000D02*
G01*
X23179000Y-46547000D01*
X23179000Y-45897000D01*
X24179000Y-45897000D01*
X24179000Y-46547000D01*
G37*
G36*
X35526823Y-44789403D02*
G01*
X35584604Y-44813337D01*
X35642386Y-44837271D01*
X35746386Y-44906761D01*
X35834839Y-44995214D01*
X35904329Y-45099214D01*
X35952197Y-45214778D01*
X35976600Y-45337459D01*
X35976600Y-45462541D01*
X35952197Y-45585222D01*
X35904329Y-45700786D01*
X35834839Y-45804786D01*
X35746386Y-45893239D01*
X35642386Y-45962729D01*
X35584604Y-45986663D01*
X35526823Y-46010597D01*
X35404142Y-46035000D01*
X35279058Y-46035000D01*
X35156377Y-46010597D01*
X35098596Y-45986663D01*
X35040814Y-45962729D01*
X34936814Y-45893239D01*
X34848361Y-45804786D01*
X34778871Y-45700786D01*
X34731003Y-45585222D01*
X34706600Y-45462541D01*
X34706600Y-45337459D01*
X34731003Y-45214778D01*
X34778871Y-45099214D01*
X34848361Y-44995214D01*
X34936814Y-44906761D01*
X35040814Y-44837271D01*
X35098596Y-44813337D01*
X35156377Y-44789403D01*
X35279058Y-44765000D01*
X35404142Y-44765000D01*
X35526823Y-44789403D01*
G37*
G36*
X30446823Y-44789403D02*
G01*
X30504604Y-44813337D01*
X30562386Y-44837271D01*
X30666386Y-44906761D01*
X30754839Y-44995214D01*
X30824329Y-45099214D01*
X30872197Y-45214778D01*
X30896600Y-45337459D01*
X30896600Y-45462541D01*
X30872197Y-45585222D01*
X30824329Y-45700786D01*
X30754839Y-45804786D01*
X30666386Y-45893239D01*
X30562386Y-45962729D01*
X30504604Y-45986663D01*
X30446823Y-46010597D01*
X30324142Y-46035000D01*
X30199058Y-46035000D01*
X30076377Y-46010597D01*
X30018596Y-45986663D01*
X29960814Y-45962729D01*
X29856814Y-45893239D01*
X29768361Y-45804786D01*
X29698871Y-45700786D01*
X29651003Y-45585222D01*
X29626600Y-45462541D01*
X29626600Y-45337459D01*
X29651003Y-45214778D01*
X29698871Y-45099214D01*
X29768361Y-44995214D01*
X29856814Y-44906761D01*
X29960814Y-44837271D01*
X30018596Y-44813337D01*
X30076377Y-44789403D01*
X30199058Y-44765000D01*
X30324142Y-44765000D01*
X30446823Y-44789403D01*
G37*
G36*
X20286823Y-44789403D02*
G01*
X20344604Y-44813337D01*
X20402386Y-44837271D01*
X20506386Y-44906761D01*
X20594839Y-44995214D01*
X20664329Y-45099214D01*
X20712197Y-45214778D01*
X20736600Y-45337459D01*
X20736600Y-45462541D01*
X20712197Y-45585222D01*
X20664329Y-45700786D01*
X20594839Y-45804786D01*
X20506386Y-45893239D01*
X20402386Y-45962729D01*
X20344604Y-45986663D01*
X20286823Y-46010597D01*
X20164142Y-46035000D01*
X20039058Y-46035000D01*
X19916377Y-46010597D01*
X19858596Y-45986663D01*
X19800814Y-45962729D01*
X19696814Y-45893239D01*
X19608361Y-45804786D01*
X19538871Y-45700786D01*
X19491003Y-45585222D01*
X19466600Y-45462541D01*
X19466600Y-45337459D01*
X19491003Y-45214778D01*
X19538871Y-45099214D01*
X19608361Y-44995214D01*
X19696814Y-44906761D01*
X19800814Y-44837271D01*
X19858596Y-44813337D01*
X19916377Y-44789403D01*
X20039058Y-44765000D01*
X20164142Y-44765000D01*
X20286823Y-44789403D01*
G37*
G36*
X28356600Y-46035000D02*
G01*
X27086600Y-46035000D01*
X27086600Y-44765000D01*
X28356600Y-44765000D01*
X28356600Y-46035000D01*
G37*
G36*
X34339000Y-45785000D02*
G01*
X33339000Y-45785000D01*
X33339000Y-45135000D01*
X34339000Y-45135000D01*
X34339000Y-45785000D01*
G37*
G36*
X22101000Y-45785000D02*
G01*
X21101000Y-45785000D01*
X21101000Y-45135000D01*
X22101000Y-45135000D01*
X22101000Y-45785000D01*
G37*
G36*
X24179000Y-45277000D02*
G01*
X23179000Y-45277000D01*
X23179000Y-44627000D01*
X24179000Y-44627000D01*
X24179000Y-45277000D01*
G37*
G36*
X34339000Y-44515000D02*
G01*
X33339000Y-44515000D01*
X33339000Y-43865000D01*
X34339000Y-43865000D01*
X34339000Y-44515000D01*
G37*
G36*
X22101000Y-44515000D02*
G01*
X21101000Y-44515000D01*
X21101000Y-43865000D01*
X22101000Y-43865000D01*
X22101000Y-44515000D01*
G37*
G36*
X24179000Y-44007000D02*
G01*
X23179000Y-44007000D01*
X23179000Y-43357000D01*
X24179000Y-43357000D01*
X24179000Y-44007000D01*
G37*
G36*
X35526823Y-42249403D02*
G01*
X35584604Y-42273337D01*
X35642386Y-42297271D01*
X35746386Y-42366761D01*
X35834839Y-42455214D01*
X35904329Y-42559214D01*
X35952197Y-42674778D01*
X35976600Y-42797459D01*
X35976600Y-42922541D01*
X35952197Y-43045222D01*
X35904329Y-43160786D01*
X35834839Y-43264786D01*
X35746386Y-43353239D01*
X35642386Y-43422729D01*
X35584604Y-43446663D01*
X35526823Y-43470597D01*
X35404142Y-43495000D01*
X35279058Y-43495000D01*
X35156377Y-43470597D01*
X35098596Y-43446663D01*
X35040814Y-43422729D01*
X34936814Y-43353239D01*
X34848361Y-43264786D01*
X34778871Y-43160786D01*
X34731003Y-43045222D01*
X34706600Y-42922541D01*
X34706600Y-42797459D01*
X34731003Y-42674778D01*
X34778871Y-42559214D01*
X34848361Y-42455214D01*
X34936814Y-42366761D01*
X35040814Y-42297271D01*
X35098596Y-42273337D01*
X35156377Y-42249403D01*
X35279058Y-42225000D01*
X35404142Y-42225000D01*
X35526823Y-42249403D01*
G37*
G36*
X30446823Y-42249403D02*
G01*
X30504604Y-42273337D01*
X30562386Y-42297271D01*
X30666386Y-42366761D01*
X30754839Y-42455214D01*
X30824329Y-42559214D01*
X30872197Y-42674778D01*
X30896600Y-42797459D01*
X30896600Y-42922541D01*
X30872197Y-43045222D01*
X30824329Y-43160786D01*
X30754839Y-43264786D01*
X30666386Y-43353239D01*
X30562386Y-43422729D01*
X30504604Y-43446663D01*
X30446823Y-43470597D01*
X30324142Y-43495000D01*
X30199058Y-43495000D01*
X30076377Y-43470597D01*
X30018596Y-43446663D01*
X29960814Y-43422729D01*
X29856814Y-43353239D01*
X29768361Y-43264786D01*
X29698871Y-43160786D01*
X29651003Y-43045222D01*
X29626600Y-42922541D01*
X29626600Y-42797459D01*
X29651003Y-42674778D01*
X29698871Y-42559214D01*
X29768361Y-42455214D01*
X29856814Y-42366761D01*
X29960814Y-42297271D01*
X30018596Y-42273337D01*
X30076377Y-42249403D01*
X30199058Y-42225000D01*
X30324142Y-42225000D01*
X30446823Y-42249403D01*
G37*
G36*
X20286823Y-42249403D02*
G01*
X20344604Y-42273337D01*
X20402386Y-42297271D01*
X20506386Y-42366761D01*
X20594839Y-42455214D01*
X20664329Y-42559214D01*
X20712197Y-42674778D01*
X20736600Y-42797459D01*
X20736600Y-42922541D01*
X20712197Y-43045222D01*
X20664329Y-43160786D01*
X20594839Y-43264786D01*
X20506386Y-43353239D01*
X20402386Y-43422729D01*
X20344604Y-43446663D01*
X20286823Y-43470597D01*
X20164142Y-43495000D01*
X20039058Y-43495000D01*
X19916377Y-43470597D01*
X19858596Y-43446663D01*
X19800814Y-43422729D01*
X19696814Y-43353239D01*
X19608361Y-43264786D01*
X19538871Y-43160786D01*
X19491003Y-43045222D01*
X19466600Y-42922541D01*
X19466600Y-42797459D01*
X19491003Y-42674778D01*
X19538871Y-42559214D01*
X19608361Y-42455214D01*
X19696814Y-42366761D01*
X19800814Y-42297271D01*
X19858596Y-42273337D01*
X19916377Y-42249403D01*
X20039058Y-42225000D01*
X20164142Y-42225000D01*
X20286823Y-42249403D01*
G37*
G36*
X27906823Y-42249403D02*
G01*
X27964604Y-42273337D01*
X28022386Y-42297271D01*
X28126386Y-42366761D01*
X28214839Y-42455214D01*
X28284329Y-42559214D01*
X28332197Y-42674778D01*
X28356600Y-42797459D01*
X28356600Y-42922541D01*
X28332197Y-43045222D01*
X28284329Y-43160786D01*
X28214839Y-43264786D01*
X28126386Y-43353239D01*
X28022386Y-43422729D01*
X27964604Y-43446663D01*
X27906823Y-43470597D01*
X27784142Y-43495000D01*
X27659058Y-43495000D01*
X27536377Y-43470597D01*
X27478596Y-43446663D01*
X27420814Y-43422729D01*
X27316814Y-43353239D01*
X27228361Y-43264786D01*
X27158871Y-43160786D01*
X27111003Y-43045222D01*
X27086600Y-42922541D01*
X27086600Y-42797459D01*
X27111003Y-42674778D01*
X27158871Y-42559214D01*
X27228361Y-42455214D01*
X27316814Y-42366761D01*
X27420814Y-42297271D01*
X27478596Y-42273337D01*
X27536377Y-42249403D01*
X27659058Y-42225000D01*
X27784142Y-42225000D01*
X27906823Y-42249403D01*
G37*
G36*
X22101000Y-43245000D02*
G01*
X21101000Y-43245000D01*
X21101000Y-42595000D01*
X22101000Y-42595000D01*
X22101000Y-43245000D01*
G37*
G36*
X34339000Y-43245000D02*
G01*
X33339000Y-43245000D01*
X33339000Y-42595000D01*
X34339000Y-42595000D01*
X34339000Y-43245000D01*
G37*
G36*
X24179000Y-42737000D02*
G01*
X23179000Y-42737000D01*
X23179000Y-42087000D01*
X24179000Y-42087000D01*
X24179000Y-42737000D01*
G37*
G36*
X22101000Y-41975000D02*
G01*
X21101000Y-41975000D01*
X21101000Y-41325000D01*
X22101000Y-41325000D01*
X22101000Y-41975000D01*
G37*
G36*
X34339000Y-41975000D02*
G01*
X33339000Y-41975000D01*
X33339000Y-41325000D01*
X34339000Y-41325000D01*
X34339000Y-41975000D01*
G37*
G36*
X24179000Y-41467000D02*
G01*
X23179000Y-41467000D01*
X23179000Y-40817000D01*
X24179000Y-40817000D01*
X24179000Y-41467000D01*
G37*
G36*
X20286823Y-39709403D02*
G01*
X20344604Y-39733337D01*
X20402386Y-39757271D01*
X20506386Y-39826761D01*
X20594839Y-39915214D01*
X20664329Y-40019214D01*
X20712197Y-40134778D01*
X20736600Y-40257459D01*
X20736600Y-40382541D01*
X20712197Y-40505222D01*
X20664329Y-40620786D01*
X20594839Y-40724786D01*
X20506386Y-40813239D01*
X20402386Y-40882729D01*
X20344604Y-40906663D01*
X20286823Y-40930597D01*
X20164142Y-40955000D01*
X20039058Y-40955000D01*
X19916377Y-40930597D01*
X19858596Y-40906663D01*
X19800814Y-40882729D01*
X19696814Y-40813239D01*
X19608361Y-40724786D01*
X19538871Y-40620786D01*
X19491003Y-40505222D01*
X19466600Y-40382541D01*
X19466600Y-40257459D01*
X19491003Y-40134778D01*
X19538871Y-40019214D01*
X19608361Y-39915214D01*
X19696814Y-39826761D01*
X19800814Y-39757271D01*
X19858596Y-39733337D01*
X19916377Y-39709403D01*
X20039058Y-39685000D01*
X20164142Y-39685000D01*
X20286823Y-39709403D01*
G37*
G36*
X35526823Y-39709403D02*
G01*
X35584604Y-39733337D01*
X35642386Y-39757271D01*
X35746386Y-39826761D01*
X35834839Y-39915214D01*
X35904329Y-40019214D01*
X35952197Y-40134778D01*
X35976600Y-40257459D01*
X35976600Y-40382541D01*
X35952197Y-40505222D01*
X35904329Y-40620786D01*
X35834839Y-40724786D01*
X35746386Y-40813239D01*
X35642386Y-40882729D01*
X35584604Y-40906663D01*
X35526823Y-40930597D01*
X35404142Y-40955000D01*
X35279058Y-40955000D01*
X35156377Y-40930597D01*
X35098596Y-40906663D01*
X35040814Y-40882729D01*
X34936814Y-40813239D01*
X34848361Y-40724786D01*
X34778871Y-40620786D01*
X34731003Y-40505222D01*
X34706600Y-40382541D01*
X34706600Y-40257459D01*
X34731003Y-40134778D01*
X34778871Y-40019214D01*
X34848361Y-39915214D01*
X34936814Y-39826761D01*
X35040814Y-39757271D01*
X35098596Y-39733337D01*
X35156377Y-39709403D01*
X35279058Y-39685000D01*
X35404142Y-39685000D01*
X35526823Y-39709403D01*
G37*
G36*
X30446823Y-39709403D02*
G01*
X30504604Y-39733337D01*
X30562386Y-39757271D01*
X30666386Y-39826761D01*
X30754839Y-39915214D01*
X30824329Y-40019214D01*
X30872197Y-40134778D01*
X30896600Y-40257459D01*
X30896600Y-40382541D01*
X30872197Y-40505222D01*
X30824329Y-40620786D01*
X30754839Y-40724786D01*
X30666386Y-40813239D01*
X30562386Y-40882729D01*
X30504604Y-40906663D01*
X30446823Y-40930597D01*
X30324142Y-40955000D01*
X30199058Y-40955000D01*
X30076377Y-40930597D01*
X30018596Y-40906663D01*
X29960814Y-40882729D01*
X29856814Y-40813239D01*
X29768361Y-40724786D01*
X29698871Y-40620786D01*
X29651003Y-40505222D01*
X29626600Y-40382541D01*
X29626600Y-40257459D01*
X29651003Y-40134778D01*
X29698871Y-40019214D01*
X29768361Y-39915214D01*
X29856814Y-39826761D01*
X29960814Y-39757271D01*
X30018596Y-39733337D01*
X30076377Y-39709403D01*
X30199058Y-39685000D01*
X30324142Y-39685000D01*
X30446823Y-39709403D01*
G37*
G36*
X27906823Y-39709403D02*
G01*
X27964604Y-39733337D01*
X28022386Y-39757271D01*
X28126386Y-39826761D01*
X28214839Y-39915214D01*
X28284329Y-40019214D01*
X28332197Y-40134778D01*
X28356600Y-40257459D01*
X28356600Y-40382541D01*
X28332197Y-40505222D01*
X28284329Y-40620786D01*
X28214839Y-40724786D01*
X28126386Y-40813239D01*
X28022386Y-40882729D01*
X27964604Y-40906663D01*
X27906823Y-40930597D01*
X27784142Y-40955000D01*
X27659058Y-40955000D01*
X27536377Y-40930597D01*
X27478596Y-40906663D01*
X27420814Y-40882729D01*
X27316814Y-40813239D01*
X27228361Y-40724786D01*
X27158871Y-40620786D01*
X27111003Y-40505222D01*
X27086600Y-40382541D01*
X27086600Y-40257459D01*
X27111003Y-40134778D01*
X27158871Y-40019214D01*
X27228361Y-39915214D01*
X27316814Y-39826761D01*
X27420814Y-39757271D01*
X27478596Y-39733337D01*
X27536377Y-39709403D01*
X27659058Y-39685000D01*
X27784142Y-39685000D01*
X27906823Y-39709403D01*
G37*
G36*
X22101000Y-40705000D02*
G01*
X21101000Y-40705000D01*
X21101000Y-40055000D01*
X22101000Y-40055000D01*
X22101000Y-40705000D01*
G37*
G36*
X34339000Y-40705000D02*
G01*
X33339000Y-40705000D01*
X33339000Y-40055000D01*
X34339000Y-40055000D01*
X34339000Y-40705000D01*
G37*
G36*
X24179000Y-40197000D02*
G01*
X23179000Y-40197000D01*
X23179000Y-39547000D01*
X24179000Y-39547000D01*
X24179000Y-40197000D01*
G37*
G36*
X34339000Y-39435000D02*
G01*
X33339000Y-39435000D01*
X33339000Y-38785000D01*
X34339000Y-38785000D01*
X34339000Y-39435000D01*
G37*
G36*
X22101000Y-39435000D02*
G01*
X21101000Y-39435000D01*
X21101000Y-38785000D01*
X22101000Y-38785000D01*
X22101000Y-39435000D01*
G37*
G36*
X24179000Y-38927000D02*
G01*
X23179000Y-38927000D01*
X23179000Y-38277000D01*
X24179000Y-38277000D01*
X24179000Y-38927000D01*
G37*
G36*
X35526823Y-37169403D02*
G01*
X35584604Y-37193337D01*
X35642386Y-37217271D01*
X35746386Y-37286761D01*
X35834839Y-37375214D01*
X35904329Y-37479214D01*
X35952197Y-37594778D01*
X35976600Y-37717459D01*
X35976600Y-37842541D01*
X35952197Y-37965222D01*
X35904329Y-38080786D01*
X35834839Y-38184786D01*
X35746386Y-38273239D01*
X35642386Y-38342729D01*
X35584604Y-38366663D01*
X35526823Y-38390597D01*
X35404142Y-38415000D01*
X35279058Y-38415000D01*
X35156377Y-38390597D01*
X35098596Y-38366663D01*
X35040814Y-38342729D01*
X34936814Y-38273239D01*
X34848361Y-38184786D01*
X34778871Y-38080786D01*
X34731003Y-37965222D01*
X34706600Y-37842541D01*
X34706600Y-37717459D01*
X34731003Y-37594778D01*
X34778871Y-37479214D01*
X34848361Y-37375214D01*
X34936814Y-37286761D01*
X35040814Y-37217271D01*
X35098596Y-37193337D01*
X35156377Y-37169403D01*
X35279058Y-37145000D01*
X35404142Y-37145000D01*
X35526823Y-37169403D01*
G37*
G36*
X20286823Y-37169403D02*
G01*
X20344604Y-37193337D01*
X20402386Y-37217271D01*
X20506386Y-37286761D01*
X20594839Y-37375214D01*
X20664329Y-37479214D01*
X20712197Y-37594778D01*
X20736600Y-37717459D01*
X20736600Y-37842541D01*
X20712197Y-37965222D01*
X20664329Y-38080786D01*
X20594839Y-38184786D01*
X20506386Y-38273239D01*
X20402386Y-38342729D01*
X20344604Y-38366663D01*
X20286823Y-38390597D01*
X20164142Y-38415000D01*
X20039058Y-38415000D01*
X19916377Y-38390597D01*
X19858596Y-38366663D01*
X19800814Y-38342729D01*
X19696814Y-38273239D01*
X19608361Y-38184786D01*
X19538871Y-38080786D01*
X19491003Y-37965222D01*
X19466600Y-37842541D01*
X19466600Y-37717459D01*
X19491003Y-37594778D01*
X19538871Y-37479214D01*
X19608361Y-37375214D01*
X19696814Y-37286761D01*
X19800814Y-37217271D01*
X19858596Y-37193337D01*
X19916377Y-37169403D01*
X20039058Y-37145000D01*
X20164142Y-37145000D01*
X20286823Y-37169403D01*
G37*
G36*
X22101000Y-38165000D02*
G01*
X21101000Y-38165000D01*
X21101000Y-37515000D01*
X22101000Y-37515000D01*
X22101000Y-38165000D01*
G37*
G36*
X34339000Y-38165000D02*
G01*
X33339000Y-38165000D01*
X33339000Y-37515000D01*
X34339000Y-37515000D01*
X34339000Y-38165000D01*
G37*
G36*
X22101000Y-36895000D02*
G01*
X21101000Y-36895000D01*
X21101000Y-36245000D01*
X22101000Y-36245000D01*
X22101000Y-36895000D01*
G37*
G36*
X34339000Y-36895000D02*
G01*
X33339000Y-36895000D01*
X33339000Y-36245000D01*
X34339000Y-36245000D01*
X34339000Y-36895000D01*
G37*
G36*
X26798000Y-36562000D02*
G01*
X26148000Y-36562000D01*
X26148000Y-35562000D01*
X26798000Y-35562000D01*
X26798000Y-36562000D01*
G37*
G36*
X30608000Y-36562000D02*
G01*
X29958000Y-36562000D01*
X29958000Y-35562000D01*
X30608000Y-35562000D01*
X30608000Y-36562000D01*
G37*
G36*
X31878000Y-36562000D02*
G01*
X31228000Y-36562000D01*
X31228000Y-35562000D01*
X31878000Y-35562000D01*
X31878000Y-36562000D01*
G37*
G36*
X28068000Y-36562000D02*
G01*
X27418000Y-36562000D01*
X27418000Y-35562000D01*
X28068000Y-35562000D01*
X28068000Y-36562000D01*
G37*
G36*
X29338000Y-36562000D02*
G01*
X28688000Y-36562000D01*
X28688000Y-35562000D01*
X29338000Y-35562000D01*
X29338000Y-36562000D01*
G37*
G36*
X25528000Y-36562000D02*
G01*
X24878000Y-36562000D01*
X24878000Y-35562000D01*
X25528000Y-35562000D01*
X25528000Y-36562000D01*
G37*
G36*
X24258000Y-36562000D02*
G01*
X23608000Y-36562000D01*
X23608000Y-35562000D01*
X24258000Y-35562000D01*
X24258000Y-36562000D01*
G37*
G36*
X20286823Y-34629403D02*
G01*
X20344604Y-34653337D01*
X20402386Y-34677271D01*
X20506386Y-34746761D01*
X20594839Y-34835214D01*
X20664329Y-34939214D01*
X20712197Y-35054778D01*
X20736600Y-35177459D01*
X20736600Y-35302541D01*
X20712197Y-35425222D01*
X20664329Y-35540786D01*
X20594839Y-35644786D01*
X20506386Y-35733239D01*
X20402386Y-35802729D01*
X20344604Y-35826663D01*
X20286823Y-35850597D01*
X20164142Y-35875000D01*
X20039058Y-35875000D01*
X19916377Y-35850597D01*
X19858596Y-35826663D01*
X19800814Y-35802729D01*
X19696814Y-35733239D01*
X19608361Y-35644786D01*
X19538871Y-35540786D01*
X19491003Y-35425222D01*
X19466600Y-35302541D01*
X19466600Y-35177459D01*
X19491003Y-35054778D01*
X19538871Y-34939214D01*
X19608361Y-34835214D01*
X19696814Y-34746761D01*
X19800814Y-34677271D01*
X19858596Y-34653337D01*
X19916377Y-34629403D01*
X20039058Y-34605000D01*
X20164142Y-34605000D01*
X20286823Y-34629403D01*
G37*
G36*
X35526823Y-34629403D02*
G01*
X35584604Y-34653337D01*
X35642386Y-34677271D01*
X35746386Y-34746761D01*
X35834839Y-34835214D01*
X35904329Y-34939214D01*
X35952197Y-35054778D01*
X35976600Y-35177459D01*
X35976600Y-35302541D01*
X35952197Y-35425222D01*
X35904329Y-35540786D01*
X35834839Y-35644786D01*
X35746386Y-35733239D01*
X35642386Y-35802729D01*
X35584604Y-35826663D01*
X35526823Y-35850597D01*
X35404142Y-35875000D01*
X35279058Y-35875000D01*
X35156377Y-35850597D01*
X35098596Y-35826663D01*
X35040814Y-35802729D01*
X34936814Y-35733239D01*
X34848361Y-35644786D01*
X34778871Y-35540786D01*
X34731003Y-35425222D01*
X34706600Y-35302541D01*
X34706600Y-35177459D01*
X34731003Y-35054778D01*
X34778871Y-34939214D01*
X34848361Y-34835214D01*
X34936814Y-34746761D01*
X35040814Y-34677271D01*
X35098596Y-34653337D01*
X35156377Y-34629403D01*
X35279058Y-34605000D01*
X35404142Y-34605000D01*
X35526823Y-34629403D01*
G37*
G36*
X32515000Y-34851000D02*
G01*
X31865000Y-34851000D01*
X31865000Y-33851000D01*
X32515000Y-33851000D01*
X32515000Y-34851000D01*
G37*
G36*
X31245000Y-34851000D02*
G01*
X30595000Y-34851000D01*
X30595000Y-33851000D01*
X31245000Y-33851000D01*
X31245000Y-34851000D01*
G37*
G36*
X29975000Y-34851000D02*
G01*
X29325000Y-34851000D01*
X29325000Y-33851000D01*
X29975000Y-33851000D01*
X29975000Y-34851000D01*
G37*
G36*
X28705000Y-34851000D02*
G01*
X28055000Y-34851000D01*
X28055000Y-33851000D01*
X28705000Y-33851000D01*
X28705000Y-34851000D01*
G37*
G36*
X24895000Y-34851000D02*
G01*
X24245000Y-34851000D01*
X24245000Y-33851000D01*
X24895000Y-33851000D01*
X24895000Y-34851000D01*
G37*
G36*
X26165000Y-34851000D02*
G01*
X25515000Y-34851000D01*
X25515000Y-33851000D01*
X26165000Y-33851000D01*
X26165000Y-34851000D01*
G37*
G36*
X27435000Y-34851000D02*
G01*
X26785000Y-34851000D01*
X26785000Y-33851000D01*
X27435000Y-33851000D01*
X27435000Y-34851000D01*
G37*
G36*
X23625000Y-34851000D02*
G01*
X22975000Y-34851000D01*
X22975000Y-33851000D01*
X23625000Y-33851000D01*
X23625000Y-34851000D01*
G37*
G36*
X25699116Y-32528595D02*
G01*
X25728311Y-32537452D01*
X25755223Y-32551837D01*
X25778808Y-32571192D01*
X25798163Y-32594777D01*
X25812548Y-32621689D01*
X25821405Y-32650884D01*
X25825000Y-32687390D01*
X25825000Y-33312610D01*
X25821405Y-33349116D01*
X25812548Y-33378311D01*
X25798163Y-33405223D01*
X25778808Y-33428808D01*
X25755223Y-33448163D01*
X25728311Y-33462548D01*
X25699116Y-33471405D01*
X25662610Y-33475000D01*
X25112390Y-33475000D01*
X25075884Y-33471405D01*
X25046689Y-33462548D01*
X25019777Y-33448163D01*
X24996192Y-33428808D01*
X24976837Y-33405223D01*
X24962452Y-33378311D01*
X24953595Y-33349116D01*
X24950000Y-33312610D01*
X24950000Y-32687390D01*
X24953595Y-32650884D01*
X24962452Y-32621689D01*
X24976837Y-32594777D01*
X24996192Y-32571192D01*
X25019777Y-32551837D01*
X25046689Y-32537452D01*
X25075884Y-32528595D01*
X25112390Y-32525000D01*
X25662610Y-32525000D01*
X25699116Y-32528595D01*
G37*
G36*
X22861616Y-32528595D02*
G01*
X22890811Y-32537452D01*
X22917723Y-32551837D01*
X22941308Y-32571192D01*
X22960663Y-32594777D01*
X22975048Y-32621689D01*
X22983905Y-32650884D01*
X22987500Y-32687390D01*
X22987500Y-33312610D01*
X22983905Y-33349116D01*
X22975048Y-33378311D01*
X22960663Y-33405223D01*
X22941308Y-33428808D01*
X22917723Y-33448163D01*
X22890811Y-33462548D01*
X22861616Y-33471405D01*
X22825110Y-33475000D01*
X22274890Y-33475000D01*
X22238384Y-33471405D01*
X22209189Y-33462548D01*
X22182277Y-33448163D01*
X22158692Y-33428808D01*
X22139337Y-33405223D01*
X22124952Y-33378311D01*
X22116095Y-33349116D01*
X22112500Y-33312610D01*
X22112500Y-32687390D01*
X22116095Y-32650884D01*
X22124952Y-32621689D01*
X22139337Y-32594777D01*
X22158692Y-32571192D01*
X22182277Y-32551837D01*
X22209189Y-32537452D01*
X22238384Y-32528595D01*
X22274890Y-32525000D01*
X22825110Y-32525000D01*
X22861616Y-32528595D01*
G37*
G36*
X27274116Y-32528595D02*
G01*
X27303311Y-32537452D01*
X27330223Y-32551837D01*
X27353808Y-32571192D01*
X27373163Y-32594777D01*
X27387548Y-32621689D01*
X27396405Y-32650884D01*
X27400000Y-32687390D01*
X27400000Y-33312610D01*
X27396405Y-33349116D01*
X27387548Y-33378311D01*
X27373163Y-33405223D01*
X27353808Y-33428808D01*
X27330223Y-33448163D01*
X27303311Y-33462548D01*
X27274116Y-33471405D01*
X27237610Y-33475000D01*
X26687390Y-33475000D01*
X26650884Y-33471405D01*
X26621689Y-33462548D01*
X26594777Y-33448163D01*
X26571192Y-33428808D01*
X26551837Y-33405223D01*
X26537452Y-33378311D01*
X26528595Y-33349116D01*
X26525000Y-33312610D01*
X26525000Y-32687390D01*
X26528595Y-32650884D01*
X26537452Y-32621689D01*
X26551837Y-32594777D01*
X26571192Y-32571192D01*
X26594777Y-32551837D01*
X26621689Y-32537452D01*
X26650884Y-32528595D01*
X26687390Y-32525000D01*
X27237610Y-32525000D01*
X27274116Y-32528595D01*
G37*
G36*
X24436616Y-32528595D02*
G01*
X24465811Y-32537452D01*
X24492723Y-32551837D01*
X24516308Y-32571192D01*
X24535663Y-32594777D01*
X24550048Y-32621689D01*
X24558905Y-32650884D01*
X24562500Y-32687390D01*
X24562500Y-33312610D01*
X24558905Y-33349116D01*
X24550048Y-33378311D01*
X24535663Y-33405223D01*
X24516308Y-33428808D01*
X24492723Y-33448163D01*
X24465811Y-33462548D01*
X24436616Y-33471405D01*
X24400110Y-33475000D01*
X23849890Y-33475000D01*
X23813384Y-33471405D01*
X23784189Y-33462548D01*
X23757277Y-33448163D01*
X23733692Y-33428808D01*
X23714337Y-33405223D01*
X23699952Y-33378311D01*
X23691095Y-33349116D01*
X23687500Y-33312610D01*
X23687500Y-32687390D01*
X23691095Y-32650884D01*
X23699952Y-32621689D01*
X23714337Y-32594777D01*
X23733692Y-32571192D01*
X23757277Y-32551837D01*
X23784189Y-32537452D01*
X23813384Y-32528595D01*
X23849890Y-32525000D01*
X24400110Y-32525000D01*
X24436616Y-32528595D01*
G37*
G36*
X30374116Y-32528595D02*
G01*
X30403311Y-32537452D01*
X30430223Y-32551837D01*
X30453808Y-32571192D01*
X30473163Y-32594777D01*
X30487548Y-32621689D01*
X30496405Y-32650884D01*
X30500000Y-32687390D01*
X30500000Y-33312610D01*
X30496405Y-33349116D01*
X30487548Y-33378311D01*
X30473163Y-33405223D01*
X30453808Y-33428808D01*
X30430223Y-33448163D01*
X30403311Y-33462548D01*
X30374116Y-33471405D01*
X30337610Y-33475000D01*
X29787390Y-33475000D01*
X29750884Y-33471405D01*
X29721689Y-33462548D01*
X29694777Y-33448163D01*
X29671192Y-33428808D01*
X29651837Y-33405223D01*
X29637452Y-33378311D01*
X29628595Y-33349116D01*
X29625000Y-33312610D01*
X29625000Y-32687390D01*
X29628595Y-32650884D01*
X29637452Y-32621689D01*
X29651837Y-32594777D01*
X29671192Y-32571192D01*
X29694777Y-32551837D01*
X29721689Y-32537452D01*
X29750884Y-32528595D01*
X29787390Y-32525000D01*
X30337610Y-32525000D01*
X30374116Y-32528595D01*
G37*
G36*
X28799116Y-32528595D02*
G01*
X28828311Y-32537452D01*
X28855223Y-32551837D01*
X28878808Y-32571192D01*
X28898163Y-32594777D01*
X28912548Y-32621689D01*
X28921405Y-32650884D01*
X28925000Y-32687390D01*
X28925000Y-33312610D01*
X28921405Y-33349116D01*
X28912548Y-33378311D01*
X28898163Y-33405223D01*
X28878808Y-33428808D01*
X28855223Y-33448163D01*
X28828311Y-33462548D01*
X28799116Y-33471405D01*
X28762610Y-33475000D01*
X28212390Y-33475000D01*
X28175884Y-33471405D01*
X28146689Y-33462548D01*
X28119777Y-33448163D01*
X28096192Y-33428808D01*
X28076837Y-33405223D01*
X28062452Y-33378311D01*
X28053595Y-33349116D01*
X28050000Y-33312610D01*
X28050000Y-32687390D01*
X28053595Y-32650884D01*
X28062452Y-32621689D01*
X28076837Y-32594777D01*
X28096192Y-32571192D01*
X28119777Y-32551837D01*
X28146689Y-32537452D01*
X28175884Y-32528595D01*
X28212390Y-32525000D01*
X28762610Y-32525000D01*
X28799116Y-32528595D01*
G37*
G36*
X33600000Y-33450000D02*
G01*
X33000000Y-33450000D01*
X33000000Y-32250000D01*
X33600000Y-32250000D01*
X33600000Y-33450000D01*
G37*
G36*
X32400000Y-33450000D02*
G01*
X31800000Y-33450000D01*
X31800000Y-32250000D01*
X32400000Y-32250000D01*
X32400000Y-33450000D01*
G37*
G36*
X20286823Y-32089403D02*
G01*
X20344604Y-32113337D01*
X20402386Y-32137271D01*
X20506386Y-32206761D01*
X20594839Y-32295214D01*
X20664329Y-32399214D01*
X20664329Y-32399215D01*
X20712197Y-32514777D01*
X20723419Y-32571192D01*
X20736600Y-32637459D01*
X20736600Y-32762541D01*
X20712197Y-32885222D01*
X20664329Y-33000786D01*
X20594839Y-33104786D01*
X20506386Y-33193239D01*
X20402386Y-33262729D01*
X20344604Y-33286663D01*
X20286823Y-33310597D01*
X20164142Y-33335000D01*
X20039058Y-33335000D01*
X19916377Y-33310597D01*
X19858596Y-33286663D01*
X19800814Y-33262729D01*
X19696814Y-33193239D01*
X19608361Y-33104786D01*
X19538871Y-33000786D01*
X19491003Y-32885222D01*
X19466600Y-32762541D01*
X19466600Y-32637459D01*
X19479781Y-32571192D01*
X19491003Y-32514777D01*
X19538871Y-32399215D01*
X19538871Y-32399214D01*
X19608361Y-32295214D01*
X19696814Y-32206761D01*
X19800814Y-32137271D01*
X19858596Y-32113337D01*
X19916377Y-32089403D01*
X20039058Y-32065000D01*
X20164142Y-32065000D01*
X20286823Y-32089403D01*
G37*
G36*
X35526823Y-32089403D02*
G01*
X35584604Y-32113337D01*
X35642386Y-32137271D01*
X35746386Y-32206761D01*
X35834839Y-32295214D01*
X35904329Y-32399214D01*
X35904329Y-32399215D01*
X35952197Y-32514777D01*
X35963419Y-32571192D01*
X35976600Y-32637459D01*
X35976600Y-32762541D01*
X35952197Y-32885222D01*
X35904329Y-33000786D01*
X35834839Y-33104786D01*
X35746386Y-33193239D01*
X35642386Y-33262729D01*
X35584604Y-33286663D01*
X35526823Y-33310597D01*
X35404142Y-33335000D01*
X35279058Y-33335000D01*
X35156377Y-33310597D01*
X35098596Y-33286663D01*
X35040814Y-33262729D01*
X34936814Y-33193239D01*
X34848361Y-33104786D01*
X34778871Y-33000786D01*
X34731003Y-32885222D01*
X34706600Y-32762541D01*
X34706600Y-32637459D01*
X34719781Y-32571192D01*
X34731003Y-32514777D01*
X34778871Y-32399215D01*
X34778871Y-32399214D01*
X34848361Y-32295214D01*
X34936814Y-32206761D01*
X35040814Y-32137271D01*
X35098596Y-32113337D01*
X35156377Y-32089403D01*
X35279058Y-32065000D01*
X35404142Y-32065000D01*
X35526823Y-32089403D01*
G37*
G36*
X30901600Y-32187000D02*
G01*
X30251600Y-32187000D01*
X30251600Y-31127000D01*
X30901600Y-31127000D01*
X30901600Y-32187000D01*
G37*
G36*
X25191600Y-32187000D02*
G01*
X24541600Y-32187000D01*
X24541600Y-31127000D01*
X25191600Y-31127000D01*
X25191600Y-32187000D01*
G37*
G36*
X27091600Y-32187000D02*
G01*
X26441600Y-32187000D01*
X26441600Y-31127000D01*
X27091600Y-31127000D01*
X27091600Y-32187000D01*
G37*
G36*
X29001600Y-32187000D02*
G01*
X28351600Y-32187000D01*
X28351600Y-31127000D01*
X29001600Y-31127000D01*
X29001600Y-32187000D01*
G37*
G36*
X34074116Y-30816095D02*
G01*
X34103311Y-30824952D01*
X34130223Y-30839337D01*
X34153808Y-30858692D01*
X34173163Y-30882277D01*
X34187548Y-30909189D01*
X34196405Y-30938384D01*
X34200000Y-30974890D01*
X34200000Y-31525110D01*
X34196405Y-31561616D01*
X34187548Y-31590811D01*
X34173163Y-31617723D01*
X34153808Y-31641308D01*
X34130223Y-31660663D01*
X34103311Y-31675048D01*
X34074116Y-31683905D01*
X34037610Y-31687500D01*
X33412390Y-31687500D01*
X33375884Y-31683905D01*
X33346689Y-31675048D01*
X33319777Y-31660663D01*
X33296192Y-31641308D01*
X33276837Y-31617723D01*
X33262452Y-31590811D01*
X33253595Y-31561616D01*
X33250000Y-31525110D01*
X33250000Y-30974890D01*
X33253595Y-30938384D01*
X33262452Y-30909189D01*
X33276837Y-30882277D01*
X33296192Y-30858692D01*
X33319777Y-30839337D01*
X33346689Y-30824952D01*
X33375884Y-30816095D01*
X33412390Y-30812500D01*
X34037610Y-30812500D01*
X34074116Y-30816095D01*
G37*
G36*
X32499116Y-30816095D02*
G01*
X32528311Y-30824952D01*
X32555223Y-30839337D01*
X32578808Y-30858692D01*
X32598163Y-30882277D01*
X32612548Y-30909189D01*
X32621405Y-30938384D01*
X32625000Y-30974890D01*
X32625000Y-31525110D01*
X32621405Y-31561616D01*
X32612548Y-31590811D01*
X32598163Y-31617723D01*
X32578808Y-31641308D01*
X32555223Y-31660663D01*
X32528311Y-31675048D01*
X32499116Y-31683905D01*
X32462610Y-31687500D01*
X31837390Y-31687500D01*
X31800884Y-31683905D01*
X31771689Y-31675048D01*
X31744777Y-31660663D01*
X31721192Y-31641308D01*
X31701837Y-31617723D01*
X31687452Y-31590811D01*
X31678595Y-31561616D01*
X31675000Y-31525110D01*
X31675000Y-30974890D01*
X31678595Y-30938384D01*
X31687452Y-30909189D01*
X31701837Y-30882277D01*
X31721192Y-30858692D01*
X31744777Y-30839337D01*
X31771689Y-30824952D01*
X31800884Y-30816095D01*
X31837390Y-30812500D01*
X32462610Y-30812500D01*
X32499116Y-30816095D01*
G37*
G36*
X23649116Y-30816095D02*
G01*
X23678311Y-30824952D01*
X23705223Y-30839337D01*
X23728808Y-30858692D01*
X23748163Y-30882277D01*
X23762548Y-30909189D01*
X23771405Y-30938384D01*
X23775000Y-30974890D01*
X23775000Y-31525110D01*
X23771405Y-31561616D01*
X23762548Y-31590811D01*
X23748163Y-31617723D01*
X23728808Y-31641308D01*
X23705223Y-31660663D01*
X23678311Y-31675048D01*
X23649116Y-31683905D01*
X23612610Y-31687500D01*
X22987390Y-31687500D01*
X22950884Y-31683905D01*
X22921689Y-31675048D01*
X22894777Y-31660663D01*
X22871192Y-31641308D01*
X22851837Y-31617723D01*
X22837452Y-31590811D01*
X22828595Y-31561616D01*
X22825000Y-31525110D01*
X22825000Y-30974890D01*
X22828595Y-30938384D01*
X22837452Y-30909189D01*
X22851837Y-30882277D01*
X22871192Y-30858692D01*
X22894777Y-30839337D01*
X22921689Y-30824952D01*
X22950884Y-30816095D01*
X22987390Y-30812500D01*
X23612610Y-30812500D01*
X23649116Y-30816095D01*
G37*
G36*
X22074116Y-30803595D02*
G01*
X22103311Y-30812452D01*
X22130223Y-30826837D01*
X22153808Y-30846192D01*
X22173163Y-30869777D01*
X22187548Y-30896689D01*
X22196405Y-30925884D01*
X22200000Y-30962390D01*
X22200000Y-31512610D01*
X22196405Y-31549116D01*
X22187548Y-31578311D01*
X22173163Y-31605223D01*
X22153808Y-31628808D01*
X22130223Y-31648163D01*
X22103311Y-31662548D01*
X22074116Y-31671405D01*
X22037610Y-31675000D01*
X21412390Y-31675000D01*
X21375884Y-31671405D01*
X21346689Y-31662548D01*
X21319777Y-31648163D01*
X21296192Y-31628808D01*
X21276837Y-31605223D01*
X21262452Y-31578311D01*
X21253595Y-31549116D01*
X21250000Y-31512610D01*
X21250000Y-30962390D01*
X21253595Y-30925884D01*
X21262452Y-30896689D01*
X21276837Y-30869777D01*
X21296192Y-30846192D01*
X21319777Y-30826837D01*
X21346689Y-30812452D01*
X21375884Y-30803595D01*
X21412390Y-30800000D01*
X22037610Y-30800000D01*
X22074116Y-30803595D01*
G37*
G36*
X20286823Y-29549403D02*
G01*
X20344604Y-29573337D01*
X20402386Y-29597271D01*
X20506386Y-29666761D01*
X20594839Y-29755214D01*
X20664329Y-29859214D01*
X20678634Y-29893750D01*
X20712197Y-29974777D01*
X20736600Y-30097458D01*
X20736600Y-30222541D01*
X20712197Y-30345222D01*
X20664329Y-30460786D01*
X20594839Y-30564786D01*
X20506386Y-30653239D01*
X20402386Y-30722729D01*
X20344604Y-30746663D01*
X20286823Y-30770597D01*
X20164142Y-30795000D01*
X20039058Y-30795000D01*
X19916377Y-30770597D01*
X19858596Y-30746663D01*
X19800814Y-30722729D01*
X19696814Y-30653239D01*
X19608361Y-30564786D01*
X19538871Y-30460786D01*
X19491003Y-30345222D01*
X19466600Y-30222541D01*
X19466600Y-30097458D01*
X19491003Y-29974777D01*
X19524566Y-29893750D01*
X19538871Y-29859214D01*
X19608361Y-29755214D01*
X19696814Y-29666761D01*
X19800814Y-29597271D01*
X19858596Y-29573337D01*
X19916377Y-29549403D01*
X20039058Y-29525000D01*
X20164142Y-29525000D01*
X20286823Y-29549403D01*
G37*
G36*
X35526823Y-29549403D02*
G01*
X35584604Y-29573337D01*
X35642386Y-29597271D01*
X35746386Y-29666761D01*
X35834839Y-29755214D01*
X35904329Y-29859214D01*
X35918634Y-29893750D01*
X35952197Y-29974777D01*
X35976600Y-30097458D01*
X35976600Y-30222541D01*
X35952197Y-30345222D01*
X35904329Y-30460786D01*
X35834839Y-30564786D01*
X35746386Y-30653239D01*
X35642386Y-30722729D01*
X35584604Y-30746663D01*
X35526823Y-30770597D01*
X35404142Y-30795000D01*
X35279058Y-30795000D01*
X35156377Y-30770597D01*
X35098596Y-30746663D01*
X35040814Y-30722729D01*
X34936814Y-30653239D01*
X34848361Y-30564786D01*
X34778871Y-30460786D01*
X34731003Y-30345222D01*
X34706600Y-30222541D01*
X34706600Y-30097458D01*
X34731003Y-29974777D01*
X34764566Y-29893750D01*
X34778871Y-29859214D01*
X34848361Y-29755214D01*
X34936814Y-29666761D01*
X35040814Y-29597271D01*
X35098596Y-29573337D01*
X35156377Y-29549403D01*
X35279058Y-29525000D01*
X35404142Y-29525000D01*
X35526823Y-29549403D01*
G37*
G36*
X34074116Y-29241095D02*
G01*
X34103311Y-29249952D01*
X34130223Y-29264337D01*
X34153808Y-29283692D01*
X34173163Y-29307277D01*
X34187548Y-29334189D01*
X34196405Y-29363384D01*
X34200000Y-29399890D01*
X34200000Y-29950110D01*
X34196405Y-29986616D01*
X34187548Y-30015811D01*
X34173163Y-30042723D01*
X34153808Y-30066308D01*
X34130223Y-30085663D01*
X34103311Y-30100048D01*
X34074116Y-30108905D01*
X34037610Y-30112500D01*
X33412390Y-30112500D01*
X33375884Y-30108905D01*
X33346689Y-30100048D01*
X33319777Y-30085663D01*
X33296192Y-30066308D01*
X33276837Y-30042723D01*
X33262452Y-30015811D01*
X33253595Y-29986616D01*
X33250000Y-29950110D01*
X33250000Y-29399890D01*
X33253595Y-29363384D01*
X33262452Y-29334189D01*
X33276837Y-29307277D01*
X33296192Y-29283692D01*
X33319777Y-29264337D01*
X33346689Y-29249952D01*
X33375884Y-29241095D01*
X33412390Y-29237500D01*
X34037610Y-29237500D01*
X34074116Y-29241095D01*
G37*
G36*
X23649116Y-29241095D02*
G01*
X23678311Y-29249952D01*
X23705223Y-29264337D01*
X23728808Y-29283692D01*
X23748163Y-29307277D01*
X23762548Y-29334189D01*
X23771405Y-29363384D01*
X23775000Y-29399890D01*
X23775000Y-29950110D01*
X23771405Y-29986616D01*
X23762548Y-30015811D01*
X23748163Y-30042723D01*
X23728808Y-30066308D01*
X23705223Y-30085663D01*
X23678311Y-30100048D01*
X23649116Y-30108905D01*
X23612610Y-30112500D01*
X22987390Y-30112500D01*
X22950884Y-30108905D01*
X22921689Y-30100048D01*
X22894777Y-30085663D01*
X22871192Y-30066308D01*
X22851837Y-30042723D01*
X22837452Y-30015811D01*
X22828595Y-29986616D01*
X22825000Y-29950110D01*
X22825000Y-29399890D01*
X22828595Y-29363384D01*
X22837452Y-29334189D01*
X22851837Y-29307277D01*
X22871192Y-29283692D01*
X22894777Y-29264337D01*
X22921689Y-29249952D01*
X22950884Y-29241095D01*
X22987390Y-29237500D01*
X23612610Y-29237500D01*
X23649116Y-29241095D01*
G37*
G36*
X32499116Y-29241095D02*
G01*
X32528311Y-29249952D01*
X32555223Y-29264337D01*
X32578808Y-29283692D01*
X32598163Y-29307277D01*
X32612548Y-29334189D01*
X32621405Y-29363384D01*
X32625000Y-29399890D01*
X32625000Y-29950110D01*
X32621405Y-29986616D01*
X32612548Y-30015811D01*
X32598163Y-30042723D01*
X32578808Y-30066308D01*
X32555223Y-30085663D01*
X32528311Y-30100048D01*
X32499116Y-30108905D01*
X32462610Y-30112500D01*
X31837390Y-30112500D01*
X31800884Y-30108905D01*
X31771689Y-30100048D01*
X31744777Y-30085663D01*
X31721192Y-30066308D01*
X31701837Y-30042723D01*
X31687452Y-30015811D01*
X31678595Y-29986616D01*
X31675000Y-29950110D01*
X31675000Y-29399890D01*
X31678595Y-29363384D01*
X31687452Y-29334189D01*
X31701837Y-29307277D01*
X31721192Y-29283692D01*
X31744777Y-29264337D01*
X31771689Y-29249952D01*
X31800884Y-29241095D01*
X31837390Y-29237500D01*
X32462610Y-29237500D01*
X32499116Y-29241095D01*
G37*
G36*
X22074116Y-29228595D02*
G01*
X22103311Y-29237452D01*
X22130223Y-29251837D01*
X22153808Y-29271192D01*
X22173163Y-29294777D01*
X22187548Y-29321689D01*
X22196405Y-29350884D01*
X22200000Y-29387390D01*
X22200000Y-29937610D01*
X22196405Y-29974116D01*
X22187548Y-30003311D01*
X22173163Y-30030223D01*
X22153808Y-30053808D01*
X22130223Y-30073163D01*
X22103311Y-30087548D01*
X22074116Y-30096405D01*
X22037610Y-30100000D01*
X21412390Y-30100000D01*
X21375884Y-30096405D01*
X21346689Y-30087548D01*
X21319777Y-30073163D01*
X21296192Y-30053808D01*
X21276837Y-30030223D01*
X21262452Y-30003311D01*
X21253595Y-29974116D01*
X21250000Y-29937610D01*
X21250000Y-29387390D01*
X21253595Y-29350884D01*
X21262452Y-29321689D01*
X21276837Y-29294777D01*
X21296192Y-29271192D01*
X21319777Y-29251837D01*
X21346689Y-29237452D01*
X21375884Y-29228595D01*
X21412390Y-29225000D01*
X22037610Y-29225000D01*
X22074116Y-29228595D01*
G37*
G36*
X27091600Y-29987000D02*
G01*
X26441600Y-29987000D01*
X26441600Y-28927000D01*
X27091600Y-28927000D01*
X27091600Y-29987000D01*
G37*
G36*
X26141600Y-29987000D02*
G01*
X25491600Y-29987000D01*
X25491600Y-28927000D01*
X26141600Y-28927000D01*
X26141600Y-29987000D01*
G37*
G36*
X25191600Y-29987000D02*
G01*
X24541600Y-29987000D01*
X24541600Y-28927000D01*
X25191600Y-28927000D01*
X25191600Y-29987000D01*
G37*
G36*
X29951600Y-29987000D02*
G01*
X29301600Y-29987000D01*
X29301600Y-28927000D01*
X29951600Y-28927000D01*
X29951600Y-29987000D01*
G37*
G36*
X29001600Y-29987000D02*
G01*
X28351600Y-29987000D01*
X28351600Y-28927000D01*
X29001600Y-28927000D01*
X29001600Y-29987000D01*
G37*
G36*
X30901600Y-29987000D02*
G01*
X30251600Y-29987000D01*
X30251600Y-28927000D01*
X30901600Y-28927000D01*
X30901600Y-29987000D01*
G37*
G36*
X27971600Y-28795500D02*
G01*
X27471600Y-28795500D01*
X27471600Y-28295500D01*
X27971600Y-28295500D01*
X27971600Y-28795500D01*
G37*
G36*
X24119500Y-28734500D02*
G01*
X23219500Y-28734500D01*
X23219500Y-27934500D01*
X24119500Y-27934500D01*
X24119500Y-28734500D01*
G37*
G36*
X32216000Y-28734500D02*
G01*
X31316000Y-28734500D01*
X31316000Y-27934500D01*
X32216000Y-27934500D01*
X32216000Y-28734500D01*
G37*
G36*
X30899116Y-27735595D02*
G01*
X30928311Y-27744452D01*
X30955223Y-27758837D01*
X30978808Y-27778192D01*
X30998163Y-27801777D01*
X31012548Y-27828689D01*
X31021405Y-27857884D01*
X31025000Y-27894390D01*
X31025000Y-28444610D01*
X31021405Y-28481116D01*
X31012548Y-28510311D01*
X30998163Y-28537223D01*
X30978808Y-28560808D01*
X30955223Y-28580163D01*
X30928311Y-28594548D01*
X30899116Y-28603405D01*
X30862610Y-28607000D01*
X30237390Y-28607000D01*
X30200884Y-28603405D01*
X30171689Y-28594548D01*
X30144777Y-28580163D01*
X30121192Y-28560808D01*
X30101837Y-28537223D01*
X30087452Y-28510311D01*
X30078595Y-28481116D01*
X30075000Y-28444610D01*
X30075000Y-27894390D01*
X30078595Y-27857884D01*
X30087452Y-27828689D01*
X30101837Y-27801777D01*
X30121192Y-27778192D01*
X30144777Y-27758837D01*
X30171689Y-27744452D01*
X30200884Y-27735595D01*
X30237390Y-27732000D01*
X30862610Y-27732000D01*
X30899116Y-27735595D01*
G37*
G36*
X26546716Y-27735595D02*
G01*
X26575911Y-27744452D01*
X26602823Y-27758837D01*
X26626408Y-27778192D01*
X26645763Y-27801777D01*
X26660148Y-27828689D01*
X26669005Y-27857884D01*
X26672600Y-27894390D01*
X26672600Y-28444610D01*
X26669005Y-28481116D01*
X26660148Y-28510311D01*
X26645763Y-28537223D01*
X26626408Y-28560808D01*
X26602823Y-28580163D01*
X26575911Y-28594548D01*
X26546716Y-28603405D01*
X26510210Y-28607000D01*
X25884990Y-28607000D01*
X25848484Y-28603405D01*
X25819289Y-28594548D01*
X25792377Y-28580163D01*
X25768792Y-28560808D01*
X25749437Y-28537223D01*
X25735052Y-28510311D01*
X25726195Y-28481116D01*
X25722600Y-28444610D01*
X25722600Y-27894390D01*
X25726195Y-27857884D01*
X25735052Y-27828689D01*
X25749437Y-27801777D01*
X25768792Y-27778192D01*
X25792377Y-27758837D01*
X25819289Y-27744452D01*
X25848484Y-27735595D01*
X25884990Y-27732000D01*
X26510210Y-27732000D01*
X26546716Y-27735595D01*
G37*
G36*
X29594716Y-27735595D02*
G01*
X29623911Y-27744452D01*
X29650823Y-27758837D01*
X29674408Y-27778192D01*
X29693763Y-27801777D01*
X29708148Y-27828689D01*
X29717005Y-27857884D01*
X29720600Y-27894390D01*
X29720600Y-28444610D01*
X29717005Y-28481116D01*
X29708148Y-28510311D01*
X29693763Y-28537223D01*
X29674408Y-28560808D01*
X29650823Y-28580163D01*
X29623911Y-28594548D01*
X29594716Y-28603405D01*
X29558210Y-28607000D01*
X28932990Y-28607000D01*
X28896484Y-28603405D01*
X28867289Y-28594548D01*
X28840377Y-28580163D01*
X28816792Y-28560808D01*
X28797437Y-28537223D01*
X28783052Y-28510311D01*
X28774195Y-28481116D01*
X28770600Y-28444610D01*
X28770600Y-27894390D01*
X28774195Y-27857884D01*
X28783052Y-27828689D01*
X28797437Y-27801777D01*
X28816792Y-27778192D01*
X28840377Y-27758837D01*
X28867289Y-27744452D01*
X28896484Y-27735595D01*
X28932990Y-27732000D01*
X29558210Y-27732000D01*
X29594716Y-27735595D01*
G37*
G36*
X25276716Y-27735595D02*
G01*
X25305911Y-27744452D01*
X25332823Y-27758837D01*
X25356408Y-27778192D01*
X25375763Y-27801777D01*
X25390148Y-27828689D01*
X25399005Y-27857884D01*
X25402600Y-27894390D01*
X25402600Y-28444610D01*
X25399005Y-28481116D01*
X25390148Y-28510311D01*
X25375763Y-28537223D01*
X25356408Y-28560808D01*
X25332823Y-28580163D01*
X25305911Y-28594548D01*
X25276716Y-28603405D01*
X25240210Y-28607000D01*
X24614990Y-28607000D01*
X24578484Y-28603405D01*
X24549289Y-28594548D01*
X24522377Y-28580163D01*
X24498792Y-28560808D01*
X24479437Y-28537223D01*
X24465052Y-28510311D01*
X24456195Y-28481116D01*
X24452600Y-28444610D01*
X24452600Y-27894390D01*
X24456195Y-27857884D01*
X24465052Y-27828689D01*
X24479437Y-27801777D01*
X24498792Y-27778192D01*
X24522377Y-27758837D01*
X24549289Y-27744452D01*
X24578484Y-27735595D01*
X24614990Y-27732000D01*
X25240210Y-27732000D01*
X25276716Y-27735595D01*
G37*
G36*
X35526823Y-27009403D02*
G01*
X35571229Y-27027797D01*
X35642386Y-27057271D01*
X35746386Y-27126761D01*
X35834839Y-27215214D01*
X35904329Y-27319214D01*
X35904329Y-27319215D01*
X35952197Y-27434777D01*
X35976600Y-27557458D01*
X35976600Y-27682542D01*
X35952882Y-27801777D01*
X35952197Y-27805222D01*
X35904329Y-27920786D01*
X35834839Y-28024786D01*
X35746386Y-28113239D01*
X35642386Y-28182729D01*
X35584604Y-28206663D01*
X35526823Y-28230597D01*
X35404142Y-28255000D01*
X35279058Y-28255000D01*
X35156377Y-28230597D01*
X35098596Y-28206663D01*
X35040814Y-28182729D01*
X34936814Y-28113239D01*
X34848361Y-28024786D01*
X34778871Y-27920786D01*
X34731003Y-27805222D01*
X34730318Y-27801777D01*
X34706600Y-27682542D01*
X34706600Y-27557458D01*
X34731003Y-27434777D01*
X34778871Y-27319215D01*
X34778871Y-27319214D01*
X34848361Y-27215214D01*
X34936814Y-27126761D01*
X35040814Y-27057271D01*
X35111971Y-27027797D01*
X35156377Y-27009403D01*
X35279058Y-26985000D01*
X35404142Y-26985000D01*
X35526823Y-27009403D01*
G37*
G36*
X20286823Y-27009403D02*
G01*
X20331229Y-27027797D01*
X20402386Y-27057271D01*
X20506386Y-27126761D01*
X20594839Y-27215214D01*
X20664329Y-27319214D01*
X20664329Y-27319215D01*
X20712197Y-27434777D01*
X20736600Y-27557458D01*
X20736600Y-27682542D01*
X20712882Y-27801777D01*
X20712197Y-27805222D01*
X20664329Y-27920786D01*
X20594839Y-28024786D01*
X20506386Y-28113239D01*
X20402386Y-28182729D01*
X20344604Y-28206663D01*
X20286823Y-28230597D01*
X20164142Y-28255000D01*
X20039058Y-28255000D01*
X19916377Y-28230597D01*
X19858596Y-28206663D01*
X19800814Y-28182729D01*
X19696814Y-28113239D01*
X19608361Y-28024786D01*
X19538871Y-27920786D01*
X19491003Y-27805222D01*
X19490318Y-27801777D01*
X19466600Y-27682542D01*
X19466600Y-27557458D01*
X19491003Y-27434777D01*
X19538871Y-27319215D01*
X19538871Y-27319214D01*
X19608361Y-27215214D01*
X19696814Y-27126761D01*
X19800814Y-27057271D01*
X19871971Y-27027797D01*
X19916377Y-27009403D01*
X20039058Y-26985000D01*
X20164142Y-26985000D01*
X20286823Y-27009403D01*
G37*
G36*
X34216000Y-27784500D02*
G01*
X33316000Y-27784500D01*
X33316000Y-26984500D01*
X34216000Y-26984500D01*
X34216000Y-27784500D01*
G37*
G36*
X22119500Y-27784500D02*
G01*
X21219500Y-27784500D01*
X21219500Y-26984500D01*
X22119500Y-26984500D01*
X22119500Y-27784500D01*
G37*
G36*
X26546716Y-26160595D02*
G01*
X26575911Y-26169452D01*
X26602823Y-26183837D01*
X26626408Y-26203192D01*
X26645763Y-26226777D01*
X26660148Y-26253689D01*
X26669005Y-26282884D01*
X26672600Y-26319390D01*
X26672600Y-26869610D01*
X26669005Y-26906116D01*
X26660148Y-26935311D01*
X26645763Y-26962223D01*
X26626408Y-26985808D01*
X26602823Y-27005163D01*
X26575911Y-27019548D01*
X26546716Y-27028405D01*
X26510210Y-27032000D01*
X25884990Y-27032000D01*
X25848484Y-27028405D01*
X25819289Y-27019548D01*
X25792377Y-27005163D01*
X25768792Y-26985808D01*
X25749437Y-26962223D01*
X25735052Y-26935311D01*
X25726195Y-26906116D01*
X25722600Y-26869610D01*
X25722600Y-26319390D01*
X25726195Y-26282884D01*
X25735052Y-26253689D01*
X25749437Y-26226777D01*
X25768792Y-26203192D01*
X25792377Y-26183837D01*
X25819289Y-26169452D01*
X25848484Y-26160595D01*
X25884990Y-26157000D01*
X26510210Y-26157000D01*
X26546716Y-26160595D01*
G37*
G36*
X25276716Y-26160595D02*
G01*
X25305911Y-26169452D01*
X25332823Y-26183837D01*
X25356408Y-26203192D01*
X25375763Y-26226777D01*
X25390148Y-26253689D01*
X25399005Y-26282884D01*
X25402600Y-26319390D01*
X25402600Y-26869610D01*
X25399005Y-26906116D01*
X25390148Y-26935311D01*
X25375763Y-26962223D01*
X25356408Y-26985808D01*
X25332823Y-27005163D01*
X25305911Y-27019548D01*
X25276716Y-27028405D01*
X25240210Y-27032000D01*
X24614990Y-27032000D01*
X24578484Y-27028405D01*
X24549289Y-27019548D01*
X24522377Y-27005163D01*
X24498792Y-26985808D01*
X24479437Y-26962223D01*
X24465052Y-26935311D01*
X24456195Y-26906116D01*
X24452600Y-26869610D01*
X24452600Y-26319390D01*
X24456195Y-26282884D01*
X24465052Y-26253689D01*
X24479437Y-26226777D01*
X24498792Y-26203192D01*
X24522377Y-26183837D01*
X24549289Y-26169452D01*
X24578484Y-26160595D01*
X24614990Y-26157000D01*
X25240210Y-26157000D01*
X25276716Y-26160595D01*
G37*
G36*
X29594716Y-26160595D02*
G01*
X29623911Y-26169452D01*
X29650823Y-26183837D01*
X29674408Y-26203192D01*
X29693763Y-26226777D01*
X29708148Y-26253689D01*
X29717005Y-26282884D01*
X29720600Y-26319390D01*
X29720600Y-26869610D01*
X29717005Y-26906116D01*
X29708148Y-26935311D01*
X29693763Y-26962223D01*
X29674408Y-26985808D01*
X29650823Y-27005163D01*
X29623911Y-27019548D01*
X29594716Y-27028405D01*
X29558210Y-27032000D01*
X28932990Y-27032000D01*
X28896484Y-27028405D01*
X28867289Y-27019548D01*
X28840377Y-27005163D01*
X28816792Y-26985808D01*
X28797437Y-26962223D01*
X28783052Y-26935311D01*
X28774195Y-26906116D01*
X28770600Y-26869610D01*
X28770600Y-26319390D01*
X28774195Y-26282884D01*
X28783052Y-26253689D01*
X28797437Y-26226777D01*
X28816792Y-26203192D01*
X28840377Y-26183837D01*
X28867289Y-26169452D01*
X28896484Y-26160595D01*
X28932990Y-26157000D01*
X29558210Y-26157000D01*
X29594716Y-26160595D01*
G37*
G36*
X30899116Y-26160595D02*
G01*
X30928311Y-26169452D01*
X30955223Y-26183837D01*
X30978808Y-26203192D01*
X30998163Y-26226777D01*
X31012548Y-26253689D01*
X31021405Y-26282884D01*
X31025000Y-26319390D01*
X31025000Y-26869610D01*
X31021405Y-26906116D01*
X31012548Y-26935311D01*
X30998163Y-26962223D01*
X30978808Y-26985808D01*
X30955223Y-27005163D01*
X30928311Y-27019548D01*
X30899116Y-27028405D01*
X30862610Y-27032000D01*
X30237390Y-27032000D01*
X30200884Y-27028405D01*
X30171689Y-27019548D01*
X30144777Y-27005163D01*
X30121192Y-26985808D01*
X30101837Y-26962223D01*
X30087452Y-26935311D01*
X30078595Y-26906116D01*
X30075000Y-26869610D01*
X30075000Y-26319390D01*
X30078595Y-26282884D01*
X30087452Y-26253689D01*
X30101837Y-26226777D01*
X30121192Y-26203192D01*
X30144777Y-26183837D01*
X30171689Y-26169452D01*
X30200884Y-26160595D01*
X30237390Y-26157000D01*
X30862610Y-26157000D01*
X30899116Y-26160595D01*
G37*
G36*
X24119500Y-26834500D02*
G01*
X23219500Y-26834500D01*
X23219500Y-26034500D01*
X24119500Y-26034500D01*
X24119500Y-26834500D01*
G37*
G36*
X32216000Y-26834500D02*
G01*
X31316000Y-26834500D01*
X31316000Y-26034500D01*
X32216000Y-26034500D01*
X32216000Y-26834500D01*
G37*
G36*
X27971600Y-26595500D02*
G01*
X27471600Y-26595500D01*
X27471600Y-26095500D01*
X27971600Y-26095500D01*
X27971600Y-26595500D01*
G37*
G36*
X20286823Y-24469403D02*
G01*
X20344604Y-24493337D01*
X20402386Y-24517271D01*
X20506386Y-24586761D01*
X20594839Y-24675214D01*
X20664329Y-24779214D01*
X20712197Y-24894778D01*
X20736600Y-25017459D01*
X20736600Y-25142541D01*
X20712197Y-25265222D01*
X20664329Y-25380786D01*
X20594839Y-25484786D01*
X20506386Y-25573239D01*
X20402386Y-25642729D01*
X20344604Y-25666663D01*
X20286823Y-25690597D01*
X20164142Y-25715000D01*
X20039058Y-25715000D01*
X19916377Y-25690597D01*
X19858596Y-25666663D01*
X19800814Y-25642729D01*
X19696814Y-25573239D01*
X19608361Y-25484786D01*
X19538871Y-25380786D01*
X19491003Y-25265222D01*
X19466600Y-25142541D01*
X19466600Y-25017459D01*
X19491003Y-24894778D01*
X19538871Y-24779214D01*
X19608361Y-24675214D01*
X19696814Y-24586761D01*
X19800814Y-24517271D01*
X19858596Y-24493337D01*
X19916377Y-24469403D01*
X20039058Y-24445000D01*
X20164142Y-24445000D01*
X20286823Y-24469403D01*
G37*
G36*
X35526823Y-24469403D02*
G01*
X35584604Y-24493337D01*
X35642386Y-24517271D01*
X35746386Y-24586761D01*
X35834839Y-24675214D01*
X35904329Y-24779214D01*
X35952197Y-24894778D01*
X35976600Y-25017459D01*
X35976600Y-25142541D01*
X35952197Y-25265222D01*
X35904329Y-25380786D01*
X35834839Y-25484786D01*
X35746386Y-25573239D01*
X35642386Y-25642729D01*
X35584604Y-25666663D01*
X35526823Y-25690597D01*
X35404142Y-25715000D01*
X35279058Y-25715000D01*
X35156377Y-25690597D01*
X35098596Y-25666663D01*
X35040814Y-25642729D01*
X34936814Y-25573239D01*
X34848361Y-25484786D01*
X34778871Y-25380786D01*
X34731003Y-25265222D01*
X34706600Y-25142541D01*
X34706600Y-25017459D01*
X34731003Y-24894778D01*
X34778871Y-24779214D01*
X34848361Y-24675214D01*
X34936814Y-24586761D01*
X35040814Y-24517271D01*
X35098596Y-24493337D01*
X35156377Y-24469403D01*
X35279058Y-24445000D01*
X35404142Y-24445000D01*
X35526823Y-24469403D01*
G37*
G36*
X25571600Y-25000000D02*
G01*
X25071600Y-25000000D01*
X25071600Y-24200000D01*
X25571600Y-24200000D01*
X25571600Y-25000000D01*
G37*
G36*
X29621600Y-25000000D02*
G01*
X25821600Y-25000000D01*
X25821600Y-24200000D01*
X29621600Y-24200000D01*
X29621600Y-25000000D01*
G37*
G36*
X30371600Y-25000000D02*
G01*
X29871600Y-25000000D01*
X29871600Y-24200000D01*
X30371600Y-24200000D01*
X30371600Y-25000000D01*
G37*
G36*
X31196600Y-25000000D02*
G01*
X30646600Y-25000000D01*
X30646600Y-24200000D01*
X31196600Y-24200000D01*
X31196600Y-25000000D01*
G37*
G36*
X24796600Y-25000000D02*
G01*
X24246600Y-25000000D01*
X24246600Y-24200000D01*
X24796600Y-24200000D01*
X24796600Y-25000000D01*
G37*
G36*
X33394614Y-22807234D02*
G01*
X33488869Y-22835826D01*
X33566814Y-22877489D01*
X33575729Y-22882254D01*
X33651864Y-22944736D01*
X33651907Y-22944789D01*
X33714347Y-23020872D01*
X33760774Y-23107730D01*
X33789366Y-23201985D01*
X33796600Y-23275436D01*
X33796600Y-24124564D01*
X33789366Y-24198015D01*
X33760774Y-24292270D01*
X33714347Y-24379128D01*
X33651864Y-24455264D01*
X33575728Y-24517747D01*
X33488870Y-24564174D01*
X33394615Y-24592766D01*
X33296600Y-24602419D01*
X33198586Y-24592766D01*
X33104331Y-24564174D01*
X33017473Y-24517747D01*
X32941337Y-24455264D01*
X32878854Y-24379128D01*
X32832425Y-24292267D01*
X32803834Y-24198018D01*
X32796600Y-24124564D01*
X32796600Y-23275437D01*
X32803834Y-23201986D01*
X32832426Y-23107731D01*
X32878853Y-23020873D01*
X32878854Y-23020871D01*
X32941336Y-22944736D01*
X33017471Y-22882254D01*
X33017470Y-22882254D01*
X33017472Y-22882253D01*
X33104330Y-22835826D01*
X33198585Y-22807234D01*
X33296600Y-22797581D01*
X33394614Y-22807234D01*
G37*
G36*
X22244614Y-22807234D02*
G01*
X22338869Y-22835826D01*
X22416814Y-22877489D01*
X22425729Y-22882254D01*
X22501864Y-22944736D01*
X22501907Y-22944789D01*
X22564347Y-23020872D01*
X22610774Y-23107730D01*
X22639366Y-23201985D01*
X22646600Y-23275436D01*
X22646600Y-24124564D01*
X22639366Y-24198015D01*
X22610774Y-24292270D01*
X22564347Y-24379128D01*
X22501864Y-24455264D01*
X22425728Y-24517747D01*
X22338870Y-24564174D01*
X22244615Y-24592766D01*
X22146600Y-24602419D01*
X22048586Y-24592766D01*
X21954331Y-24564174D01*
X21867473Y-24517747D01*
X21791337Y-24455264D01*
X21728854Y-24379128D01*
X21682425Y-24292267D01*
X21653834Y-24198018D01*
X21646600Y-24124564D01*
X21646600Y-23275437D01*
X21653834Y-23201986D01*
X21682426Y-23107731D01*
X21728853Y-23020873D01*
X21728854Y-23020871D01*
X21791336Y-22944736D01*
X21867471Y-22882254D01*
X21867470Y-22882254D01*
X21867472Y-22882253D01*
X21954330Y-22835826D01*
X22048585Y-22807234D01*
X22146600Y-22797581D01*
X22244614Y-22807234D01*
G37*
G36*
X20286823Y-21929403D02*
G01*
X20344604Y-21953337D01*
X20402386Y-21977271D01*
X20506386Y-22046761D01*
X20594839Y-22135214D01*
X20664329Y-22239214D01*
X20712197Y-22354778D01*
X20736600Y-22477459D01*
X20736600Y-22602541D01*
X20712197Y-22725222D01*
X20664329Y-22840786D01*
X20594839Y-22944786D01*
X20506386Y-23033239D01*
X20402386Y-23102729D01*
X20344604Y-23126663D01*
X20286823Y-23150597D01*
X20164142Y-23175000D01*
X20039058Y-23175000D01*
X19916377Y-23150597D01*
X19858596Y-23126663D01*
X19800814Y-23102729D01*
X19696814Y-23033239D01*
X19608361Y-22944786D01*
X19538871Y-22840786D01*
X19491003Y-22725222D01*
X19466600Y-22602541D01*
X19466600Y-22477459D01*
X19491003Y-22354778D01*
X19538871Y-22239214D01*
X19608361Y-22135214D01*
X19696814Y-22046761D01*
X19800814Y-21977271D01*
X19858596Y-21953337D01*
X19916377Y-21929403D01*
X20039058Y-21905000D01*
X20164142Y-21905000D01*
X20286823Y-21929403D01*
G37*
G36*
X35523906Y-21939018D02*
G01*
X35637647Y-21986131D01*
X35740013Y-22054530D01*
X35827070Y-22141587D01*
X35895469Y-22243953D01*
X35942582Y-22357694D01*
X35966600Y-22478442D01*
X35966600Y-22601558D01*
X35942582Y-22722306D01*
X35895469Y-22836047D01*
X35827070Y-22938413D01*
X35740013Y-23025470D01*
X35637647Y-23093869D01*
X35523906Y-23140982D01*
X35403158Y-23165000D01*
X35280042Y-23165000D01*
X35159294Y-23140982D01*
X35045553Y-23093869D01*
X34943187Y-23025470D01*
X34856130Y-22938413D01*
X34787731Y-22836047D01*
X34740618Y-22722306D01*
X34716600Y-22601558D01*
X34716600Y-22478442D01*
X34740618Y-22357694D01*
X34787731Y-22243953D01*
X34856130Y-22141587D01*
X34943187Y-22054530D01*
X35045553Y-21986131D01*
X35159294Y-21939018D01*
X35280042Y-21915000D01*
X35403158Y-21915000D01*
X35523906Y-21939018D01*
G37*
G36*
X22244614Y-18607234D02*
G01*
X22338869Y-18635826D01*
X22416814Y-18677489D01*
X22425729Y-18682254D01*
X22501864Y-18744736D01*
X22553142Y-18807219D01*
X22564347Y-18820872D01*
X22610774Y-18907730D01*
X22639366Y-19001985D01*
X22646600Y-19075436D01*
X22646600Y-20324564D01*
X22639366Y-20398015D01*
X22610774Y-20492270D01*
X22564347Y-20579128D01*
X22501864Y-20655264D01*
X22425728Y-20717747D01*
X22338870Y-20764174D01*
X22244615Y-20792766D01*
X22146600Y-20802419D01*
X22048586Y-20792766D01*
X21954331Y-20764174D01*
X21867473Y-20717747D01*
X21791337Y-20655264D01*
X21728854Y-20579128D01*
X21682427Y-20492270D01*
X21653835Y-20398015D01*
X21646601Y-20324564D01*
X21646600Y-19075437D01*
X21653834Y-19001986D01*
X21682426Y-18907731D01*
X21728853Y-18820873D01*
X21728854Y-18820871D01*
X21791336Y-18744736D01*
X21867471Y-18682254D01*
X21867470Y-18682254D01*
X21867472Y-18682253D01*
X21954330Y-18635826D01*
X22048585Y-18607234D01*
X22146600Y-18597581D01*
X22244614Y-18607234D01*
G37*
G36*
X33394614Y-18607234D02*
G01*
X33488869Y-18635826D01*
X33566814Y-18677489D01*
X33575729Y-18682254D01*
X33651864Y-18744736D01*
X33703142Y-18807219D01*
X33714347Y-18820872D01*
X33760774Y-18907730D01*
X33789366Y-19001985D01*
X33796600Y-19075436D01*
X33796600Y-20324564D01*
X33789366Y-20398015D01*
X33760774Y-20492270D01*
X33714347Y-20579128D01*
X33651864Y-20655264D01*
X33575728Y-20717747D01*
X33488870Y-20764174D01*
X33394615Y-20792766D01*
X33296600Y-20802419D01*
X33198586Y-20792766D01*
X33104331Y-20764174D01*
X33017473Y-20717747D01*
X32941337Y-20655264D01*
X32878854Y-20579128D01*
X32832427Y-20492270D01*
X32803835Y-20398015D01*
X32796601Y-20324564D01*
X32796600Y-19075437D01*
X32803834Y-19001986D01*
X32832426Y-18907731D01*
X32878853Y-18820873D01*
X32878854Y-18820871D01*
X32941336Y-18744736D01*
X33017471Y-18682254D01*
X33017470Y-18682254D01*
X33017472Y-18682253D01*
X33104330Y-18635826D01*
X33198585Y-18607234D01*
X33296600Y-18597581D01*
X33394614Y-18607234D01*
G37*
G36*
X35526823Y-19389403D02*
G01*
X35584604Y-19413337D01*
X35642386Y-19437271D01*
X35746386Y-19506761D01*
X35834839Y-19595214D01*
X35904329Y-19699214D01*
X35952197Y-19814778D01*
X35976600Y-19937459D01*
X35976600Y-20062541D01*
X35952197Y-20185222D01*
X35904329Y-20300786D01*
X35834839Y-20404786D01*
X35746386Y-20493239D01*
X35642386Y-20562729D01*
X35584604Y-20586663D01*
X35526823Y-20610597D01*
X35404142Y-20635000D01*
X35279058Y-20635000D01*
X35156377Y-20610597D01*
X35098596Y-20586663D01*
X35040814Y-20562729D01*
X34936814Y-20493239D01*
X34848361Y-20404786D01*
X34778871Y-20300786D01*
X34731003Y-20185222D01*
X34706600Y-20062541D01*
X34706600Y-19937459D01*
X34731003Y-19814778D01*
X34778871Y-19699214D01*
X34848361Y-19595214D01*
X34936814Y-19506761D01*
X35040814Y-19437271D01*
X35098596Y-19413337D01*
X35156377Y-19389403D01*
X35279058Y-19365000D01*
X35404142Y-19365000D01*
X35526823Y-19389403D01*
G37*
G36*
X20736600Y-20635000D02*
G01*
X19466600Y-20635000D01*
X19466600Y-19365000D01*
X20736600Y-19365000D01*
X20736600Y-20635000D01*
G37*
M02*
