%FSLAX45Y45*%
G04 Gerber Fmt 4.5, Leading zero omitted, Abs format (unit mm)*
G04 Created by KiCad (PCBNEW (5.1.10-1-10_14)) date 2021-09-18 19:47:18*
%MOMM*%
%LPD*%
G01*
G04 APERTURE LIST*
%TA.AperFunction,Profile*%
%ADD10C,0.150000*%
%TD*%
%ADD11C,0.200000*%
%ADD12C,0.300000*%
G04 APERTURE END LIST*
D10*
X3673700Y-1987300D02*
G75*
G03*
X3546700Y-1860300I-127000J0D01*
G01*
X3547970Y-5188970D02*
G75*
G03*
X3674970Y-5061970I0J127000D01*
G01*
X1869030Y-5061970D02*
G75*
G03*
X1996030Y-5188970I127000J0D01*
G01*
X1997300Y-1860300D02*
G75*
G03*
X1870300Y-1987300I0J-127000D01*
G01*
X3229153Y-1860277D02*
X3546700Y-1860300D01*
X3229153Y-2410000D02*
X3229153Y-1860277D01*
X2314753Y-2410000D02*
X3229153Y-2410000D01*
X2314753Y-1860277D02*
X2314753Y-2410000D01*
X1997300Y-1860300D02*
X2314753Y-1860277D01*
X1869030Y-5061970D02*
X1870300Y-1987300D01*
X3673700Y-1987300D02*
X3674970Y-5061970D01*
X3547970Y-5188970D02*
X1996030Y-5188970D01*
D11*
X2074850Y-4127180D02*
X2107850Y-4160180D01*
X2107850Y-4127180D02*
X2074850Y-4160180D01*
X2132540Y-3002530D02*
X2165540Y-3035530D01*
X2165540Y-3002530D02*
X2132540Y-3035530D01*
X2151030Y-3223360D02*
X2184030Y-3256360D01*
X2184030Y-3223360D02*
X2151030Y-3256360D01*
X2287280Y-3890610D02*
X2320280Y-3923610D01*
X2320280Y-3890610D02*
X2287280Y-3923610D01*
X2291130Y-3725570D02*
X2324130Y-3758570D01*
X2324130Y-3725570D02*
X2291130Y-3758570D01*
X2360160Y-3556540D02*
X2393160Y-3589540D01*
X2393160Y-3556540D02*
X2360160Y-3589540D01*
X2360530Y-3469150D02*
X2393530Y-3502150D01*
X2393530Y-3469150D02*
X2360530Y-3502150D01*
X2361040Y-3167390D02*
X2394040Y-3200390D01*
X2394040Y-3167390D02*
X2361040Y-3200390D01*
X2447520Y-3601410D02*
X2480520Y-3634410D01*
X2480520Y-3601410D02*
X2447520Y-3634410D01*
X2459590Y-2525540D02*
X2492590Y-2558540D01*
X2492590Y-2525540D02*
X2459590Y-2558540D01*
X2469970Y-2659900D02*
X2502970Y-2692900D01*
X2502970Y-2659900D02*
X2469970Y-2692900D01*
X2509480Y-4210530D02*
X2542480Y-4243530D01*
X2542480Y-4210530D02*
X2509480Y-4243530D01*
X2514690Y-3097710D02*
X2547690Y-3130710D01*
X2547690Y-3097710D02*
X2514690Y-3130710D01*
X2577070Y-2843360D02*
X2610070Y-2876360D01*
X2610070Y-2843360D02*
X2577070Y-2876360D01*
X2647980Y-3135220D02*
X2680980Y-3168220D01*
X2680980Y-3135220D02*
X2647980Y-3168220D01*
X2684130Y-2513850D02*
X2717130Y-2546850D01*
X2717130Y-2513850D02*
X2684130Y-2546850D01*
X2726450Y-4155650D02*
X2759450Y-4188650D01*
X2759450Y-4155650D02*
X2726450Y-4188650D01*
X2757760Y-3476160D02*
X2790760Y-3509160D01*
X2790760Y-3476160D02*
X2757760Y-3509160D01*
X2780390Y-2512840D02*
X2813390Y-2545840D01*
X2813390Y-2512840D02*
X2780390Y-2545840D01*
X2783690Y-2574560D02*
X2816690Y-2607560D01*
X2816690Y-2574560D02*
X2783690Y-2607560D01*
X2818000Y-2864160D02*
X2851000Y-2897160D01*
X2851000Y-2864160D02*
X2818000Y-2897160D01*
X2845940Y-3575320D02*
X2878940Y-3608320D01*
X2878940Y-3575320D02*
X2845940Y-3608320D01*
X2895610Y-4442160D02*
X2928610Y-4475160D01*
X2928610Y-4442160D02*
X2895610Y-4475160D01*
X2995780Y-2511570D02*
X3028780Y-2544570D01*
X3028780Y-2511570D02*
X2995780Y-2544570D01*
X3085350Y-3516250D02*
X3118350Y-3549250D01*
X3118350Y-3516250D02*
X3085350Y-3549250D01*
X3198720Y-2772070D02*
X3231720Y-2805070D01*
X3231720Y-2772070D02*
X3198720Y-2805070D01*
X3222810Y-3802350D02*
X3255810Y-3835350D01*
X3255810Y-3802350D02*
X3222810Y-3835350D01*
X3273420Y-3089820D02*
X3306420Y-3122820D01*
X3306420Y-3089820D02*
X3273420Y-3122820D01*
X3369820Y-3314710D02*
X3402820Y-3347710D01*
X3402820Y-3314710D02*
X3369820Y-3347710D01*
X2244630Y-1980000D02*
G75*
G03*
X2244630Y-1980000I-30000J0D01*
G01*
X2194630Y-1920000D02*
X2194630Y-2040000D01*
X2234630Y-1920000D02*
X2234630Y-2040000D01*
X2194630Y-2040000D02*
G75*
G03*
X2234630Y-2040000I20000J0D01*
G01*
X2234630Y-1920000D02*
G75*
G03*
X2194630Y-1920000I-20000J0D01*
G01*
X2244630Y-2360000D02*
G75*
G03*
X2244630Y-2360000I-30000J0D01*
G01*
X2194630Y-2320000D02*
X2194630Y-2400000D01*
X2234630Y-2320000D02*
X2234630Y-2400000D01*
X2194630Y-2400000D02*
G75*
G03*
X2234630Y-2400000I20000J0D01*
G01*
X2234630Y-2320000D02*
G75*
G03*
X2194630Y-2320000I-20000J0D01*
G01*
X3359690Y-1980000D02*
G75*
G03*
X3359690Y-1980000I-30000J0D01*
G01*
X3309690Y-1920000D02*
X3309690Y-2040000D01*
X3349690Y-1920000D02*
X3349690Y-2040000D01*
X3309690Y-2040000D02*
G75*
G03*
X3349690Y-2040000I20000J0D01*
G01*
X3349690Y-1920000D02*
G75*
G03*
X3309690Y-1920000I-20000J0D01*
G01*
X3359720Y-2360000D02*
G75*
G03*
X3359720Y-2360000I-30000J0D01*
G01*
X3309720Y-2320000D02*
X3309720Y-2400000D01*
X3349720Y-2320000D02*
X3349720Y-2400000D01*
X3309720Y-2400000D02*
G75*
G03*
X3349720Y-2400000I20000J0D01*
G01*
X3349720Y-2320000D02*
G75*
G03*
X3309720Y-2320000I-20000J0D01*
G01*
X2010160Y-1957500D02*
X2010160Y-2042500D01*
X1967660Y-2000000D02*
X2052660Y-2000000D01*
X2010160Y-2211500D02*
X2010160Y-2296500D01*
X1967660Y-2254000D02*
X2052660Y-2254000D01*
X2010160Y-2465500D02*
X2010160Y-2550500D01*
X1967660Y-2508000D02*
X2052660Y-2508000D01*
X2010160Y-2719500D02*
X2010160Y-2804500D01*
X1967660Y-2762000D02*
X2052660Y-2762000D01*
X2010160Y-2973500D02*
X2010160Y-3058500D01*
X1967660Y-3016000D02*
X2052660Y-3016000D01*
X2010160Y-3227500D02*
X2010160Y-3312500D01*
X1967660Y-3270000D02*
X2052660Y-3270000D01*
X2010160Y-3481500D02*
X2010160Y-3566500D01*
X1967660Y-3524000D02*
X2052660Y-3524000D01*
X2010160Y-3735500D02*
X2010160Y-3820500D01*
X1967660Y-3778000D02*
X2052660Y-3778000D01*
X2010160Y-3989500D02*
X2010160Y-4074500D01*
X1967660Y-4032000D02*
X2052660Y-4032000D01*
X2010160Y-4243500D02*
X2010160Y-4328500D01*
X1967660Y-4286000D02*
X2052660Y-4286000D01*
X2010160Y-4497500D02*
X2010160Y-4582500D01*
X1967660Y-4540000D02*
X2052660Y-4540000D01*
X2010160Y-4751500D02*
X2010160Y-4836500D01*
X1967660Y-4794000D02*
X2052660Y-4794000D01*
X2010160Y-5005500D02*
X2010160Y-5090500D01*
X1967660Y-5048000D02*
X2052660Y-5048000D01*
X3534160Y-1957500D02*
X3534160Y-2042500D01*
X3491660Y-2000000D02*
X3576660Y-2000000D01*
X3534160Y-2211500D02*
X3534160Y-2296500D01*
X3491660Y-2254000D02*
X3576660Y-2254000D01*
X3534160Y-2465500D02*
X3534160Y-2550500D01*
X3491660Y-2508000D02*
X3576660Y-2508000D01*
X3534160Y-2719500D02*
X3534160Y-2804500D01*
X3491660Y-2762000D02*
X3576660Y-2762000D01*
X3534160Y-2973500D02*
X3534160Y-3058500D01*
X3491660Y-3016000D02*
X3576660Y-3016000D01*
X3534160Y-3227500D02*
X3534160Y-3312500D01*
X3491660Y-3270000D02*
X3576660Y-3270000D01*
X3534160Y-3481500D02*
X3534160Y-3566500D01*
X3491660Y-3524000D02*
X3576660Y-3524000D01*
X3534160Y-3735500D02*
X3534160Y-3820500D01*
X3491660Y-3778000D02*
X3576660Y-3778000D01*
X3534160Y-3989500D02*
X3534160Y-4074500D01*
X3491660Y-4032000D02*
X3576660Y-4032000D01*
X3534160Y-4243500D02*
X3534160Y-4328500D01*
X3491660Y-4286000D02*
X3576660Y-4286000D01*
X3534160Y-4497500D02*
X3534160Y-4582500D01*
X3491660Y-4540000D02*
X3576660Y-4540000D01*
X3534160Y-4751500D02*
X3534160Y-4836500D01*
X3491660Y-4794000D02*
X3576660Y-4794000D01*
X3534160Y-5005500D02*
X3534160Y-5090500D01*
X3491660Y-5048000D02*
X3576660Y-5048000D01*
D12*
X2147958Y-5662184D02*
X2147958Y-5362184D01*
X2219387Y-5362184D01*
X2262244Y-5376470D01*
X2290816Y-5405042D01*
X2305101Y-5433613D01*
X2319387Y-5490756D01*
X2319387Y-5533613D01*
X2305101Y-5590756D01*
X2290816Y-5619327D01*
X2262244Y-5647899D01*
X2219387Y-5662184D01*
X2147958Y-5662184D01*
X2447958Y-5662184D02*
X2447958Y-5462184D01*
X2447958Y-5519327D02*
X2462244Y-5490756D01*
X2476530Y-5476470D01*
X2505101Y-5462184D01*
X2533673Y-5462184D01*
X2633673Y-5662184D02*
X2633673Y-5462184D01*
X2633673Y-5362184D02*
X2619387Y-5376470D01*
X2633673Y-5390756D01*
X2647958Y-5376470D01*
X2633673Y-5362184D01*
X2633673Y-5390756D01*
X2819387Y-5662184D02*
X2790816Y-5647899D01*
X2776530Y-5619327D01*
X2776530Y-5362184D01*
X2976530Y-5662184D02*
X2947958Y-5647899D01*
X2933673Y-5619327D01*
X2933673Y-5362184D01*
X3319387Y-5662184D02*
X3319387Y-5362184D01*
X3419387Y-5576470D01*
X3519387Y-5362184D01*
X3519387Y-5662184D01*
X3790816Y-5662184D02*
X3790816Y-5505042D01*
X3776530Y-5476470D01*
X3747958Y-5462184D01*
X3690816Y-5462184D01*
X3662244Y-5476470D01*
X3790816Y-5647899D02*
X3762244Y-5662184D01*
X3690816Y-5662184D01*
X3662244Y-5647899D01*
X3647958Y-5619327D01*
X3647958Y-5590756D01*
X3662244Y-5562184D01*
X3690816Y-5547899D01*
X3762244Y-5547899D01*
X3790816Y-5533613D01*
X3933673Y-5462184D02*
X3933673Y-5762184D01*
X3933673Y-5476470D02*
X3962244Y-5462184D01*
X4019387Y-5462184D01*
X4047958Y-5476470D01*
X4062244Y-5490756D01*
X4076530Y-5519327D01*
X4076530Y-5605041D01*
X4062244Y-5633613D01*
X4047958Y-5647899D01*
X4019387Y-5662184D01*
X3962244Y-5662184D01*
X3933673Y-5647899D01*
X4205101Y-5633613D02*
X4219387Y-5647899D01*
X4205101Y-5662184D01*
X4190816Y-5647899D01*
X4205101Y-5633613D01*
X4205101Y-5662184D01*
X4205101Y-5476470D02*
X4219387Y-5490756D01*
X4205101Y-5505042D01*
X4190816Y-5490756D01*
X4205101Y-5476470D01*
X4205101Y-5505042D01*
X1828530Y-6139970D02*
X1861530Y-6172970D01*
X1861530Y-6139970D02*
X1828530Y-6172970D01*
X2205101Y-5992184D02*
X2233673Y-5992184D01*
X2262244Y-6006470D01*
X2276530Y-6020756D01*
X2290816Y-6049327D01*
X2305101Y-6106470D01*
X2305101Y-6177899D01*
X2290816Y-6235041D01*
X2276530Y-6263613D01*
X2262244Y-6277899D01*
X2233673Y-6292184D01*
X2205101Y-6292184D01*
X2176530Y-6277899D01*
X2162244Y-6263613D01*
X2147958Y-6235041D01*
X2133673Y-6177899D01*
X2133673Y-6106470D01*
X2147958Y-6049327D01*
X2162244Y-6020756D01*
X2176530Y-6006470D01*
X2205101Y-5992184D01*
X2433673Y-6263613D02*
X2447958Y-6277899D01*
X2433673Y-6292184D01*
X2419387Y-6277899D01*
X2433673Y-6263613D01*
X2433673Y-6292184D01*
X2547958Y-5992184D02*
X2733673Y-5992184D01*
X2633673Y-6106470D01*
X2676530Y-6106470D01*
X2705101Y-6120756D01*
X2719387Y-6135041D01*
X2733673Y-6163613D01*
X2733673Y-6235041D01*
X2719387Y-6263613D01*
X2705101Y-6277899D01*
X2676530Y-6292184D01*
X2590816Y-6292184D01*
X2562244Y-6277899D01*
X2547958Y-6263613D01*
X2833673Y-5992184D02*
X3019387Y-5992184D01*
X2919387Y-6106470D01*
X2962244Y-6106470D01*
X2990816Y-6120756D01*
X3005101Y-6135041D01*
X3019387Y-6163613D01*
X3019387Y-6235041D01*
X3005101Y-6263613D01*
X2990816Y-6277899D01*
X2962244Y-6292184D01*
X2876530Y-6292184D01*
X2847958Y-6277899D01*
X2833673Y-6263613D01*
X3205101Y-5992184D02*
X3233673Y-5992184D01*
X3262244Y-6006470D01*
X3276530Y-6020756D01*
X3290816Y-6049327D01*
X3305101Y-6106470D01*
X3305101Y-6177899D01*
X3290816Y-6235041D01*
X3276530Y-6263613D01*
X3262244Y-6277899D01*
X3233673Y-6292184D01*
X3205101Y-6292184D01*
X3176530Y-6277899D01*
X3162244Y-6263613D01*
X3147958Y-6235041D01*
X3133673Y-6177899D01*
X3133673Y-6106470D01*
X3147958Y-6049327D01*
X3162244Y-6020756D01*
X3176530Y-6006470D01*
X3205101Y-5992184D01*
X3433673Y-6292184D02*
X3433673Y-6092184D01*
X3433673Y-6120756D02*
X3447958Y-6106470D01*
X3476530Y-6092184D01*
X3519387Y-6092184D01*
X3547958Y-6106470D01*
X3562244Y-6135041D01*
X3562244Y-6292184D01*
X3562244Y-6135041D02*
X3576530Y-6106470D01*
X3605101Y-6092184D01*
X3647958Y-6092184D01*
X3676530Y-6106470D01*
X3690816Y-6135041D01*
X3690816Y-6292184D01*
X3833673Y-6292184D02*
X3833673Y-6092184D01*
X3833673Y-6120756D02*
X3847958Y-6106470D01*
X3876530Y-6092184D01*
X3919387Y-6092184D01*
X3947958Y-6106470D01*
X3962244Y-6135041D01*
X3962244Y-6292184D01*
X3962244Y-6135041D02*
X3976530Y-6106470D01*
X4005101Y-6092184D01*
X4047958Y-6092184D01*
X4076530Y-6106470D01*
X4090816Y-6135041D01*
X4090816Y-6292184D01*
X4676530Y-5977899D02*
X4419387Y-6363613D01*
X5062244Y-5992184D02*
X5090816Y-5992184D01*
X5119387Y-6006470D01*
X5133673Y-6020756D01*
X5147958Y-6049327D01*
X5162244Y-6106470D01*
X5162244Y-6177899D01*
X5147958Y-6235041D01*
X5133673Y-6263613D01*
X5119387Y-6277899D01*
X5090816Y-6292184D01*
X5062244Y-6292184D01*
X5033673Y-6277899D01*
X5019387Y-6263613D01*
X5005101Y-6235041D01*
X4990816Y-6177899D01*
X4990816Y-6106470D01*
X5005101Y-6049327D01*
X5019387Y-6020756D01*
X5033673Y-6006470D01*
X5062244Y-5992184D01*
X5290816Y-6263613D02*
X5305101Y-6277899D01*
X5290816Y-6292184D01*
X5276530Y-6277899D01*
X5290816Y-6263613D01*
X5290816Y-6292184D01*
X5490816Y-5992184D02*
X5519387Y-5992184D01*
X5547958Y-6006470D01*
X5562244Y-6020756D01*
X5576530Y-6049327D01*
X5590816Y-6106470D01*
X5590816Y-6177899D01*
X5576530Y-6235041D01*
X5562244Y-6263613D01*
X5547958Y-6277899D01*
X5519387Y-6292184D01*
X5490816Y-6292184D01*
X5462244Y-6277899D01*
X5447958Y-6263613D01*
X5433673Y-6235041D01*
X5419387Y-6177899D01*
X5419387Y-6106470D01*
X5433673Y-6049327D01*
X5447958Y-6020756D01*
X5462244Y-6006470D01*
X5490816Y-5992184D01*
X5876530Y-6292184D02*
X5705101Y-6292184D01*
X5790816Y-6292184D02*
X5790816Y-5992184D01*
X5762244Y-6035041D01*
X5733673Y-6063613D01*
X5705101Y-6077899D01*
X5976530Y-5992184D02*
X6162244Y-5992184D01*
X6062244Y-6106470D01*
X6105101Y-6106470D01*
X6133673Y-6120756D01*
X6147958Y-6135041D01*
X6162244Y-6163613D01*
X6162244Y-6235041D01*
X6147958Y-6263613D01*
X6133673Y-6277899D01*
X6105101Y-6292184D01*
X6019387Y-6292184D01*
X5990816Y-6277899D01*
X5976530Y-6263613D01*
X6347958Y-5992184D02*
X6376530Y-5992184D01*
X6405101Y-6006470D01*
X6419387Y-6020756D01*
X6433673Y-6049327D01*
X6447958Y-6106470D01*
X6447958Y-6177899D01*
X6433673Y-6235041D01*
X6419387Y-6263613D01*
X6405101Y-6277899D01*
X6376530Y-6292184D01*
X6347958Y-6292184D01*
X6319387Y-6277899D01*
X6305101Y-6263613D01*
X6290816Y-6235041D01*
X6276530Y-6177899D01*
X6276530Y-6106470D01*
X6290816Y-6049327D01*
X6305101Y-6020756D01*
X6319387Y-6006470D01*
X6347958Y-5992184D01*
X6562244Y-5992184D02*
X6562244Y-6049327D01*
X6676530Y-5992184D02*
X6676530Y-6049327D01*
X7119387Y-6406470D02*
X7105101Y-6392184D01*
X7076530Y-6349327D01*
X7062244Y-6320756D01*
X7047958Y-6277899D01*
X7033673Y-6206470D01*
X7033673Y-6149327D01*
X7047958Y-6077899D01*
X7062244Y-6035041D01*
X7076530Y-6006470D01*
X7105101Y-5963613D01*
X7119387Y-5949327D01*
X7219387Y-6020756D02*
X7233673Y-6006470D01*
X7262244Y-5992184D01*
X7333673Y-5992184D01*
X7362244Y-6006470D01*
X7376530Y-6020756D01*
X7390816Y-6049327D01*
X7390816Y-6077899D01*
X7376530Y-6120756D01*
X7205101Y-6292184D01*
X7390816Y-6292184D01*
X7533673Y-6292184D02*
X7590816Y-6292184D01*
X7619387Y-6277899D01*
X7633673Y-6263613D01*
X7662244Y-6220756D01*
X7676530Y-6163613D01*
X7676530Y-6049327D01*
X7662244Y-6020756D01*
X7647958Y-6006470D01*
X7619387Y-5992184D01*
X7562244Y-5992184D01*
X7533673Y-6006470D01*
X7519387Y-6020756D01*
X7505101Y-6049327D01*
X7505101Y-6120756D01*
X7519387Y-6149327D01*
X7533673Y-6163613D01*
X7562244Y-6177899D01*
X7619387Y-6177899D01*
X7647958Y-6163613D01*
X7662244Y-6149327D01*
X7676530Y-6120756D01*
X8033673Y-6292184D02*
X8033673Y-5992184D01*
X8162244Y-6292184D02*
X8162244Y-6135041D01*
X8147958Y-6106470D01*
X8119387Y-6092184D01*
X8076530Y-6092184D01*
X8047958Y-6106470D01*
X8033673Y-6120756D01*
X8347958Y-6292184D02*
X8319387Y-6277899D01*
X8305101Y-6263613D01*
X8290816Y-6235041D01*
X8290816Y-6149327D01*
X8305101Y-6120756D01*
X8319387Y-6106470D01*
X8347958Y-6092184D01*
X8390816Y-6092184D01*
X8419387Y-6106470D01*
X8433673Y-6120756D01*
X8447958Y-6149327D01*
X8447958Y-6235041D01*
X8433673Y-6263613D01*
X8419387Y-6277899D01*
X8390816Y-6292184D01*
X8347958Y-6292184D01*
X8619387Y-6292184D02*
X8590816Y-6277899D01*
X8576530Y-6249327D01*
X8576530Y-5992184D01*
X8847958Y-6277899D02*
X8819387Y-6292184D01*
X8762244Y-6292184D01*
X8733673Y-6277899D01*
X8719387Y-6249327D01*
X8719387Y-6135041D01*
X8733673Y-6106470D01*
X8762244Y-6092184D01*
X8819387Y-6092184D01*
X8847958Y-6106470D01*
X8862244Y-6135041D01*
X8862244Y-6163613D01*
X8719387Y-6192184D01*
X8976530Y-6277899D02*
X9005101Y-6292184D01*
X9062244Y-6292184D01*
X9090816Y-6277899D01*
X9105101Y-6249327D01*
X9105101Y-6235041D01*
X9090816Y-6206470D01*
X9062244Y-6192184D01*
X9019387Y-6192184D01*
X8990816Y-6177899D01*
X8976530Y-6149327D01*
X8976530Y-6135041D01*
X8990816Y-6106470D01*
X9019387Y-6092184D01*
X9062244Y-6092184D01*
X9090816Y-6106470D01*
X9205101Y-6406470D02*
X9219387Y-6392184D01*
X9247958Y-6349327D01*
X9262244Y-6320756D01*
X9276530Y-6277899D01*
X9290816Y-6206470D01*
X9290816Y-6149327D01*
X9276530Y-6077899D01*
X9262244Y-6035041D01*
X9247958Y-6006470D01*
X9219387Y-5963613D01*
X9205101Y-5949327D01*
X1861530Y-6552470D02*
G75*
G03*
X1861530Y-6552470I-30000J0D01*
G01*
X2205101Y-6388184D02*
X2233673Y-6388184D01*
X2262244Y-6402470D01*
X2276530Y-6416756D01*
X2290816Y-6445327D01*
X2305101Y-6502470D01*
X2305101Y-6573899D01*
X2290816Y-6631041D01*
X2276530Y-6659613D01*
X2262244Y-6673899D01*
X2233673Y-6688184D01*
X2205101Y-6688184D01*
X2176530Y-6673899D01*
X2162244Y-6659613D01*
X2147958Y-6631041D01*
X2133673Y-6573899D01*
X2133673Y-6502470D01*
X2147958Y-6445327D01*
X2162244Y-6416756D01*
X2176530Y-6402470D01*
X2205101Y-6388184D01*
X2433673Y-6659613D02*
X2447958Y-6673899D01*
X2433673Y-6688184D01*
X2419387Y-6673899D01*
X2433673Y-6659613D01*
X2433673Y-6688184D01*
X2705101Y-6388184D02*
X2647958Y-6388184D01*
X2619387Y-6402470D01*
X2605101Y-6416756D01*
X2576530Y-6459613D01*
X2562244Y-6516756D01*
X2562244Y-6631041D01*
X2576530Y-6659613D01*
X2590816Y-6673899D01*
X2619387Y-6688184D01*
X2676530Y-6688184D01*
X2705101Y-6673899D01*
X2719387Y-6659613D01*
X2733673Y-6631041D01*
X2733673Y-6559613D01*
X2719387Y-6531041D01*
X2705101Y-6516756D01*
X2676530Y-6502470D01*
X2619387Y-6502470D01*
X2590816Y-6516756D01*
X2576530Y-6531041D01*
X2562244Y-6559613D01*
X2919387Y-6388184D02*
X2947958Y-6388184D01*
X2976530Y-6402470D01*
X2990816Y-6416756D01*
X3005101Y-6445327D01*
X3019387Y-6502470D01*
X3019387Y-6573899D01*
X3005101Y-6631041D01*
X2990816Y-6659613D01*
X2976530Y-6673899D01*
X2947958Y-6688184D01*
X2919387Y-6688184D01*
X2890816Y-6673899D01*
X2876530Y-6659613D01*
X2862244Y-6631041D01*
X2847958Y-6573899D01*
X2847958Y-6502470D01*
X2862244Y-6445327D01*
X2876530Y-6416756D01*
X2890816Y-6402470D01*
X2919387Y-6388184D01*
X3205101Y-6388184D02*
X3233673Y-6388184D01*
X3262244Y-6402470D01*
X3276530Y-6416756D01*
X3290816Y-6445327D01*
X3305101Y-6502470D01*
X3305101Y-6573899D01*
X3290816Y-6631041D01*
X3276530Y-6659613D01*
X3262244Y-6673899D01*
X3233673Y-6688184D01*
X3205101Y-6688184D01*
X3176530Y-6673899D01*
X3162244Y-6659613D01*
X3147958Y-6631041D01*
X3133673Y-6573899D01*
X3133673Y-6502470D01*
X3147958Y-6445327D01*
X3162244Y-6416756D01*
X3176530Y-6402470D01*
X3205101Y-6388184D01*
X3433673Y-6688184D02*
X3433673Y-6488184D01*
X3433673Y-6516756D02*
X3447958Y-6502470D01*
X3476530Y-6488184D01*
X3519387Y-6488184D01*
X3547958Y-6502470D01*
X3562244Y-6531041D01*
X3562244Y-6688184D01*
X3562244Y-6531041D02*
X3576530Y-6502470D01*
X3605101Y-6488184D01*
X3647958Y-6488184D01*
X3676530Y-6502470D01*
X3690816Y-6531041D01*
X3690816Y-6688184D01*
X3833673Y-6688184D02*
X3833673Y-6488184D01*
X3833673Y-6516756D02*
X3847958Y-6502470D01*
X3876530Y-6488184D01*
X3919387Y-6488184D01*
X3947958Y-6502470D01*
X3962244Y-6531041D01*
X3962244Y-6688184D01*
X3962244Y-6531041D02*
X3976530Y-6502470D01*
X4005101Y-6488184D01*
X4047958Y-6488184D01*
X4076530Y-6502470D01*
X4090816Y-6531041D01*
X4090816Y-6688184D01*
X4676530Y-6373899D02*
X4419387Y-6759613D01*
X5062244Y-6388184D02*
X5090816Y-6388184D01*
X5119387Y-6402470D01*
X5133673Y-6416756D01*
X5147958Y-6445327D01*
X5162244Y-6502470D01*
X5162244Y-6573899D01*
X5147958Y-6631041D01*
X5133673Y-6659613D01*
X5119387Y-6673899D01*
X5090816Y-6688184D01*
X5062244Y-6688184D01*
X5033673Y-6673899D01*
X5019387Y-6659613D01*
X5005101Y-6631041D01*
X4990816Y-6573899D01*
X4990816Y-6502470D01*
X5005101Y-6445327D01*
X5019387Y-6416756D01*
X5033673Y-6402470D01*
X5062244Y-6388184D01*
X5290816Y-6659613D02*
X5305101Y-6673899D01*
X5290816Y-6688184D01*
X5276530Y-6673899D01*
X5290816Y-6659613D01*
X5290816Y-6688184D01*
X5490816Y-6388184D02*
X5519387Y-6388184D01*
X5547958Y-6402470D01*
X5562244Y-6416756D01*
X5576530Y-6445327D01*
X5590816Y-6502470D01*
X5590816Y-6573899D01*
X5576530Y-6631041D01*
X5562244Y-6659613D01*
X5547958Y-6673899D01*
X5519387Y-6688184D01*
X5490816Y-6688184D01*
X5462244Y-6673899D01*
X5447958Y-6659613D01*
X5433673Y-6631041D01*
X5419387Y-6573899D01*
X5419387Y-6502470D01*
X5433673Y-6445327D01*
X5447958Y-6416756D01*
X5462244Y-6402470D01*
X5490816Y-6388184D01*
X5705101Y-6416756D02*
X5719387Y-6402470D01*
X5747958Y-6388184D01*
X5819387Y-6388184D01*
X5847958Y-6402470D01*
X5862244Y-6416756D01*
X5876530Y-6445327D01*
X5876530Y-6473899D01*
X5862244Y-6516756D01*
X5690816Y-6688184D01*
X5876530Y-6688184D01*
X5976530Y-6388184D02*
X6162244Y-6388184D01*
X6062244Y-6502470D01*
X6105101Y-6502470D01*
X6133673Y-6516756D01*
X6147958Y-6531041D01*
X6162244Y-6559613D01*
X6162244Y-6631041D01*
X6147958Y-6659613D01*
X6133673Y-6673899D01*
X6105101Y-6688184D01*
X6019387Y-6688184D01*
X5990816Y-6673899D01*
X5976530Y-6659613D01*
X6419387Y-6388184D02*
X6362244Y-6388184D01*
X6333673Y-6402470D01*
X6319387Y-6416756D01*
X6290816Y-6459613D01*
X6276530Y-6516756D01*
X6276530Y-6631041D01*
X6290816Y-6659613D01*
X6305101Y-6673899D01*
X6333673Y-6688184D01*
X6390816Y-6688184D01*
X6419387Y-6673899D01*
X6433673Y-6659613D01*
X6447958Y-6631041D01*
X6447958Y-6559613D01*
X6433673Y-6531041D01*
X6419387Y-6516756D01*
X6390816Y-6502470D01*
X6333673Y-6502470D01*
X6305101Y-6516756D01*
X6290816Y-6531041D01*
X6276530Y-6559613D01*
X6562244Y-6388184D02*
X6562244Y-6445327D01*
X6676530Y-6388184D02*
X6676530Y-6445327D01*
X7119387Y-6802470D02*
X7105101Y-6788184D01*
X7076530Y-6745327D01*
X7062244Y-6716756D01*
X7047958Y-6673899D01*
X7033673Y-6602470D01*
X7033673Y-6545327D01*
X7047958Y-6473899D01*
X7062244Y-6431041D01*
X7076530Y-6402470D01*
X7105101Y-6359613D01*
X7119387Y-6345327D01*
X7290816Y-6388184D02*
X7319387Y-6388184D01*
X7347958Y-6402470D01*
X7362244Y-6416756D01*
X7376530Y-6445327D01*
X7390816Y-6502470D01*
X7390816Y-6573899D01*
X7376530Y-6631041D01*
X7362244Y-6659613D01*
X7347958Y-6673899D01*
X7319387Y-6688184D01*
X7290816Y-6688184D01*
X7262244Y-6673899D01*
X7247958Y-6659613D01*
X7233673Y-6631041D01*
X7219387Y-6573899D01*
X7219387Y-6502470D01*
X7233673Y-6445327D01*
X7247958Y-6416756D01*
X7262244Y-6402470D01*
X7290816Y-6388184D01*
X7747958Y-6688184D02*
X7747958Y-6388184D01*
X7876530Y-6688184D02*
X7876530Y-6531041D01*
X7862244Y-6502470D01*
X7833673Y-6488184D01*
X7790816Y-6488184D01*
X7762244Y-6502470D01*
X7747958Y-6516756D01*
X8062244Y-6688184D02*
X8033673Y-6673899D01*
X8019387Y-6659613D01*
X8005101Y-6631041D01*
X8005101Y-6545327D01*
X8019387Y-6516756D01*
X8033673Y-6502470D01*
X8062244Y-6488184D01*
X8105101Y-6488184D01*
X8133673Y-6502470D01*
X8147958Y-6516756D01*
X8162244Y-6545327D01*
X8162244Y-6631041D01*
X8147958Y-6659613D01*
X8133673Y-6673899D01*
X8105101Y-6688184D01*
X8062244Y-6688184D01*
X8333673Y-6688184D02*
X8305101Y-6673899D01*
X8290816Y-6645327D01*
X8290816Y-6388184D01*
X8562244Y-6673899D02*
X8533673Y-6688184D01*
X8476530Y-6688184D01*
X8447958Y-6673899D01*
X8433673Y-6645327D01*
X8433673Y-6531041D01*
X8447958Y-6502470D01*
X8476530Y-6488184D01*
X8533673Y-6488184D01*
X8562244Y-6502470D01*
X8576530Y-6531041D01*
X8576530Y-6559613D01*
X8433673Y-6588184D01*
X8690816Y-6673899D02*
X8719387Y-6688184D01*
X8776530Y-6688184D01*
X8805101Y-6673899D01*
X8819387Y-6645327D01*
X8819387Y-6631041D01*
X8805101Y-6602470D01*
X8776530Y-6588184D01*
X8733673Y-6588184D01*
X8705101Y-6573899D01*
X8690816Y-6545327D01*
X8690816Y-6531041D01*
X8705101Y-6502470D01*
X8733673Y-6488184D01*
X8776530Y-6488184D01*
X8805101Y-6502470D01*
X9176530Y-6573899D02*
X9405101Y-6573899D01*
X9290816Y-6688184D02*
X9290816Y-6459613D01*
X9905101Y-6488184D02*
X9905101Y-6688184D01*
X9833673Y-6373899D02*
X9762244Y-6588184D01*
X9947958Y-6588184D01*
X10276530Y-6673899D02*
X10305101Y-6688184D01*
X10362244Y-6688184D01*
X10390816Y-6673899D01*
X10405101Y-6645327D01*
X10405101Y-6631041D01*
X10390816Y-6602470D01*
X10362244Y-6588184D01*
X10319387Y-6588184D01*
X10290816Y-6573899D01*
X10276530Y-6545327D01*
X10276530Y-6531041D01*
X10290816Y-6502470D01*
X10319387Y-6488184D01*
X10362244Y-6488184D01*
X10390816Y-6502470D01*
X10576530Y-6688184D02*
X10547958Y-6673899D01*
X10533673Y-6645327D01*
X10533673Y-6388184D01*
X10733673Y-6688184D02*
X10705101Y-6673899D01*
X10690816Y-6659613D01*
X10676530Y-6631041D01*
X10676530Y-6545327D01*
X10690816Y-6516756D01*
X10705101Y-6502470D01*
X10733673Y-6488184D01*
X10776530Y-6488184D01*
X10805101Y-6502470D01*
X10819387Y-6516756D01*
X10833673Y-6545327D01*
X10833673Y-6631041D01*
X10819387Y-6659613D01*
X10805101Y-6673899D01*
X10776530Y-6688184D01*
X10733673Y-6688184D01*
X10919387Y-6488184D02*
X11033673Y-6488184D01*
X10962244Y-6388184D02*
X10962244Y-6645327D01*
X10976530Y-6673899D01*
X11005101Y-6688184D01*
X11033673Y-6688184D01*
X11119387Y-6673899D02*
X11147958Y-6688184D01*
X11205101Y-6688184D01*
X11233673Y-6673899D01*
X11247958Y-6645327D01*
X11247958Y-6631041D01*
X11233673Y-6602470D01*
X11205101Y-6588184D01*
X11162244Y-6588184D01*
X11133673Y-6573899D01*
X11119387Y-6545327D01*
X11119387Y-6531041D01*
X11133673Y-6502470D01*
X11162244Y-6488184D01*
X11205101Y-6488184D01*
X11233673Y-6502470D01*
X11347958Y-6802470D02*
X11362244Y-6788184D01*
X11390816Y-6745327D01*
X11405101Y-6716756D01*
X11419387Y-6673899D01*
X11433673Y-6602470D01*
X11433673Y-6545327D01*
X11419387Y-6473899D01*
X11405101Y-6431041D01*
X11390816Y-6402470D01*
X11362244Y-6359613D01*
X11347958Y-6345327D01*
X1819030Y-6905970D02*
X1819030Y-6990970D01*
X1776530Y-6948470D02*
X1861530Y-6948470D01*
X2205101Y-6784184D02*
X2233673Y-6784184D01*
X2262244Y-6798470D01*
X2276530Y-6812756D01*
X2290816Y-6841327D01*
X2305101Y-6898470D01*
X2305101Y-6969899D01*
X2290816Y-7027041D01*
X2276530Y-7055613D01*
X2262244Y-7069899D01*
X2233673Y-7084184D01*
X2205101Y-7084184D01*
X2176530Y-7069899D01*
X2162244Y-7055613D01*
X2147958Y-7027041D01*
X2133673Y-6969899D01*
X2133673Y-6898470D01*
X2147958Y-6841327D01*
X2162244Y-6812756D01*
X2176530Y-6798470D01*
X2205101Y-6784184D01*
X2433673Y-7055613D02*
X2447958Y-7069899D01*
X2433673Y-7084184D01*
X2419387Y-7069899D01*
X2433673Y-7055613D01*
X2433673Y-7084184D01*
X2619387Y-6912756D02*
X2590816Y-6898470D01*
X2576530Y-6884184D01*
X2562244Y-6855613D01*
X2562244Y-6841327D01*
X2576530Y-6812756D01*
X2590816Y-6798470D01*
X2619387Y-6784184D01*
X2676530Y-6784184D01*
X2705101Y-6798470D01*
X2719387Y-6812756D01*
X2733673Y-6841327D01*
X2733673Y-6855613D01*
X2719387Y-6884184D01*
X2705101Y-6898470D01*
X2676530Y-6912756D01*
X2619387Y-6912756D01*
X2590816Y-6927041D01*
X2576530Y-6941327D01*
X2562244Y-6969899D01*
X2562244Y-7027041D01*
X2576530Y-7055613D01*
X2590816Y-7069899D01*
X2619387Y-7084184D01*
X2676530Y-7084184D01*
X2705101Y-7069899D01*
X2719387Y-7055613D01*
X2733673Y-7027041D01*
X2733673Y-6969899D01*
X2719387Y-6941327D01*
X2705101Y-6927041D01*
X2676530Y-6912756D01*
X3005101Y-6784184D02*
X2862244Y-6784184D01*
X2847958Y-6927041D01*
X2862244Y-6912756D01*
X2890816Y-6898470D01*
X2962244Y-6898470D01*
X2990816Y-6912756D01*
X3005101Y-6927041D01*
X3019387Y-6955613D01*
X3019387Y-7027041D01*
X3005101Y-7055613D01*
X2990816Y-7069899D01*
X2962244Y-7084184D01*
X2890816Y-7084184D01*
X2862244Y-7069899D01*
X2847958Y-7055613D01*
X3205101Y-6784184D02*
X3233673Y-6784184D01*
X3262244Y-6798470D01*
X3276530Y-6812756D01*
X3290816Y-6841327D01*
X3305101Y-6898470D01*
X3305101Y-6969899D01*
X3290816Y-7027041D01*
X3276530Y-7055613D01*
X3262244Y-7069899D01*
X3233673Y-7084184D01*
X3205101Y-7084184D01*
X3176530Y-7069899D01*
X3162244Y-7055613D01*
X3147958Y-7027041D01*
X3133673Y-6969899D01*
X3133673Y-6898470D01*
X3147958Y-6841327D01*
X3162244Y-6812756D01*
X3176530Y-6798470D01*
X3205101Y-6784184D01*
X3433673Y-7084184D02*
X3433673Y-6884184D01*
X3433673Y-6912756D02*
X3447958Y-6898470D01*
X3476530Y-6884184D01*
X3519387Y-6884184D01*
X3547958Y-6898470D01*
X3562244Y-6927041D01*
X3562244Y-7084184D01*
X3562244Y-6927041D02*
X3576530Y-6898470D01*
X3605101Y-6884184D01*
X3647958Y-6884184D01*
X3676530Y-6898470D01*
X3690816Y-6927041D01*
X3690816Y-7084184D01*
X3833673Y-7084184D02*
X3833673Y-6884184D01*
X3833673Y-6912756D02*
X3847958Y-6898470D01*
X3876530Y-6884184D01*
X3919387Y-6884184D01*
X3947958Y-6898470D01*
X3962244Y-6927041D01*
X3962244Y-7084184D01*
X3962244Y-6927041D02*
X3976530Y-6898470D01*
X4005101Y-6884184D01*
X4047958Y-6884184D01*
X4076530Y-6898470D01*
X4090816Y-6927041D01*
X4090816Y-7084184D01*
X4676530Y-6769899D02*
X4419387Y-7155613D01*
X5062244Y-6784184D02*
X5090816Y-6784184D01*
X5119387Y-6798470D01*
X5133673Y-6812756D01*
X5147958Y-6841327D01*
X5162244Y-6898470D01*
X5162244Y-6969899D01*
X5147958Y-7027041D01*
X5133673Y-7055613D01*
X5119387Y-7069899D01*
X5090816Y-7084184D01*
X5062244Y-7084184D01*
X5033673Y-7069899D01*
X5019387Y-7055613D01*
X5005101Y-7027041D01*
X4990816Y-6969899D01*
X4990816Y-6898470D01*
X5005101Y-6841327D01*
X5019387Y-6812756D01*
X5033673Y-6798470D01*
X5062244Y-6784184D01*
X5290816Y-7055613D02*
X5305101Y-7069899D01*
X5290816Y-7084184D01*
X5276530Y-7069899D01*
X5290816Y-7055613D01*
X5290816Y-7084184D01*
X5490816Y-6784184D02*
X5519387Y-6784184D01*
X5547958Y-6798470D01*
X5562244Y-6812756D01*
X5576530Y-6841327D01*
X5590816Y-6898470D01*
X5590816Y-6969899D01*
X5576530Y-7027041D01*
X5562244Y-7055613D01*
X5547958Y-7069899D01*
X5519387Y-7084184D01*
X5490816Y-7084184D01*
X5462244Y-7069899D01*
X5447958Y-7055613D01*
X5433673Y-7027041D01*
X5419387Y-6969899D01*
X5419387Y-6898470D01*
X5433673Y-6841327D01*
X5447958Y-6812756D01*
X5462244Y-6798470D01*
X5490816Y-6784184D01*
X5690816Y-6784184D02*
X5876530Y-6784184D01*
X5776530Y-6898470D01*
X5819387Y-6898470D01*
X5847958Y-6912756D01*
X5862244Y-6927041D01*
X5876530Y-6955613D01*
X5876530Y-7027041D01*
X5862244Y-7055613D01*
X5847958Y-7069899D01*
X5819387Y-7084184D01*
X5733673Y-7084184D01*
X5705101Y-7069899D01*
X5690816Y-7055613D01*
X5976530Y-6784184D02*
X6162244Y-6784184D01*
X6062244Y-6898470D01*
X6105101Y-6898470D01*
X6133673Y-6912756D01*
X6147958Y-6927041D01*
X6162244Y-6955613D01*
X6162244Y-7027041D01*
X6147958Y-7055613D01*
X6133673Y-7069899D01*
X6105101Y-7084184D01*
X6019387Y-7084184D01*
X5990816Y-7069899D01*
X5976530Y-7055613D01*
X6433673Y-6784184D02*
X6290816Y-6784184D01*
X6276530Y-6927041D01*
X6290816Y-6912756D01*
X6319387Y-6898470D01*
X6390816Y-6898470D01*
X6419387Y-6912756D01*
X6433673Y-6927041D01*
X6447958Y-6955613D01*
X6447958Y-7027041D01*
X6433673Y-7055613D01*
X6419387Y-7069899D01*
X6390816Y-7084184D01*
X6319387Y-7084184D01*
X6290816Y-7069899D01*
X6276530Y-7055613D01*
X6562244Y-6784184D02*
X6562244Y-6841327D01*
X6676530Y-6784184D02*
X6676530Y-6841327D01*
X7119387Y-7198470D02*
X7105101Y-7184184D01*
X7076530Y-7141327D01*
X7062244Y-7112756D01*
X7047958Y-7069899D01*
X7033673Y-6998470D01*
X7033673Y-6941327D01*
X7047958Y-6869899D01*
X7062244Y-6827041D01*
X7076530Y-6798470D01*
X7105101Y-6755613D01*
X7119387Y-6741327D01*
X7219387Y-6812756D02*
X7233673Y-6798470D01*
X7262244Y-6784184D01*
X7333673Y-6784184D01*
X7362244Y-6798470D01*
X7376530Y-6812756D01*
X7390816Y-6841327D01*
X7390816Y-6869899D01*
X7376530Y-6912756D01*
X7205101Y-7084184D01*
X7390816Y-7084184D01*
X7647958Y-6784184D02*
X7590816Y-6784184D01*
X7562244Y-6798470D01*
X7547958Y-6812756D01*
X7519387Y-6855613D01*
X7505101Y-6912756D01*
X7505101Y-7027041D01*
X7519387Y-7055613D01*
X7533673Y-7069899D01*
X7562244Y-7084184D01*
X7619387Y-7084184D01*
X7647958Y-7069899D01*
X7662244Y-7055613D01*
X7676530Y-7027041D01*
X7676530Y-6955613D01*
X7662244Y-6927041D01*
X7647958Y-6912756D01*
X7619387Y-6898470D01*
X7562244Y-6898470D01*
X7533673Y-6912756D01*
X7519387Y-6927041D01*
X7505101Y-6955613D01*
X8033673Y-7084184D02*
X8033673Y-6784184D01*
X8162244Y-7084184D02*
X8162244Y-6927041D01*
X8147958Y-6898470D01*
X8119387Y-6884184D01*
X8076530Y-6884184D01*
X8047958Y-6898470D01*
X8033673Y-6912756D01*
X8347958Y-7084184D02*
X8319387Y-7069899D01*
X8305101Y-7055613D01*
X8290816Y-7027041D01*
X8290816Y-6941327D01*
X8305101Y-6912756D01*
X8319387Y-6898470D01*
X8347958Y-6884184D01*
X8390816Y-6884184D01*
X8419387Y-6898470D01*
X8433673Y-6912756D01*
X8447958Y-6941327D01*
X8447958Y-7027041D01*
X8433673Y-7055613D01*
X8419387Y-7069899D01*
X8390816Y-7084184D01*
X8347958Y-7084184D01*
X8619387Y-7084184D02*
X8590816Y-7069899D01*
X8576530Y-7041327D01*
X8576530Y-6784184D01*
X8847958Y-7069899D02*
X8819387Y-7084184D01*
X8762244Y-7084184D01*
X8733673Y-7069899D01*
X8719387Y-7041327D01*
X8719387Y-6927041D01*
X8733673Y-6898470D01*
X8762244Y-6884184D01*
X8819387Y-6884184D01*
X8847958Y-6898470D01*
X8862244Y-6927041D01*
X8862244Y-6955613D01*
X8719387Y-6984184D01*
X8976530Y-7069899D02*
X9005101Y-7084184D01*
X9062244Y-7084184D01*
X9090816Y-7069899D01*
X9105101Y-7041327D01*
X9105101Y-7027041D01*
X9090816Y-6998470D01*
X9062244Y-6984184D01*
X9019387Y-6984184D01*
X8990816Y-6969899D01*
X8976530Y-6941327D01*
X8976530Y-6927041D01*
X8990816Y-6898470D01*
X9019387Y-6884184D01*
X9062244Y-6884184D01*
X9090816Y-6898470D01*
X9205101Y-7198470D02*
X9219387Y-7184184D01*
X9247958Y-7141327D01*
X9262244Y-7112756D01*
X9276530Y-7069899D01*
X9290816Y-6998470D01*
X9290816Y-6941327D01*
X9276530Y-6869899D01*
X9262244Y-6827041D01*
X9247958Y-6798470D01*
X9219387Y-6755613D01*
X9205101Y-6741327D01*
M02*
