M48
; DRILL file {KiCad (5.1.10-1-10_14)} date Saturday, September 18, 2021 at 07:47:17 PM
; FORMAT={-:-/ absolute / metric / decimal}
; #@! TF.CreationDate,2021-09-18T19:47:17+09:00
; #@! TF.GenerationSoftware,Kicad,Pcbnew,(5.1.10-1-10_14)
; #@! TF.FileFunction,Plated,1,2,PTH
FMAT,2
METRIC
T1C0.330
T2C0.600
T3C0.850
%
G90
G05
T1
X20.913Y-41.437
X21.49Y-30.19
X21.675Y-32.399
X23.038Y-39.071
X23.076Y-37.421
X23.767Y-35.73
X23.77Y-34.856
X23.775Y-31.839
X24.64Y-36.179
X24.761Y-25.42
X24.865Y-26.764
X25.26Y-42.27
X25.312Y-31.142
X25.936Y-28.599
X26.645Y-31.517
X27.006Y-25.303
X27.429Y-41.721
X27.743Y-34.927
X27.969Y-25.293
X28.002Y-25.911
X28.345Y-28.807
X28.624Y-35.918
X29.121Y-44.587
X30.123Y-25.281
X31.018Y-35.328
X32.152Y-27.886
X32.393Y-38.188
X32.899Y-31.063
X33.863Y-33.312
T3
X20.102Y-20.0
X20.102Y-22.54
X20.102Y-25.08
X20.102Y-27.62
X20.102Y-30.16
X20.102Y-32.7
X20.102Y-35.24
X20.102Y-37.78
X20.102Y-40.32
X20.102Y-42.86
X20.102Y-45.4
X20.102Y-47.94
X20.102Y-50.48
X35.342Y-20.0
X35.342Y-22.54
X35.342Y-25.08
X35.342Y-27.62
X35.342Y-30.16
X35.342Y-32.7
X35.342Y-35.24
X35.342Y-37.78
X35.342Y-40.32
X35.342Y-42.86
X35.342Y-45.4
X35.342Y-47.94
X35.342Y-50.48
T2
X22.146Y-19.2G85X22.146Y-20.4
G05
X22.146Y-23.2G85X22.146Y-24.0
G05
X33.297Y-19.2G85X33.297Y-20.4
G05
X33.297Y-23.2G85X33.297Y-24.0
G05
T0
M30
