G04 #@! TF.GenerationSoftware,KiCad,Pcbnew,(5.1.10-1-10_14)*
G04 #@! TF.CreationDate,2021-09-18T19:46:59+09:00*
G04 #@! TF.ProjectId,nrfmicro,6e72666d-6963-4726-9f2e-6b696361645f,rev?*
G04 #@! TF.SameCoordinates,Original*
G04 #@! TF.FileFunction,Legend,Top*
G04 #@! TF.FilePolarity,Positive*
%FSLAX46Y46*%
G04 Gerber Fmt 4.6, Leading zero omitted, Abs format (unit mm)*
G04 Created by KiCad (PCBNEW (5.1.10-1-10_14)) date 2021-09-18 19:46:59*
%MOMM*%
%LPD*%
G01*
G04 APERTURE LIST*
%ADD10C,0.120000*%
%ADD11C,0.080000*%
%ADD12C,0.150000*%
%ADD13R,0.900000X0.800000*%
%ADD14R,0.500000X0.500000*%
%ADD15R,0.650000X1.060000*%
%ADD16R,0.800000X0.350000*%
%ADD17R,0.350000X0.800000*%
%ADD18R,0.300000X0.800000*%
%ADD19O,1.000000X2.200000*%
%ADD20O,1.000000X1.800000*%
%ADD21R,0.540000X0.800000*%
%ADD22R,1.270000X1.270000*%
%ADD23C,1.270000*%
%ADD24C,1.250000*%
G04 APERTURE END LIST*
D10*
X29611242Y-26139900D02*
X30085758Y-26139900D01*
X29611242Y-27184900D02*
X30085758Y-27184900D01*
X22772800Y-26876858D02*
X22772800Y-26402342D01*
X23817800Y-26876858D02*
X23817800Y-26402342D01*
X27732000Y-27540242D02*
X27732000Y-28014758D01*
X26687000Y-27540242D02*
X26687000Y-28014758D01*
X33103258Y-25727000D02*
X32628742Y-25727000D01*
X33103258Y-24682000D02*
X32628742Y-24682000D01*
X30172900Y-30476442D02*
X30172900Y-30950958D01*
X29127900Y-30476442D02*
X29127900Y-30950958D01*
X25089300Y-26894558D02*
X25089300Y-26420042D01*
X26134300Y-26894558D02*
X26134300Y-26420042D01*
X25441421Y-31984300D02*
X25766979Y-31984300D01*
X25441421Y-33004300D02*
X25766979Y-33004300D01*
X25416800Y-31519000D02*
X23956800Y-31519000D01*
X25416800Y-28359000D02*
X23256800Y-28359000D01*
X25416800Y-28359000D02*
X25416800Y-29289000D01*
X25416800Y-31519000D02*
X25416800Y-30589000D01*
X21246400Y-32023200D02*
X21246400Y-29473200D01*
X22946400Y-32023200D02*
X22946400Y-29473200D01*
X21246400Y-32023200D02*
X22946400Y-32023200D01*
X30613400Y-30227700D02*
X30613400Y-32677700D01*
X33833400Y-32027700D02*
X33833400Y-30227700D01*
X32923500Y-25939400D02*
X32923500Y-28224400D01*
X34393500Y-25939400D02*
X32923500Y-25939400D01*
X34393500Y-28224400D02*
X34393500Y-25939400D01*
X31564364Y-29059500D02*
X31780036Y-29059500D01*
X31564364Y-28339500D02*
X31780036Y-28339500D01*
X23075764Y-32988900D02*
X23291436Y-32988900D01*
X23075764Y-32268900D02*
X23291436Y-32268900D01*
D11*
X21099800Y-25957200D02*
X21099800Y-28242200D01*
X22569800Y-25957200D02*
X21099800Y-25957200D01*
X22569800Y-28242200D02*
X22569800Y-25957200D01*
D12*
X29681833Y-25684780D02*
X29348500Y-25208590D01*
X29110404Y-25684780D02*
X29110404Y-24684780D01*
X29491357Y-24684780D01*
X29586595Y-24732400D01*
X29634214Y-24780019D01*
X29681833Y-24875257D01*
X29681833Y-25018114D01*
X29634214Y-25113352D01*
X29586595Y-25160971D01*
X29491357Y-25208590D01*
X29110404Y-25208590D01*
X30015166Y-24684780D02*
X30634214Y-24684780D01*
X30300880Y-25065733D01*
X30443738Y-25065733D01*
X30538976Y-25113352D01*
X30586595Y-25160971D01*
X30634214Y-25256209D01*
X30634214Y-25494304D01*
X30586595Y-25589542D01*
X30538976Y-25637161D01*
X30443738Y-25684780D01*
X30158023Y-25684780D01*
X30062785Y-25637161D01*
X30015166Y-25589542D01*
X22317680Y-26806266D02*
X21841490Y-27139600D01*
X22317680Y-27377695D02*
X21317680Y-27377695D01*
X21317680Y-26996742D01*
X21365300Y-26901504D01*
X21412919Y-26853885D01*
X21508157Y-26806266D01*
X21651014Y-26806266D01*
X21746252Y-26853885D01*
X21793871Y-26901504D01*
X21841490Y-26996742D01*
X21841490Y-27377695D01*
X21651014Y-25949123D02*
X22317680Y-25949123D01*
X21270061Y-26187219D02*
X21984347Y-26425314D01*
X21984347Y-25806266D01*
X29091880Y-27944166D02*
X28615690Y-28277500D01*
X29091880Y-28515595D02*
X28091880Y-28515595D01*
X28091880Y-28134642D01*
X28139500Y-28039404D01*
X28187119Y-27991785D01*
X28282357Y-27944166D01*
X28425214Y-27944166D01*
X28520452Y-27991785D01*
X28568071Y-28039404D01*
X28615690Y-28134642D01*
X28615690Y-28515595D01*
X28187119Y-27563214D02*
X28139500Y-27515595D01*
X28091880Y-27420357D01*
X28091880Y-27182261D01*
X28139500Y-27087023D01*
X28187119Y-27039404D01*
X28282357Y-26991785D01*
X28377595Y-26991785D01*
X28520452Y-27039404D01*
X29091880Y-27610833D01*
X29091880Y-26991785D01*
X32699333Y-27086880D02*
X32366000Y-26610690D01*
X32127904Y-27086880D02*
X32127904Y-26086880D01*
X32508857Y-26086880D01*
X32604095Y-26134500D01*
X32651714Y-26182119D01*
X32699333Y-26277357D01*
X32699333Y-26420214D01*
X32651714Y-26515452D01*
X32604095Y-26563071D01*
X32508857Y-26610690D01*
X32127904Y-26610690D01*
X33651714Y-27086880D02*
X33080285Y-27086880D01*
X33366000Y-27086880D02*
X33366000Y-26086880D01*
X33270761Y-26229738D01*
X33175523Y-26324976D01*
X33080285Y-26372595D01*
X31532780Y-30880366D02*
X31056590Y-31213700D01*
X31532780Y-31451795D02*
X30532780Y-31451795D01*
X30532780Y-31070842D01*
X30580400Y-30975604D01*
X30628019Y-30927985D01*
X30723257Y-30880366D01*
X30866114Y-30880366D01*
X30961352Y-30927985D01*
X31008971Y-30975604D01*
X31056590Y-31070842D01*
X31056590Y-31451795D01*
X30532780Y-29975604D02*
X30532780Y-30451795D01*
X31008971Y-30499414D01*
X30961352Y-30451795D01*
X30913733Y-30356557D01*
X30913733Y-30118461D01*
X30961352Y-30023223D01*
X31008971Y-29975604D01*
X31104209Y-29927985D01*
X31342304Y-29927985D01*
X31437542Y-29975604D01*
X31485161Y-30023223D01*
X31532780Y-30118461D01*
X31532780Y-30356557D01*
X31485161Y-30451795D01*
X31437542Y-30499414D01*
X24634180Y-26823966D02*
X24157990Y-27157300D01*
X24634180Y-27395395D02*
X23634180Y-27395395D01*
X23634180Y-27014442D01*
X23681800Y-26919204D01*
X23729419Y-26871585D01*
X23824657Y-26823966D01*
X23967514Y-26823966D01*
X24062752Y-26871585D01*
X24110371Y-26919204D01*
X24157990Y-27014442D01*
X24157990Y-27395395D01*
X23634180Y-25966823D02*
X23634180Y-26157300D01*
X23681800Y-26252538D01*
X23729419Y-26300157D01*
X23872276Y-26395395D01*
X24062752Y-26443014D01*
X24443704Y-26443014D01*
X24538942Y-26395395D01*
X24586561Y-26347776D01*
X24634180Y-26252538D01*
X24634180Y-26062061D01*
X24586561Y-25966823D01*
X24538942Y-25919204D01*
X24443704Y-25871585D01*
X24205609Y-25871585D01*
X24110371Y-25919204D01*
X24062752Y-25966823D01*
X24015133Y-26062061D01*
X24015133Y-26252538D01*
X24062752Y-26347776D01*
X24110371Y-26395395D01*
X24205609Y-26443014D01*
X25437533Y-31516680D02*
X24961342Y-31516680D01*
X24961342Y-30516680D01*
X26294676Y-31516680D02*
X25723247Y-31516680D01*
X26008961Y-31516680D02*
X26008961Y-30516680D01*
X25913723Y-30659538D01*
X25818485Y-30754776D01*
X25723247Y-30802395D01*
X24561561Y-27986619D02*
X24466323Y-27939000D01*
X24371085Y-27843761D01*
X24228228Y-27700904D01*
X24132990Y-27653285D01*
X24037752Y-27653285D01*
X24085371Y-27891380D02*
X23990133Y-27843761D01*
X23894895Y-27748523D01*
X23847276Y-27558047D01*
X23847276Y-27224714D01*
X23894895Y-27034238D01*
X23990133Y-26939000D01*
X24085371Y-26891380D01*
X24275847Y-26891380D01*
X24371085Y-26939000D01*
X24466323Y-27034238D01*
X24513942Y-27224714D01*
X24513942Y-27558047D01*
X24466323Y-27748523D01*
X24371085Y-27843761D01*
X24275847Y-27891380D01*
X24085371Y-27891380D01*
X25466323Y-27891380D02*
X24894895Y-27891380D01*
X25180609Y-27891380D02*
X25180609Y-26891380D01*
X25085371Y-27034238D01*
X24990133Y-27129476D01*
X24894895Y-27177095D01*
X20698780Y-31261295D02*
X19698780Y-31261295D01*
X19698780Y-31023200D01*
X19746400Y-30880342D01*
X19841638Y-30785104D01*
X19936876Y-30737485D01*
X20127352Y-30689866D01*
X20270209Y-30689866D01*
X20460685Y-30737485D01*
X20555923Y-30785104D01*
X20651161Y-30880342D01*
X20698780Y-31023200D01*
X20698780Y-31261295D01*
X19698780Y-30356533D02*
X19698780Y-29737485D01*
X20079733Y-30070819D01*
X20079733Y-29927961D01*
X20127352Y-29832723D01*
X20174971Y-29785104D01*
X20270209Y-29737485D01*
X20508304Y-29737485D01*
X20603542Y-29785104D01*
X20651161Y-29832723D01*
X20698780Y-29927961D01*
X20698780Y-30213676D01*
X20651161Y-30308914D01*
X20603542Y-30356533D01*
X28775780Y-31889604D02*
X29585304Y-31889604D01*
X29680542Y-31841985D01*
X29728161Y-31794366D01*
X29775780Y-31699128D01*
X29775780Y-31508652D01*
X29728161Y-31413414D01*
X29680542Y-31365795D01*
X29585304Y-31318176D01*
X28775780Y-31318176D01*
X29775780Y-30318176D02*
X29775780Y-30889604D01*
X29775780Y-30603890D02*
X28775780Y-30603890D01*
X28918638Y-30699128D01*
X29013876Y-30794366D01*
X29061495Y-30889604D01*
X35540880Y-28162495D02*
X34540880Y-28162495D01*
X34540880Y-27924400D01*
X34588500Y-27781542D01*
X34683738Y-27686304D01*
X34778976Y-27638685D01*
X34969452Y-27591066D01*
X35112309Y-27591066D01*
X35302785Y-27638685D01*
X35398023Y-27686304D01*
X35493261Y-27781542D01*
X35540880Y-27924400D01*
X35540880Y-28162495D01*
X35540880Y-26638685D02*
X35540880Y-27210114D01*
X35540880Y-26924400D02*
X34540880Y-26924400D01*
X34683738Y-27019638D01*
X34778976Y-27114876D01*
X34826595Y-27210114D01*
X31505533Y-27896642D02*
X31457914Y-27944261D01*
X31315057Y-27991880D01*
X31219819Y-27991880D01*
X31076961Y-27944261D01*
X30981723Y-27849023D01*
X30934104Y-27753785D01*
X30886485Y-27563309D01*
X30886485Y-27420452D01*
X30934104Y-27229976D01*
X30981723Y-27134738D01*
X31076961Y-27039500D01*
X31219819Y-26991880D01*
X31315057Y-26991880D01*
X31457914Y-27039500D01*
X31505533Y-27087119D01*
X31886485Y-27087119D02*
X31934104Y-27039500D01*
X32029342Y-26991880D01*
X32267438Y-26991880D01*
X32362676Y-27039500D01*
X32410295Y-27087119D01*
X32457914Y-27182357D01*
X32457914Y-27277595D01*
X32410295Y-27420452D01*
X31838866Y-27991880D01*
X32457914Y-27991880D01*
X23016933Y-31826042D02*
X22969314Y-31873661D01*
X22826457Y-31921280D01*
X22731219Y-31921280D01*
X22588361Y-31873661D01*
X22493123Y-31778423D01*
X22445504Y-31683185D01*
X22397885Y-31492709D01*
X22397885Y-31349852D01*
X22445504Y-31159376D01*
X22493123Y-31064138D01*
X22588361Y-30968900D01*
X22731219Y-30921280D01*
X22826457Y-30921280D01*
X22969314Y-30968900D01*
X23016933Y-31016519D01*
X23969314Y-31921280D02*
X23397885Y-31921280D01*
X23683600Y-31921280D02*
X23683600Y-30921280D01*
X23588361Y-31064138D01*
X23493123Y-31159376D01*
X23397885Y-31206995D01*
X26958095Y-28763980D02*
X26958095Y-29573504D01*
X27005714Y-29668742D01*
X27053333Y-29716361D01*
X27148571Y-29763980D01*
X27339047Y-29763980D01*
X27434285Y-29716361D01*
X27481904Y-29668742D01*
X27529523Y-29573504D01*
X27529523Y-28763980D01*
X28481904Y-28763980D02*
X28005714Y-28763980D01*
X27958095Y-29240171D01*
X28005714Y-29192552D01*
X28100952Y-29144933D01*
X28339047Y-29144933D01*
X28434285Y-29192552D01*
X28481904Y-29240171D01*
X28529523Y-29335409D01*
X28529523Y-29573504D01*
X28481904Y-29668742D01*
X28434285Y-29716361D01*
X28339047Y-29763980D01*
X28100952Y-29763980D01*
X28005714Y-29716361D01*
X27958095Y-29668742D01*
D11*
X21768133Y-30058866D02*
X21768133Y-29358866D01*
X21934800Y-29358866D01*
X22034800Y-29392200D01*
X22101466Y-29458866D01*
X22134800Y-29525533D01*
X22168133Y-29658866D01*
X22168133Y-29758866D01*
X22134800Y-29892200D01*
X22101466Y-29958866D01*
X22034800Y-30025533D01*
X21934800Y-30058866D01*
X21768133Y-30058866D01*
X22434800Y-29425533D02*
X22468133Y-29392200D01*
X22534800Y-29358866D01*
X22701466Y-29358866D01*
X22768133Y-29392200D01*
X22801466Y-29425533D01*
X22834800Y-29492200D01*
X22834800Y-29558866D01*
X22801466Y-29658866D01*
X22401466Y-30058866D01*
X22834800Y-30058866D01*
X34250000Y-20361734D02*
X34283333Y-20261734D01*
X34316666Y-20228401D01*
X34383333Y-20195067D01*
X34483333Y-20195067D01*
X34550000Y-20228401D01*
X34583333Y-20261734D01*
X34616666Y-20328401D01*
X34616666Y-20595067D01*
X33916666Y-20595067D01*
X33916666Y-20361734D01*
X33950000Y-20295067D01*
X33983333Y-20261734D01*
X34050000Y-20228401D01*
X34116666Y-20228401D01*
X34183333Y-20261734D01*
X34216666Y-20295067D01*
X34250000Y-20361734D01*
X34250000Y-20595067D01*
X34350000Y-19895067D02*
X34350000Y-19361734D01*
X34616666Y-19628401D02*
X34083333Y-19628401D01*
X21200000Y-19595066D02*
X21166666Y-19695066D01*
X21133333Y-19728400D01*
X21066666Y-19761733D01*
X20966666Y-19761733D01*
X20900000Y-19728400D01*
X20866666Y-19695066D01*
X20833333Y-19628400D01*
X20833333Y-19361733D01*
X21533333Y-19361733D01*
X21533333Y-19595066D01*
X21500000Y-19661733D01*
X21466666Y-19695066D01*
X21400000Y-19728400D01*
X21333333Y-19728400D01*
X21266666Y-19695066D01*
X21233333Y-19661733D01*
X21200000Y-19595066D01*
X21200000Y-19361733D01*
X21100000Y-20061733D02*
X21100000Y-20595066D01*
X34665433Y-33713666D02*
X34732100Y-33713666D01*
X34798766Y-33747000D01*
X34832100Y-33780333D01*
X34865433Y-33847000D01*
X34898766Y-33980333D01*
X34898766Y-34147000D01*
X34865433Y-34280333D01*
X34832100Y-34347000D01*
X34798766Y-34380333D01*
X34732100Y-34413666D01*
X34665433Y-34413666D01*
X34598766Y-34380333D01*
X34565433Y-34347000D01*
X34532100Y-34280333D01*
X34498766Y-34147000D01*
X34498766Y-33980333D01*
X34532100Y-33847000D01*
X34565433Y-33780333D01*
X34598766Y-33747000D01*
X34665433Y-33713666D01*
X35198766Y-34347000D02*
X35232100Y-34380333D01*
X35198766Y-34413666D01*
X35165433Y-34380333D01*
X35198766Y-34347000D01*
X35198766Y-34413666D01*
X35498766Y-33780333D02*
X35532100Y-33747000D01*
X35598766Y-33713666D01*
X35765433Y-33713666D01*
X35832100Y-33747000D01*
X35865433Y-33780333D01*
X35898766Y-33847000D01*
X35898766Y-33913666D01*
X35865433Y-34013666D01*
X35465433Y-34413666D01*
X35898766Y-34413666D01*
X36232100Y-34413666D02*
X36365433Y-34413666D01*
X36432100Y-34380333D01*
X36465433Y-34347000D01*
X36532100Y-34247000D01*
X36565433Y-34113666D01*
X36565433Y-33847000D01*
X36532100Y-33780333D01*
X36498766Y-33747000D01*
X36432100Y-33713666D01*
X36298766Y-33713666D01*
X36232100Y-33747000D01*
X36198766Y-33780333D01*
X36165433Y-33847000D01*
X36165433Y-34013666D01*
X36198766Y-34080333D01*
X36232100Y-34113666D01*
X36298766Y-34147000D01*
X36432100Y-34147000D01*
X36498766Y-34113666D01*
X36532100Y-34080333D01*
X36565433Y-34013666D01*
X34598766Y-28633666D02*
X34832100Y-29333666D01*
X35065433Y-28633666D01*
X35698766Y-29267000D02*
X35665433Y-29300333D01*
X35565433Y-29333666D01*
X35498766Y-29333666D01*
X35398766Y-29300333D01*
X35332100Y-29233666D01*
X35298766Y-29167000D01*
X35265433Y-29033666D01*
X35265433Y-28933666D01*
X35298766Y-28800333D01*
X35332100Y-28733666D01*
X35398766Y-28667000D01*
X35498766Y-28633666D01*
X35565433Y-28633666D01*
X35665433Y-28667000D01*
X35698766Y-28700333D01*
X36398766Y-29267000D02*
X36365433Y-29300333D01*
X36265433Y-29333666D01*
X36198766Y-29333666D01*
X36098766Y-29300333D01*
X36032100Y-29233666D01*
X35998766Y-29167000D01*
X35965433Y-29033666D01*
X35965433Y-28933666D01*
X35998766Y-28800333D01*
X36032100Y-28733666D01*
X36098766Y-28667000D01*
X36198766Y-28633666D01*
X36265433Y-28633666D01*
X36365433Y-28667000D01*
X36398766Y-28700333D01*
X34665433Y-46413666D02*
X34732100Y-46413666D01*
X34798766Y-46447000D01*
X34832100Y-46480333D01*
X34865433Y-46547000D01*
X34898766Y-46680333D01*
X34898766Y-46847000D01*
X34865433Y-46980333D01*
X34832100Y-47047000D01*
X34798766Y-47080333D01*
X34732100Y-47113666D01*
X34665433Y-47113666D01*
X34598766Y-47080333D01*
X34565433Y-47047000D01*
X34532100Y-46980333D01*
X34498766Y-46847000D01*
X34498766Y-46680333D01*
X34532100Y-46547000D01*
X34565433Y-46480333D01*
X34598766Y-46447000D01*
X34665433Y-46413666D01*
X35198766Y-47047000D02*
X35232100Y-47080333D01*
X35198766Y-47113666D01*
X35165433Y-47080333D01*
X35198766Y-47047000D01*
X35198766Y-47113666D01*
X35898766Y-47113666D02*
X35498766Y-47113666D01*
X35698766Y-47113666D02*
X35698766Y-46413666D01*
X35632100Y-46513666D01*
X35565433Y-46580333D01*
X35498766Y-46613666D01*
X36332100Y-46413666D02*
X36398766Y-46413666D01*
X36465433Y-46447000D01*
X36498766Y-46480333D01*
X36532100Y-46547000D01*
X36565433Y-46680333D01*
X36565433Y-46847000D01*
X36532100Y-46980333D01*
X36498766Y-47047000D01*
X36465433Y-47080333D01*
X36398766Y-47113666D01*
X36332100Y-47113666D01*
X36265433Y-47080333D01*
X36232100Y-47047000D01*
X36198766Y-46980333D01*
X36165433Y-46847000D01*
X36165433Y-46680333D01*
X36198766Y-46547000D01*
X36232100Y-46480333D01*
X36265433Y-46447000D01*
X36332100Y-46413666D01*
X34665433Y-48953666D02*
X34732100Y-48953666D01*
X34798766Y-48987000D01*
X34832100Y-49020333D01*
X34865433Y-49087000D01*
X34898766Y-49220333D01*
X34898766Y-49387000D01*
X34865433Y-49520333D01*
X34832100Y-49587000D01*
X34798766Y-49620333D01*
X34732100Y-49653666D01*
X34665433Y-49653666D01*
X34598766Y-49620333D01*
X34565433Y-49587000D01*
X34532100Y-49520333D01*
X34498766Y-49387000D01*
X34498766Y-49220333D01*
X34532100Y-49087000D01*
X34565433Y-49020333D01*
X34598766Y-48987000D01*
X34665433Y-48953666D01*
X35198766Y-49587000D02*
X35232100Y-49620333D01*
X35198766Y-49653666D01*
X35165433Y-49620333D01*
X35198766Y-49587000D01*
X35198766Y-49653666D01*
X35665433Y-48953666D02*
X35732100Y-48953666D01*
X35798766Y-48987000D01*
X35832100Y-49020333D01*
X35865433Y-49087000D01*
X35898766Y-49220333D01*
X35898766Y-49387000D01*
X35865433Y-49520333D01*
X35832100Y-49587000D01*
X35798766Y-49620333D01*
X35732100Y-49653666D01*
X35665433Y-49653666D01*
X35598766Y-49620333D01*
X35565433Y-49587000D01*
X35532100Y-49520333D01*
X35498766Y-49387000D01*
X35498766Y-49220333D01*
X35532100Y-49087000D01*
X35565433Y-49020333D01*
X35598766Y-48987000D01*
X35665433Y-48953666D01*
X36232100Y-49653666D02*
X36365433Y-49653666D01*
X36432100Y-49620333D01*
X36465433Y-49587000D01*
X36532100Y-49487000D01*
X36565433Y-49353666D01*
X36565433Y-49087000D01*
X36532100Y-49020333D01*
X36498766Y-48987000D01*
X36432100Y-48953666D01*
X36298766Y-48953666D01*
X36232100Y-48987000D01*
X36198766Y-49020333D01*
X36165433Y-49087000D01*
X36165433Y-49253666D01*
X36198766Y-49320333D01*
X36232100Y-49353666D01*
X36298766Y-49387000D01*
X36432100Y-49387000D01*
X36498766Y-49353666D01*
X36532100Y-49320333D01*
X36565433Y-49253666D01*
X34665433Y-36253666D02*
X34732100Y-36253666D01*
X34798766Y-36287000D01*
X34832100Y-36320333D01*
X34865433Y-36387000D01*
X34898766Y-36520333D01*
X34898766Y-36687000D01*
X34865433Y-36820333D01*
X34832100Y-36887000D01*
X34798766Y-36920333D01*
X34732100Y-36953666D01*
X34665433Y-36953666D01*
X34598766Y-36920333D01*
X34565433Y-36887000D01*
X34532100Y-36820333D01*
X34498766Y-36687000D01*
X34498766Y-36520333D01*
X34532100Y-36387000D01*
X34565433Y-36320333D01*
X34598766Y-36287000D01*
X34665433Y-36253666D01*
X35198766Y-36887000D02*
X35232100Y-36920333D01*
X35198766Y-36953666D01*
X35165433Y-36920333D01*
X35198766Y-36887000D01*
X35198766Y-36953666D01*
X35665433Y-36253666D02*
X35732100Y-36253666D01*
X35798766Y-36287000D01*
X35832100Y-36320333D01*
X35865433Y-36387000D01*
X35898766Y-36520333D01*
X35898766Y-36687000D01*
X35865433Y-36820333D01*
X35832100Y-36887000D01*
X35798766Y-36920333D01*
X35732100Y-36953666D01*
X35665433Y-36953666D01*
X35598766Y-36920333D01*
X35565433Y-36887000D01*
X35532100Y-36820333D01*
X35498766Y-36687000D01*
X35498766Y-36520333D01*
X35532100Y-36387000D01*
X35565433Y-36320333D01*
X35598766Y-36287000D01*
X35665433Y-36253666D01*
X36165433Y-36320333D02*
X36198766Y-36287000D01*
X36265433Y-36253666D01*
X36432100Y-36253666D01*
X36498766Y-36287000D01*
X36532100Y-36320333D01*
X36565433Y-36387000D01*
X36565433Y-36453666D01*
X36532100Y-36553666D01*
X36132100Y-36953666D01*
X36565433Y-36953666D01*
X34898766Y-42033666D02*
X34498766Y-42033666D01*
X34698766Y-42033666D02*
X34698766Y-41333666D01*
X34632100Y-41433666D01*
X34565433Y-41500333D01*
X34498766Y-41533666D01*
X35198766Y-41967000D02*
X35232100Y-42000333D01*
X35198766Y-42033666D01*
X35165433Y-42000333D01*
X35198766Y-41967000D01*
X35198766Y-42033666D01*
X35898766Y-42033666D02*
X35498766Y-42033666D01*
X35698766Y-42033666D02*
X35698766Y-41333666D01*
X35632100Y-41433666D01*
X35565433Y-41500333D01*
X35498766Y-41533666D01*
X36132100Y-41333666D02*
X36565433Y-41333666D01*
X36332100Y-41600333D01*
X36432100Y-41600333D01*
X36498766Y-41633666D01*
X36532100Y-41667000D01*
X36565433Y-41733666D01*
X36565433Y-41900333D01*
X36532100Y-41967000D01*
X36498766Y-42000333D01*
X36432100Y-42033666D01*
X36232100Y-42033666D01*
X36165433Y-42000333D01*
X36132100Y-41967000D01*
X35148766Y-26793666D02*
X34915433Y-26460333D01*
X34748766Y-26793666D02*
X34748766Y-26093666D01*
X35015433Y-26093666D01*
X35082100Y-26127000D01*
X35115433Y-26160333D01*
X35148766Y-26227000D01*
X35148766Y-26327000D01*
X35115433Y-26393666D01*
X35082100Y-26427000D01*
X35015433Y-26460333D01*
X34748766Y-26460333D01*
X35415433Y-26760333D02*
X35515433Y-26793666D01*
X35682100Y-26793666D01*
X35748766Y-26760333D01*
X35782100Y-26727000D01*
X35815433Y-26660333D01*
X35815433Y-26593666D01*
X35782100Y-26527000D01*
X35748766Y-26493666D01*
X35682100Y-26460333D01*
X35548766Y-26427000D01*
X35482100Y-26393666D01*
X35448766Y-26360333D01*
X35415433Y-26293666D01*
X35415433Y-26227000D01*
X35448766Y-26160333D01*
X35482100Y-26127000D01*
X35548766Y-26093666D01*
X35715433Y-26093666D01*
X35815433Y-26127000D01*
X36015433Y-26093666D02*
X36415433Y-26093666D01*
X36215433Y-26793666D02*
X36215433Y-26093666D01*
X34898766Y-44573666D02*
X34498766Y-44573666D01*
X34698766Y-44573666D02*
X34698766Y-43873666D01*
X34632100Y-43973666D01*
X34565433Y-44040333D01*
X34498766Y-44073666D01*
X35198766Y-44507000D02*
X35232100Y-44540333D01*
X35198766Y-44573666D01*
X35165433Y-44540333D01*
X35198766Y-44507000D01*
X35198766Y-44573666D01*
X35898766Y-44573666D02*
X35498766Y-44573666D01*
X35698766Y-44573666D02*
X35698766Y-43873666D01*
X35632100Y-43973666D01*
X35565433Y-44040333D01*
X35498766Y-44073666D01*
X36565433Y-44573666D02*
X36165433Y-44573666D01*
X36365433Y-44573666D02*
X36365433Y-43873666D01*
X36298766Y-43973666D01*
X36232100Y-44040333D01*
X36165433Y-44073666D01*
X34898766Y-39493666D02*
X34498766Y-39493666D01*
X34698766Y-39493666D02*
X34698766Y-38793666D01*
X34632100Y-38893666D01*
X34565433Y-38960333D01*
X34498766Y-38993666D01*
X35198766Y-39427000D02*
X35232100Y-39460333D01*
X35198766Y-39493666D01*
X35165433Y-39460333D01*
X35198766Y-39427000D01*
X35198766Y-39493666D01*
X35898766Y-39493666D02*
X35498766Y-39493666D01*
X35698766Y-39493666D02*
X35698766Y-38793666D01*
X35632100Y-38893666D01*
X35565433Y-38960333D01*
X35498766Y-38993666D01*
X36532100Y-38793666D02*
X36198766Y-38793666D01*
X36165433Y-39127000D01*
X36198766Y-39093666D01*
X36265433Y-39060333D01*
X36432100Y-39060333D01*
X36498766Y-39093666D01*
X36532100Y-39127000D01*
X36565433Y-39193666D01*
X36565433Y-39360333D01*
X36532100Y-39427000D01*
X36498766Y-39460333D01*
X36432100Y-39493666D01*
X36265433Y-39493666D01*
X36198766Y-39460333D01*
X36165433Y-39427000D01*
X34665433Y-31173666D02*
X34732100Y-31173666D01*
X34798766Y-31207000D01*
X34832100Y-31240333D01*
X34865433Y-31307000D01*
X34898766Y-31440333D01*
X34898766Y-31607000D01*
X34865433Y-31740333D01*
X34832100Y-31807000D01*
X34798766Y-31840333D01*
X34732100Y-31873666D01*
X34665433Y-31873666D01*
X34598766Y-31840333D01*
X34565433Y-31807000D01*
X34532100Y-31740333D01*
X34498766Y-31607000D01*
X34498766Y-31440333D01*
X34532100Y-31307000D01*
X34565433Y-31240333D01*
X34598766Y-31207000D01*
X34665433Y-31173666D01*
X35198766Y-31807000D02*
X35232100Y-31840333D01*
X35198766Y-31873666D01*
X35165433Y-31840333D01*
X35198766Y-31807000D01*
X35198766Y-31873666D01*
X35465433Y-31173666D02*
X35898766Y-31173666D01*
X35665433Y-31440333D01*
X35765433Y-31440333D01*
X35832100Y-31473666D01*
X35865433Y-31507000D01*
X35898766Y-31573666D01*
X35898766Y-31740333D01*
X35865433Y-31807000D01*
X35832100Y-31840333D01*
X35765433Y-31873666D01*
X35565433Y-31873666D01*
X35498766Y-31840333D01*
X35465433Y-31807000D01*
X36565433Y-31873666D02*
X36165433Y-31873666D01*
X36365433Y-31873666D02*
X36365433Y-31173666D01*
X36298766Y-31273666D01*
X36232100Y-31340333D01*
X36165433Y-31373666D01*
X34998766Y-23587000D02*
X34932100Y-23553666D01*
X34832100Y-23553666D01*
X34732100Y-23587000D01*
X34665433Y-23653666D01*
X34632100Y-23720333D01*
X34598766Y-23853666D01*
X34598766Y-23953666D01*
X34632100Y-24087000D01*
X34665433Y-24153666D01*
X34732100Y-24220333D01*
X34832100Y-24253666D01*
X34898766Y-24253666D01*
X34998766Y-24220333D01*
X35032100Y-24187000D01*
X35032100Y-23953666D01*
X34898766Y-23953666D01*
X35332100Y-24253666D02*
X35332100Y-23553666D01*
X35732100Y-24253666D01*
X35732100Y-23553666D01*
X36065433Y-24253666D02*
X36065433Y-23553666D01*
X36232100Y-23553666D01*
X36332100Y-23587000D01*
X36398766Y-23653666D01*
X36432100Y-23720333D01*
X36465433Y-23853666D01*
X36465433Y-23953666D01*
X36432100Y-24087000D01*
X36398766Y-24153666D01*
X36332100Y-24220333D01*
X36232100Y-24253666D01*
X36065433Y-24253666D01*
X35048766Y-21713666D02*
X34815433Y-21380333D01*
X34648766Y-21713666D02*
X34648766Y-21013666D01*
X34915433Y-21013666D01*
X34982100Y-21047000D01*
X35015433Y-21080333D01*
X35048766Y-21147000D01*
X35048766Y-21247000D01*
X35015433Y-21313666D01*
X34982100Y-21347000D01*
X34915433Y-21380333D01*
X34648766Y-21380333D01*
X35315433Y-21513666D02*
X35648766Y-21513666D01*
X35248766Y-21713666D02*
X35482100Y-21013666D01*
X35715433Y-21713666D01*
X35882100Y-21013666D02*
X36048766Y-21713666D01*
X36182100Y-21213666D01*
X36315433Y-21713666D01*
X36482100Y-21013666D01*
X18968233Y-21026366D02*
X19034900Y-21026366D01*
X19101566Y-21059700D01*
X19134900Y-21093033D01*
X19168233Y-21159700D01*
X19201566Y-21293033D01*
X19201566Y-21459700D01*
X19168233Y-21593033D01*
X19134900Y-21659700D01*
X19101566Y-21693033D01*
X19034900Y-21726366D01*
X18968233Y-21726366D01*
X18901566Y-21693033D01*
X18868233Y-21659700D01*
X18834900Y-21593033D01*
X18801566Y-21459700D01*
X18801566Y-21293033D01*
X18834900Y-21159700D01*
X18868233Y-21093033D01*
X18901566Y-21059700D01*
X18968233Y-21026366D01*
X19501566Y-21659700D02*
X19534900Y-21693033D01*
X19501566Y-21726366D01*
X19468233Y-21693033D01*
X19501566Y-21659700D01*
X19501566Y-21726366D01*
X19968233Y-21026366D02*
X20034900Y-21026366D01*
X20101566Y-21059700D01*
X20134900Y-21093033D01*
X20168233Y-21159700D01*
X20201566Y-21293033D01*
X20201566Y-21459700D01*
X20168233Y-21593033D01*
X20134900Y-21659700D01*
X20101566Y-21693033D01*
X20034900Y-21726366D01*
X19968233Y-21726366D01*
X19901566Y-21693033D01*
X19868233Y-21659700D01*
X19834900Y-21593033D01*
X19801566Y-21459700D01*
X19801566Y-21293033D01*
X19834900Y-21159700D01*
X19868233Y-21093033D01*
X19901566Y-21059700D01*
X19968233Y-21026366D01*
X20801566Y-21026366D02*
X20668233Y-21026366D01*
X20601566Y-21059700D01*
X20568233Y-21093033D01*
X20501566Y-21193033D01*
X20468233Y-21326366D01*
X20468233Y-21593033D01*
X20501566Y-21659700D01*
X20534900Y-21693033D01*
X20601566Y-21726366D01*
X20734900Y-21726366D01*
X20801566Y-21693033D01*
X20834900Y-21659700D01*
X20868233Y-21593033D01*
X20868233Y-21426366D01*
X20834900Y-21359700D01*
X20801566Y-21326366D01*
X20734900Y-21293033D01*
X20601566Y-21293033D01*
X20534900Y-21326366D01*
X20501566Y-21359700D01*
X20468233Y-21426366D01*
X18968233Y-31186366D02*
X19034900Y-31186366D01*
X19101566Y-31219700D01*
X19134900Y-31253033D01*
X19168233Y-31319700D01*
X19201566Y-31453033D01*
X19201566Y-31619700D01*
X19168233Y-31753033D01*
X19134900Y-31819700D01*
X19101566Y-31853033D01*
X19034900Y-31886366D01*
X18968233Y-31886366D01*
X18901566Y-31853033D01*
X18868233Y-31819700D01*
X18834900Y-31753033D01*
X18801566Y-31619700D01*
X18801566Y-31453033D01*
X18834900Y-31319700D01*
X18868233Y-31253033D01*
X18901566Y-31219700D01*
X18968233Y-31186366D01*
X19501566Y-31819700D02*
X19534900Y-31853033D01*
X19501566Y-31886366D01*
X19468233Y-31853033D01*
X19501566Y-31819700D01*
X19501566Y-31886366D01*
X20201566Y-31886366D02*
X19801566Y-31886366D01*
X20001566Y-31886366D02*
X20001566Y-31186366D01*
X19934900Y-31286366D01*
X19868233Y-31353033D01*
X19801566Y-31386366D01*
X20434900Y-31186366D02*
X20901566Y-31186366D01*
X20601566Y-31886366D01*
X19201566Y-42046366D02*
X18801566Y-42046366D01*
X19001566Y-42046366D02*
X19001566Y-41346366D01*
X18934900Y-41446366D01*
X18868233Y-41513033D01*
X18801566Y-41546366D01*
X19501566Y-41979700D02*
X19534900Y-42013033D01*
X19501566Y-42046366D01*
X19468233Y-42013033D01*
X19501566Y-41979700D01*
X19501566Y-42046366D01*
X19968233Y-41346366D02*
X20034900Y-41346366D01*
X20101566Y-41379700D01*
X20134900Y-41413033D01*
X20168233Y-41479700D01*
X20201566Y-41613033D01*
X20201566Y-41779700D01*
X20168233Y-41913033D01*
X20134900Y-41979700D01*
X20101566Y-42013033D01*
X20034900Y-42046366D01*
X19968233Y-42046366D01*
X19901566Y-42013033D01*
X19868233Y-41979700D01*
X19834900Y-41913033D01*
X19801566Y-41779700D01*
X19801566Y-41613033D01*
X19834900Y-41479700D01*
X19868233Y-41413033D01*
X19901566Y-41379700D01*
X19968233Y-41346366D01*
X20634900Y-41346366D02*
X20701566Y-41346366D01*
X20768233Y-41379700D01*
X20801566Y-41413033D01*
X20834900Y-41479700D01*
X20868233Y-41613033D01*
X20868233Y-41779700D01*
X20834900Y-41913033D01*
X20801566Y-41979700D01*
X20768233Y-42013033D01*
X20701566Y-42046366D01*
X20634900Y-42046366D01*
X20568233Y-42013033D01*
X20534900Y-41979700D01*
X20501566Y-41913033D01*
X20468233Y-41779700D01*
X20468233Y-41613033D01*
X20501566Y-41479700D01*
X20534900Y-41413033D01*
X20568233Y-41379700D01*
X20634900Y-41346366D01*
X19201566Y-49666366D02*
X18801566Y-49666366D01*
X19001566Y-49666366D02*
X19001566Y-48966366D01*
X18934900Y-49066366D01*
X18868233Y-49133033D01*
X18801566Y-49166366D01*
X19501566Y-49599700D02*
X19534900Y-49633033D01*
X19501566Y-49666366D01*
X19468233Y-49633033D01*
X19501566Y-49599700D01*
X19501566Y-49666366D01*
X19968233Y-48966366D02*
X20034900Y-48966366D01*
X20101566Y-48999700D01*
X20134900Y-49033033D01*
X20168233Y-49099700D01*
X20201566Y-49233033D01*
X20201566Y-49399700D01*
X20168233Y-49533033D01*
X20134900Y-49599700D01*
X20101566Y-49633033D01*
X20034900Y-49666366D01*
X19968233Y-49666366D01*
X19901566Y-49633033D01*
X19868233Y-49599700D01*
X19834900Y-49533033D01*
X19801566Y-49399700D01*
X19801566Y-49233033D01*
X19834900Y-49099700D01*
X19868233Y-49033033D01*
X19901566Y-48999700D01*
X19968233Y-48966366D01*
X20801566Y-48966366D02*
X20668233Y-48966366D01*
X20601566Y-48999700D01*
X20568233Y-49033033D01*
X20501566Y-49133033D01*
X20468233Y-49266366D01*
X20468233Y-49533033D01*
X20501566Y-49599700D01*
X20534900Y-49633033D01*
X20601566Y-49666366D01*
X20734900Y-49666366D01*
X20801566Y-49633033D01*
X20834900Y-49599700D01*
X20868233Y-49533033D01*
X20868233Y-49366366D01*
X20834900Y-49299700D01*
X20801566Y-49266366D01*
X20734900Y-49233033D01*
X20601566Y-49233033D01*
X20534900Y-49266366D01*
X20501566Y-49299700D01*
X20468233Y-49366366D01*
X18968233Y-36266366D02*
X19034900Y-36266366D01*
X19101566Y-36299700D01*
X19134900Y-36333033D01*
X19168233Y-36399700D01*
X19201566Y-36533033D01*
X19201566Y-36699700D01*
X19168233Y-36833033D01*
X19134900Y-36899700D01*
X19101566Y-36933033D01*
X19034900Y-36966366D01*
X18968233Y-36966366D01*
X18901566Y-36933033D01*
X18868233Y-36899700D01*
X18834900Y-36833033D01*
X18801566Y-36699700D01*
X18801566Y-36533033D01*
X18834900Y-36399700D01*
X18868233Y-36333033D01*
X18901566Y-36299700D01*
X18968233Y-36266366D01*
X19501566Y-36899700D02*
X19534900Y-36933033D01*
X19501566Y-36966366D01*
X19468233Y-36933033D01*
X19501566Y-36899700D01*
X19501566Y-36966366D01*
X19801566Y-36333033D02*
X19834900Y-36299700D01*
X19901566Y-36266366D01*
X20068233Y-36266366D01*
X20134900Y-36299700D01*
X20168233Y-36333033D01*
X20201566Y-36399700D01*
X20201566Y-36466366D01*
X20168233Y-36566366D01*
X19768233Y-36966366D01*
X20201566Y-36966366D01*
X20468233Y-36333033D02*
X20501566Y-36299700D01*
X20568233Y-36266366D01*
X20734900Y-36266366D01*
X20801566Y-36299700D01*
X20834900Y-36333033D01*
X20868233Y-36399700D01*
X20868233Y-36466366D01*
X20834900Y-36566366D01*
X20434900Y-36966366D01*
X20868233Y-36966366D01*
X19201566Y-46999366D02*
X18801566Y-46999366D01*
X19001566Y-46999366D02*
X19001566Y-46299366D01*
X18934900Y-46399366D01*
X18868233Y-46466033D01*
X18801566Y-46499366D01*
X19501566Y-46932700D02*
X19534900Y-46966033D01*
X19501566Y-46999366D01*
X19468233Y-46966033D01*
X19501566Y-46932700D01*
X19501566Y-46999366D01*
X19968233Y-46299366D02*
X20034900Y-46299366D01*
X20101566Y-46332700D01*
X20134900Y-46366033D01*
X20168233Y-46432700D01*
X20201566Y-46566033D01*
X20201566Y-46732700D01*
X20168233Y-46866033D01*
X20134900Y-46932700D01*
X20101566Y-46966033D01*
X20034900Y-46999366D01*
X19968233Y-46999366D01*
X19901566Y-46966033D01*
X19868233Y-46932700D01*
X19834900Y-46866033D01*
X19801566Y-46732700D01*
X19801566Y-46566033D01*
X19834900Y-46432700D01*
X19868233Y-46366033D01*
X19901566Y-46332700D01*
X19968233Y-46299366D01*
X20801566Y-46532700D02*
X20801566Y-46999366D01*
X20634900Y-46266033D02*
X20468233Y-46766033D01*
X20901566Y-46766033D01*
X18968233Y-38806366D02*
X19034900Y-38806366D01*
X19101566Y-38839700D01*
X19134900Y-38873033D01*
X19168233Y-38939700D01*
X19201566Y-39073033D01*
X19201566Y-39239700D01*
X19168233Y-39373033D01*
X19134900Y-39439700D01*
X19101566Y-39473033D01*
X19034900Y-39506366D01*
X18968233Y-39506366D01*
X18901566Y-39473033D01*
X18868233Y-39439700D01*
X18834900Y-39373033D01*
X18801566Y-39239700D01*
X18801566Y-39073033D01*
X18834900Y-38939700D01*
X18868233Y-38873033D01*
X18901566Y-38839700D01*
X18968233Y-38806366D01*
X19501566Y-39439700D02*
X19534900Y-39473033D01*
X19501566Y-39506366D01*
X19468233Y-39473033D01*
X19501566Y-39439700D01*
X19501566Y-39506366D01*
X19801566Y-38873033D02*
X19834900Y-38839700D01*
X19901566Y-38806366D01*
X20068233Y-38806366D01*
X20134900Y-38839700D01*
X20168233Y-38873033D01*
X20201566Y-38939700D01*
X20201566Y-39006366D01*
X20168233Y-39106366D01*
X19768233Y-39506366D01*
X20201566Y-39506366D01*
X20801566Y-39039700D02*
X20801566Y-39506366D01*
X20634900Y-38773033D02*
X20468233Y-39273033D01*
X20901566Y-39273033D01*
X18968233Y-23566366D02*
X19034900Y-23566366D01*
X19101566Y-23599700D01*
X19134900Y-23633033D01*
X19168233Y-23699700D01*
X19201566Y-23833033D01*
X19201566Y-23999700D01*
X19168233Y-24133033D01*
X19134900Y-24199700D01*
X19101566Y-24233033D01*
X19034900Y-24266366D01*
X18968233Y-24266366D01*
X18901566Y-24233033D01*
X18868233Y-24199700D01*
X18834900Y-24133033D01*
X18801566Y-23999700D01*
X18801566Y-23833033D01*
X18834900Y-23699700D01*
X18868233Y-23633033D01*
X18901566Y-23599700D01*
X18968233Y-23566366D01*
X19501566Y-24199700D02*
X19534900Y-24233033D01*
X19501566Y-24266366D01*
X19468233Y-24233033D01*
X19501566Y-24199700D01*
X19501566Y-24266366D01*
X19968233Y-23566366D02*
X20034900Y-23566366D01*
X20101566Y-23599700D01*
X20134900Y-23633033D01*
X20168233Y-23699700D01*
X20201566Y-23833033D01*
X20201566Y-23999700D01*
X20168233Y-24133033D01*
X20134900Y-24199700D01*
X20101566Y-24233033D01*
X20034900Y-24266366D01*
X19968233Y-24266366D01*
X19901566Y-24233033D01*
X19868233Y-24199700D01*
X19834900Y-24133033D01*
X19801566Y-23999700D01*
X19801566Y-23833033D01*
X19834900Y-23699700D01*
X19868233Y-23633033D01*
X19901566Y-23599700D01*
X19968233Y-23566366D01*
X20601566Y-23866366D02*
X20534900Y-23833033D01*
X20501566Y-23799700D01*
X20468233Y-23733033D01*
X20468233Y-23699700D01*
X20501566Y-23633033D01*
X20534900Y-23599700D01*
X20601566Y-23566366D01*
X20734900Y-23566366D01*
X20801566Y-23599700D01*
X20834900Y-23633033D01*
X20868233Y-23699700D01*
X20868233Y-23733033D01*
X20834900Y-23799700D01*
X20801566Y-23833033D01*
X20734900Y-23866366D01*
X20601566Y-23866366D01*
X20534900Y-23899700D01*
X20501566Y-23933033D01*
X20468233Y-23999700D01*
X20468233Y-24133033D01*
X20501566Y-24199700D01*
X20534900Y-24233033D01*
X20601566Y-24266366D01*
X20734900Y-24266366D01*
X20801566Y-24233033D01*
X20834900Y-24199700D01*
X20868233Y-24133033D01*
X20868233Y-23999700D01*
X20834900Y-23933033D01*
X20801566Y-23899700D01*
X20734900Y-23866366D01*
X18968233Y-33726366D02*
X19034900Y-33726366D01*
X19101566Y-33759700D01*
X19134900Y-33793033D01*
X19168233Y-33859700D01*
X19201566Y-33993033D01*
X19201566Y-34159700D01*
X19168233Y-34293033D01*
X19134900Y-34359700D01*
X19101566Y-34393033D01*
X19034900Y-34426366D01*
X18968233Y-34426366D01*
X18901566Y-34393033D01*
X18868233Y-34359700D01*
X18834900Y-34293033D01*
X18801566Y-34159700D01*
X18801566Y-33993033D01*
X18834900Y-33859700D01*
X18868233Y-33793033D01*
X18901566Y-33759700D01*
X18968233Y-33726366D01*
X19501566Y-34359700D02*
X19534900Y-34393033D01*
X19501566Y-34426366D01*
X19468233Y-34393033D01*
X19501566Y-34359700D01*
X19501566Y-34426366D01*
X19801566Y-33793033D02*
X19834900Y-33759700D01*
X19901566Y-33726366D01*
X20068233Y-33726366D01*
X20134900Y-33759700D01*
X20168233Y-33793033D01*
X20201566Y-33859700D01*
X20201566Y-33926366D01*
X20168233Y-34026366D01*
X19768233Y-34426366D01*
X20201566Y-34426366D01*
X20634900Y-33726366D02*
X20701566Y-33726366D01*
X20768233Y-33759700D01*
X20801566Y-33793033D01*
X20834900Y-33859700D01*
X20868233Y-33993033D01*
X20868233Y-34159700D01*
X20834900Y-34293033D01*
X20801566Y-34359700D01*
X20768233Y-34393033D01*
X20701566Y-34426366D01*
X20634900Y-34426366D01*
X20568233Y-34393033D01*
X20534900Y-34359700D01*
X20501566Y-34293033D01*
X20468233Y-34159700D01*
X20468233Y-33993033D01*
X20501566Y-33859700D01*
X20534900Y-33793033D01*
X20568233Y-33759700D01*
X20634900Y-33726366D01*
X18968233Y-43886366D02*
X19034900Y-43886366D01*
X19101566Y-43919700D01*
X19134900Y-43953033D01*
X19168233Y-44019700D01*
X19201566Y-44153033D01*
X19201566Y-44319700D01*
X19168233Y-44453033D01*
X19134900Y-44519700D01*
X19101566Y-44553033D01*
X19034900Y-44586366D01*
X18968233Y-44586366D01*
X18901566Y-44553033D01*
X18868233Y-44519700D01*
X18834900Y-44453033D01*
X18801566Y-44319700D01*
X18801566Y-44153033D01*
X18834900Y-44019700D01*
X18868233Y-43953033D01*
X18901566Y-43919700D01*
X18968233Y-43886366D01*
X19501566Y-44519700D02*
X19534900Y-44553033D01*
X19501566Y-44586366D01*
X19468233Y-44553033D01*
X19501566Y-44519700D01*
X19501566Y-44586366D01*
X20201566Y-44586366D02*
X19801566Y-44586366D01*
X20001566Y-44586366D02*
X20001566Y-43886366D01*
X19934900Y-43986366D01*
X19868233Y-44053033D01*
X19801566Y-44086366D01*
X20868233Y-44586366D02*
X20468233Y-44586366D01*
X20668233Y-44586366D02*
X20668233Y-43886366D01*
X20601566Y-43986366D01*
X20534900Y-44053033D01*
X20468233Y-44086366D01*
X19301566Y-28679700D02*
X19234900Y-28646366D01*
X19134900Y-28646366D01*
X19034900Y-28679700D01*
X18968233Y-28746366D01*
X18934900Y-28813033D01*
X18901566Y-28946366D01*
X18901566Y-29046366D01*
X18934900Y-29179700D01*
X18968233Y-29246366D01*
X19034900Y-29313033D01*
X19134900Y-29346366D01*
X19201566Y-29346366D01*
X19301566Y-29313033D01*
X19334900Y-29279700D01*
X19334900Y-29046366D01*
X19201566Y-29046366D01*
X19634900Y-29346366D02*
X19634900Y-28646366D01*
X20034900Y-29346366D01*
X20034900Y-28646366D01*
X20368233Y-29346366D02*
X20368233Y-28646366D01*
X20534900Y-28646366D01*
X20634900Y-28679700D01*
X20701566Y-28746366D01*
X20734900Y-28813033D01*
X20768233Y-28946366D01*
X20768233Y-29046366D01*
X20734900Y-29179700D01*
X20701566Y-29246366D01*
X20634900Y-29313033D01*
X20534900Y-29346366D01*
X20368233Y-29346366D01*
X19301566Y-26139700D02*
X19234900Y-26106366D01*
X19134900Y-26106366D01*
X19034900Y-26139700D01*
X18968233Y-26206366D01*
X18934900Y-26273033D01*
X18901566Y-26406366D01*
X18901566Y-26506366D01*
X18934900Y-26639700D01*
X18968233Y-26706366D01*
X19034900Y-26773033D01*
X19134900Y-26806366D01*
X19201566Y-26806366D01*
X19301566Y-26773033D01*
X19334900Y-26739700D01*
X19334900Y-26506366D01*
X19201566Y-26506366D01*
X19634900Y-26806366D02*
X19634900Y-26106366D01*
X20034900Y-26806366D01*
X20034900Y-26106366D01*
X20368233Y-26806366D02*
X20368233Y-26106366D01*
X20534900Y-26106366D01*
X20634900Y-26139700D01*
X20701566Y-26206366D01*
X20734900Y-26273033D01*
X20768233Y-26406366D01*
X20768233Y-26506366D01*
X20734900Y-26639700D01*
X20701566Y-26706366D01*
X20634900Y-26773033D01*
X20534900Y-26806366D01*
X20368233Y-26806366D01*
%LPC*%
G36*
G01*
X30273500Y-26937400D02*
X30273500Y-26387400D01*
G75*
G02*
X30473500Y-26187400I200000J0D01*
G01*
X30873500Y-26187400D01*
G75*
G02*
X31073500Y-26387400I0J-200000D01*
G01*
X31073500Y-26937400D01*
G75*
G02*
X30873500Y-27137400I-200000J0D01*
G01*
X30473500Y-27137400D01*
G75*
G02*
X30273500Y-26937400I0J200000D01*
G01*
G37*
G36*
G01*
X28623500Y-26937400D02*
X28623500Y-26387400D01*
G75*
G02*
X28823500Y-26187400I200000J0D01*
G01*
X29223500Y-26187400D01*
G75*
G02*
X29423500Y-26387400I0J-200000D01*
G01*
X29423500Y-26937400D01*
G75*
G02*
X29223500Y-27137400I-200000J0D01*
G01*
X28823500Y-27137400D01*
G75*
G02*
X28623500Y-26937400I0J200000D01*
G01*
G37*
G36*
G01*
X23570300Y-26214600D02*
X23020300Y-26214600D01*
G75*
G02*
X22820300Y-26014600I0J200000D01*
G01*
X22820300Y-25614600D01*
G75*
G02*
X23020300Y-25414600I200000J0D01*
G01*
X23570300Y-25414600D01*
G75*
G02*
X23770300Y-25614600I0J-200000D01*
G01*
X23770300Y-26014600D01*
G75*
G02*
X23570300Y-26214600I-200000J0D01*
G01*
G37*
G36*
G01*
X23570300Y-27864600D02*
X23020300Y-27864600D01*
G75*
G02*
X22820300Y-27664600I0J200000D01*
G01*
X22820300Y-27264600D01*
G75*
G02*
X23020300Y-27064600I200000J0D01*
G01*
X23570300Y-27064600D01*
G75*
G02*
X23770300Y-27264600I0J-200000D01*
G01*
X23770300Y-27664600D01*
G75*
G02*
X23570300Y-27864600I-200000J0D01*
G01*
G37*
G36*
G01*
X26934500Y-28202500D02*
X27484500Y-28202500D01*
G75*
G02*
X27684500Y-28402500I0J-200000D01*
G01*
X27684500Y-28802500D01*
G75*
G02*
X27484500Y-29002500I-200000J0D01*
G01*
X26934500Y-29002500D01*
G75*
G02*
X26734500Y-28802500I0J200000D01*
G01*
X26734500Y-28402500D01*
G75*
G02*
X26934500Y-28202500I200000J0D01*
G01*
G37*
G36*
G01*
X26934500Y-26552500D02*
X27484500Y-26552500D01*
G75*
G02*
X27684500Y-26752500I0J-200000D01*
G01*
X27684500Y-27152500D01*
G75*
G02*
X27484500Y-27352500I-200000J0D01*
G01*
X26934500Y-27352500D01*
G75*
G02*
X26734500Y-27152500I0J200000D01*
G01*
X26734500Y-26752500D01*
G75*
G02*
X26934500Y-26552500I200000J0D01*
G01*
G37*
G36*
G01*
X32441000Y-24929500D02*
X32441000Y-25479500D01*
G75*
G02*
X32241000Y-25679500I-200000J0D01*
G01*
X31841000Y-25679500D01*
G75*
G02*
X31641000Y-25479500I0J200000D01*
G01*
X31641000Y-24929500D01*
G75*
G02*
X31841000Y-24729500I200000J0D01*
G01*
X32241000Y-24729500D01*
G75*
G02*
X32441000Y-24929500I0J-200000D01*
G01*
G37*
G36*
G01*
X34091000Y-24929500D02*
X34091000Y-25479500D01*
G75*
G02*
X33891000Y-25679500I-200000J0D01*
G01*
X33491000Y-25679500D01*
G75*
G02*
X33291000Y-25479500I0J200000D01*
G01*
X33291000Y-24929500D01*
G75*
G02*
X33491000Y-24729500I200000J0D01*
G01*
X33891000Y-24729500D01*
G75*
G02*
X34091000Y-24929500I0J-200000D01*
G01*
G37*
G36*
G01*
X29375400Y-31138700D02*
X29925400Y-31138700D01*
G75*
G02*
X30125400Y-31338700I0J-200000D01*
G01*
X30125400Y-31738700D01*
G75*
G02*
X29925400Y-31938700I-200000J0D01*
G01*
X29375400Y-31938700D01*
G75*
G02*
X29175400Y-31738700I0J200000D01*
G01*
X29175400Y-31338700D01*
G75*
G02*
X29375400Y-31138700I200000J0D01*
G01*
G37*
G36*
G01*
X29375400Y-29488700D02*
X29925400Y-29488700D01*
G75*
G02*
X30125400Y-29688700I0J-200000D01*
G01*
X30125400Y-30088700D01*
G75*
G02*
X29925400Y-30288700I-200000J0D01*
G01*
X29375400Y-30288700D01*
G75*
G02*
X29175400Y-30088700I0J200000D01*
G01*
X29175400Y-29688700D01*
G75*
G02*
X29375400Y-29488700I200000J0D01*
G01*
G37*
G36*
G01*
X25886800Y-26232300D02*
X25336800Y-26232300D01*
G75*
G02*
X25136800Y-26032300I0J200000D01*
G01*
X25136800Y-25632300D01*
G75*
G02*
X25336800Y-25432300I200000J0D01*
G01*
X25886800Y-25432300D01*
G75*
G02*
X26086800Y-25632300I0J-200000D01*
G01*
X26086800Y-26032300D01*
G75*
G02*
X25886800Y-26232300I-200000J0D01*
G01*
G37*
G36*
G01*
X25886800Y-27882300D02*
X25336800Y-27882300D01*
G75*
G02*
X25136800Y-27682300I0J200000D01*
G01*
X25136800Y-27282300D01*
G75*
G02*
X25336800Y-27082300I200000J0D01*
G01*
X25886800Y-27082300D01*
G75*
G02*
X26086800Y-27282300I0J-200000D01*
G01*
X26086800Y-27682300D01*
G75*
G02*
X25886800Y-27882300I-200000J0D01*
G01*
G37*
G36*
G01*
X25954200Y-32750550D02*
X25954200Y-32238050D01*
G75*
G02*
X26172950Y-32019300I218750J0D01*
G01*
X26610450Y-32019300D01*
G75*
G02*
X26829200Y-32238050I0J-218750D01*
G01*
X26829200Y-32750550D01*
G75*
G02*
X26610450Y-32969300I-218750J0D01*
G01*
X26172950Y-32969300D01*
G75*
G02*
X25954200Y-32750550I0J218750D01*
G01*
G37*
G36*
G01*
X24379200Y-32750550D02*
X24379200Y-32238050D01*
G75*
G02*
X24597950Y-32019300I218750J0D01*
G01*
X25035450Y-32019300D01*
G75*
G02*
X25254200Y-32238050I0J-218750D01*
G01*
X25254200Y-32750550D01*
G75*
G02*
X25035450Y-32969300I-218750J0D01*
G01*
X24597950Y-32969300D01*
G75*
G02*
X24379200Y-32750550I0J218750D01*
G01*
G37*
D13*
X25656800Y-29939000D03*
X23656800Y-30889000D03*
X23656800Y-28989000D03*
D14*
X22096400Y-29423200D03*
X22096400Y-31623200D03*
D15*
X31273400Y-30027700D03*
X33173400Y-30027700D03*
X33173400Y-32227700D03*
X32223400Y-32227700D03*
X31273400Y-32227700D03*
G36*
G01*
X33402250Y-27774400D02*
X33914750Y-27774400D01*
G75*
G02*
X34133500Y-27993150I0J-218750D01*
G01*
X34133500Y-28430650D01*
G75*
G02*
X33914750Y-28649400I-218750J0D01*
G01*
X33402250Y-28649400D01*
G75*
G02*
X33183500Y-28430650I0J218750D01*
G01*
X33183500Y-27993150D01*
G75*
G02*
X33402250Y-27774400I218750J0D01*
G01*
G37*
G36*
G01*
X33402250Y-26199400D02*
X33914750Y-26199400D01*
G75*
G02*
X34133500Y-26418150I0J-218750D01*
G01*
X34133500Y-26855650D01*
G75*
G02*
X33914750Y-27074400I-218750J0D01*
G01*
X33402250Y-27074400D01*
G75*
G02*
X33183500Y-26855650I0J218750D01*
G01*
X33183500Y-26418150D01*
G75*
G02*
X33402250Y-26199400I218750J0D01*
G01*
G37*
G36*
G01*
X31872200Y-28869500D02*
X31872200Y-28529500D01*
G75*
G02*
X32012200Y-28389500I140000J0D01*
G01*
X32292200Y-28389500D01*
G75*
G02*
X32432200Y-28529500I0J-140000D01*
G01*
X32432200Y-28869500D01*
G75*
G02*
X32292200Y-29009500I-140000J0D01*
G01*
X32012200Y-29009500D01*
G75*
G02*
X31872200Y-28869500I0J140000D01*
G01*
G37*
G36*
G01*
X30912200Y-28869500D02*
X30912200Y-28529500D01*
G75*
G02*
X31052200Y-28389500I140000J0D01*
G01*
X31332200Y-28389500D01*
G75*
G02*
X31472200Y-28529500I0J-140000D01*
G01*
X31472200Y-28869500D01*
G75*
G02*
X31332200Y-29009500I-140000J0D01*
G01*
X31052200Y-29009500D01*
G75*
G02*
X30912200Y-28869500I0J140000D01*
G01*
G37*
G36*
G01*
X23383600Y-32798900D02*
X23383600Y-32458900D01*
G75*
G02*
X23523600Y-32318900I140000J0D01*
G01*
X23803600Y-32318900D01*
G75*
G02*
X23943600Y-32458900I0J-140000D01*
G01*
X23943600Y-32798900D01*
G75*
G02*
X23803600Y-32938900I-140000J0D01*
G01*
X23523600Y-32938900D01*
G75*
G02*
X23383600Y-32798900I0J140000D01*
G01*
G37*
G36*
G01*
X22423600Y-32798900D02*
X22423600Y-32458900D01*
G75*
G02*
X22563600Y-32318900I140000J0D01*
G01*
X22843600Y-32318900D01*
G75*
G02*
X22983600Y-32458900I0J-140000D01*
G01*
X22983600Y-32798900D01*
G75*
G02*
X22843600Y-32938900I-140000J0D01*
G01*
X22563600Y-32938900D01*
G75*
G02*
X22423600Y-32798900I0J140000D01*
G01*
G37*
D16*
X33320000Y-45619600D03*
X33320000Y-44969600D03*
X33320000Y-44319600D03*
X33320000Y-43669600D03*
X33320000Y-43019600D03*
X33320000Y-42369600D03*
X33320000Y-41719600D03*
X33320000Y-41069600D03*
X33320000Y-40419600D03*
X33320000Y-39769600D03*
X33320000Y-39119600D03*
X33320000Y-38469600D03*
X33320000Y-37819600D03*
X33320000Y-37169600D03*
X33320000Y-36519600D03*
X33320000Y-35869600D03*
X33320000Y-35219600D03*
X22120000Y-35219600D03*
X22120000Y-35869600D03*
X22120000Y-36519600D03*
X22120000Y-37169600D03*
X22120000Y-37819600D03*
X22120000Y-38469600D03*
X22120000Y-39119600D03*
X22120000Y-39769600D03*
X22120000Y-40419600D03*
X22120000Y-41069600D03*
X22120000Y-41719600D03*
X22120000Y-42369600D03*
X22120000Y-43019600D03*
X22120000Y-43669600D03*
X22120000Y-44319600D03*
X22120000Y-44969600D03*
X22120000Y-45619600D03*
D17*
X32920000Y-34019600D03*
X32270000Y-34019600D03*
X31620000Y-34019600D03*
X30970000Y-34019600D03*
X30320000Y-34019600D03*
X29670000Y-34019600D03*
X29020000Y-34019600D03*
X28370000Y-34019600D03*
X27720000Y-34019600D03*
X27070000Y-34019600D03*
X26420000Y-34019600D03*
X25770000Y-34019600D03*
X25120000Y-34019600D03*
X24470000Y-34019600D03*
X23820000Y-34019600D03*
X23170000Y-34019600D03*
X22520000Y-34019600D03*
D16*
X23820000Y-44319600D03*
X23820000Y-43669600D03*
X23820000Y-43019600D03*
X23820000Y-42369600D03*
D17*
X23170000Y-45519600D03*
X23820000Y-45519600D03*
X24470000Y-45519600D03*
X25120000Y-45519600D03*
X25770000Y-45519600D03*
D18*
X29479600Y-24500000D03*
X26471600Y-24500000D03*
D19*
X22146300Y-19800000D03*
X33296900Y-19800000D03*
D20*
X33297200Y-23600000D03*
X22146300Y-23600000D03*
D21*
X24521600Y-24500000D03*
X30921600Y-24500000D03*
X30121600Y-24500000D03*
X25321600Y-24500000D03*
D18*
X26971600Y-24500000D03*
X28471600Y-24500000D03*
X27471600Y-24500000D03*
X27971600Y-24500000D03*
X28971600Y-24500000D03*
X25971600Y-24500000D03*
G36*
G01*
X21578550Y-27792200D02*
X22091050Y-27792200D01*
G75*
G02*
X22309800Y-28010950I0J-218750D01*
G01*
X22309800Y-28448450D01*
G75*
G02*
X22091050Y-28667200I-218750J0D01*
G01*
X21578550Y-28667200D01*
G75*
G02*
X21359800Y-28448450I0J218750D01*
G01*
X21359800Y-28010950D01*
G75*
G02*
X21578550Y-27792200I218750J0D01*
G01*
G37*
G36*
G01*
X21578550Y-26217200D02*
X22091050Y-26217200D01*
G75*
G02*
X22309800Y-26435950I0J-218750D01*
G01*
X22309800Y-26873450D01*
G75*
G02*
X22091050Y-27092200I-218750J0D01*
G01*
X21578550Y-27092200D01*
G75*
G02*
X21359800Y-26873450I0J218750D01*
G01*
X21359800Y-26435950D01*
G75*
G02*
X21578550Y-26217200I218750J0D01*
G01*
G37*
D22*
X20101600Y-20000000D03*
D23*
X35341600Y-20000000D03*
D24*
X35341600Y-22540000D03*
D23*
X35341600Y-25080000D03*
X35341600Y-27620000D03*
X35341600Y-30160000D03*
X35341600Y-32700000D03*
X35341600Y-35240000D03*
X35341600Y-37780000D03*
X35341600Y-40320000D03*
X35341600Y-42860000D03*
X35341600Y-45400000D03*
X35341600Y-47940000D03*
X35341600Y-50480000D03*
X20101600Y-50480000D03*
X20101600Y-47940000D03*
X20101600Y-45400000D03*
X20101600Y-42860000D03*
X20101600Y-40320000D03*
X20101600Y-37780000D03*
X20101600Y-35240000D03*
X20101600Y-32700000D03*
X20101600Y-30160000D03*
X20101600Y-27620000D03*
X20101600Y-25080000D03*
X20101600Y-22540000D03*
M02*
