G04 #@! TF.GenerationSoftware,KiCad,Pcbnew,(5.1.10-1-10_14)*
G04 #@! TF.CreationDate,2021-09-18T19:46:59+09:00*
G04 #@! TF.ProjectId,nrfmicro,6e72666d-6963-4726-9f2e-6b696361645f,rev?*
G04 #@! TF.SameCoordinates,Original*
G04 #@! TF.FileFunction,Copper,L2,Bot*
G04 #@! TF.FilePolarity,Positive*
%FSLAX46Y46*%
G04 Gerber Fmt 4.6, Leading zero omitted, Abs format (unit mm)*
G04 Created by KiCad (PCBNEW (5.1.10-1-10_14)) date 2021-09-18 19:46:59*
%MOMM*%
%LPD*%
G01*
G04 APERTURE LIST*
G04 #@! TA.AperFunction,ComponentPad*
%ADD10O,1.000000X2.200000*%
G04 #@! TD*
G04 #@! TA.AperFunction,ComponentPad*
%ADD11O,1.000000X1.800000*%
G04 #@! TD*
G04 #@! TA.AperFunction,SMDPad,CuDef*
%ADD12R,1.270000X1.270000*%
G04 #@! TD*
G04 #@! TA.AperFunction,ComponentPad*
%ADD13R,1.270000X1.270000*%
G04 #@! TD*
G04 #@! TA.AperFunction,ComponentPad*
%ADD14C,1.270000*%
G04 #@! TD*
G04 #@! TA.AperFunction,ComponentPad*
%ADD15C,1.250000*%
G04 #@! TD*
G04 #@! TA.AperFunction,ViaPad*
%ADD16C,0.600000*%
G04 #@! TD*
G04 #@! TA.AperFunction,Conductor*
%ADD17C,0.200000*%
G04 #@! TD*
G04 APERTURE END LIST*
D10*
X22146300Y-19800000D03*
X33296900Y-19800000D03*
D11*
X33297200Y-23600000D03*
X22146300Y-23600000D03*
D12*
X27721600Y-40320000D03*
X27721600Y-42860000D03*
X27721600Y-45400000D03*
X27721600Y-47940000D03*
X30261600Y-47940000D03*
X30261600Y-45400000D03*
X30261600Y-42860000D03*
X30261600Y-40320000D03*
D13*
X20101600Y-20000000D03*
D14*
X35341600Y-20000000D03*
D15*
X35341600Y-22540000D03*
D14*
X35341600Y-25080000D03*
X35341600Y-27620000D03*
X35341600Y-30160000D03*
X35341600Y-32700000D03*
X35341600Y-35240000D03*
X35341600Y-37780000D03*
X35341600Y-40320000D03*
X35341600Y-42860000D03*
X35341600Y-45400000D03*
X35341600Y-47940000D03*
X35341600Y-50480000D03*
X20101600Y-50480000D03*
X20101600Y-47940000D03*
X20101600Y-45400000D03*
X20101600Y-42860000D03*
X20101600Y-40320000D03*
X20101600Y-37780000D03*
X20101600Y-35240000D03*
X20101600Y-32700000D03*
X20101600Y-30160000D03*
X20101600Y-27620000D03*
X20101600Y-25080000D03*
X20101600Y-22540000D03*
D16*
X29121100Y-44586600D03*
X21675300Y-32398600D03*
X31018500Y-35327500D03*
X28345000Y-28806600D03*
X24864700Y-26764000D03*
X33863200Y-33312100D03*
X32152200Y-27885700D03*
X30122800Y-25280700D03*
X24760900Y-25420400D03*
X25935700Y-28598600D03*
X32899200Y-31063200D03*
X28624400Y-35918200D03*
X27006300Y-25303500D03*
X27968900Y-25293400D03*
X23766600Y-35730400D03*
X28001900Y-25910600D03*
X23076300Y-37420700D03*
X21490400Y-30190300D03*
X27429500Y-41721500D03*
X25259800Y-42270300D03*
X24640200Y-36179100D03*
X32393100Y-38188500D03*
X25311900Y-31142100D03*
X20913500Y-41436800D03*
X23037800Y-39071100D03*
X26644800Y-31517200D03*
X27742600Y-34926600D03*
X23770300Y-34856500D03*
X23775400Y-31838900D03*
D17*
X20101600Y-30160000D02*
X21675300Y-31733700D01*
X21675300Y-31733700D02*
X21675300Y-32398600D01*
X22146300Y-20500100D02*
X22146300Y-23600000D01*
X30261600Y-47940000D02*
X30261600Y-47004700D01*
X30261600Y-47004700D02*
X30144700Y-47004700D01*
X30144700Y-47004700D02*
X28656900Y-45516900D01*
X28656900Y-45516900D02*
X28656900Y-45400000D01*
X27721600Y-45400000D02*
X28656900Y-45400000D01*
X28656900Y-45400000D02*
X28656900Y-45050800D01*
X28656900Y-45050800D02*
X29121100Y-44586600D01*
X21036900Y-20000000D02*
X21537000Y-20500100D01*
X21537000Y-20500100D02*
X22146300Y-20500100D01*
X22146300Y-19800000D02*
X22146300Y-20500100D01*
X20101600Y-20000000D02*
X21036900Y-20000000D01*
X35341600Y-27620000D02*
X34094600Y-28867000D01*
X34094600Y-28867000D02*
X34094600Y-31423200D01*
X34094600Y-31423200D02*
X31018500Y-34499300D01*
X31018500Y-34499300D02*
X31018500Y-35327500D01*
X24864700Y-26764000D02*
X24864700Y-28376500D01*
X24864700Y-28376500D02*
X25687100Y-29198900D01*
X25687100Y-29198900D02*
X27952700Y-29198900D01*
X27952700Y-29198900D02*
X28345000Y-28806600D01*
X30625700Y-36265200D02*
X30625700Y-39020600D01*
X30625700Y-39020600D02*
X30261600Y-39384700D01*
X30625700Y-27885700D02*
X30418200Y-28093200D01*
X30418200Y-28093200D02*
X30418200Y-36057700D01*
X30418200Y-36057700D02*
X30625700Y-36265200D01*
X30625700Y-36265200D02*
X30999400Y-36265200D01*
X30999400Y-36265200D02*
X33863200Y-33401400D01*
X33863200Y-33401400D02*
X33863200Y-33312100D01*
X24760900Y-25420400D02*
X24760900Y-26660200D01*
X24760900Y-26660200D02*
X24864700Y-26764000D01*
X30625700Y-27885700D02*
X30625700Y-25783600D01*
X30625700Y-25783600D02*
X30122800Y-25280700D01*
X30261600Y-40320000D02*
X30261600Y-39384700D01*
X32152200Y-27885700D02*
X30625700Y-27885700D01*
X32899200Y-24957600D02*
X32588500Y-24646900D01*
X32588500Y-24646900D02*
X26791300Y-24646900D01*
X26791300Y-24646900D02*
X25935700Y-25502500D01*
X25935700Y-25502500D02*
X25935700Y-28598600D01*
X35341600Y-22540000D02*
X35341600Y-23107100D01*
X35341600Y-23107100D02*
X33491100Y-24957600D01*
X33491100Y-24957600D02*
X32899200Y-24957600D01*
X32899200Y-24957600D02*
X32899200Y-31063200D01*
X29326200Y-35918200D02*
X29378700Y-35865700D01*
X29378700Y-35865700D02*
X29378700Y-26410700D01*
X29378700Y-26410700D02*
X28261400Y-25293400D01*
X28261400Y-25293400D02*
X27968900Y-25293400D01*
X30261600Y-44464700D02*
X30378500Y-44464700D01*
X30378500Y-44464700D02*
X31197000Y-43646200D01*
X31197000Y-43646200D02*
X31197000Y-42037900D01*
X31197000Y-42037900D02*
X30683400Y-41524300D01*
X30683400Y-41524300D02*
X29726000Y-41524300D01*
X29726000Y-41524300D02*
X29326200Y-41124500D01*
X29326200Y-41124500D02*
X29326200Y-35918200D01*
X28624400Y-35918200D02*
X29326200Y-35918200D01*
X27968900Y-25293400D02*
X27016400Y-25293400D01*
X30261600Y-45400000D02*
X30261600Y-44464700D01*
X27016400Y-25293400D02*
X27006300Y-25303500D01*
X28024100Y-35669600D02*
X25266900Y-35669600D01*
X25266900Y-35669600D02*
X25113600Y-35516300D01*
X25113600Y-35516300D02*
X23980700Y-35516300D01*
X23980700Y-35516300D02*
X23766600Y-35730400D01*
X28024100Y-35669600D02*
X28024100Y-36166800D01*
X28024100Y-36166800D02*
X28806100Y-36948800D01*
X28806100Y-36948800D02*
X28806100Y-41183100D01*
X28806100Y-41183100D02*
X29713500Y-42090500D01*
X29713500Y-42090500D02*
X30261600Y-42090500D01*
X28001900Y-25910600D02*
X28958500Y-26867200D01*
X28958500Y-26867200D02*
X28958500Y-34735200D01*
X28958500Y-34735200D02*
X28024100Y-35669600D01*
X30261600Y-42860000D02*
X30261600Y-42090500D01*
X21490400Y-30190300D02*
X22510200Y-31210100D01*
X22510200Y-31210100D02*
X22510200Y-36854600D01*
X22510200Y-36854600D02*
X23076300Y-37420700D01*
X27721600Y-40320000D02*
X27721600Y-41429400D01*
X27721600Y-41429400D02*
X27429500Y-41721500D01*
X27721600Y-42860000D02*
X25849500Y-42860000D01*
X25849500Y-42860000D02*
X25259800Y-42270300D01*
X27721600Y-47940000D02*
X27721600Y-47004700D01*
X27721600Y-47004700D02*
X27604700Y-47004700D01*
X27604700Y-47004700D02*
X24640200Y-44040200D01*
X24640200Y-44040200D02*
X24640200Y-36179100D01*
X35341600Y-35240000D02*
X32393100Y-38188500D01*
X20101600Y-45400000D02*
X23678900Y-41822700D01*
X23678900Y-41822700D02*
X23678900Y-37172900D01*
X23678900Y-37172900D02*
X23159600Y-36653600D01*
X23159600Y-36653600D02*
X23159600Y-31556800D01*
X23159600Y-31556800D02*
X23574300Y-31142100D01*
X23574300Y-31142100D02*
X25311900Y-31142100D01*
X20101600Y-37780000D02*
X21037000Y-38715400D01*
X21037000Y-38715400D02*
X21037000Y-41313300D01*
X21037000Y-41313300D02*
X20913500Y-41436800D01*
X20101600Y-32700000D02*
X21037000Y-33635400D01*
X21037000Y-33635400D02*
X21037000Y-37070300D01*
X21037000Y-37070300D02*
X23037800Y-39071100D01*
X20101600Y-25080000D02*
X26538800Y-31517200D01*
X26538800Y-31517200D02*
X26644800Y-31517200D01*
X20101600Y-22540000D02*
X21341500Y-23779900D01*
X21341500Y-23779900D02*
X21341500Y-25419400D01*
X21341500Y-25419400D02*
X25521300Y-29599200D01*
X25521300Y-29599200D02*
X25617700Y-29599200D01*
X25617700Y-29599200D02*
X27742500Y-31724000D01*
X27742500Y-31724000D02*
X27742500Y-34926600D01*
X27742500Y-34926600D02*
X27742600Y-34926600D01*
X23770300Y-34856500D02*
X23775400Y-34851400D01*
X23775400Y-34851400D02*
X23775400Y-31838900D01*
M02*
